%
M48
M72
T01C0.03150
T02C0.03937
T03C0.04724
T04C0.18750
%
T01
X240000Y95000
X250000Y95000
X260000Y95000
X270000Y95000
X280000Y95000
X290000Y95000
X300000Y95000
X310000Y95000
X325000Y95000
X335000Y95000
X345000Y95000
X355000Y95000
X365000Y95000
X375000Y95000
X385000Y95000
X395000Y95000
X415000Y95000
X425000Y95000
X435000Y95000
X445000Y95000
X455000Y95000
X465000Y95000
X475000Y95000
X485000Y95000
X515000Y95000
X515000Y105000
X515000Y115000
X525000Y115000
X525000Y105000
X525000Y95000
X525000Y125000
X525000Y135000
X515000Y135000
X515000Y125000
X515000Y145000
X515000Y155000
X515000Y165000
X525000Y165000
X525000Y155000
X525000Y145000
X525000Y175000
X525000Y185000
X515000Y185000
X515000Y175000
X515000Y195000
X515000Y205000
X525000Y205000
X525000Y195000
X525000Y215000
X525000Y225000
X525000Y235000
X515000Y235000
X515000Y225000
X515000Y215000
X515000Y245000
X515000Y255000
X525000Y255000
X525000Y245000
X525000Y265000
X515000Y265000
X505000Y285000
X495000Y285000
X485000Y285000
X475000Y285000
X465000Y285000
X455000Y285000
X445000Y285000
X435000Y285000
X415000Y285000
X405000Y285000
X395000Y285000
X385000Y285000
X375000Y285000
X365000Y285000
X355000Y285000
X345000Y285000
X325000Y285000
X315000Y285000
X305000Y285000
X295000Y285000
X285000Y285000
X275000Y285000
X335000Y250000
X470000Y375000
X625000Y220000
X465000Y60000
X430000Y-20000
X520000Y-100000
X630000Y-10000
X260000Y-25000
T02
X-55000Y95000
X-65000Y95000
X-75000Y95000
X-85000Y95000
X-95000Y95000
X-105000Y95000
X-115000Y95000
X-125000Y95000
X-140000Y95000
X-150000Y95000
X-160000Y95000
X-170000Y95000
X-180000Y95000
X-190000Y95000
X-200000Y95000
X-210000Y95000
X-205000Y280000
X-215000Y280000
X-195000Y280000
X-185000Y280000
X-175000Y280000
X-165000Y280000
X-130000Y285000
X-120000Y285000
X-110000Y285000
X-100000Y285000
X-90000Y285000
X-80000Y285000
X410000Y20000
X420000Y20000
X430000Y20000
X440000Y20000
X450000Y20000
X460000Y20000
X475000Y-70000
X485000Y-70000
X495000Y-70000
X705000Y-70000
X705000Y-80000
X705000Y-90000
X705000Y-100000
X705000Y-60000
X705000Y-50000
X705000Y-40000
X705000Y20000
X705000Y30000
X705000Y40000
X705000Y50000
X705000Y60000
X705000Y70000
X705000Y80000
X705000Y135000
X705000Y145000
X705000Y155000
X705000Y165000
X705000Y175000
X705000Y185000
X705000Y195000
X705000Y250000
X705000Y260000
X705000Y270000
X705000Y280000
X705000Y290000
X705000Y300000
X705000Y310000
X710000Y365000
X710000Y375000
X710000Y385000
X710000Y395000
X710000Y405000
X710000Y415000
X710000Y425000
T03
X405000Y195000
X395000Y195000
X395000Y185000
X395000Y175000
X405000Y175000
X405000Y185000
X-215000Y185000
X-215000Y175000
X-225000Y175000
X-225000Y185000
X-225000Y195000
X-215000Y195000
T04
X-265000Y425000
X825000Y425000
X825000Y-180000
X-265000Y-180000
M30
