G75*
%MOIN*%
%OFA0B0*%
%FSLAX25Y25*%
%IPPOS*%
%LPD*%
%AMOC8*
5,1,8,0,0,1.08239X$1,22.5*
%
%ADD10C,0.00000*%
%ADD11C,0.00500*%
%ADD12C,0.00400*%
%ADD13C,0.01000*%
D10*
X-0285000Y-0200000D02*
X-0285000Y0443701D01*
X0844921Y0443701D01*
X0844921Y-0200000D01*
X-0285000Y-0200000D01*
X-0274375Y-0180000D02*
X-0274372Y-0179770D01*
X-0274364Y-0179540D01*
X-0274350Y-0179310D01*
X-0274330Y-0179081D01*
X-0274304Y-0178852D01*
X-0274274Y-0178624D01*
X-0274237Y-0178397D01*
X-0274195Y-0178171D01*
X-0274147Y-0177946D01*
X-0274094Y-0177722D01*
X-0274035Y-0177500D01*
X-0273971Y-0177279D01*
X-0273902Y-0177059D01*
X-0273827Y-0176842D01*
X-0273747Y-0176626D01*
X-0273661Y-0176412D01*
X-0273571Y-0176201D01*
X-0273475Y-0175992D01*
X-0273374Y-0175785D01*
X-0273268Y-0175581D01*
X-0273157Y-0175379D01*
X-0273041Y-0175180D01*
X-0272921Y-0174984D01*
X-0272795Y-0174792D01*
X-0272665Y-0174602D01*
X-0272530Y-0174415D01*
X-0272391Y-0174232D01*
X-0272247Y-0174053D01*
X-0272099Y-0173877D01*
X-0271946Y-0173704D01*
X-0271790Y-0173536D01*
X-0271629Y-0173371D01*
X-0271464Y-0173210D01*
X-0271296Y-0173054D01*
X-0271123Y-0172901D01*
X-0270947Y-0172753D01*
X-0270768Y-0172609D01*
X-0270585Y-0172470D01*
X-0270398Y-0172335D01*
X-0270208Y-0172205D01*
X-0270016Y-0172079D01*
X-0269820Y-0171959D01*
X-0269621Y-0171843D01*
X-0269419Y-0171732D01*
X-0269215Y-0171626D01*
X-0269008Y-0171525D01*
X-0268799Y-0171429D01*
X-0268588Y-0171339D01*
X-0268374Y-0171253D01*
X-0268158Y-0171173D01*
X-0267941Y-0171098D01*
X-0267721Y-0171029D01*
X-0267500Y-0170965D01*
X-0267278Y-0170906D01*
X-0267054Y-0170853D01*
X-0266829Y-0170805D01*
X-0266603Y-0170763D01*
X-0266376Y-0170726D01*
X-0266148Y-0170696D01*
X-0265919Y-0170670D01*
X-0265690Y-0170650D01*
X-0265460Y-0170636D01*
X-0265230Y-0170628D01*
X-0265000Y-0170625D01*
X-0264770Y-0170628D01*
X-0264540Y-0170636D01*
X-0264310Y-0170650D01*
X-0264081Y-0170670D01*
X-0263852Y-0170696D01*
X-0263624Y-0170726D01*
X-0263397Y-0170763D01*
X-0263171Y-0170805D01*
X-0262946Y-0170853D01*
X-0262722Y-0170906D01*
X-0262500Y-0170965D01*
X-0262279Y-0171029D01*
X-0262059Y-0171098D01*
X-0261842Y-0171173D01*
X-0261626Y-0171253D01*
X-0261412Y-0171339D01*
X-0261201Y-0171429D01*
X-0260992Y-0171525D01*
X-0260785Y-0171626D01*
X-0260581Y-0171732D01*
X-0260379Y-0171843D01*
X-0260180Y-0171959D01*
X-0259984Y-0172079D01*
X-0259792Y-0172205D01*
X-0259602Y-0172335D01*
X-0259415Y-0172470D01*
X-0259232Y-0172609D01*
X-0259053Y-0172753D01*
X-0258877Y-0172901D01*
X-0258704Y-0173054D01*
X-0258536Y-0173210D01*
X-0258371Y-0173371D01*
X-0258210Y-0173536D01*
X-0258054Y-0173704D01*
X-0257901Y-0173877D01*
X-0257753Y-0174053D01*
X-0257609Y-0174232D01*
X-0257470Y-0174415D01*
X-0257335Y-0174602D01*
X-0257205Y-0174792D01*
X-0257079Y-0174984D01*
X-0256959Y-0175180D01*
X-0256843Y-0175379D01*
X-0256732Y-0175581D01*
X-0256626Y-0175785D01*
X-0256525Y-0175992D01*
X-0256429Y-0176201D01*
X-0256339Y-0176412D01*
X-0256253Y-0176626D01*
X-0256173Y-0176842D01*
X-0256098Y-0177059D01*
X-0256029Y-0177279D01*
X-0255965Y-0177500D01*
X-0255906Y-0177722D01*
X-0255853Y-0177946D01*
X-0255805Y-0178171D01*
X-0255763Y-0178397D01*
X-0255726Y-0178624D01*
X-0255696Y-0178852D01*
X-0255670Y-0179081D01*
X-0255650Y-0179310D01*
X-0255636Y-0179540D01*
X-0255628Y-0179770D01*
X-0255625Y-0180000D01*
X-0255628Y-0180230D01*
X-0255636Y-0180460D01*
X-0255650Y-0180690D01*
X-0255670Y-0180919D01*
X-0255696Y-0181148D01*
X-0255726Y-0181376D01*
X-0255763Y-0181603D01*
X-0255805Y-0181829D01*
X-0255853Y-0182054D01*
X-0255906Y-0182278D01*
X-0255965Y-0182500D01*
X-0256029Y-0182721D01*
X-0256098Y-0182941D01*
X-0256173Y-0183158D01*
X-0256253Y-0183374D01*
X-0256339Y-0183588D01*
X-0256429Y-0183799D01*
X-0256525Y-0184008D01*
X-0256626Y-0184215D01*
X-0256732Y-0184419D01*
X-0256843Y-0184621D01*
X-0256959Y-0184820D01*
X-0257079Y-0185016D01*
X-0257205Y-0185208D01*
X-0257335Y-0185398D01*
X-0257470Y-0185585D01*
X-0257609Y-0185768D01*
X-0257753Y-0185947D01*
X-0257901Y-0186123D01*
X-0258054Y-0186296D01*
X-0258210Y-0186464D01*
X-0258371Y-0186629D01*
X-0258536Y-0186790D01*
X-0258704Y-0186946D01*
X-0258877Y-0187099D01*
X-0259053Y-0187247D01*
X-0259232Y-0187391D01*
X-0259415Y-0187530D01*
X-0259602Y-0187665D01*
X-0259792Y-0187795D01*
X-0259984Y-0187921D01*
X-0260180Y-0188041D01*
X-0260379Y-0188157D01*
X-0260581Y-0188268D01*
X-0260785Y-0188374D01*
X-0260992Y-0188475D01*
X-0261201Y-0188571D01*
X-0261412Y-0188661D01*
X-0261626Y-0188747D01*
X-0261842Y-0188827D01*
X-0262059Y-0188902D01*
X-0262279Y-0188971D01*
X-0262500Y-0189035D01*
X-0262722Y-0189094D01*
X-0262946Y-0189147D01*
X-0263171Y-0189195D01*
X-0263397Y-0189237D01*
X-0263624Y-0189274D01*
X-0263852Y-0189304D01*
X-0264081Y-0189330D01*
X-0264310Y-0189350D01*
X-0264540Y-0189364D01*
X-0264770Y-0189372D01*
X-0265000Y-0189375D01*
X-0265230Y-0189372D01*
X-0265460Y-0189364D01*
X-0265690Y-0189350D01*
X-0265919Y-0189330D01*
X-0266148Y-0189304D01*
X-0266376Y-0189274D01*
X-0266603Y-0189237D01*
X-0266829Y-0189195D01*
X-0267054Y-0189147D01*
X-0267278Y-0189094D01*
X-0267500Y-0189035D01*
X-0267721Y-0188971D01*
X-0267941Y-0188902D01*
X-0268158Y-0188827D01*
X-0268374Y-0188747D01*
X-0268588Y-0188661D01*
X-0268799Y-0188571D01*
X-0269008Y-0188475D01*
X-0269215Y-0188374D01*
X-0269419Y-0188268D01*
X-0269621Y-0188157D01*
X-0269820Y-0188041D01*
X-0270016Y-0187921D01*
X-0270208Y-0187795D01*
X-0270398Y-0187665D01*
X-0270585Y-0187530D01*
X-0270768Y-0187391D01*
X-0270947Y-0187247D01*
X-0271123Y-0187099D01*
X-0271296Y-0186946D01*
X-0271464Y-0186790D01*
X-0271629Y-0186629D01*
X-0271790Y-0186464D01*
X-0271946Y-0186296D01*
X-0272099Y-0186123D01*
X-0272247Y-0185947D01*
X-0272391Y-0185768D01*
X-0272530Y-0185585D01*
X-0272665Y-0185398D01*
X-0272795Y-0185208D01*
X-0272921Y-0185016D01*
X-0273041Y-0184820D01*
X-0273157Y-0184621D01*
X-0273268Y-0184419D01*
X-0273374Y-0184215D01*
X-0273475Y-0184008D01*
X-0273571Y-0183799D01*
X-0273661Y-0183588D01*
X-0273747Y-0183374D01*
X-0273827Y-0183158D01*
X-0273902Y-0182941D01*
X-0273971Y-0182721D01*
X-0274035Y-0182500D01*
X-0274094Y-0182278D01*
X-0274147Y-0182054D01*
X-0274195Y-0181829D01*
X-0274237Y-0181603D01*
X-0274274Y-0181376D01*
X-0274304Y-0181148D01*
X-0274330Y-0180919D01*
X-0274350Y-0180690D01*
X-0274364Y-0180460D01*
X-0274372Y-0180230D01*
X-0274375Y-0180000D01*
X0815625Y-0180000D02*
X0815628Y-0179770D01*
X0815636Y-0179540D01*
X0815650Y-0179310D01*
X0815670Y-0179081D01*
X0815696Y-0178852D01*
X0815726Y-0178624D01*
X0815763Y-0178397D01*
X0815805Y-0178171D01*
X0815853Y-0177946D01*
X0815906Y-0177722D01*
X0815965Y-0177500D01*
X0816029Y-0177279D01*
X0816098Y-0177059D01*
X0816173Y-0176842D01*
X0816253Y-0176626D01*
X0816339Y-0176412D01*
X0816429Y-0176201D01*
X0816525Y-0175992D01*
X0816626Y-0175785D01*
X0816732Y-0175581D01*
X0816843Y-0175379D01*
X0816959Y-0175180D01*
X0817079Y-0174984D01*
X0817205Y-0174792D01*
X0817335Y-0174602D01*
X0817470Y-0174415D01*
X0817609Y-0174232D01*
X0817753Y-0174053D01*
X0817901Y-0173877D01*
X0818054Y-0173704D01*
X0818210Y-0173536D01*
X0818371Y-0173371D01*
X0818536Y-0173210D01*
X0818704Y-0173054D01*
X0818877Y-0172901D01*
X0819053Y-0172753D01*
X0819232Y-0172609D01*
X0819415Y-0172470D01*
X0819602Y-0172335D01*
X0819792Y-0172205D01*
X0819984Y-0172079D01*
X0820180Y-0171959D01*
X0820379Y-0171843D01*
X0820581Y-0171732D01*
X0820785Y-0171626D01*
X0820992Y-0171525D01*
X0821201Y-0171429D01*
X0821412Y-0171339D01*
X0821626Y-0171253D01*
X0821842Y-0171173D01*
X0822059Y-0171098D01*
X0822279Y-0171029D01*
X0822500Y-0170965D01*
X0822722Y-0170906D01*
X0822946Y-0170853D01*
X0823171Y-0170805D01*
X0823397Y-0170763D01*
X0823624Y-0170726D01*
X0823852Y-0170696D01*
X0824081Y-0170670D01*
X0824310Y-0170650D01*
X0824540Y-0170636D01*
X0824770Y-0170628D01*
X0825000Y-0170625D01*
X0825230Y-0170628D01*
X0825460Y-0170636D01*
X0825690Y-0170650D01*
X0825919Y-0170670D01*
X0826148Y-0170696D01*
X0826376Y-0170726D01*
X0826603Y-0170763D01*
X0826829Y-0170805D01*
X0827054Y-0170853D01*
X0827278Y-0170906D01*
X0827500Y-0170965D01*
X0827721Y-0171029D01*
X0827941Y-0171098D01*
X0828158Y-0171173D01*
X0828374Y-0171253D01*
X0828588Y-0171339D01*
X0828799Y-0171429D01*
X0829008Y-0171525D01*
X0829215Y-0171626D01*
X0829419Y-0171732D01*
X0829621Y-0171843D01*
X0829820Y-0171959D01*
X0830016Y-0172079D01*
X0830208Y-0172205D01*
X0830398Y-0172335D01*
X0830585Y-0172470D01*
X0830768Y-0172609D01*
X0830947Y-0172753D01*
X0831123Y-0172901D01*
X0831296Y-0173054D01*
X0831464Y-0173210D01*
X0831629Y-0173371D01*
X0831790Y-0173536D01*
X0831946Y-0173704D01*
X0832099Y-0173877D01*
X0832247Y-0174053D01*
X0832391Y-0174232D01*
X0832530Y-0174415D01*
X0832665Y-0174602D01*
X0832795Y-0174792D01*
X0832921Y-0174984D01*
X0833041Y-0175180D01*
X0833157Y-0175379D01*
X0833268Y-0175581D01*
X0833374Y-0175785D01*
X0833475Y-0175992D01*
X0833571Y-0176201D01*
X0833661Y-0176412D01*
X0833747Y-0176626D01*
X0833827Y-0176842D01*
X0833902Y-0177059D01*
X0833971Y-0177279D01*
X0834035Y-0177500D01*
X0834094Y-0177722D01*
X0834147Y-0177946D01*
X0834195Y-0178171D01*
X0834237Y-0178397D01*
X0834274Y-0178624D01*
X0834304Y-0178852D01*
X0834330Y-0179081D01*
X0834350Y-0179310D01*
X0834364Y-0179540D01*
X0834372Y-0179770D01*
X0834375Y-0180000D01*
X0834372Y-0180230D01*
X0834364Y-0180460D01*
X0834350Y-0180690D01*
X0834330Y-0180919D01*
X0834304Y-0181148D01*
X0834274Y-0181376D01*
X0834237Y-0181603D01*
X0834195Y-0181829D01*
X0834147Y-0182054D01*
X0834094Y-0182278D01*
X0834035Y-0182500D01*
X0833971Y-0182721D01*
X0833902Y-0182941D01*
X0833827Y-0183158D01*
X0833747Y-0183374D01*
X0833661Y-0183588D01*
X0833571Y-0183799D01*
X0833475Y-0184008D01*
X0833374Y-0184215D01*
X0833268Y-0184419D01*
X0833157Y-0184621D01*
X0833041Y-0184820D01*
X0832921Y-0185016D01*
X0832795Y-0185208D01*
X0832665Y-0185398D01*
X0832530Y-0185585D01*
X0832391Y-0185768D01*
X0832247Y-0185947D01*
X0832099Y-0186123D01*
X0831946Y-0186296D01*
X0831790Y-0186464D01*
X0831629Y-0186629D01*
X0831464Y-0186790D01*
X0831296Y-0186946D01*
X0831123Y-0187099D01*
X0830947Y-0187247D01*
X0830768Y-0187391D01*
X0830585Y-0187530D01*
X0830398Y-0187665D01*
X0830208Y-0187795D01*
X0830016Y-0187921D01*
X0829820Y-0188041D01*
X0829621Y-0188157D01*
X0829419Y-0188268D01*
X0829215Y-0188374D01*
X0829008Y-0188475D01*
X0828799Y-0188571D01*
X0828588Y-0188661D01*
X0828374Y-0188747D01*
X0828158Y-0188827D01*
X0827941Y-0188902D01*
X0827721Y-0188971D01*
X0827500Y-0189035D01*
X0827278Y-0189094D01*
X0827054Y-0189147D01*
X0826829Y-0189195D01*
X0826603Y-0189237D01*
X0826376Y-0189274D01*
X0826148Y-0189304D01*
X0825919Y-0189330D01*
X0825690Y-0189350D01*
X0825460Y-0189364D01*
X0825230Y-0189372D01*
X0825000Y-0189375D01*
X0824770Y-0189372D01*
X0824540Y-0189364D01*
X0824310Y-0189350D01*
X0824081Y-0189330D01*
X0823852Y-0189304D01*
X0823624Y-0189274D01*
X0823397Y-0189237D01*
X0823171Y-0189195D01*
X0822946Y-0189147D01*
X0822722Y-0189094D01*
X0822500Y-0189035D01*
X0822279Y-0188971D01*
X0822059Y-0188902D01*
X0821842Y-0188827D01*
X0821626Y-0188747D01*
X0821412Y-0188661D01*
X0821201Y-0188571D01*
X0820992Y-0188475D01*
X0820785Y-0188374D01*
X0820581Y-0188268D01*
X0820379Y-0188157D01*
X0820180Y-0188041D01*
X0819984Y-0187921D01*
X0819792Y-0187795D01*
X0819602Y-0187665D01*
X0819415Y-0187530D01*
X0819232Y-0187391D01*
X0819053Y-0187247D01*
X0818877Y-0187099D01*
X0818704Y-0186946D01*
X0818536Y-0186790D01*
X0818371Y-0186629D01*
X0818210Y-0186464D01*
X0818054Y-0186296D01*
X0817901Y-0186123D01*
X0817753Y-0185947D01*
X0817609Y-0185768D01*
X0817470Y-0185585D01*
X0817335Y-0185398D01*
X0817205Y-0185208D01*
X0817079Y-0185016D01*
X0816959Y-0184820D01*
X0816843Y-0184621D01*
X0816732Y-0184419D01*
X0816626Y-0184215D01*
X0816525Y-0184008D01*
X0816429Y-0183799D01*
X0816339Y-0183588D01*
X0816253Y-0183374D01*
X0816173Y-0183158D01*
X0816098Y-0182941D01*
X0816029Y-0182721D01*
X0815965Y-0182500D01*
X0815906Y-0182278D01*
X0815853Y-0182054D01*
X0815805Y-0181829D01*
X0815763Y-0181603D01*
X0815726Y-0181376D01*
X0815696Y-0181148D01*
X0815670Y-0180919D01*
X0815650Y-0180690D01*
X0815636Y-0180460D01*
X0815628Y-0180230D01*
X0815625Y-0180000D01*
X0815625Y0425000D02*
X0815628Y0425230D01*
X0815636Y0425460D01*
X0815650Y0425690D01*
X0815670Y0425919D01*
X0815696Y0426148D01*
X0815726Y0426376D01*
X0815763Y0426603D01*
X0815805Y0426829D01*
X0815853Y0427054D01*
X0815906Y0427278D01*
X0815965Y0427500D01*
X0816029Y0427721D01*
X0816098Y0427941D01*
X0816173Y0428158D01*
X0816253Y0428374D01*
X0816339Y0428588D01*
X0816429Y0428799D01*
X0816525Y0429008D01*
X0816626Y0429215D01*
X0816732Y0429419D01*
X0816843Y0429621D01*
X0816959Y0429820D01*
X0817079Y0430016D01*
X0817205Y0430208D01*
X0817335Y0430398D01*
X0817470Y0430585D01*
X0817609Y0430768D01*
X0817753Y0430947D01*
X0817901Y0431123D01*
X0818054Y0431296D01*
X0818210Y0431464D01*
X0818371Y0431629D01*
X0818536Y0431790D01*
X0818704Y0431946D01*
X0818877Y0432099D01*
X0819053Y0432247D01*
X0819232Y0432391D01*
X0819415Y0432530D01*
X0819602Y0432665D01*
X0819792Y0432795D01*
X0819984Y0432921D01*
X0820180Y0433041D01*
X0820379Y0433157D01*
X0820581Y0433268D01*
X0820785Y0433374D01*
X0820992Y0433475D01*
X0821201Y0433571D01*
X0821412Y0433661D01*
X0821626Y0433747D01*
X0821842Y0433827D01*
X0822059Y0433902D01*
X0822279Y0433971D01*
X0822500Y0434035D01*
X0822722Y0434094D01*
X0822946Y0434147D01*
X0823171Y0434195D01*
X0823397Y0434237D01*
X0823624Y0434274D01*
X0823852Y0434304D01*
X0824081Y0434330D01*
X0824310Y0434350D01*
X0824540Y0434364D01*
X0824770Y0434372D01*
X0825000Y0434375D01*
X0825230Y0434372D01*
X0825460Y0434364D01*
X0825690Y0434350D01*
X0825919Y0434330D01*
X0826148Y0434304D01*
X0826376Y0434274D01*
X0826603Y0434237D01*
X0826829Y0434195D01*
X0827054Y0434147D01*
X0827278Y0434094D01*
X0827500Y0434035D01*
X0827721Y0433971D01*
X0827941Y0433902D01*
X0828158Y0433827D01*
X0828374Y0433747D01*
X0828588Y0433661D01*
X0828799Y0433571D01*
X0829008Y0433475D01*
X0829215Y0433374D01*
X0829419Y0433268D01*
X0829621Y0433157D01*
X0829820Y0433041D01*
X0830016Y0432921D01*
X0830208Y0432795D01*
X0830398Y0432665D01*
X0830585Y0432530D01*
X0830768Y0432391D01*
X0830947Y0432247D01*
X0831123Y0432099D01*
X0831296Y0431946D01*
X0831464Y0431790D01*
X0831629Y0431629D01*
X0831790Y0431464D01*
X0831946Y0431296D01*
X0832099Y0431123D01*
X0832247Y0430947D01*
X0832391Y0430768D01*
X0832530Y0430585D01*
X0832665Y0430398D01*
X0832795Y0430208D01*
X0832921Y0430016D01*
X0833041Y0429820D01*
X0833157Y0429621D01*
X0833268Y0429419D01*
X0833374Y0429215D01*
X0833475Y0429008D01*
X0833571Y0428799D01*
X0833661Y0428588D01*
X0833747Y0428374D01*
X0833827Y0428158D01*
X0833902Y0427941D01*
X0833971Y0427721D01*
X0834035Y0427500D01*
X0834094Y0427278D01*
X0834147Y0427054D01*
X0834195Y0426829D01*
X0834237Y0426603D01*
X0834274Y0426376D01*
X0834304Y0426148D01*
X0834330Y0425919D01*
X0834350Y0425690D01*
X0834364Y0425460D01*
X0834372Y0425230D01*
X0834375Y0425000D01*
X0834372Y0424770D01*
X0834364Y0424540D01*
X0834350Y0424310D01*
X0834330Y0424081D01*
X0834304Y0423852D01*
X0834274Y0423624D01*
X0834237Y0423397D01*
X0834195Y0423171D01*
X0834147Y0422946D01*
X0834094Y0422722D01*
X0834035Y0422500D01*
X0833971Y0422279D01*
X0833902Y0422059D01*
X0833827Y0421842D01*
X0833747Y0421626D01*
X0833661Y0421412D01*
X0833571Y0421201D01*
X0833475Y0420992D01*
X0833374Y0420785D01*
X0833268Y0420581D01*
X0833157Y0420379D01*
X0833041Y0420180D01*
X0832921Y0419984D01*
X0832795Y0419792D01*
X0832665Y0419602D01*
X0832530Y0419415D01*
X0832391Y0419232D01*
X0832247Y0419053D01*
X0832099Y0418877D01*
X0831946Y0418704D01*
X0831790Y0418536D01*
X0831629Y0418371D01*
X0831464Y0418210D01*
X0831296Y0418054D01*
X0831123Y0417901D01*
X0830947Y0417753D01*
X0830768Y0417609D01*
X0830585Y0417470D01*
X0830398Y0417335D01*
X0830208Y0417205D01*
X0830016Y0417079D01*
X0829820Y0416959D01*
X0829621Y0416843D01*
X0829419Y0416732D01*
X0829215Y0416626D01*
X0829008Y0416525D01*
X0828799Y0416429D01*
X0828588Y0416339D01*
X0828374Y0416253D01*
X0828158Y0416173D01*
X0827941Y0416098D01*
X0827721Y0416029D01*
X0827500Y0415965D01*
X0827278Y0415906D01*
X0827054Y0415853D01*
X0826829Y0415805D01*
X0826603Y0415763D01*
X0826376Y0415726D01*
X0826148Y0415696D01*
X0825919Y0415670D01*
X0825690Y0415650D01*
X0825460Y0415636D01*
X0825230Y0415628D01*
X0825000Y0415625D01*
X0824770Y0415628D01*
X0824540Y0415636D01*
X0824310Y0415650D01*
X0824081Y0415670D01*
X0823852Y0415696D01*
X0823624Y0415726D01*
X0823397Y0415763D01*
X0823171Y0415805D01*
X0822946Y0415853D01*
X0822722Y0415906D01*
X0822500Y0415965D01*
X0822279Y0416029D01*
X0822059Y0416098D01*
X0821842Y0416173D01*
X0821626Y0416253D01*
X0821412Y0416339D01*
X0821201Y0416429D01*
X0820992Y0416525D01*
X0820785Y0416626D01*
X0820581Y0416732D01*
X0820379Y0416843D01*
X0820180Y0416959D01*
X0819984Y0417079D01*
X0819792Y0417205D01*
X0819602Y0417335D01*
X0819415Y0417470D01*
X0819232Y0417609D01*
X0819053Y0417753D01*
X0818877Y0417901D01*
X0818704Y0418054D01*
X0818536Y0418210D01*
X0818371Y0418371D01*
X0818210Y0418536D01*
X0818054Y0418704D01*
X0817901Y0418877D01*
X0817753Y0419053D01*
X0817609Y0419232D01*
X0817470Y0419415D01*
X0817335Y0419602D01*
X0817205Y0419792D01*
X0817079Y0419984D01*
X0816959Y0420180D01*
X0816843Y0420379D01*
X0816732Y0420581D01*
X0816626Y0420785D01*
X0816525Y0420992D01*
X0816429Y0421201D01*
X0816339Y0421412D01*
X0816253Y0421626D01*
X0816173Y0421842D01*
X0816098Y0422059D01*
X0816029Y0422279D01*
X0815965Y0422500D01*
X0815906Y0422722D01*
X0815853Y0422946D01*
X0815805Y0423171D01*
X0815763Y0423397D01*
X0815726Y0423624D01*
X0815696Y0423852D01*
X0815670Y0424081D01*
X0815650Y0424310D01*
X0815636Y0424540D01*
X0815628Y0424770D01*
X0815625Y0425000D01*
X-0274375Y0425000D02*
X-0274372Y0425230D01*
X-0274364Y0425460D01*
X-0274350Y0425690D01*
X-0274330Y0425919D01*
X-0274304Y0426148D01*
X-0274274Y0426376D01*
X-0274237Y0426603D01*
X-0274195Y0426829D01*
X-0274147Y0427054D01*
X-0274094Y0427278D01*
X-0274035Y0427500D01*
X-0273971Y0427721D01*
X-0273902Y0427941D01*
X-0273827Y0428158D01*
X-0273747Y0428374D01*
X-0273661Y0428588D01*
X-0273571Y0428799D01*
X-0273475Y0429008D01*
X-0273374Y0429215D01*
X-0273268Y0429419D01*
X-0273157Y0429621D01*
X-0273041Y0429820D01*
X-0272921Y0430016D01*
X-0272795Y0430208D01*
X-0272665Y0430398D01*
X-0272530Y0430585D01*
X-0272391Y0430768D01*
X-0272247Y0430947D01*
X-0272099Y0431123D01*
X-0271946Y0431296D01*
X-0271790Y0431464D01*
X-0271629Y0431629D01*
X-0271464Y0431790D01*
X-0271296Y0431946D01*
X-0271123Y0432099D01*
X-0270947Y0432247D01*
X-0270768Y0432391D01*
X-0270585Y0432530D01*
X-0270398Y0432665D01*
X-0270208Y0432795D01*
X-0270016Y0432921D01*
X-0269820Y0433041D01*
X-0269621Y0433157D01*
X-0269419Y0433268D01*
X-0269215Y0433374D01*
X-0269008Y0433475D01*
X-0268799Y0433571D01*
X-0268588Y0433661D01*
X-0268374Y0433747D01*
X-0268158Y0433827D01*
X-0267941Y0433902D01*
X-0267721Y0433971D01*
X-0267500Y0434035D01*
X-0267278Y0434094D01*
X-0267054Y0434147D01*
X-0266829Y0434195D01*
X-0266603Y0434237D01*
X-0266376Y0434274D01*
X-0266148Y0434304D01*
X-0265919Y0434330D01*
X-0265690Y0434350D01*
X-0265460Y0434364D01*
X-0265230Y0434372D01*
X-0265000Y0434375D01*
X-0264770Y0434372D01*
X-0264540Y0434364D01*
X-0264310Y0434350D01*
X-0264081Y0434330D01*
X-0263852Y0434304D01*
X-0263624Y0434274D01*
X-0263397Y0434237D01*
X-0263171Y0434195D01*
X-0262946Y0434147D01*
X-0262722Y0434094D01*
X-0262500Y0434035D01*
X-0262279Y0433971D01*
X-0262059Y0433902D01*
X-0261842Y0433827D01*
X-0261626Y0433747D01*
X-0261412Y0433661D01*
X-0261201Y0433571D01*
X-0260992Y0433475D01*
X-0260785Y0433374D01*
X-0260581Y0433268D01*
X-0260379Y0433157D01*
X-0260180Y0433041D01*
X-0259984Y0432921D01*
X-0259792Y0432795D01*
X-0259602Y0432665D01*
X-0259415Y0432530D01*
X-0259232Y0432391D01*
X-0259053Y0432247D01*
X-0258877Y0432099D01*
X-0258704Y0431946D01*
X-0258536Y0431790D01*
X-0258371Y0431629D01*
X-0258210Y0431464D01*
X-0258054Y0431296D01*
X-0257901Y0431123D01*
X-0257753Y0430947D01*
X-0257609Y0430768D01*
X-0257470Y0430585D01*
X-0257335Y0430398D01*
X-0257205Y0430208D01*
X-0257079Y0430016D01*
X-0256959Y0429820D01*
X-0256843Y0429621D01*
X-0256732Y0429419D01*
X-0256626Y0429215D01*
X-0256525Y0429008D01*
X-0256429Y0428799D01*
X-0256339Y0428588D01*
X-0256253Y0428374D01*
X-0256173Y0428158D01*
X-0256098Y0427941D01*
X-0256029Y0427721D01*
X-0255965Y0427500D01*
X-0255906Y0427278D01*
X-0255853Y0427054D01*
X-0255805Y0426829D01*
X-0255763Y0426603D01*
X-0255726Y0426376D01*
X-0255696Y0426148D01*
X-0255670Y0425919D01*
X-0255650Y0425690D01*
X-0255636Y0425460D01*
X-0255628Y0425230D01*
X-0255625Y0425000D01*
X-0255628Y0424770D01*
X-0255636Y0424540D01*
X-0255650Y0424310D01*
X-0255670Y0424081D01*
X-0255696Y0423852D01*
X-0255726Y0423624D01*
X-0255763Y0423397D01*
X-0255805Y0423171D01*
X-0255853Y0422946D01*
X-0255906Y0422722D01*
X-0255965Y0422500D01*
X-0256029Y0422279D01*
X-0256098Y0422059D01*
X-0256173Y0421842D01*
X-0256253Y0421626D01*
X-0256339Y0421412D01*
X-0256429Y0421201D01*
X-0256525Y0420992D01*
X-0256626Y0420785D01*
X-0256732Y0420581D01*
X-0256843Y0420379D01*
X-0256959Y0420180D01*
X-0257079Y0419984D01*
X-0257205Y0419792D01*
X-0257335Y0419602D01*
X-0257470Y0419415D01*
X-0257609Y0419232D01*
X-0257753Y0419053D01*
X-0257901Y0418877D01*
X-0258054Y0418704D01*
X-0258210Y0418536D01*
X-0258371Y0418371D01*
X-0258536Y0418210D01*
X-0258704Y0418054D01*
X-0258877Y0417901D01*
X-0259053Y0417753D01*
X-0259232Y0417609D01*
X-0259415Y0417470D01*
X-0259602Y0417335D01*
X-0259792Y0417205D01*
X-0259984Y0417079D01*
X-0260180Y0416959D01*
X-0260379Y0416843D01*
X-0260581Y0416732D01*
X-0260785Y0416626D01*
X-0260992Y0416525D01*
X-0261201Y0416429D01*
X-0261412Y0416339D01*
X-0261626Y0416253D01*
X-0261842Y0416173D01*
X-0262059Y0416098D01*
X-0262279Y0416029D01*
X-0262500Y0415965D01*
X-0262722Y0415906D01*
X-0262946Y0415853D01*
X-0263171Y0415805D01*
X-0263397Y0415763D01*
X-0263624Y0415726D01*
X-0263852Y0415696D01*
X-0264081Y0415670D01*
X-0264310Y0415650D01*
X-0264540Y0415636D01*
X-0264770Y0415628D01*
X-0265000Y0415625D01*
X-0265230Y0415628D01*
X-0265460Y0415636D01*
X-0265690Y0415650D01*
X-0265919Y0415670D01*
X-0266148Y0415696D01*
X-0266376Y0415726D01*
X-0266603Y0415763D01*
X-0266829Y0415805D01*
X-0267054Y0415853D01*
X-0267278Y0415906D01*
X-0267500Y0415965D01*
X-0267721Y0416029D01*
X-0267941Y0416098D01*
X-0268158Y0416173D01*
X-0268374Y0416253D01*
X-0268588Y0416339D01*
X-0268799Y0416429D01*
X-0269008Y0416525D01*
X-0269215Y0416626D01*
X-0269419Y0416732D01*
X-0269621Y0416843D01*
X-0269820Y0416959D01*
X-0270016Y0417079D01*
X-0270208Y0417205D01*
X-0270398Y0417335D01*
X-0270585Y0417470D01*
X-0270768Y0417609D01*
X-0270947Y0417753D01*
X-0271123Y0417901D01*
X-0271296Y0418054D01*
X-0271464Y0418210D01*
X-0271629Y0418371D01*
X-0271790Y0418536D01*
X-0271946Y0418704D01*
X-0272099Y0418877D01*
X-0272247Y0419053D01*
X-0272391Y0419232D01*
X-0272530Y0419415D01*
X-0272665Y0419602D01*
X-0272795Y0419792D01*
X-0272921Y0419984D01*
X-0273041Y0420180D01*
X-0273157Y0420379D01*
X-0273268Y0420581D01*
X-0273374Y0420785D01*
X-0273475Y0420992D01*
X-0273571Y0421201D01*
X-0273661Y0421412D01*
X-0273747Y0421626D01*
X-0273827Y0421842D01*
X-0273902Y0422059D01*
X-0273971Y0422279D01*
X-0274035Y0422500D01*
X-0274094Y0422722D01*
X-0274147Y0422946D01*
X-0274195Y0423171D01*
X-0274237Y0423397D01*
X-0274274Y0423624D01*
X-0274304Y0423852D01*
X-0274330Y0424081D01*
X-0274350Y0424310D01*
X-0274364Y0424540D01*
X-0274372Y0424770D01*
X-0274375Y0425000D01*
D11*
X0390000Y0197500D02*
X0390000Y0192500D01*
X0392500Y0190000D01*
X0390000Y0187500D01*
X0390000Y0182500D01*
X0392500Y0180000D01*
X0390000Y0177500D01*
X0390000Y0172500D01*
X0392500Y0170000D01*
X0397500Y0170000D01*
X0400000Y0172500D01*
X0402500Y0170000D01*
X0407500Y0170000D01*
X0410000Y0172500D01*
X0410000Y0177500D01*
X0407500Y0180000D01*
X0410000Y0182500D01*
X0410000Y0187500D01*
X0407500Y0190000D01*
X0410000Y0192500D01*
X0410000Y0197500D01*
X0407500Y0200000D01*
X0402500Y0200000D01*
X0400000Y0197500D01*
X0397500Y0200000D01*
X0392500Y0200000D01*
X0390000Y0197500D01*
X0395000Y0190000D02*
X0405000Y0190000D01*
X0405000Y0180000D02*
X0395000Y0180000D01*
X0388500Y0177500D02*
X0388500Y0172500D01*
D12*
X0392869Y0167304D02*
X0392869Y0162700D01*
X0391335Y0162700D02*
X0394404Y0162700D01*
X0396706Y0164235D02*
X0399008Y0164235D01*
X0399008Y0162700D02*
X0399008Y0167304D01*
X0396706Y0167304D01*
X0395939Y0166537D01*
X0395939Y0165002D01*
X0396706Y0164235D01*
X0394404Y0165769D02*
X0392869Y0167304D01*
X0400543Y0167304D02*
X0402077Y0167304D01*
X0401310Y0167304D02*
X0401310Y0163467D01*
X0402077Y0162700D01*
X0402844Y0162700D01*
X0403612Y0163467D01*
D13*
X0145000Y0085000D02*
X0145000Y0295000D01*
X0545000Y0295000D01*
X0545000Y0085000D01*
X0145000Y0085000D01*
M02*
