G75*
%MOIN*%
%OFA0B0*%
%FSLAX25Y25*%
%IPPOS*%
%LPD*%
%AMOC8*
5,1,8,0,0,1.08239X$1,22.5*
%
%ADD10C,0.02000*%
%ADD11R,0.07200X0.07200*%
%ADD12OC8,0.07200*%
%ADD13C,0.05150*%
%ADD14C,0.05937*%
%ADD15C,0.03937*%
%ADD16C,0.04750*%
D10*
X-0207597Y-0094000D02*
X-0199790Y-0086193D01*
X-0203694Y-0086193D02*
X-0191984Y-0086193D01*
X-0191984Y-0094000D02*
X-0191984Y-0070580D01*
X-0203694Y-0070580D01*
X-0207597Y-0074483D01*
X-0207597Y-0082290D01*
X-0203694Y-0086193D01*
X-0184209Y-0094000D02*
X-0168596Y-0094000D01*
X-0168596Y-0070580D01*
X-0184209Y-0070580D01*
X-0176402Y-0082290D02*
X-0168596Y-0082290D01*
X-0160821Y-0090097D02*
X-0160821Y-0074483D01*
X-0156918Y-0070580D01*
X-0145208Y-0070580D01*
X-0145208Y-0094000D01*
X-0156918Y-0094000D01*
X-0160821Y-0090097D01*
X-0137433Y-0094000D02*
X-0121820Y-0094000D01*
X-0121820Y-0070580D01*
X-0114045Y-0074483D02*
X-0110142Y-0070580D01*
X-0102335Y-0070580D01*
X-0098432Y-0074483D01*
X-0098432Y-0090097D01*
X-0102335Y-0094000D01*
X-0110142Y-0094000D01*
X-0114045Y-0090097D01*
X-0114045Y-0074483D01*
X-0090657Y-0074483D02*
X-0086754Y-0070580D01*
X-0078947Y-0070580D01*
X-0075044Y-0074483D01*
X-0075044Y-0078387D01*
X-0078947Y-0082290D01*
X-0086754Y-0082290D01*
X-0090657Y-0086193D01*
X-0090657Y-0090097D01*
X-0086754Y-0094000D01*
X-0078947Y-0094000D01*
X-0075044Y-0090097D01*
X-0043881Y-0094000D02*
X-0036074Y-0086193D01*
X-0039978Y-0086193D02*
X-0028268Y-0086193D01*
X-0028268Y-0094000D02*
X-0028268Y-0070580D01*
X-0039978Y-0070580D01*
X-0043881Y-0074483D01*
X-0043881Y-0082290D01*
X-0039978Y-0086193D01*
X-0020493Y-0094000D02*
X-0004880Y-0094000D01*
X-0004880Y-0070580D01*
X-0020493Y-0070580D01*
X-0012686Y-0082290D02*
X-0004880Y-0082290D01*
X0002895Y-0074483D02*
X0002895Y-0070580D01*
X0002895Y-0074483D02*
X0010702Y-0082290D01*
X0010702Y-0094000D01*
X0026283Y-0094000D02*
X0026283Y-0078387D01*
X0034089Y-0070580D01*
X0041896Y-0078387D01*
X0041896Y-0094000D01*
X0049671Y-0094000D02*
X0065284Y-0094000D01*
X0065284Y-0070580D01*
X0041896Y-0082290D02*
X0026283Y-0082290D01*
X0018508Y-0074483D02*
X0010702Y-0082290D01*
X0018508Y-0074483D02*
X0018508Y-0070580D01*
X0096447Y-0070580D02*
X0096447Y-0094000D01*
X0112060Y-0094000D02*
X0112060Y-0070580D01*
X0104253Y-0078387D01*
X0096447Y-0070580D01*
X0119835Y-0074483D02*
X0119835Y-0090097D01*
X0123738Y-0094000D01*
X0131545Y-0094000D01*
X0135448Y-0090097D01*
X0135448Y-0074483D01*
X0131545Y-0070580D01*
X0123738Y-0070580D01*
X0119835Y-0074483D01*
X0143223Y-0070580D02*
X0158836Y-0070580D01*
X0166611Y-0070580D02*
X0182224Y-0070580D01*
X0174417Y-0070580D02*
X0174417Y-0094000D01*
X0189999Y-0090097D02*
X0189999Y-0074483D01*
X0193902Y-0070580D01*
X0201709Y-0070580D01*
X0205612Y-0074483D01*
X0205612Y-0090097D01*
X0201709Y-0094000D01*
X0193902Y-0094000D01*
X0189999Y-0090097D01*
X0213387Y-0090097D02*
X0217290Y-0094000D01*
X0229000Y-0094000D01*
X0229000Y-0070580D01*
X0217290Y-0070580D01*
X0213387Y-0074483D01*
X0213387Y-0078387D01*
X0217290Y-0082290D01*
X0229000Y-0082290D01*
X0217290Y-0082290D02*
X0213387Y-0086193D01*
X0213387Y-0090097D01*
X0151029Y-0094000D02*
X0151029Y-0070580D01*
D11*
X0395000Y0175000D03*
X-0215000Y0175000D03*
D12*
X-0215000Y0185000D03*
X-0225000Y0185000D03*
X-0225000Y0175000D03*
X-0225000Y0195000D03*
X-0215000Y0195000D03*
X0395000Y0195000D03*
X0405000Y0195000D03*
X0405000Y0185000D03*
X0405000Y0175000D03*
X0395000Y0185000D03*
D13*
X0515000Y0185000D03*
X0515000Y0175000D03*
X0525000Y0175000D03*
X0525000Y0185000D03*
X0525000Y0195000D03*
X0525000Y0205000D03*
X0515000Y0205000D03*
X0515000Y0195000D03*
X0515000Y0215000D03*
X0515000Y0225000D03*
X0515000Y0235000D03*
X0525000Y0235000D03*
X0525000Y0225000D03*
X0525000Y0215000D03*
X0525000Y0245000D03*
X0525000Y0255000D03*
X0515000Y0255000D03*
X0515000Y0245000D03*
X0515000Y0265000D03*
X0525000Y0265000D03*
X0505000Y0285000D03*
X0495000Y0285000D03*
X0485000Y0285000D03*
X0475000Y0285000D03*
X0465000Y0285000D03*
X0455000Y0285000D03*
X0445000Y0285000D03*
X0435000Y0285000D03*
X0415000Y0285000D03*
X0405000Y0285000D03*
X0395000Y0285000D03*
X0385000Y0285000D03*
X0375000Y0285000D03*
X0365000Y0285000D03*
X0355000Y0285000D03*
X0345000Y0285000D03*
X0325000Y0285000D03*
X0315000Y0285000D03*
X0305000Y0285000D03*
X0295000Y0285000D03*
X0285000Y0285000D03*
X0275000Y0285000D03*
X0515000Y0165000D03*
X0515000Y0155000D03*
X0515000Y0145000D03*
X0525000Y0145000D03*
X0525000Y0155000D03*
X0525000Y0165000D03*
X0525000Y0135000D03*
X0525000Y0125000D03*
X0515000Y0125000D03*
X0515000Y0135000D03*
X0515000Y0115000D03*
X0515000Y0105000D03*
X0515000Y0095000D03*
X0525000Y0095000D03*
X0525000Y0105000D03*
X0525000Y0115000D03*
X0485000Y0095000D03*
X0475000Y0095000D03*
X0465000Y0095000D03*
X0455000Y0095000D03*
X0445000Y0095000D03*
X0435000Y0095000D03*
X0425000Y0095000D03*
X0415000Y0095000D03*
X0395000Y0095000D03*
X0385000Y0095000D03*
X0375000Y0095000D03*
X0365000Y0095000D03*
X0355000Y0095000D03*
X0345000Y0095000D03*
X0335000Y0095000D03*
X0325000Y0095000D03*
X0310000Y0095000D03*
X0300000Y0095000D03*
X0290000Y0095000D03*
X0280000Y0095000D03*
X0270000Y0095000D03*
X0260000Y0095000D03*
X0250000Y0095000D03*
X0240000Y0095000D03*
D14*
X0410000Y0022969D02*
X0410000Y0017031D01*
X0420000Y0017031D02*
X0420000Y0022969D01*
X0430000Y0022969D02*
X0430000Y0017031D01*
X0440000Y0017031D02*
X0440000Y0022969D01*
X0450000Y0022969D02*
X0450000Y0017031D01*
X0460000Y0017031D02*
X0460000Y0022969D01*
X0475000Y-0067031D02*
X0475000Y-0072969D01*
X0485000Y-0072969D02*
X0485000Y-0067031D01*
X0495000Y-0067031D02*
X0495000Y-0072969D01*
X0702031Y-0070000D02*
X0707969Y-0070000D01*
X0707969Y-0080000D02*
X0702031Y-0080000D01*
X0702031Y-0090000D02*
X0707969Y-0090000D01*
X0707969Y-0100000D02*
X0702031Y-0100000D01*
X0702031Y-0060000D02*
X0707969Y-0060000D01*
X0707969Y-0050000D02*
X0702031Y-0050000D01*
X0702031Y-0040000D02*
X0707969Y-0040000D01*
X0707969Y0020000D02*
X0702031Y0020000D01*
X0702031Y0030000D02*
X0707969Y0030000D01*
X0707969Y0040000D02*
X0702031Y0040000D01*
X0702031Y0050000D02*
X0707969Y0050000D01*
X0707969Y0060000D02*
X0702031Y0060000D01*
X0702031Y0070000D02*
X0707969Y0070000D01*
X0707969Y0080000D02*
X0702031Y0080000D01*
X0702031Y0135000D02*
X0707969Y0135000D01*
X0707969Y0145000D02*
X0702031Y0145000D01*
X0702031Y0155000D02*
X0707969Y0155000D01*
X0707969Y0165000D02*
X0702031Y0165000D01*
X0702031Y0175000D02*
X0707969Y0175000D01*
X0707969Y0185000D02*
X0702031Y0185000D01*
X0702031Y0195000D02*
X0707969Y0195000D01*
X0707969Y0250000D02*
X0702031Y0250000D01*
X0702031Y0260000D02*
X0707969Y0260000D01*
X0707969Y0270000D02*
X0702031Y0270000D01*
X0702031Y0280000D02*
X0707969Y0280000D01*
X0707969Y0290000D02*
X0702031Y0290000D01*
X0702031Y0300000D02*
X0707969Y0300000D01*
X0707969Y0310000D02*
X0702031Y0310000D01*
X0707031Y0365000D02*
X0712969Y0365000D01*
X0712969Y0375000D02*
X0707031Y0375000D01*
X0707031Y0385000D02*
X0712969Y0385000D01*
X0712969Y0395000D02*
X0707031Y0395000D01*
X0707031Y0405000D02*
X0712969Y0405000D01*
X0712969Y0415000D02*
X0707031Y0415000D01*
X0707031Y0425000D02*
X0712969Y0425000D01*
X-0055000Y0097969D02*
X-0055000Y0092031D01*
X-0065000Y0092031D02*
X-0065000Y0097969D01*
X-0075000Y0097969D02*
X-0075000Y0092031D01*
X-0085000Y0092031D02*
X-0085000Y0097969D01*
X-0095000Y0097969D02*
X-0095000Y0092031D01*
X-0105000Y0092031D02*
X-0105000Y0097969D01*
X-0115000Y0097969D02*
X-0115000Y0092031D01*
X-0125000Y0092031D02*
X-0125000Y0097969D01*
X-0140000Y0097969D02*
X-0140000Y0092031D01*
X-0150000Y0092031D02*
X-0150000Y0097969D01*
X-0160000Y0097969D02*
X-0160000Y0092031D01*
X-0170000Y0092031D02*
X-0170000Y0097969D01*
X-0180000Y0097969D02*
X-0180000Y0092031D01*
X-0190000Y0092031D02*
X-0190000Y0097969D01*
X-0200000Y0097969D02*
X-0200000Y0092031D01*
X-0210000Y0092031D02*
X-0210000Y0097969D01*
X-0205000Y0277031D02*
X-0205000Y0282969D01*
X-0215000Y0282969D02*
X-0215000Y0277031D01*
X-0195000Y0277031D02*
X-0195000Y0282969D01*
X-0185000Y0282969D02*
X-0185000Y0277031D01*
X-0175000Y0277031D02*
X-0175000Y0282969D01*
X-0165000Y0282969D02*
X-0165000Y0277031D01*
X-0130000Y0282031D02*
X-0130000Y0287969D01*
X-0120000Y0287969D02*
X-0120000Y0282031D01*
X-0110000Y0282031D02*
X-0110000Y0287969D01*
X-0100000Y0287969D02*
X-0100000Y0282031D01*
X-0090000Y0282031D02*
X-0090000Y0287969D01*
X-0080000Y0287969D02*
X-0080000Y0282031D01*
D15*
X-0056958Y0020157D02*
X0241958Y0020157D01*
X0245575Y0021656D01*
X0248344Y0024425D01*
X0298344Y0074425D01*
X0299843Y0078042D01*
X0299843Y0084551D01*
X0300157Y0084551D01*
X0300157Y-0046958D01*
X0301656Y-0050575D01*
X0436656Y-0185575D01*
X0439425Y-0188344D01*
X0443042Y-0189843D01*
X0791958Y-0189843D01*
X0795575Y-0188344D01*
X0798344Y-0185575D01*
X0799843Y-0181958D01*
X0799843Y0396958D01*
X0798344Y0400575D01*
X0795575Y0403344D01*
X0791958Y0404843D01*
X0723811Y0404843D01*
X0723811Y0406427D01*
X0723072Y0409185D01*
X0722602Y0410000D01*
X0723072Y0410815D01*
X0723811Y0413573D01*
X0723811Y0416427D01*
X0723072Y0419185D01*
X0722602Y0420000D01*
X0723072Y0420815D01*
X0723811Y0423573D01*
X0723811Y0426427D01*
X0723072Y0429185D01*
X0721645Y0431657D01*
X0719626Y0433676D01*
X0717154Y0435104D01*
X0714455Y0435827D01*
X0811433Y0435827D01*
X0811197Y0435591D01*
X0808926Y0431658D01*
X0807751Y0427271D01*
X0807751Y0422729D01*
X0808926Y0418342D01*
X0811197Y0414409D01*
X0814409Y0411197D01*
X0818342Y0408926D01*
X0822729Y0407751D01*
X0827271Y0407751D01*
X0831658Y0408926D01*
X0835591Y0411197D01*
X0837047Y0412653D01*
X0837047Y-0167653D01*
X0835591Y-0166197D01*
X0831658Y-0163926D01*
X0827271Y-0162751D01*
X0822729Y-0162751D01*
X0818342Y-0163926D01*
X0814409Y-0166197D01*
X0811197Y-0169409D01*
X0808926Y-0173342D01*
X0807751Y-0177729D01*
X0807751Y-0182271D01*
X0808926Y-0186658D01*
X0811197Y-0190591D01*
X0812732Y-0192126D01*
X-0252732Y-0192126D01*
X-0251197Y-0190591D01*
X-0248926Y-0186658D01*
X-0247751Y-0182271D01*
X-0247751Y-0177729D01*
X-0248926Y-0173342D01*
X-0251197Y-0169409D01*
X-0254409Y-0166197D01*
X-0258342Y-0163926D01*
X-0262729Y-0162751D01*
X-0267271Y-0162751D01*
X-0271658Y-0163926D01*
X-0275591Y-0166197D01*
X-0277126Y-0167732D01*
X-0277126Y0412732D01*
X-0275591Y0411197D01*
X-0271658Y0408926D01*
X-0267271Y0407751D01*
X-0262729Y0407751D01*
X-0258342Y0408926D01*
X-0254409Y0411197D01*
X-0251197Y0414409D01*
X-0248926Y0418342D01*
X-0247751Y0422729D01*
X-0247751Y0427271D01*
X-0248926Y0431658D01*
X-0251197Y0435591D01*
X-0251433Y0435827D01*
X0705545Y0435827D01*
X0702846Y0435104D01*
X0700374Y0433676D01*
X0698355Y0431657D01*
X0696928Y0429185D01*
X0696189Y0426427D01*
X0696189Y0424843D01*
X0548042Y0424843D01*
X0544425Y0423344D01*
X0541656Y0420575D01*
X0540157Y0416958D01*
X0540157Y0264843D01*
X0530543Y0264843D01*
X0530543Y0265000D01*
X0530543Y0265436D01*
X0530407Y0266298D01*
X0530137Y0267128D01*
X0529741Y0267905D01*
X0529228Y0268611D01*
X0528611Y0269228D01*
X0527905Y0269741D01*
X0527128Y0270137D01*
X0526298Y0270407D01*
X0525436Y0270543D01*
X0525000Y0270543D01*
X0524564Y0270543D01*
X0523702Y0270407D01*
X0522872Y0270137D01*
X0522095Y0269741D01*
X0521389Y0269228D01*
X0520772Y0268611D01*
X0520259Y0267905D01*
X0520000Y0267397D01*
X0519741Y0267905D01*
X0519228Y0268611D01*
X0518611Y0269228D01*
X0517905Y0269741D01*
X0517128Y0270137D01*
X0516298Y0270407D01*
X0515436Y0270543D01*
X0515000Y0270543D01*
X0514564Y0270543D01*
X0513702Y0270407D01*
X0512872Y0270137D01*
X0512095Y0269741D01*
X0511389Y0269228D01*
X0510772Y0268611D01*
X0510259Y0267905D01*
X0509863Y0267128D01*
X0509593Y0266298D01*
X0509457Y0265436D01*
X0509457Y0265000D01*
X0509457Y0264564D01*
X0509558Y0263923D01*
X0508584Y0263361D01*
X0506639Y0261416D01*
X0505263Y0259033D01*
X0504551Y0256376D01*
X0504551Y0253624D01*
X0505263Y0250967D01*
X0505822Y0250000D01*
X0505263Y0249033D01*
X0504551Y0246376D01*
X0504551Y0243624D01*
X0505263Y0240967D01*
X0505822Y0240000D01*
X0505263Y0239033D01*
X0504551Y0236376D01*
X0504551Y0233624D01*
X0505263Y0230967D01*
X0505822Y0230000D01*
X0505263Y0229033D01*
X0504551Y0226376D01*
X0504551Y0223624D01*
X0505263Y0220967D01*
X0505822Y0220000D01*
X0505263Y0219033D01*
X0504551Y0216376D01*
X0504551Y0213624D01*
X0505263Y0210967D01*
X0505822Y0210000D01*
X0505263Y0209033D01*
X0504551Y0206376D01*
X0504551Y0203624D01*
X0505263Y0200967D01*
X0505822Y0200000D01*
X0505263Y0199033D01*
X0504551Y0196376D01*
X0504551Y0193624D01*
X0505263Y0190967D01*
X0505822Y0190000D01*
X0505263Y0189033D01*
X0504551Y0186376D01*
X0504551Y0183624D01*
X0505263Y0180967D01*
X0505822Y0180000D01*
X0505263Y0179033D01*
X0504551Y0176376D01*
X0504551Y0173624D01*
X0505263Y0170967D01*
X0505822Y0170000D01*
X0505263Y0169033D01*
X0504551Y0166376D01*
X0504551Y0163624D01*
X0505263Y0160967D01*
X0505822Y0160000D01*
X0505263Y0159033D01*
X0504551Y0156376D01*
X0504551Y0153624D01*
X0505263Y0150967D01*
X0505822Y0150000D01*
X0505263Y0149033D01*
X0504551Y0146376D01*
X0504551Y0143624D01*
X0505263Y0140967D01*
X0505821Y0140000D01*
X0505263Y0139033D01*
X0504551Y0136376D01*
X0504551Y0133624D01*
X0505263Y0130967D01*
X0505822Y0130000D01*
X0505263Y0129033D01*
X0504551Y0126376D01*
X0504551Y0123624D01*
X0505263Y0120967D01*
X0505822Y0120000D01*
X0505263Y0119033D01*
X0504551Y0116376D01*
X0504551Y0113624D01*
X0505263Y0110967D01*
X0505822Y0110000D01*
X0505263Y0109033D01*
X0504551Y0106376D01*
X0504551Y0103624D01*
X0505263Y0100967D01*
X0505822Y0100000D01*
X0505263Y0099033D01*
X0504551Y0096376D01*
X0504551Y0093624D01*
X0505157Y0091362D01*
X0505157Y0029843D01*
X0468460Y0029843D01*
X0466657Y0031645D01*
X0464185Y0033072D01*
X0461427Y0033811D01*
X0458573Y0033811D01*
X0455815Y0033072D01*
X0455000Y0032602D01*
X0454185Y0033072D01*
X0451427Y0033811D01*
X0448573Y0033811D01*
X0445815Y0033072D01*
X0445000Y0032602D01*
X0444185Y0033072D01*
X0441427Y0033811D01*
X0438573Y0033811D01*
X0435815Y0033072D01*
X0435000Y0032602D01*
X0434185Y0033072D01*
X0431427Y0033811D01*
X0429843Y0033811D01*
X0429843Y0046958D01*
X0428344Y0050575D01*
X0425575Y0053344D01*
X0421958Y0054843D01*
X0384843Y0054843D01*
X0384843Y0084551D01*
X0386376Y0084551D01*
X0389033Y0085263D01*
X0390000Y0085822D01*
X0390967Y0085263D01*
X0393624Y0084551D01*
X0396376Y0084551D01*
X0399033Y0085263D01*
X0401416Y0086639D01*
X0403361Y0088584D01*
X0404737Y0090967D01*
X0405000Y0091949D01*
X0405263Y0090967D01*
X0406639Y0088584D01*
X0408584Y0086639D01*
X0410967Y0085263D01*
X0413624Y0084551D01*
X0416376Y0084551D01*
X0419033Y0085263D01*
X0420000Y0085822D01*
X0420967Y0085263D01*
X0423624Y0084551D01*
X0426376Y0084551D01*
X0429033Y0085263D01*
X0430000Y0085822D01*
X0430967Y0085263D01*
X0433624Y0084551D01*
X0436376Y0084551D01*
X0439033Y0085263D01*
X0440000Y0085822D01*
X0440967Y0085263D01*
X0443624Y0084551D01*
X0446376Y0084551D01*
X0449033Y0085263D01*
X0450000Y0085822D01*
X0450967Y0085263D01*
X0453624Y0084551D01*
X0456376Y0084551D01*
X0459033Y0085263D01*
X0460000Y0085822D01*
X0460967Y0085263D01*
X0463624Y0084551D01*
X0466376Y0084551D01*
X0469033Y0085263D01*
X0470000Y0085822D01*
X0470967Y0085263D01*
X0473624Y0084551D01*
X0476376Y0084551D01*
X0479033Y0085263D01*
X0480000Y0085822D01*
X0480967Y0085263D01*
X0483624Y0084551D01*
X0486376Y0084551D01*
X0489033Y0085263D01*
X0491416Y0086639D01*
X0493361Y0088584D01*
X0494737Y0090967D01*
X0495449Y0093624D01*
X0495449Y0096376D01*
X0494737Y0099033D01*
X0493361Y0101416D01*
X0491416Y0103361D01*
X0489033Y0104737D01*
X0486376Y0105449D01*
X0483624Y0105449D01*
X0480967Y0104737D01*
X0480000Y0104178D01*
X0479033Y0104737D01*
X0476376Y0105449D01*
X0473624Y0105449D01*
X0470967Y0104737D01*
X0470000Y0104178D01*
X0469033Y0104737D01*
X0466376Y0105449D01*
X0463624Y0105449D01*
X0460967Y0104737D01*
X0460000Y0104178D01*
X0459033Y0104737D01*
X0456376Y0105449D01*
X0453624Y0105449D01*
X0450967Y0104737D01*
X0450000Y0104178D01*
X0449033Y0104737D01*
X0446376Y0105449D01*
X0443624Y0105449D01*
X0440967Y0104737D01*
X0440000Y0104178D01*
X0439033Y0104737D01*
X0436376Y0105449D01*
X0433624Y0105449D01*
X0430967Y0104737D01*
X0430000Y0104178D01*
X0429033Y0104737D01*
X0426376Y0105449D01*
X0423624Y0105449D01*
X0420967Y0104737D01*
X0420000Y0104178D01*
X0419033Y0104737D01*
X0416376Y0105449D01*
X0413624Y0105449D01*
X0410967Y0104737D01*
X0408584Y0103361D01*
X0406639Y0101416D01*
X0405263Y0099033D01*
X0405000Y0098051D01*
X0404843Y0098638D01*
X0404843Y0116958D01*
X0403344Y0120575D01*
X0400575Y0123344D01*
X0396958Y0124843D01*
X-0211958Y0124843D01*
X-0215575Y0123344D01*
X-0218344Y0120575D01*
X-0219843Y0116958D01*
X-0219843Y0102606D01*
X-0220104Y0102154D01*
X-0220843Y0099396D01*
X-0220843Y0090604D01*
X-0220104Y0087846D01*
X-0218676Y0085374D01*
X-0216657Y0083355D01*
X-0214185Y0081928D01*
X-0211427Y0081189D01*
X-0208573Y0081189D01*
X-0205815Y0081928D01*
X-0205000Y0082398D01*
X-0204185Y0081928D01*
X-0201427Y0081189D01*
X-0198573Y0081189D01*
X-0195815Y0081928D01*
X-0195000Y0082398D01*
X-0194185Y0081928D01*
X-0191427Y0081189D01*
X-0188573Y0081189D01*
X-0185815Y0081928D01*
X-0185000Y0082398D01*
X-0184185Y0081928D01*
X-0181427Y0081189D01*
X-0178573Y0081189D01*
X-0175815Y0081928D01*
X-0175000Y0082398D01*
X-0174185Y0081928D01*
X-0171427Y0081189D01*
X-0168573Y0081189D01*
X-0165815Y0081928D01*
X-0165000Y0082398D01*
X-0164185Y0081928D01*
X-0161427Y0081189D01*
X-0158573Y0081189D01*
X-0155815Y0081928D01*
X-0155000Y0082398D01*
X-0154185Y0081928D01*
X-0151427Y0081189D01*
X-0148573Y0081189D01*
X-0145815Y0081928D01*
X-0145000Y0082398D01*
X-0144185Y0081928D01*
X-0141427Y0081189D01*
X-0138573Y0081189D01*
X-0135815Y0081928D01*
X-0133343Y0083355D01*
X-0132500Y0084198D01*
X-0131657Y0083355D01*
X-0129185Y0081928D01*
X-0126427Y0081189D01*
X-0123573Y0081189D01*
X-0120815Y0081928D01*
X-0120000Y0082398D01*
X-0119185Y0081928D01*
X-0116427Y0081189D01*
X-0114843Y0081189D01*
X-0114843Y0078042D01*
X-0113344Y0074425D01*
X-0060575Y0021656D01*
X-0056958Y0020157D01*
X-0062533Y0023613D02*
X-0277126Y0023613D01*
X-0277126Y0019678D02*
X0300157Y0019678D01*
X0300157Y0023613D02*
X0247533Y0023613D01*
X0251468Y0027549D02*
X0300157Y0027549D01*
X0300157Y0031484D02*
X0255404Y0031484D01*
X0259339Y0035420D02*
X0300157Y0035420D01*
X0300157Y0039355D02*
X0263275Y0039355D01*
X0267210Y0043291D02*
X0300157Y0043291D01*
X0300157Y0047226D02*
X0271146Y0047226D01*
X0275081Y0051162D02*
X0300157Y0051162D01*
X0300157Y0055097D02*
X0279017Y0055097D01*
X0282952Y0059033D02*
X0300157Y0059033D01*
X0300157Y0062968D02*
X0286888Y0062968D01*
X0290823Y0066904D02*
X0300157Y0066904D01*
X0300157Y0070839D02*
X0294759Y0070839D01*
X0298489Y0074775D02*
X0300157Y0074775D01*
X0300157Y0078710D02*
X0299843Y0078710D01*
X0299843Y0082646D02*
X0300157Y0082646D01*
X0290000Y0080000D02*
X0240000Y0030000D01*
X-0055000Y0030000D01*
X-0105000Y0080000D01*
X-0105000Y0095000D01*
X-0095000Y0095000D02*
X-0095000Y0080000D01*
X-0055000Y0040000D01*
X0240000Y0040000D01*
X0280000Y0080000D01*
X0280000Y0095000D01*
X0270000Y0095000D02*
X0270000Y0080000D01*
X0240000Y0050000D01*
X-0055000Y0050000D01*
X-0085000Y0080000D01*
X-0085000Y0095000D01*
X-0075000Y0095000D02*
X-0075000Y0080000D01*
X-0055000Y0060000D01*
X0240000Y0060000D01*
X0260000Y0080000D01*
X0260000Y0095000D01*
X0250000Y0095000D02*
X0250000Y0080000D01*
X0240000Y0070000D01*
X-0055000Y0070000D01*
X-0065000Y0080000D01*
X-0065000Y0095000D01*
X-0055000Y0095000D02*
X-0055000Y0080000D01*
X0240000Y0080000D01*
X0240000Y0095000D01*
X0290000Y0095000D02*
X0290000Y0080000D01*
X0310000Y0095000D02*
X0310000Y-0045000D01*
X0445000Y-0180000D01*
X0790000Y-0180000D01*
X0790000Y0395000D01*
X0710000Y0395000D01*
X0723811Y0405358D02*
X0837047Y0405358D01*
X0837047Y0401423D02*
X0797496Y0401423D01*
X0799623Y0397487D02*
X0837047Y0397487D01*
X0837047Y0393552D02*
X0799843Y0393552D01*
X0799843Y0389616D02*
X0837047Y0389616D01*
X0837047Y0385681D02*
X0799843Y0385681D01*
X0799843Y0381745D02*
X0837047Y0381745D01*
X0837047Y0377810D02*
X0799843Y0377810D01*
X0799843Y0373874D02*
X0837047Y0373874D01*
X0837047Y0369939D02*
X0799843Y0369939D01*
X0799843Y0366003D02*
X0837047Y0366003D01*
X0837047Y0362068D02*
X0799843Y0362068D01*
X0799843Y0358132D02*
X0837047Y0358132D01*
X0837047Y0354197D02*
X0799843Y0354197D01*
X0799843Y0350261D02*
X0837047Y0350261D01*
X0837047Y0346326D02*
X0799843Y0346326D01*
X0799843Y0342390D02*
X0837047Y0342390D01*
X0837047Y0338455D02*
X0799843Y0338455D01*
X0799843Y0334519D02*
X0837047Y0334519D01*
X0837047Y0330584D02*
X0799843Y0330584D01*
X0799843Y0326648D02*
X0837047Y0326648D01*
X0837047Y0322713D02*
X0799843Y0322713D01*
X0799843Y0318777D02*
X0837047Y0318777D01*
X0837047Y0314842D02*
X0799843Y0314842D01*
X0799843Y0310906D02*
X0837047Y0310906D01*
X0837047Y0306970D02*
X0799843Y0306970D01*
X0799843Y0303035D02*
X0837047Y0303035D01*
X0837047Y0299099D02*
X0799843Y0299099D01*
X0799843Y0295164D02*
X0837047Y0295164D01*
X0837047Y0291228D02*
X0799843Y0291228D01*
X0799843Y0287293D02*
X0837047Y0287293D01*
X0837047Y0283357D02*
X0799843Y0283357D01*
X0799843Y0279422D02*
X0837047Y0279422D01*
X0837047Y0275486D02*
X0799843Y0275486D01*
X0799843Y0271551D02*
X0837047Y0271551D01*
X0837047Y0267615D02*
X0799843Y0267615D01*
X0799843Y0263680D02*
X0837047Y0263680D01*
X0837047Y0259744D02*
X0799843Y0259744D01*
X0799843Y0255809D02*
X0837047Y0255809D01*
X0837047Y0251873D02*
X0799843Y0251873D01*
X0799843Y0247938D02*
X0837047Y0247938D01*
X0837047Y0244002D02*
X0799843Y0244002D01*
X0799843Y0240067D02*
X0837047Y0240067D01*
X0837047Y0236131D02*
X0799843Y0236131D01*
X0799843Y0232196D02*
X0837047Y0232196D01*
X0837047Y0228260D02*
X0799843Y0228260D01*
X0799843Y0224325D02*
X0837047Y0224325D01*
X0837047Y0220389D02*
X0799843Y0220389D01*
X0799843Y0216454D02*
X0837047Y0216454D01*
X0837047Y0212518D02*
X0799843Y0212518D01*
X0799843Y0208583D02*
X0837047Y0208583D01*
X0837047Y0204647D02*
X0799843Y0204647D01*
X0799843Y0200711D02*
X0837047Y0200711D01*
X0837047Y0196776D02*
X0799843Y0196776D01*
X0799843Y0192840D02*
X0837047Y0192840D01*
X0837047Y0188905D02*
X0799843Y0188905D01*
X0799843Y0184969D02*
X0837047Y0184969D01*
X0837047Y0181034D02*
X0799843Y0181034D01*
X0799843Y0177098D02*
X0837047Y0177098D01*
X0837047Y0173163D02*
X0799843Y0173163D01*
X0799843Y0169227D02*
X0837047Y0169227D01*
X0837047Y0165292D02*
X0799843Y0165292D01*
X0799843Y0161356D02*
X0837047Y0161356D01*
X0837047Y0157421D02*
X0799843Y0157421D01*
X0799843Y0153485D02*
X0837047Y0153485D01*
X0837047Y0149550D02*
X0799843Y0149550D01*
X0799843Y0145614D02*
X0837047Y0145614D01*
X0837047Y0141679D02*
X0799843Y0141679D01*
X0799843Y0137743D02*
X0837047Y0137743D01*
X0837047Y0133808D02*
X0799843Y0133808D01*
X0799843Y0129872D02*
X0837047Y0129872D01*
X0837047Y0125937D02*
X0799843Y0125937D01*
X0799843Y0122001D02*
X0837047Y0122001D01*
X0837047Y0118066D02*
X0799843Y0118066D01*
X0799843Y0114130D02*
X0837047Y0114130D01*
X0837047Y0110195D02*
X0799843Y0110195D01*
X0799843Y0106259D02*
X0837047Y0106259D01*
X0837047Y0102323D02*
X0799843Y0102323D01*
X0799843Y0098388D02*
X0837047Y0098388D01*
X0837047Y0094452D02*
X0799843Y0094452D01*
X0799843Y0090517D02*
X0837047Y0090517D01*
X0837047Y0086581D02*
X0799843Y0086581D01*
X0799843Y0082646D02*
X0837047Y0082646D01*
X0837047Y0078710D02*
X0799843Y0078710D01*
X0799843Y0074775D02*
X0837047Y0074775D01*
X0837047Y0070839D02*
X0799843Y0070839D01*
X0799843Y0066904D02*
X0837047Y0066904D01*
X0837047Y0062968D02*
X0799843Y0062968D01*
X0799843Y0059033D02*
X0837047Y0059033D01*
X0837047Y0055097D02*
X0799843Y0055097D01*
X0799843Y0051162D02*
X0837047Y0051162D01*
X0837047Y0047226D02*
X0799843Y0047226D01*
X0799843Y0043291D02*
X0837047Y0043291D01*
X0837047Y0039355D02*
X0799843Y0039355D01*
X0799843Y0035420D02*
X0837047Y0035420D01*
X0837047Y0031484D02*
X0799843Y0031484D01*
X0799843Y0027549D02*
X0837047Y0027549D01*
X0837047Y0023613D02*
X0799843Y0023613D01*
X0799843Y0019678D02*
X0837047Y0019678D01*
X0837047Y0015742D02*
X0799843Y0015742D01*
X0799843Y0011807D02*
X0837047Y0011807D01*
X0837047Y0007871D02*
X0799843Y0007871D01*
X0799843Y0003936D02*
X0837047Y0003936D01*
X0837047Y0000000D02*
X0799843Y0000000D01*
X0799843Y-0003936D02*
X0837047Y-0003936D01*
X0837047Y-0007871D02*
X0799843Y-0007871D01*
X0799843Y-0011807D02*
X0837047Y-0011807D01*
X0837047Y-0015742D02*
X0799843Y-0015742D01*
X0799843Y-0019678D02*
X0837047Y-0019678D01*
X0837047Y-0023613D02*
X0799843Y-0023613D01*
X0799843Y-0027549D02*
X0837047Y-0027549D01*
X0837047Y-0031484D02*
X0799843Y-0031484D01*
X0799843Y-0035420D02*
X0837047Y-0035420D01*
X0837047Y-0039355D02*
X0799843Y-0039355D01*
X0799843Y-0043291D02*
X0837047Y-0043291D01*
X0837047Y-0047226D02*
X0799843Y-0047226D01*
X0799843Y-0051162D02*
X0837047Y-0051162D01*
X0837047Y-0055097D02*
X0799843Y-0055097D01*
X0799843Y-0059033D02*
X0837047Y-0059033D01*
X0837047Y-0062968D02*
X0799843Y-0062968D01*
X0799843Y-0066904D02*
X0837047Y-0066904D01*
X0837047Y-0070839D02*
X0799843Y-0070839D01*
X0799843Y-0074775D02*
X0837047Y-0074775D01*
X0837047Y-0078710D02*
X0799843Y-0078710D01*
X0799843Y-0082646D02*
X0837047Y-0082646D01*
X0837047Y-0086581D02*
X0799843Y-0086581D01*
X0799843Y-0090517D02*
X0837047Y-0090517D01*
X0837047Y-0094452D02*
X0799843Y-0094452D01*
X0799843Y-0098388D02*
X0837047Y-0098388D01*
X0837047Y-0102323D02*
X0799843Y-0102323D01*
X0799843Y-0106259D02*
X0837047Y-0106259D01*
X0837047Y-0110195D02*
X0799843Y-0110195D01*
X0799843Y-0114130D02*
X0837047Y-0114130D01*
X0837047Y-0118066D02*
X0799843Y-0118066D01*
X0799843Y-0122001D02*
X0837047Y-0122001D01*
X0837047Y-0125937D02*
X0799843Y-0125937D01*
X0799843Y-0129872D02*
X0837047Y-0129872D01*
X0837047Y-0133808D02*
X0799843Y-0133808D01*
X0799843Y-0137743D02*
X0837047Y-0137743D01*
X0837047Y-0141679D02*
X0799843Y-0141679D01*
X0799843Y-0145614D02*
X0837047Y-0145614D01*
X0837047Y-0149550D02*
X0799843Y-0149550D01*
X0799843Y-0153485D02*
X0837047Y-0153485D01*
X0837047Y-0157421D02*
X0799843Y-0157421D01*
X0799843Y-0161356D02*
X0837047Y-0161356D01*
X0837047Y-0165292D02*
X0834023Y-0165292D01*
X0815977Y-0165292D02*
X0799843Y-0165292D01*
X0799843Y-0169227D02*
X0811379Y-0169227D01*
X0809030Y-0173163D02*
X0799843Y-0173163D01*
X0799843Y-0177098D02*
X0807920Y-0177098D01*
X0807751Y-0181034D02*
X0799843Y-0181034D01*
X0798595Y-0184969D02*
X0808474Y-0184969D01*
X0810224Y-0188905D02*
X0794221Y-0188905D01*
X0775000Y-0165000D02*
X0775000Y0280000D01*
X0705000Y0280000D01*
X0718811Y0270157D02*
X0765157Y0270157D01*
X0765157Y0173517D01*
X0761958Y0174843D01*
X0718811Y0174843D01*
X0718811Y0176427D01*
X0718072Y0179185D01*
X0717602Y0180000D01*
X0718072Y0180815D01*
X0718811Y0183573D01*
X0718811Y0186427D01*
X0718072Y0189185D01*
X0717602Y0190000D01*
X0718072Y0190815D01*
X0718811Y0193573D01*
X0718811Y0196427D01*
X0718072Y0199185D01*
X0716645Y0201657D01*
X0714626Y0203676D01*
X0712154Y0205104D01*
X0709396Y0205843D01*
X0700604Y0205843D01*
X0697846Y0205104D01*
X0695374Y0203676D01*
X0693355Y0201657D01*
X0691928Y0199185D01*
X0691189Y0196427D01*
X0691189Y0194843D01*
X0553042Y0194843D01*
X0549425Y0193344D01*
X0546656Y0190575D01*
X0545157Y0186958D01*
X0545157Y0184843D01*
X0535449Y0184843D01*
X0535449Y0186376D01*
X0534737Y0189033D01*
X0534178Y0190000D01*
X0534737Y0190967D01*
X0535449Y0193624D01*
X0535449Y0196376D01*
X0534737Y0199033D01*
X0534178Y0200000D01*
X0534737Y0200967D01*
X0535449Y0203624D01*
X0535449Y0205157D01*
X0581958Y0205157D01*
X0585575Y0206656D01*
X0588344Y0209425D01*
X0589843Y0213042D01*
X0589843Y0250157D01*
X0691189Y0250157D01*
X0691189Y0248573D01*
X0691928Y0245815D01*
X0693355Y0243343D01*
X0695374Y0241324D01*
X0697846Y0239896D01*
X0700604Y0239157D01*
X0709396Y0239157D01*
X0712154Y0239896D01*
X0714626Y0241324D01*
X0716645Y0243343D01*
X0718072Y0245815D01*
X0718811Y0248573D01*
X0718811Y0251427D01*
X0718072Y0254185D01*
X0717602Y0255000D01*
X0718072Y0255815D01*
X0718811Y0258573D01*
X0718811Y0261427D01*
X0718072Y0264185D01*
X0717602Y0265000D01*
X0718072Y0265815D01*
X0718811Y0268573D01*
X0718811Y0270157D01*
X0718555Y0267615D02*
X0765157Y0267615D01*
X0765157Y0263680D02*
X0718208Y0263680D01*
X0718811Y0259744D02*
X0765157Y0259744D01*
X0765157Y0255809D02*
X0718069Y0255809D01*
X0718692Y0251873D02*
X0765157Y0251873D01*
X0765157Y0247938D02*
X0718641Y0247938D01*
X0717026Y0244002D02*
X0765157Y0244002D01*
X0765157Y0240067D02*
X0712448Y0240067D01*
X0697551Y0240067D02*
X0589843Y0240067D01*
X0589843Y0244002D02*
X0692974Y0244002D01*
X0691359Y0247938D02*
X0589843Y0247938D01*
X0589843Y0236131D02*
X0765157Y0236131D01*
X0765157Y0232196D02*
X0589843Y0232196D01*
X0589843Y0228260D02*
X0765157Y0228260D01*
X0765157Y0224325D02*
X0589843Y0224325D01*
X0589843Y0220389D02*
X0765157Y0220389D01*
X0765157Y0216454D02*
X0589843Y0216454D01*
X0589625Y0212518D02*
X0765157Y0212518D01*
X0765157Y0208583D02*
X0587502Y0208583D01*
X0580000Y0215000D02*
X0580000Y0260000D01*
X0705000Y0260000D01*
X0705000Y0300000D02*
X0570000Y0300000D01*
X0570000Y0225000D01*
X0525000Y0225000D01*
X0525000Y0215000D02*
X0580000Y0215000D01*
X0560000Y0245000D02*
X0525000Y0245000D01*
X0525000Y0255000D02*
X0550000Y0255000D01*
X0550000Y0415000D01*
X0710000Y0415000D01*
X0723613Y0417165D02*
X0809606Y0417165D01*
X0808187Y0421101D02*
X0723149Y0421101D01*
X0723811Y0425036D02*
X0807751Y0425036D01*
X0808207Y0428972D02*
X0723129Y0428972D01*
X0720395Y0432907D02*
X0809648Y0432907D01*
X0812377Y0413230D02*
X0723719Y0413230D01*
X0723009Y0409294D02*
X0817706Y0409294D01*
X0832294Y0409294D02*
X0837047Y0409294D01*
X0710000Y0375000D02*
X0560000Y0375000D01*
X0560000Y0245000D01*
X0540157Y0267615D02*
X0529889Y0267615D01*
X0530543Y0265000D02*
X0528050Y0265000D01*
X0528051Y0265000D01*
X0530543Y0265000D01*
X0525000Y0265449D02*
X0525000Y0265449D01*
X0525000Y0270543D01*
X0525000Y0265449D01*
X0525000Y0267615D02*
X0525000Y0267615D01*
X0520111Y0267615D02*
X0519889Y0267615D01*
X0515000Y0267615D02*
X0515000Y0267615D01*
X0515000Y0265449D02*
X0515000Y0270543D01*
X0515000Y0265449D01*
X0515000Y0265449D01*
X0511950Y0265000D02*
X0511949Y0265000D01*
X0509457Y0265000D01*
X0511950Y0265000D01*
X0509136Y0263680D02*
X-0277126Y0263680D01*
X-0277126Y0267615D02*
X-0220376Y0267615D01*
X-0219185Y0266928D02*
X-0216427Y0266189D01*
X-0213573Y0266189D01*
X-0210815Y0266928D01*
X-0210000Y0267398D01*
X-0209185Y0266928D01*
X-0206427Y0266189D01*
X-0203573Y0266189D01*
X-0200815Y0266928D01*
X-0200000Y0267398D01*
X-0199185Y0266928D01*
X-0196427Y0266189D01*
X-0193573Y0266189D01*
X-0190815Y0266928D01*
X-0190000Y0267398D01*
X-0189185Y0266928D01*
X-0186427Y0266189D01*
X-0183573Y0266189D01*
X-0180815Y0266928D01*
X-0180000Y0267398D01*
X-0179185Y0266928D01*
X-0176427Y0266189D01*
X-0173573Y0266189D01*
X-0170815Y0266928D01*
X-0170000Y0267398D01*
X-0169185Y0266928D01*
X-0166427Y0266189D01*
X-0163573Y0266189D01*
X-0160815Y0266928D01*
X-0158343Y0268355D01*
X-0156324Y0270374D01*
X-0154896Y0272846D01*
X-0154157Y0275604D01*
X-0154157Y0284396D01*
X-0154896Y0287154D01*
X-0155157Y0287606D01*
X-0155157Y0320157D01*
X-0093762Y0320157D01*
X-0108344Y0305575D01*
X-0109843Y0301958D01*
X-0109843Y0293905D01*
X-0110000Y0293905D01*
X-0110467Y0293905D01*
X-0111390Y0293759D01*
X-0112279Y0293471D01*
X-0113112Y0293046D01*
X-0113868Y0292497D01*
X-0114528Y0291836D01*
X-0115000Y0291187D01*
X-0115472Y0291836D01*
X-0116132Y0292497D01*
X-0116888Y0293046D01*
X-0117721Y0293471D01*
X-0118610Y0293759D01*
X-0119533Y0293905D01*
X-0120000Y0293905D01*
X-0120467Y0293905D01*
X-0120871Y0293842D01*
X-0121324Y0294626D01*
X-0123343Y0296645D01*
X-0125815Y0298072D01*
X-0128573Y0298811D01*
X-0131427Y0298811D01*
X-0134185Y0298072D01*
X-0136657Y0296645D01*
X-0138676Y0294626D01*
X-0140104Y0292154D01*
X-0140843Y0289396D01*
X-0140843Y0280604D01*
X-0140104Y0277846D01*
X-0138676Y0275374D01*
X-0136657Y0273355D01*
X-0134185Y0271928D01*
X-0131427Y0271189D01*
X-0128573Y0271189D01*
X-0125815Y0271928D01*
X-0123343Y0273355D01*
X-0121324Y0275374D01*
X-0120871Y0276158D01*
X-0120467Y0276094D01*
X-0120000Y0276094D01*
X-0119533Y0276094D01*
X-0118610Y0276241D01*
X-0117721Y0276529D01*
X-0116888Y0276954D01*
X-0116132Y0277503D01*
X-0115472Y0278164D01*
X-0115000Y0278813D01*
X-0114528Y0278164D01*
X-0113868Y0277503D01*
X-0113112Y0276954D01*
X-0112279Y0276529D01*
X-0111390Y0276241D01*
X-0110467Y0276094D01*
X-0110000Y0276094D01*
X-0109533Y0276094D01*
X-0109129Y0276158D01*
X-0108676Y0275374D01*
X-0106657Y0273355D01*
X-0104185Y0271928D01*
X-0101427Y0271189D01*
X-0098573Y0271189D01*
X-0095815Y0271928D01*
X-0095000Y0272398D01*
X-0094185Y0271928D01*
X-0091427Y0271189D01*
X-0088573Y0271189D01*
X-0085815Y0271928D01*
X-0085000Y0272398D01*
X-0084185Y0271928D01*
X-0081427Y0271189D01*
X-0078573Y0271189D01*
X-0075815Y0271928D01*
X-0073343Y0273355D01*
X-0071324Y0275374D01*
X-0069896Y0277846D01*
X-0069157Y0280604D01*
X-0069157Y0289396D01*
X-0069362Y0290157D01*
X0265157Y0290157D01*
X0265157Y0288638D01*
X0264551Y0286376D01*
X0264551Y0283624D01*
X0265263Y0280967D01*
X0266639Y0278584D01*
X0268584Y0276639D01*
X0270967Y0275263D01*
X0273624Y0274551D01*
X0276376Y0274551D01*
X0279033Y0275263D01*
X0280000Y0275822D01*
X0280967Y0275263D01*
X0283624Y0274551D01*
X0286376Y0274551D01*
X0289033Y0275263D01*
X0290000Y0275822D01*
X0290967Y0275263D01*
X0293624Y0274551D01*
X0296376Y0274551D01*
X0299033Y0275263D01*
X0301416Y0276639D01*
X0303361Y0278584D01*
X0303923Y0279558D01*
X0304564Y0279457D01*
X0305000Y0279457D01*
X0305436Y0279457D01*
X0306298Y0279593D01*
X0307128Y0279863D01*
X0307905Y0280259D01*
X0308611Y0280772D01*
X0309228Y0281389D01*
X0309741Y0282095D01*
X0310000Y0282603D01*
X0310259Y0282095D01*
X0310772Y0281389D01*
X0311389Y0280772D01*
X0312095Y0280259D01*
X0312872Y0279863D01*
X0313702Y0279593D01*
X0314564Y0279457D01*
X0315000Y0279457D01*
X0315436Y0279457D01*
X0316077Y0279558D01*
X0316639Y0278584D01*
X0318584Y0276639D01*
X0320967Y0275263D01*
X0323624Y0274551D01*
X0326376Y0274551D01*
X0329033Y0275263D01*
X0331416Y0276639D01*
X0333361Y0278584D01*
X0334737Y0280967D01*
X0335000Y0281949D01*
X0335263Y0280967D01*
X0336639Y0278584D01*
X0338584Y0276639D01*
X0340967Y0275263D01*
X0343624Y0274551D01*
X0346376Y0274551D01*
X0349033Y0275263D01*
X0350000Y0275822D01*
X0350967Y0275263D01*
X0353624Y0274551D01*
X0356376Y0274551D01*
X0359033Y0275263D01*
X0360000Y0275822D01*
X0360967Y0275263D01*
X0363624Y0274551D01*
X0366376Y0274551D01*
X0369033Y0275263D01*
X0370000Y0275822D01*
X0370967Y0275263D01*
X0373624Y0274551D01*
X0376376Y0274551D01*
X0379033Y0275263D01*
X0380000Y0275822D01*
X0380967Y0275263D01*
X0383624Y0274551D01*
X0386376Y0274551D01*
X0389033Y0275263D01*
X0390000Y0275822D01*
X0390967Y0275263D01*
X0393624Y0274551D01*
X0396376Y0274551D01*
X0399033Y0275263D01*
X0400000Y0275822D01*
X0400967Y0275263D01*
X0403624Y0274551D01*
X0406376Y0274551D01*
X0409033Y0275263D01*
X0410000Y0275822D01*
X0410967Y0275263D01*
X0413624Y0274551D01*
X0416376Y0274551D01*
X0419033Y0275263D01*
X0421416Y0276639D01*
X0423361Y0278584D01*
X0424737Y0280967D01*
X0425000Y0281949D01*
X0425263Y0280967D01*
X0426639Y0278584D01*
X0428584Y0276639D01*
X0430967Y0275263D01*
X0433624Y0274551D01*
X0436376Y0274551D01*
X0439033Y0275263D01*
X0440000Y0275822D01*
X0440967Y0275263D01*
X0443624Y0274551D01*
X0446376Y0274551D01*
X0449033Y0275263D01*
X0450000Y0275822D01*
X0450967Y0275263D01*
X0453624Y0274551D01*
X0456376Y0274551D01*
X0459033Y0275263D01*
X0460000Y0275822D01*
X0460967Y0275263D01*
X0463624Y0274551D01*
X0466376Y0274551D01*
X0469033Y0275263D01*
X0470000Y0275822D01*
X0470967Y0275263D01*
X0473624Y0274551D01*
X0476376Y0274551D01*
X0479033Y0275263D01*
X0480000Y0275822D01*
X0480967Y0275263D01*
X0483624Y0274551D01*
X0486376Y0274551D01*
X0489033Y0275263D01*
X0490000Y0275822D01*
X0490967Y0275263D01*
X0493624Y0274551D01*
X0496376Y0274551D01*
X0499033Y0275263D01*
X0500000Y0275822D01*
X0500967Y0275263D01*
X0503624Y0274551D01*
X0506376Y0274551D01*
X0509033Y0275263D01*
X0511416Y0276639D01*
X0513361Y0278584D01*
X0514737Y0280967D01*
X0515449Y0283624D01*
X0515449Y0286376D01*
X0514737Y0289033D01*
X0513361Y0291416D01*
X0511416Y0293361D01*
X0509033Y0294737D01*
X0506376Y0295449D01*
X0503624Y0295449D01*
X0500967Y0294737D01*
X0500000Y0294178D01*
X0499033Y0294737D01*
X0496376Y0295449D01*
X0493624Y0295449D01*
X0490967Y0294737D01*
X0490000Y0294178D01*
X0489033Y0294737D01*
X0486376Y0295449D01*
X0483624Y0295449D01*
X0480967Y0294737D01*
X0480000Y0294178D01*
X0479033Y0294737D01*
X0476376Y0295449D01*
X0473624Y0295449D01*
X0470967Y0294737D01*
X0470000Y0294178D01*
X0469033Y0294737D01*
X0466376Y0295449D01*
X0463624Y0295449D01*
X0460967Y0294737D01*
X0460000Y0294178D01*
X0459033Y0294737D01*
X0456376Y0295449D01*
X0453624Y0295449D01*
X0450967Y0294737D01*
X0450000Y0294178D01*
X0449033Y0294737D01*
X0446376Y0295449D01*
X0443624Y0295449D01*
X0440967Y0294737D01*
X0440000Y0294178D01*
X0439033Y0294737D01*
X0436376Y0295449D01*
X0433624Y0295449D01*
X0430967Y0294737D01*
X0428584Y0293361D01*
X0426639Y0291416D01*
X0425263Y0289033D01*
X0425000Y0288051D01*
X0424737Y0289033D01*
X0423361Y0291416D01*
X0421416Y0293361D01*
X0419033Y0294737D01*
X0416376Y0295449D01*
X0413624Y0295449D01*
X0410967Y0294737D01*
X0410000Y0294178D01*
X0409033Y0294737D01*
X0406376Y0295449D01*
X0404843Y0295449D01*
X0404843Y0331958D01*
X0403344Y0335575D01*
X0353344Y0385575D01*
X0350575Y0388344D01*
X0346958Y0389843D01*
X-0166958Y0389843D01*
X-0170575Y0388344D01*
X-0223344Y0335575D01*
X-0224843Y0331958D01*
X-0224843Y0287606D01*
X-0225104Y0287154D01*
X-0225843Y0284396D01*
X-0225843Y0275604D01*
X-0225104Y0272846D01*
X-0223676Y0270374D01*
X-0221657Y0268355D01*
X-0219185Y0266928D01*
X-0224356Y0271551D02*
X-0277126Y0271551D01*
X-0277126Y0275486D02*
X-0225811Y0275486D01*
X-0225843Y0279422D02*
X-0277126Y0279422D01*
X-0277126Y0283357D02*
X-0225843Y0283357D01*
X-0225023Y0287293D02*
X-0277126Y0287293D01*
X-0277126Y0291228D02*
X-0224843Y0291228D01*
X-0224843Y0295164D02*
X-0277126Y0295164D01*
X-0277126Y0299099D02*
X-0224843Y0299099D01*
X-0224843Y0303035D02*
X-0277126Y0303035D01*
X-0277126Y0306970D02*
X-0224843Y0306970D01*
X-0224843Y0310906D02*
X-0277126Y0310906D01*
X-0277126Y0314842D02*
X-0224843Y0314842D01*
X-0224843Y0318777D02*
X-0277126Y0318777D01*
X-0277126Y0322713D02*
X-0224843Y0322713D01*
X-0224843Y0326648D02*
X-0277126Y0326648D01*
X-0277126Y0330584D02*
X-0224843Y0330584D01*
X-0223782Y0334519D02*
X-0277126Y0334519D01*
X-0277126Y0338455D02*
X-0220465Y0338455D01*
X-0216529Y0342390D02*
X-0277126Y0342390D01*
X-0277126Y0346326D02*
X-0212594Y0346326D01*
X-0208658Y0350261D02*
X-0277126Y0350261D01*
X-0277126Y0354197D02*
X-0204723Y0354197D01*
X-0200787Y0358132D02*
X-0277126Y0358132D01*
X-0277126Y0362068D02*
X-0196852Y0362068D01*
X-0192916Y0366003D02*
X-0277126Y0366003D01*
X-0277126Y0369939D02*
X-0188981Y0369939D01*
X-0185045Y0373874D02*
X-0277126Y0373874D01*
X-0277126Y0377810D02*
X-0181110Y0377810D01*
X-0177174Y0381745D02*
X-0277126Y0381745D01*
X-0277126Y0385681D02*
X-0173239Y0385681D01*
X-0167504Y0389616D02*
X-0277126Y0389616D01*
X-0277126Y0393552D02*
X0540157Y0393552D01*
X0540157Y0397487D02*
X-0277126Y0397487D01*
X-0277126Y0401423D02*
X0540157Y0401423D01*
X0540157Y0405358D02*
X-0277126Y0405358D01*
X-0277126Y0409294D02*
X-0272294Y0409294D01*
X-0257706Y0409294D02*
X0540157Y0409294D01*
X0540157Y0413230D02*
X-0252377Y0413230D01*
X-0249606Y0417165D02*
X0540243Y0417165D01*
X0542181Y0421101D02*
X-0248187Y0421101D01*
X-0247751Y0425036D02*
X0696189Y0425036D01*
X0696871Y0428972D02*
X-0248207Y0428972D01*
X-0249648Y0432907D02*
X0699605Y0432907D01*
X0540157Y0389616D02*
X0347504Y0389616D01*
X0353239Y0385681D02*
X0540157Y0385681D01*
X0540157Y0381745D02*
X0357174Y0381745D01*
X0361110Y0377810D02*
X0540157Y0377810D01*
X0540157Y0373874D02*
X0365045Y0373874D01*
X0368981Y0369939D02*
X0540157Y0369939D01*
X0540157Y0366003D02*
X0372916Y0366003D01*
X0376852Y0362068D02*
X0540157Y0362068D01*
X0540157Y0358132D02*
X0380787Y0358132D01*
X0384723Y0354197D02*
X0540157Y0354197D01*
X0540157Y0350261D02*
X0388658Y0350261D01*
X0392594Y0346326D02*
X0540157Y0346326D01*
X0540157Y0342390D02*
X0396529Y0342390D01*
X0400465Y0338455D02*
X0540157Y0338455D01*
X0540157Y0334519D02*
X0403782Y0334519D01*
X0404843Y0330584D02*
X0540157Y0330584D01*
X0540157Y0326648D02*
X0404843Y0326648D01*
X0404843Y0322713D02*
X0540157Y0322713D01*
X0540157Y0318777D02*
X0404843Y0318777D01*
X0404843Y0314842D02*
X0540157Y0314842D01*
X0540157Y0310906D02*
X0404843Y0310906D01*
X0404843Y0306970D02*
X0540157Y0306970D01*
X0540157Y0303035D02*
X0404843Y0303035D01*
X0404843Y0299099D02*
X0540157Y0299099D01*
X0540157Y0295164D02*
X0507439Y0295164D01*
X0502561Y0295164D02*
X0497439Y0295164D01*
X0492561Y0295164D02*
X0487439Y0295164D01*
X0482561Y0295164D02*
X0477439Y0295164D01*
X0472561Y0295164D02*
X0467439Y0295164D01*
X0462561Y0295164D02*
X0457439Y0295164D01*
X0452561Y0295164D02*
X0447439Y0295164D01*
X0442561Y0295164D02*
X0437439Y0295164D01*
X0432561Y0295164D02*
X0417439Y0295164D01*
X0412561Y0295164D02*
X0407439Y0295164D01*
X0423469Y0291228D02*
X0426531Y0291228D01*
X0426155Y0279422D02*
X0423845Y0279422D01*
X0419419Y0275486D02*
X0430580Y0275486D01*
X0439419Y0275486D02*
X0440580Y0275486D01*
X0449419Y0275486D02*
X0450580Y0275486D01*
X0459419Y0275486D02*
X0460580Y0275486D01*
X0469419Y0275486D02*
X0470580Y0275486D01*
X0479419Y0275486D02*
X0480580Y0275486D01*
X0489419Y0275486D02*
X0490580Y0275486D01*
X0499419Y0275486D02*
X0500580Y0275486D01*
X0509419Y0275486D02*
X0540157Y0275486D01*
X0540157Y0271551D02*
X-0077222Y0271551D01*
X-0082778Y0271551D02*
X-0087222Y0271551D01*
X-0092778Y0271551D02*
X-0097222Y0271551D01*
X-0102778Y0271551D02*
X-0127222Y0271551D01*
X-0132778Y0271551D02*
X-0155644Y0271551D01*
X-0154189Y0275486D02*
X-0138741Y0275486D01*
X-0140526Y0279422D02*
X-0154157Y0279422D01*
X-0154157Y0283357D02*
X-0140843Y0283357D01*
X-0140843Y0287293D02*
X-0154977Y0287293D01*
X-0155157Y0291228D02*
X-0140351Y0291228D01*
X-0138138Y0295164D02*
X-0155157Y0295164D01*
X-0155157Y0299099D02*
X-0109843Y0299099D01*
X-0109843Y0295164D02*
X-0121862Y0295164D01*
X-0120000Y0293905D02*
X-0120000Y0292333D01*
X-0120000Y0292333D01*
X-0120000Y0293905D01*
X-0115030Y0291228D02*
X-0114970Y0291228D01*
X-0110000Y0292333D02*
X-0110000Y0293905D01*
X-0110000Y0292333D01*
X-0110000Y0292333D01*
X-0110000Y0285000D02*
X-0110000Y0265000D01*
X0300000Y0265000D01*
X0305000Y0270000D01*
X0305000Y0285000D01*
X0305449Y0285000D02*
X0310543Y0285000D01*
X0314551Y0285000D01*
X0314551Y0285000D01*
X0305449Y0285000D01*
X0305449Y0285000D01*
X0305000Y0281950D02*
X0305000Y0279457D01*
X0305000Y0281949D01*
X0305000Y0281950D01*
X0303845Y0279422D02*
X0316155Y0279422D01*
X0315000Y0279457D02*
X0315000Y0281949D01*
X0315000Y0281950D01*
X0315000Y0279457D01*
X0320580Y0275486D02*
X0299419Y0275486D01*
X0290580Y0275486D02*
X0289419Y0275486D01*
X0280580Y0275486D02*
X0279419Y0275486D01*
X0270580Y0275486D02*
X-0071259Y0275486D01*
X-0069474Y0279422D02*
X0266155Y0279422D01*
X0264623Y0283357D02*
X-0069157Y0283357D01*
X-0069157Y0287293D02*
X0264797Y0287293D01*
X0275000Y0285000D02*
X0275000Y0300000D01*
X-0080000Y0300000D01*
X-0080000Y0285000D01*
X-0090000Y0285000D02*
X-0090000Y0300000D01*
X-0080000Y0310000D01*
X0275000Y0310000D01*
X0285000Y0300000D01*
X0285000Y0285000D01*
X0295000Y0285000D02*
X0295000Y0300000D01*
X0275000Y0320000D01*
X-0080000Y0320000D01*
X-0100000Y0300000D01*
X-0100000Y0285000D01*
X-0110843Y0285000D02*
X-0115937Y0285000D01*
X-0119157Y0285000D01*
X-0110843Y0285000D01*
X-0110843Y0285000D01*
X-0110000Y0277667D02*
X-0110000Y0277667D01*
X-0110000Y0276094D01*
X-0110000Y0277667D01*
X-0108741Y0275486D02*
X-0121259Y0275486D01*
X-0120000Y0276094D02*
X-0120000Y0277667D01*
X-0120000Y0276094D01*
X-0120000Y0277667D02*
X-0120000Y0277667D01*
X-0119157Y0285000D02*
X-0119157Y0285000D01*
X-0109396Y0303035D02*
X-0155157Y0303035D01*
X-0155157Y0306970D02*
X-0106949Y0306970D01*
X-0103013Y0310906D02*
X-0155157Y0310906D01*
X-0155157Y0314842D02*
X-0099078Y0314842D01*
X-0095142Y0318777D02*
X-0155157Y0318777D01*
X-0165000Y0330000D02*
X0345000Y0330000D01*
X0345000Y0285000D01*
X0355000Y0285000D02*
X0355000Y0330000D01*
X0345000Y0340000D01*
X-0165000Y0340000D01*
X-0175000Y0330000D01*
X-0175000Y0280000D01*
X-0165000Y0280000D02*
X-0165000Y0330000D01*
X-0185000Y0330000D02*
X-0185000Y0280000D01*
X-0195000Y0280000D02*
X-0195000Y0330000D01*
X-0165000Y0360000D01*
X0345000Y0360000D01*
X0375000Y0330000D01*
X0375000Y0285000D01*
X0385000Y0285000D02*
X0385000Y0330000D01*
X0345000Y0370000D01*
X-0165000Y0370000D01*
X-0205000Y0330000D01*
X-0205000Y0280000D01*
X-0215000Y0280000D02*
X-0215000Y0330000D01*
X-0165000Y0380000D01*
X0345000Y0380000D01*
X0395000Y0330000D01*
X0395000Y0285000D01*
X0399419Y0275486D02*
X0400580Y0275486D01*
X0409419Y0275486D02*
X0410580Y0275486D01*
X0390580Y0275486D02*
X0389419Y0275486D01*
X0380580Y0275486D02*
X0379419Y0275486D01*
X0370580Y0275486D02*
X0369419Y0275486D01*
X0360580Y0275486D02*
X0359419Y0275486D01*
X0350580Y0275486D02*
X0349419Y0275486D01*
X0340580Y0275486D02*
X0329419Y0275486D01*
X0333845Y0279422D02*
X0336155Y0279422D01*
X0365000Y0285000D02*
X0365000Y0330000D01*
X0345000Y0350000D01*
X-0165000Y0350000D01*
X-0185000Y0330000D01*
X-0159624Y0267615D02*
X0510111Y0267615D01*
X0505674Y0259744D02*
X-0277126Y0259744D01*
X-0277126Y0255809D02*
X0504551Y0255809D01*
X0505020Y0251873D02*
X-0277126Y0251873D01*
X-0277126Y0247938D02*
X0504970Y0247938D01*
X0504551Y0244002D02*
X-0277126Y0244002D01*
X-0277126Y0240067D02*
X0505783Y0240067D01*
X0504551Y0236131D02*
X-0277126Y0236131D01*
X-0277126Y0232196D02*
X0504934Y0232196D01*
X0505056Y0228260D02*
X-0277126Y0228260D01*
X-0277126Y0224325D02*
X0504551Y0224325D01*
X0505597Y0220389D02*
X-0277126Y0220389D01*
X-0277126Y0216454D02*
X0504572Y0216454D01*
X0504848Y0212518D02*
X0411401Y0212518D01*
X0410575Y0213344D02*
X0406958Y0214843D01*
X-0226958Y0214843D01*
X-0230575Y0213344D01*
X-0233344Y0210575D01*
X-0234843Y0206958D01*
X-0234843Y0201384D01*
X-0236474Y0199753D01*
X-0236474Y0194843D01*
X-0246958Y0194843D01*
X-0250575Y0193344D01*
X-0253344Y0190575D01*
X-0254843Y0186958D01*
X-0254843Y0153042D01*
X-0253344Y0149425D01*
X-0250575Y0146656D01*
X-0246958Y0145157D01*
X0416958Y0145157D01*
X0420575Y0146656D01*
X0423344Y0149425D01*
X0424843Y0153042D01*
X0424843Y0186958D01*
X0423344Y0190575D01*
X0420575Y0193344D01*
X0416958Y0194843D01*
X0416474Y0194843D01*
X0416474Y0199753D01*
X0414843Y0201384D01*
X0414843Y0206958D01*
X0413344Y0210575D01*
X0410575Y0213344D01*
X0414170Y0208583D02*
X0505143Y0208583D01*
X0504551Y0204647D02*
X0414843Y0204647D01*
X0415515Y0200711D02*
X0505411Y0200711D01*
X0504658Y0196776D02*
X0416474Y0196776D01*
X0421079Y0192840D02*
X0504761Y0192840D01*
X0505229Y0188905D02*
X0424036Y0188905D01*
X0424843Y0184969D02*
X0504551Y0184969D01*
X0505245Y0181034D02*
X0424843Y0181034D01*
X0424843Y0177098D02*
X0504745Y0177098D01*
X0504675Y0173163D02*
X0424843Y0173163D01*
X0424843Y0169227D02*
X0505375Y0169227D01*
X0504551Y0165292D02*
X0424843Y0165292D01*
X0424843Y0161356D02*
X0505159Y0161356D01*
X0504831Y0157421D02*
X0424843Y0157421D01*
X0424843Y0153485D02*
X0504588Y0153485D01*
X0505562Y0149550D02*
X0423396Y0149550D01*
X0418060Y0145614D02*
X0504551Y0145614D01*
X0505073Y0141679D02*
X-0277126Y0141679D01*
X-0277126Y0145614D02*
X-0248060Y0145614D01*
X-0253396Y0149550D02*
X-0277126Y0149550D01*
X-0277126Y0153485D02*
X-0254843Y0153485D01*
X-0254843Y0157421D02*
X-0277126Y0157421D01*
X-0277126Y0161356D02*
X-0254843Y0161356D01*
X-0254843Y0165292D02*
X-0277126Y0165292D01*
X-0277126Y0169227D02*
X-0254843Y0169227D01*
X-0254843Y0173163D02*
X-0277126Y0173163D01*
X-0277126Y0177098D02*
X-0254843Y0177098D01*
X-0254843Y0181034D02*
X-0277126Y0181034D01*
X-0277126Y0184969D02*
X-0254843Y0184969D01*
X-0254036Y0188905D02*
X-0277126Y0188905D01*
X-0277126Y0192840D02*
X-0251079Y0192840D01*
X-0245000Y0185000D02*
X-0245000Y0155000D01*
X0415000Y0155000D01*
X0415000Y0185000D01*
X0405000Y0185000D01*
X0405000Y0175000D02*
X0405000Y0165000D01*
X-0225000Y0165000D01*
X-0225000Y0175000D01*
X-0225000Y0185000D02*
X-0245000Y0185000D01*
X-0236474Y0196776D02*
X-0277126Y0196776D01*
X-0277126Y0200711D02*
X-0235515Y0200711D01*
X-0234843Y0204647D02*
X-0277126Y0204647D01*
X-0277126Y0208583D02*
X-0234170Y0208583D01*
X-0231401Y0212518D02*
X-0277126Y0212518D01*
X-0225000Y0205000D02*
X-0225000Y0195000D01*
X-0225000Y0205000D02*
X0405000Y0205000D01*
X0405000Y0195000D01*
X0395000Y0195000D02*
X-0215000Y0195000D01*
X-0215000Y0185000D02*
X0395000Y0185000D01*
X0395000Y0175000D02*
X-0215000Y0175000D01*
X-0277126Y0137743D02*
X0504918Y0137743D01*
X0504551Y0133808D02*
X-0277126Y0133808D01*
X-0277126Y0129872D02*
X0505748Y0129872D01*
X0504551Y0125937D02*
X-0277126Y0125937D01*
X-0277126Y0122001D02*
X-0216918Y0122001D01*
X-0219384Y0118066D02*
X-0277126Y0118066D01*
X-0277126Y0114130D02*
X-0219843Y0114130D01*
X-0219843Y0110195D02*
X-0277126Y0110195D01*
X-0277126Y0106259D02*
X-0219843Y0106259D01*
X-0220005Y0102323D02*
X-0277126Y0102323D01*
X-0277126Y0098388D02*
X-0220843Y0098388D01*
X-0220843Y0094452D02*
X-0277126Y0094452D01*
X-0277126Y0090517D02*
X-0220819Y0090517D01*
X-0219373Y0086581D02*
X-0277126Y0086581D01*
X-0277126Y0082646D02*
X-0215429Y0082646D01*
X-0210000Y0095000D02*
X-0210000Y0115000D01*
X0395000Y0115000D01*
X0395000Y0095000D01*
X0385000Y0095000D02*
X0385000Y0105000D01*
X-0200000Y0105000D01*
X-0200000Y0095000D01*
X-0134571Y0082646D02*
X-0130429Y0082646D01*
X-0114843Y0078710D02*
X-0277126Y0078710D01*
X-0277126Y0074775D02*
X-0113489Y0074775D01*
X-0109759Y0070839D02*
X-0277126Y0070839D01*
X-0277126Y0066904D02*
X-0105823Y0066904D01*
X-0101888Y0062968D02*
X-0277126Y0062968D01*
X-0277126Y0059033D02*
X-0097952Y0059033D01*
X-0094017Y0055097D02*
X-0277126Y0055097D01*
X-0277126Y0051162D02*
X-0090081Y0051162D01*
X-0086146Y0047226D02*
X-0277126Y0047226D01*
X-0277126Y0043291D02*
X-0082210Y0043291D01*
X-0078275Y0039355D02*
X-0277126Y0039355D01*
X-0277126Y0035420D02*
X-0074339Y0035420D01*
X-0070404Y0031484D02*
X-0277126Y0031484D01*
X-0277126Y0027549D02*
X-0066468Y0027549D01*
X-0077182Y-0061706D02*
X-0088519Y-0061706D01*
X-0091780Y-0063057D01*
X-0094277Y-0065553D01*
X-0094544Y-0065821D01*
X-0094812Y-0065553D01*
X-0097308Y-0063057D01*
X-0100570Y-0061706D01*
X-0111907Y-0061706D01*
X-0115168Y-0063057D01*
X-0115981Y-0063869D01*
X-0116793Y-0063057D01*
X-0120055Y-0061706D01*
X-0123585Y-0061706D01*
X-0126846Y-0063057D01*
X-0129343Y-0065553D01*
X-0130694Y-0068815D01*
X-0130694Y-0085126D01*
X-0136334Y-0085126D01*
X-0136334Y-0068815D01*
X-0137685Y-0065553D01*
X-0140181Y-0063057D01*
X-0143443Y-0061706D01*
X-0158683Y-0061706D01*
X-0161944Y-0063057D01*
X-0162757Y-0063869D01*
X-0163569Y-0063057D01*
X-0166830Y-0061706D01*
X-0185974Y-0061706D01*
X-0188096Y-0062585D01*
X-0190218Y-0061706D01*
X-0205459Y-0061706D01*
X-0208720Y-0063057D01*
X-0212624Y-0066960D01*
X-0215120Y-0069457D01*
X-0216471Y-0072718D01*
X-0216471Y-0084055D01*
X-0215120Y-0087317D01*
X-0214292Y-0088145D01*
X-0215120Y-0088973D01*
X-0216471Y-0092235D01*
X-0216471Y-0095765D01*
X-0215120Y-0099027D01*
X-0212624Y-0101523D01*
X-0209362Y-0102874D01*
X-0205832Y-0102874D01*
X-0202570Y-0101523D01*
X-0199673Y-0098626D01*
X-0199507Y-0099027D01*
X-0197010Y-0101523D01*
X-0193749Y-0102874D01*
X-0190218Y-0102874D01*
X-0188096Y-0101995D01*
X-0185974Y-0102874D01*
X-0166830Y-0102874D01*
X-0163569Y-0101523D01*
X-0162757Y-0100711D01*
X-0161944Y-0101523D01*
X-0158683Y-0102874D01*
X-0143443Y-0102874D01*
X-0141320Y-0101995D01*
X-0139198Y-0102874D01*
X-0120055Y-0102874D01*
X-0116793Y-0101523D01*
X-0115981Y-0100711D01*
X-0115168Y-0101523D01*
X-0111907Y-0102874D01*
X-0100570Y-0102874D01*
X-0097308Y-0101523D01*
X-0094812Y-0099027D01*
X-0094812Y-0099027D01*
X-0094544Y-0098759D01*
X-0094277Y-0099027D01*
X-0091780Y-0101523D01*
X-0088519Y-0102874D01*
X-0077182Y-0102874D01*
X-0073920Y-0101523D01*
X-0067521Y-0095123D01*
X-0066170Y-0091862D01*
X-0066170Y-0088332D01*
X-0067521Y-0085070D01*
X-0068349Y-0084242D01*
X-0067521Y-0083413D01*
X-0066170Y-0080152D01*
X-0066170Y-0072718D01*
X-0067521Y-0069457D01*
X-0070017Y-0066960D01*
X-0073920Y-0063057D01*
X-0077182Y-0061706D01*
X-0074134Y-0062968D02*
X-0044790Y-0062968D01*
X-0045005Y-0063057D02*
X-0048908Y-0066960D01*
X-0051404Y-0069457D01*
X-0052755Y-0072718D01*
X-0052755Y-0084055D01*
X-0051404Y-0087317D01*
X-0050576Y-0088145D01*
X-0051404Y-0088973D01*
X-0052755Y-0092235D01*
X-0052755Y-0095765D01*
X-0051404Y-0099027D01*
X-0048908Y-0101523D01*
X-0045646Y-0102874D01*
X-0042116Y-0102874D01*
X-0038854Y-0101523D01*
X-0035957Y-0098626D01*
X-0035791Y-0099027D01*
X-0033295Y-0101523D01*
X-0030033Y-0102874D01*
X-0026503Y-0102874D01*
X-0024380Y-0101995D01*
X-0022258Y-0102874D01*
X-0003115Y-0102874D01*
X0000147Y-0101523D01*
X0002643Y-0099027D01*
X0002911Y-0098381D01*
X0003178Y-0099027D01*
X0005675Y-0101523D01*
X0008936Y-0102874D01*
X0012467Y-0102874D01*
X0015728Y-0101523D01*
X0018225Y-0099027D01*
X0018492Y-0098381D01*
X0018760Y-0099027D01*
X0021256Y-0101523D01*
X0024518Y-0102874D01*
X0028048Y-0102874D01*
X0031310Y-0101523D01*
X0033806Y-0099027D01*
X0034089Y-0098342D01*
X0034373Y-0099027D01*
X0036869Y-0101523D01*
X0040131Y-0102874D01*
X0043661Y-0102874D01*
X0045783Y-0101995D01*
X0047906Y-0102874D01*
X0067049Y-0102874D01*
X0070311Y-0101523D01*
X0072807Y-0099027D01*
X0074158Y-0095765D01*
X0074158Y-0092235D01*
X0074158Y-0068815D01*
X0072807Y-0065553D01*
X0070311Y-0063057D01*
X0067049Y-0061706D01*
X0063519Y-0061706D01*
X0060257Y-0063057D01*
X0057761Y-0065553D01*
X0056410Y-0068815D01*
X0056410Y-0085126D01*
X0050770Y-0085126D01*
X0050770Y-0076622D01*
X0049419Y-0073360D01*
X0041613Y-0065553D01*
X0039116Y-0063057D01*
X0035855Y-0061706D01*
X0032324Y-0061706D01*
X0029063Y-0063057D01*
X0026188Y-0065932D01*
X0026031Y-0065553D01*
X0023535Y-0063057D01*
X0020273Y-0061706D01*
X0016743Y-0061706D01*
X0013481Y-0063057D01*
X0010985Y-0065553D01*
X0010702Y-0066238D01*
X0010418Y-0065553D01*
X0007922Y-0063057D01*
X0004660Y-0061706D01*
X0001130Y-0061706D01*
X-0000992Y-0062585D01*
X-0003115Y-0061706D01*
X-0022258Y-0061706D01*
X-0024380Y-0062585D01*
X-0026503Y-0061706D01*
X-0041743Y-0061706D01*
X-0045005Y-0063057D01*
X-0048851Y-0066904D02*
X-0070073Y-0066904D01*
X-0066948Y-0070839D02*
X-0051977Y-0070839D01*
X-0052755Y-0074775D02*
X-0066170Y-0074775D01*
X-0066170Y-0078710D02*
X-0052755Y-0078710D01*
X-0052755Y-0082646D02*
X-0067203Y-0082646D01*
X-0066895Y-0086581D02*
X-0051709Y-0086581D01*
X-0052044Y-0090517D02*
X-0066170Y-0090517D01*
X-0067243Y-0094452D02*
X-0052755Y-0094452D01*
X-0051669Y-0098388D02*
X-0070785Y-0098388D01*
X-0075853Y-0102323D02*
X-0046975Y-0102323D01*
X-0040787Y-0102323D02*
X-0031362Y-0102323D01*
X-0025174Y-0102323D02*
X-0023587Y-0102323D01*
X-0001786Y-0102323D02*
X0007607Y-0102323D01*
X0002914Y-0098388D02*
X0002908Y-0098388D01*
X0013796Y-0102323D02*
X0023189Y-0102323D01*
X0018495Y-0098388D02*
X0018489Y-0098388D01*
X0029377Y-0102323D02*
X0038802Y-0102323D01*
X0034109Y-0098388D02*
X0034070Y-0098388D01*
X0044990Y-0102323D02*
X0046577Y-0102323D01*
X0068378Y-0102323D02*
X0093353Y-0102323D01*
X0094682Y-0102874D02*
X0098212Y-0102874D01*
X0101473Y-0101523D01*
X0103970Y-0099027D01*
X0104253Y-0098342D01*
X0104537Y-0099027D01*
X0107033Y-0101523D01*
X0110295Y-0102874D01*
X0113825Y-0102874D01*
X0117087Y-0101523D01*
X0117899Y-0100711D01*
X0118711Y-0101523D01*
X0121973Y-0102874D01*
X0133310Y-0102874D01*
X0136571Y-0101523D01*
X0139068Y-0099027D01*
X0142206Y-0095888D01*
X0143506Y-0099027D01*
X0146003Y-0101523D01*
X0149264Y-0102874D01*
X0152795Y-0102874D01*
X0156056Y-0101523D01*
X0158552Y-0099027D01*
X0159903Y-0095765D01*
X0159903Y-0079454D01*
X0160601Y-0079454D01*
X0162723Y-0078575D01*
X0164846Y-0079454D01*
X0165543Y-0079454D01*
X0165543Y-0095765D01*
X0166894Y-0099027D01*
X0169391Y-0101523D01*
X0172652Y-0102874D01*
X0176183Y-0102874D01*
X0179444Y-0101523D01*
X0181940Y-0099027D01*
X0183240Y-0095888D01*
X0184972Y-0097620D01*
X0188875Y-0101523D01*
X0192137Y-0102874D01*
X0203474Y-0102874D01*
X0206735Y-0101523D01*
X0209232Y-0099027D01*
X0209499Y-0098759D01*
X0209767Y-0099027D01*
X0212263Y-0101523D01*
X0215525Y-0102874D01*
X0230765Y-0102874D01*
X0234027Y-0101523D01*
X0236523Y-0099027D01*
X0237874Y-0095765D01*
X0237874Y-0080525D01*
X0237874Y-0072345D01*
X0237874Y-0068815D01*
X0236523Y-0065553D01*
X0234027Y-0063057D01*
X0230765Y-0061706D01*
X0215525Y-0061706D01*
X0212263Y-0063057D01*
X0209499Y-0065821D01*
X0206735Y-0063057D01*
X0203474Y-0061706D01*
X0192137Y-0061706D01*
X0188875Y-0063057D01*
X0188063Y-0063869D01*
X0187251Y-0063057D01*
X0183989Y-0061706D01*
X0164846Y-0061706D01*
X0162723Y-0062585D01*
X0160601Y-0061706D01*
X0141458Y-0061706D01*
X0138196Y-0063057D01*
X0137384Y-0063869D01*
X0136571Y-0063057D01*
X0133310Y-0061706D01*
X0121973Y-0061706D01*
X0118711Y-0063057D01*
X0117899Y-0063869D01*
X0117087Y-0063057D01*
X0113825Y-0061706D01*
X0110295Y-0061706D01*
X0107033Y-0063057D01*
X0104253Y-0065837D01*
X0101473Y-0063057D01*
X0098212Y-0061706D01*
X0094682Y-0061706D01*
X0091420Y-0063057D01*
X0088924Y-0065553D01*
X0087573Y-0068815D01*
X0087573Y-0095765D01*
X0088924Y-0099027D01*
X0091420Y-0101523D01*
X0094682Y-0102874D01*
X0099541Y-0102323D02*
X0108966Y-0102323D01*
X0104272Y-0098388D02*
X0104234Y-0098388D01*
X0115154Y-0102323D02*
X0120644Y-0102323D01*
X0134639Y-0102323D02*
X0147935Y-0102323D01*
X0143242Y-0098388D02*
X0139707Y-0098388D01*
X0154124Y-0102323D02*
X0171323Y-0102323D01*
X0166630Y-0098388D02*
X0158817Y-0098388D01*
X0159903Y-0094452D02*
X0165543Y-0094452D01*
X0165543Y-0090517D02*
X0159903Y-0090517D01*
X0159903Y-0086581D02*
X0165543Y-0086581D01*
X0165543Y-0082646D02*
X0159903Y-0082646D01*
X0162396Y-0078710D02*
X0163050Y-0078710D01*
X0187037Y-0062968D02*
X0189089Y-0062968D01*
X0206521Y-0062968D02*
X0212477Y-0062968D01*
X0233813Y-0062968D02*
X0314049Y-0062968D01*
X0310113Y-0059033D02*
X-0277126Y-0059033D01*
X-0277126Y-0062968D02*
X-0208506Y-0062968D01*
X-0212567Y-0066904D02*
X-0277126Y-0066904D01*
X-0277126Y-0070839D02*
X-0215693Y-0070839D01*
X-0216471Y-0074775D02*
X-0277126Y-0074775D01*
X-0277126Y-0078710D02*
X-0216471Y-0078710D01*
X-0216471Y-0082646D02*
X-0277126Y-0082646D01*
X-0277126Y-0086581D02*
X-0215425Y-0086581D01*
X-0215759Y-0090517D02*
X-0277126Y-0090517D01*
X-0277126Y-0094452D02*
X-0216471Y-0094452D01*
X-0215385Y-0098388D02*
X-0277126Y-0098388D01*
X-0277126Y-0102323D02*
X-0210691Y-0102323D01*
X-0204503Y-0102323D02*
X-0195078Y-0102323D01*
X-0188889Y-0102323D02*
X-0187303Y-0102323D01*
X-0165501Y-0102323D02*
X-0160012Y-0102323D01*
X-0142113Y-0102323D02*
X-0140527Y-0102323D01*
X-0118726Y-0102323D02*
X-0113236Y-0102323D01*
X-0099241Y-0102323D02*
X-0089848Y-0102323D01*
X-0130694Y-0082646D02*
X-0136334Y-0082646D01*
X-0136334Y-0078710D02*
X-0130694Y-0078710D01*
X-0130694Y-0074775D02*
X-0136334Y-0074775D01*
X-0136334Y-0070839D02*
X-0130694Y-0070839D01*
X-0129902Y-0066904D02*
X-0137125Y-0066904D01*
X-0140395Y-0062968D02*
X-0126632Y-0062968D01*
X-0117007Y-0062968D02*
X-0114954Y-0062968D01*
X-0097522Y-0062968D02*
X-0091566Y-0062968D01*
X-0094812Y-0065553D02*
X-0094812Y-0065553D01*
X-0161730Y-0062968D02*
X-0163783Y-0062968D01*
X-0277126Y-0055097D02*
X0306178Y-0055097D01*
X0302242Y-0051162D02*
X-0277126Y-0051162D01*
X-0277126Y-0047226D02*
X0300269Y-0047226D01*
X0300157Y-0043291D02*
X-0277126Y-0043291D01*
X-0277126Y-0039355D02*
X0300157Y-0039355D01*
X0300157Y-0035420D02*
X-0277126Y-0035420D01*
X-0277126Y-0031484D02*
X0300157Y-0031484D01*
X0300157Y-0027549D02*
X-0277126Y-0027549D01*
X-0277126Y-0023613D02*
X0300157Y-0023613D01*
X0300157Y-0019678D02*
X-0277126Y-0019678D01*
X-0277126Y-0015742D02*
X0300157Y-0015742D01*
X0300157Y-0011807D02*
X-0277126Y-0011807D01*
X-0277126Y-0007871D02*
X0300157Y-0007871D01*
X0300157Y-0003936D02*
X-0277126Y-0003936D01*
X-0277126Y0000000D02*
X0300157Y0000000D01*
X0300157Y0003936D02*
X-0277126Y0003936D01*
X-0277126Y0007871D02*
X0300157Y0007871D01*
X0300157Y0011807D02*
X-0277126Y0011807D01*
X-0277126Y0015742D02*
X0300157Y0015742D01*
X0355000Y-0025000D02*
X0450000Y-0120000D01*
X0740000Y-0120000D01*
X0740000Y-0070000D01*
X0705000Y-0070000D01*
X0718811Y-0060157D02*
X0718811Y-0058573D01*
X0718072Y-0055815D01*
X0717602Y-0055000D01*
X0718072Y-0054185D01*
X0718811Y-0051427D01*
X0718811Y-0048573D01*
X0718072Y-0045815D01*
X0717602Y-0045000D01*
X0718072Y-0044185D01*
X0718811Y-0041427D01*
X0718811Y-0038573D01*
X0718072Y-0035815D01*
X0716645Y-0033343D01*
X0714626Y-0031324D01*
X0712154Y-0029896D01*
X0709396Y-0029157D01*
X0700604Y-0029157D01*
X0697846Y-0029896D01*
X0695374Y-0031324D01*
X0693355Y-0033343D01*
X0691928Y-0035815D01*
X0691189Y-0038573D01*
X0691189Y-0040157D01*
X0564843Y-0040157D01*
X0564843Y0020157D01*
X0691189Y0020157D01*
X0691189Y0018573D01*
X0691928Y0015815D01*
X0693355Y0013343D01*
X0695374Y0011324D01*
X0697846Y0009896D01*
X0700604Y0009157D01*
X0709396Y0009157D01*
X0712154Y0009896D01*
X0714626Y0011324D01*
X0716645Y0013343D01*
X0718072Y0015815D01*
X0718811Y0018573D01*
X0718811Y0021427D01*
X0718072Y0024185D01*
X0717602Y0025000D01*
X0718072Y0025815D01*
X0718811Y0028573D01*
X0718811Y0031427D01*
X0718072Y0034185D01*
X0717602Y0035000D01*
X0718072Y0035815D01*
X0718811Y0038573D01*
X0718811Y0040157D01*
X0740157Y0040157D01*
X0740157Y-0060157D01*
X0718811Y-0060157D01*
X0718811Y-0059033D02*
X0740157Y-0059033D01*
X0740157Y-0055097D02*
X0717658Y-0055097D01*
X0718811Y-0051162D02*
X0740157Y-0051162D01*
X0740157Y-0047226D02*
X0718450Y-0047226D01*
X0718312Y-0043291D02*
X0740157Y-0043291D01*
X0740157Y-0039355D02*
X0718811Y-0039355D01*
X0717844Y-0035420D02*
X0740157Y-0035420D01*
X0740157Y-0031484D02*
X0714786Y-0031484D01*
X0740157Y-0027549D02*
X0564843Y-0027549D01*
X0564843Y-0031484D02*
X0695214Y-0031484D01*
X0692156Y-0035420D02*
X0564843Y-0035420D01*
X0564843Y-0039355D02*
X0691189Y-0039355D01*
X0705000Y-0050000D02*
X0555000Y-0050000D01*
X0555000Y0115000D01*
X0525000Y0115000D01*
X0525000Y0105000D02*
X0545000Y0105000D01*
X0545000Y-0090000D01*
X0705000Y-0090000D01*
X0691189Y-0099843D02*
X0691189Y-0101427D01*
X0691928Y-0104185D01*
X0693355Y-0106657D01*
X0695374Y-0108676D01*
X0697846Y-0110104D01*
X0698048Y-0110157D01*
X0454077Y-0110157D01*
X0423762Y-0079843D01*
X0466540Y-0079843D01*
X0468343Y-0081645D01*
X0470815Y-0083072D01*
X0473573Y-0083811D01*
X0476427Y-0083811D01*
X0479185Y-0083072D01*
X0480000Y-0082602D01*
X0480815Y-0083072D01*
X0483573Y-0083811D01*
X0486427Y-0083811D01*
X0489185Y-0083072D01*
X0491657Y-0081645D01*
X0493676Y-0079626D01*
X0494129Y-0078842D01*
X0494533Y-0078905D01*
X0495000Y-0078905D01*
X0495467Y-0078905D01*
X0496390Y-0078759D01*
X0497279Y-0078471D01*
X0498112Y-0078046D01*
X0498868Y-0077497D01*
X0499528Y-0076836D01*
X0500078Y-0076080D01*
X0500502Y-0075248D01*
X0500791Y-0074359D01*
X0500937Y-0073436D01*
X0500937Y-0070000D01*
X0495843Y-0070000D01*
X0500937Y-0070000D01*
X0500937Y-0066564D01*
X0500791Y-0065641D01*
X0500502Y-0064752D01*
X0500078Y-0063920D01*
X0499528Y-0063164D01*
X0498868Y-0062503D01*
X0498112Y-0061954D01*
X0497279Y-0061529D01*
X0496390Y-0061241D01*
X0495467Y-0061094D01*
X0495000Y-0061094D01*
X0494843Y-0061094D01*
X0494843Y-0054843D01*
X0516958Y-0054843D01*
X0520575Y-0053344D01*
X0523344Y-0050575D01*
X0524843Y-0046958D01*
X0524843Y0084551D01*
X0526376Y0084551D01*
X0529033Y0085263D01*
X0531416Y0086639D01*
X0533361Y0088584D01*
X0534737Y0090967D01*
X0535157Y0092537D01*
X0535157Y-0091958D01*
X0536656Y-0095575D01*
X0539425Y-0098344D01*
X0543042Y-0099843D01*
X0691189Y-0099843D01*
X0691429Y-0102323D02*
X0446243Y-0102323D01*
X0442307Y-0098388D02*
X0539531Y-0098388D01*
X0536191Y-0094452D02*
X0438372Y-0094452D01*
X0434436Y-0090517D02*
X0535157Y-0090517D01*
X0535157Y-0086581D02*
X0430501Y-0086581D01*
X0426565Y-0082646D02*
X0470077Y-0082646D01*
X0479923Y-0082646D02*
X0480077Y-0082646D01*
X0489923Y-0082646D02*
X0535157Y-0082646D01*
X0535157Y-0078710D02*
X0496541Y-0078710D01*
X0495000Y-0078710D02*
X0495000Y-0078710D01*
X0495000Y-0078905D02*
X0495000Y-0077333D01*
X0495000Y-0077333D01*
X0495000Y-0078905D01*
X0500656Y-0074775D02*
X0535157Y-0074775D01*
X0535157Y-0070839D02*
X0500937Y-0070839D01*
X0500937Y-0066904D02*
X0535157Y-0066904D01*
X0535157Y-0062968D02*
X0499333Y-0062968D01*
X0495000Y-0062667D02*
X0495000Y-0061094D01*
X0495000Y-0062667D01*
X0495000Y-0062667D01*
X0494843Y-0059033D02*
X0535157Y-0059033D01*
X0535157Y-0055097D02*
X0494843Y-0055097D01*
X0485000Y-0045000D02*
X0485000Y-0070000D01*
X0475000Y-0070000D02*
X0415000Y-0070000D01*
X0365000Y-0020000D01*
X0365000Y0095000D01*
X0355000Y0095000D02*
X0355000Y-0025000D01*
X0345000Y-0030000D02*
X0450000Y-0135000D01*
X0750000Y-0135000D01*
X0750000Y0050000D01*
X0705000Y0050000D01*
X0718811Y0039355D02*
X0740157Y0039355D01*
X0740157Y0035420D02*
X0717844Y0035420D01*
X0718796Y0031484D02*
X0740157Y0031484D01*
X0740157Y0027549D02*
X0718537Y0027549D01*
X0718225Y0023613D02*
X0740157Y0023613D01*
X0740157Y0019678D02*
X0718811Y0019678D01*
X0718030Y0015742D02*
X0740157Y0015742D01*
X0740157Y0011807D02*
X0715109Y0011807D01*
X0740157Y0007871D02*
X0564843Y0007871D01*
X0564843Y0003936D02*
X0740157Y0003936D01*
X0740157Y0000000D02*
X0564843Y0000000D01*
X0564843Y-0003936D02*
X0740157Y-0003936D01*
X0740157Y-0007871D02*
X0564843Y-0007871D01*
X0564843Y-0011807D02*
X0740157Y-0011807D01*
X0740157Y-0015742D02*
X0564843Y-0015742D01*
X0564843Y-0019678D02*
X0740157Y-0019678D01*
X0740157Y-0023613D02*
X0564843Y-0023613D01*
X0535157Y-0023613D02*
X0524843Y-0023613D01*
X0524843Y-0019678D02*
X0535157Y-0019678D01*
X0535157Y-0015742D02*
X0524843Y-0015742D01*
X0524843Y-0011807D02*
X0535157Y-0011807D01*
X0535157Y-0007871D02*
X0524843Y-0007871D01*
X0524843Y-0003936D02*
X0535157Y-0003936D01*
X0535157Y0000000D02*
X0524843Y0000000D01*
X0524843Y0003936D02*
X0535157Y0003936D01*
X0535157Y0007871D02*
X0524843Y0007871D01*
X0524843Y0011807D02*
X0535157Y0011807D01*
X0535157Y0015742D02*
X0524843Y0015742D01*
X0524843Y0019678D02*
X0535157Y0019678D01*
X0535157Y0023613D02*
X0524843Y0023613D01*
X0524843Y0027549D02*
X0535157Y0027549D01*
X0535157Y0031484D02*
X0524843Y0031484D01*
X0524843Y0035420D02*
X0535157Y0035420D01*
X0535157Y0039355D02*
X0524843Y0039355D01*
X0524843Y0043291D02*
X0535157Y0043291D01*
X0535157Y0047226D02*
X0524843Y0047226D01*
X0524843Y0051162D02*
X0535157Y0051162D01*
X0535157Y0055097D02*
X0524843Y0055097D01*
X0524843Y0059033D02*
X0535157Y0059033D01*
X0535157Y0062968D02*
X0524843Y0062968D01*
X0524843Y0066904D02*
X0535157Y0066904D01*
X0535157Y0070839D02*
X0524843Y0070839D01*
X0524843Y0074775D02*
X0535157Y0074775D01*
X0535157Y0078710D02*
X0524843Y0078710D01*
X0524843Y0082646D02*
X0535157Y0082646D01*
X0535157Y0086581D02*
X0531316Y0086581D01*
X0534477Y0090517D02*
X0535157Y0090517D01*
X0515000Y0095000D02*
X0515000Y0020000D01*
X0460000Y0020000D01*
X0468460Y0010157D02*
X0505157Y0010157D01*
X0505157Y-0035157D01*
X0483042Y-0035157D01*
X0479425Y-0036656D01*
X0476656Y-0039425D01*
X0475157Y-0043042D01*
X0475157Y-0056189D01*
X0473573Y-0056189D01*
X0470815Y-0056928D01*
X0468343Y-0058355D01*
X0466540Y-0060157D01*
X0419077Y-0060157D01*
X0374843Y-0015923D01*
X0374843Y0035157D01*
X0410157Y0035157D01*
X0410157Y0028905D01*
X0410000Y0028905D01*
X0409533Y0028905D01*
X0408610Y0028759D01*
X0407721Y0028471D01*
X0406888Y0028046D01*
X0406132Y0027497D01*
X0405472Y0026836D01*
X0404922Y0026080D01*
X0404498Y0025248D01*
X0404209Y0024359D01*
X0404063Y0023436D01*
X0404063Y0020000D01*
X0409157Y0020000D01*
X0404063Y0020000D01*
X0404063Y0016564D01*
X0404209Y0015641D01*
X0404498Y0014752D01*
X0404922Y0013920D01*
X0405472Y0013164D01*
X0406132Y0012503D01*
X0406888Y0011954D01*
X0407721Y0011529D01*
X0408610Y0011241D01*
X0409533Y0011094D01*
X0410000Y0011094D01*
X0410467Y0011094D01*
X0410871Y0011158D01*
X0411324Y0010374D01*
X0413343Y0008355D01*
X0415815Y0006928D01*
X0418573Y0006189D01*
X0421427Y0006189D01*
X0424185Y0006928D01*
X0425000Y0007398D01*
X0425815Y0006928D01*
X0428573Y0006189D01*
X0431427Y0006189D01*
X0434185Y0006928D01*
X0435000Y0007398D01*
X0435815Y0006928D01*
X0438573Y0006189D01*
X0441427Y0006189D01*
X0444185Y0006928D01*
X0445000Y0007398D01*
X0445815Y0006928D01*
X0448573Y0006189D01*
X0451427Y0006189D01*
X0454185Y0006928D01*
X0455000Y0007398D01*
X0455815Y0006928D01*
X0458573Y0006189D01*
X0461427Y0006189D01*
X0464185Y0006928D01*
X0466657Y0008355D01*
X0468460Y0010157D01*
X0465819Y0007871D02*
X0505157Y0007871D01*
X0505157Y0003936D02*
X0374843Y0003936D01*
X0374843Y0007871D02*
X0414181Y0007871D01*
X0410000Y0011094D02*
X0410000Y0012667D01*
X0410000Y0012667D01*
X0410000Y0011094D01*
X0410000Y0011807D02*
X0410000Y0011807D01*
X0407177Y0011807D02*
X0374843Y0011807D01*
X0374843Y0015742D02*
X0404193Y0015742D01*
X0404063Y0019678D02*
X0374843Y0019678D01*
X0374843Y0023613D02*
X0404091Y0023613D01*
X0406203Y0027549D02*
X0374843Y0027549D01*
X0374843Y0031484D02*
X0410157Y0031484D01*
X0410000Y0028905D02*
X0410000Y0027333D01*
X0410000Y0027333D01*
X0410000Y0028905D01*
X0410000Y0027549D02*
X0410000Y0027549D01*
X0409157Y0020000D02*
X0409157Y0020000D01*
X0420000Y0020000D02*
X0420000Y0045000D01*
X0375000Y0045000D01*
X0375000Y0095000D01*
X0384843Y0082646D02*
X0505157Y0082646D01*
X0505157Y0086581D02*
X0491316Y0086581D01*
X0494477Y0090517D02*
X0505157Y0090517D01*
X0504551Y0094452D02*
X0495449Y0094452D01*
X0494910Y0098388D02*
X0505090Y0098388D01*
X0504900Y0102323D02*
X0492453Y0102323D01*
X0504551Y0106259D02*
X0404843Y0106259D01*
X0404843Y0102323D02*
X0407547Y0102323D01*
X0405090Y0098388D02*
X0404910Y0098388D01*
X0404477Y0090517D02*
X0405523Y0090517D01*
X0408684Y0086581D02*
X0401316Y0086581D01*
X0384843Y0078710D02*
X0505157Y0078710D01*
X0505157Y0074775D02*
X0384843Y0074775D01*
X0384843Y0070839D02*
X0505157Y0070839D01*
X0505157Y0066904D02*
X0384843Y0066904D01*
X0384843Y0062968D02*
X0505157Y0062968D01*
X0505157Y0059033D02*
X0384843Y0059033D01*
X0384843Y0055097D02*
X0505157Y0055097D01*
X0505157Y0051162D02*
X0427758Y0051162D01*
X0429731Y0047226D02*
X0505157Y0047226D01*
X0505157Y0043291D02*
X0429843Y0043291D01*
X0429843Y0039355D02*
X0505157Y0039355D01*
X0505157Y0035420D02*
X0429843Y0035420D01*
X0466818Y0031484D02*
X0505157Y0031484D01*
X0515000Y0020000D02*
X0515000Y-0045000D01*
X0485000Y-0045000D01*
X0482409Y-0035420D02*
X0394339Y-0035420D01*
X0398275Y-0039355D02*
X0476725Y-0039355D01*
X0475157Y-0043291D02*
X0402210Y-0043291D01*
X0406146Y-0047226D02*
X0475157Y-0047226D01*
X0475157Y-0051162D02*
X0410081Y-0051162D01*
X0414017Y-0055097D02*
X0475157Y-0055097D01*
X0467665Y-0059033D02*
X0417952Y-0059033D01*
X0390404Y-0031484D02*
X0505157Y-0031484D01*
X0505157Y-0027549D02*
X0386468Y-0027549D01*
X0382533Y-0023613D02*
X0505157Y-0023613D01*
X0505157Y-0019678D02*
X0378597Y-0019678D01*
X0374843Y-0015742D02*
X0505157Y-0015742D01*
X0505157Y-0011807D02*
X0374843Y-0011807D01*
X0374843Y-0007871D02*
X0505157Y-0007871D01*
X0505157Y-0003936D02*
X0374843Y-0003936D01*
X0374843Y0000000D02*
X0505157Y0000000D01*
X0524843Y-0027549D02*
X0535157Y-0027549D01*
X0535157Y-0031484D02*
X0524843Y-0031484D01*
X0524843Y-0035420D02*
X0535157Y-0035420D01*
X0535157Y-0039355D02*
X0524843Y-0039355D01*
X0524843Y-0043291D02*
X0535157Y-0043291D01*
X0535157Y-0047226D02*
X0524731Y-0047226D01*
X0522758Y-0051162D02*
X0535157Y-0051162D01*
X0495843Y-0070000D02*
X0495843Y-0070000D01*
X0450178Y-0106259D02*
X0693125Y-0106259D01*
X0760000Y-0150000D02*
X0765000Y-0145000D01*
X0765000Y0160000D01*
X0760000Y0165000D01*
X0705000Y0165000D01*
X0718631Y0177098D02*
X0765157Y0177098D01*
X0765157Y0181034D02*
X0718131Y0181034D01*
X0718811Y0184969D02*
X0765157Y0184969D01*
X0765157Y0188905D02*
X0718147Y0188905D01*
X0718615Y0192840D02*
X0765157Y0192840D01*
X0765157Y0196776D02*
X0718718Y0196776D01*
X0717191Y0200711D02*
X0765157Y0200711D01*
X0765157Y0204647D02*
X0712944Y0204647D01*
X0697056Y0204647D02*
X0535449Y0204647D01*
X0534589Y0200711D02*
X0692809Y0200711D01*
X0691282Y0196776D02*
X0535342Y0196776D01*
X0535239Y0192840D02*
X0548921Y0192840D01*
X0545964Y0188905D02*
X0534771Y0188905D01*
X0535449Y0184969D02*
X0545157Y0184969D01*
X0555000Y0185000D02*
X0555000Y0175000D01*
X0525000Y0175000D01*
X0525000Y0165000D02*
X0585000Y0165000D01*
X0585000Y0145000D01*
X0705000Y0145000D01*
X0705000Y0185000D02*
X0555000Y0185000D01*
X0575000Y0145000D02*
X0525000Y0145000D01*
X0525000Y0135000D02*
X0565000Y0135000D01*
X0565000Y0030000D01*
X0705000Y0030000D01*
X0691189Y0019678D02*
X0564843Y0019678D01*
X0564843Y0015742D02*
X0691970Y0015742D01*
X0694891Y0011807D02*
X0564843Y0011807D01*
X0575000Y0070000D02*
X0705000Y0070000D01*
X0575000Y0070000D02*
X0575000Y0145000D01*
X0504986Y0122001D02*
X0401918Y0122001D01*
X0404384Y0118066D02*
X0505004Y0118066D01*
X0504551Y0114130D02*
X0404843Y0114130D01*
X0404843Y0110195D02*
X0505709Y0110195D01*
X0345000Y0095000D02*
X0345000Y-0030000D01*
X0335000Y-0035000D02*
X0450000Y-0150000D01*
X0760000Y-0150000D01*
X0775000Y-0165000D02*
X0450000Y-0165000D01*
X0325000Y-0040000D01*
X0325000Y0095000D01*
X0335000Y0095000D02*
X0335000Y-0035000D01*
X0317984Y-0066904D02*
X0237082Y-0066904D01*
X0237874Y-0070839D02*
X0321920Y-0070839D01*
X0325855Y-0074775D02*
X0237874Y-0074775D01*
X0237874Y-0078710D02*
X0329791Y-0078710D01*
X0333726Y-0082646D02*
X0237874Y-0082646D01*
X0237874Y-0086581D02*
X0337662Y-0086581D01*
X0341598Y-0090517D02*
X0237874Y-0090517D01*
X0237874Y-0094452D02*
X0345533Y-0094452D01*
X0349469Y-0098388D02*
X0236788Y-0098388D01*
X0232094Y-0102323D02*
X0353404Y-0102323D01*
X0357340Y-0106259D02*
X-0277126Y-0106259D01*
X-0277126Y-0110195D02*
X0361275Y-0110195D01*
X0365211Y-0114130D02*
X-0277126Y-0114130D01*
X-0277126Y-0118066D02*
X0369146Y-0118066D01*
X0373082Y-0122001D02*
X-0277126Y-0122001D01*
X-0277126Y-0125937D02*
X0377017Y-0125937D01*
X0380953Y-0129872D02*
X-0277126Y-0129872D01*
X-0277126Y-0133808D02*
X0384888Y-0133808D01*
X0388824Y-0137743D02*
X-0277126Y-0137743D01*
X-0277126Y-0141679D02*
X0392759Y-0141679D01*
X0396695Y-0145614D02*
X-0277126Y-0145614D01*
X-0277126Y-0149550D02*
X0400630Y-0149550D01*
X0404566Y-0153485D02*
X-0277126Y-0153485D01*
X-0277126Y-0157421D02*
X0408501Y-0157421D01*
X0412437Y-0161356D02*
X-0277126Y-0161356D01*
X-0277126Y-0165292D02*
X-0274023Y-0165292D01*
X-0255977Y-0165292D02*
X0416372Y-0165292D01*
X0420308Y-0169227D02*
X-0251379Y-0169227D01*
X-0249030Y-0173163D02*
X0424243Y-0173163D01*
X0428179Y-0177098D02*
X-0247920Y-0177098D01*
X-0247751Y-0181034D02*
X0432114Y-0181034D01*
X0436050Y-0184969D02*
X-0248474Y-0184969D01*
X-0250224Y-0188905D02*
X0440779Y-0188905D01*
X0214196Y-0102323D02*
X0204803Y-0102323D01*
X0190808Y-0102323D02*
X0177512Y-0102323D01*
X0182205Y-0098388D02*
X0185740Y-0098388D01*
X0138410Y-0062968D02*
X0136357Y-0062968D01*
X0118925Y-0062968D02*
X0116873Y-0062968D01*
X0107247Y-0062968D02*
X0101259Y-0062968D01*
X0091634Y-0062968D02*
X0070097Y-0062968D01*
X0073367Y-0066904D02*
X0088364Y-0066904D01*
X0087573Y-0070839D02*
X0074158Y-0070839D01*
X0074158Y-0074775D02*
X0087573Y-0074775D01*
X0087573Y-0078710D02*
X0074158Y-0078710D01*
X0074158Y-0082646D02*
X0087573Y-0082646D01*
X0087573Y-0086581D02*
X0074158Y-0086581D01*
X0074158Y-0090517D02*
X0087573Y-0090517D01*
X0087573Y-0094452D02*
X0074158Y-0094452D01*
X0073072Y-0098388D02*
X0088659Y-0098388D01*
X0056410Y-0082646D02*
X0050770Y-0082646D01*
X0050770Y-0078710D02*
X0056410Y-0078710D01*
X0056410Y-0074775D02*
X0050005Y-0074775D01*
X0046899Y-0070839D02*
X0056410Y-0070839D01*
X0057202Y-0066904D02*
X0042963Y-0066904D01*
X0038902Y-0062968D02*
X0060471Y-0062968D01*
X0029277Y-0062968D02*
X0023321Y-0062968D01*
X0013695Y-0062968D02*
X0007708Y-0062968D01*
X0513845Y0279422D02*
X0540157Y0279422D01*
X0540157Y0283357D02*
X0515377Y0283357D01*
X0515203Y0287293D02*
X0540157Y0287293D01*
X0540157Y0291228D02*
X0513469Y0291228D01*
D16*
X0625000Y0220000D03*
X0335000Y0250000D03*
X0470000Y0375000D03*
X0465000Y0060000D03*
X0430000Y-0020000D03*
X0520000Y-0100000D03*
X0630000Y-0010000D03*
X0260000Y-0025000D03*
M02*
