G75*
%MOIN*%
%OFA0B0*%
%FSLAX25Y25*%
%IPPOS*%
%LPD*%
%AMOC8*
5,1,8,0,0,1.08239X$1,22.5*
%
%ADD10C,0.02000*%
%ADD11R,0.07200X0.07200*%
%ADD12OC8,0.07200*%
%ADD13C,0.05150*%
%ADD14C,0.05937*%
%ADD15C,0.03937*%
%ADD16C,0.04750*%
D10*
X-0316193Y-0154000D02*
X-0316193Y-0130580D01*
X-0308387Y-0130580D02*
X-0324000Y-0130580D01*
X-0300612Y-0134483D02*
X-0300612Y-0150097D01*
X-0296709Y-0154000D01*
X-0288902Y-0154000D01*
X-0284999Y-0150097D01*
X-0284999Y-0134483D01*
X-0288902Y-0130580D01*
X-0296709Y-0130580D01*
X-0300612Y-0134483D01*
X-0277224Y-0130580D02*
X-0277224Y-0154000D01*
X-0277224Y-0146193D02*
X-0265514Y-0146193D01*
X-0261611Y-0142290D01*
X-0261611Y-0134483D01*
X-0265514Y-0130580D01*
X-0277224Y-0130580D01*
X-0230448Y-0130580D02*
X-0230448Y-0154000D01*
X-0214835Y-0154000D01*
X-0207060Y-0154000D02*
X-0207060Y-0138387D01*
X-0199253Y-0130580D01*
X-0191447Y-0138387D01*
X-0191447Y-0154000D01*
X-0191447Y-0142290D02*
X-0207060Y-0142290D01*
X-0183672Y-0134483D02*
X-0183672Y-0130580D01*
X-0183672Y-0134483D02*
X-0175865Y-0142290D01*
X-0175865Y-0154000D01*
X-0175865Y-0142290D02*
X-0168059Y-0134483D01*
X-0168059Y-0130580D01*
X-0160284Y-0130580D02*
X-0160284Y-0154000D01*
X-0144671Y-0154000D01*
X-0136896Y-0154000D02*
X-0136896Y-0130580D01*
X-0125186Y-0130580D01*
X-0121283Y-0134483D01*
X-0121283Y-0142290D01*
X-0125186Y-0146193D01*
X-0136896Y-0146193D01*
X-0129089Y-0146193D02*
X-0121283Y-0154000D01*
X-0090120Y-0150097D02*
X-0090120Y-0134483D01*
X-0086217Y-0130580D01*
X-0078410Y-0130580D01*
X-0074507Y-0134483D01*
X-0066732Y-0134483D02*
X-0066732Y-0150097D01*
X-0062829Y-0154000D01*
X-0055022Y-0154000D01*
X-0051119Y-0150097D01*
X-0051119Y-0134483D01*
X-0055022Y-0130580D01*
X-0062829Y-0130580D01*
X-0066732Y-0134483D01*
X-0074507Y-0150097D02*
X-0078410Y-0154000D01*
X-0086217Y-0154000D01*
X-0090120Y-0150097D01*
X-0043344Y-0154000D02*
X-0043344Y-0130580D01*
X-0035538Y-0138387D01*
X-0027731Y-0130580D01*
X-0027731Y-0154000D01*
X-0019956Y-0154000D02*
X-0019956Y-0130580D01*
X-0008246Y-0130580D01*
X-0004343Y-0134483D01*
X-0004343Y-0142290D01*
X-0008246Y-0146193D01*
X-0019956Y-0146193D01*
X0003432Y-0150097D02*
X0007335Y-0154000D01*
X0015142Y-0154000D01*
X0019045Y-0150097D01*
X0019045Y-0134483D01*
X0015142Y-0130580D01*
X0007335Y-0130580D01*
X0003432Y-0134483D01*
X0003432Y-0150097D01*
X0026820Y-0154000D02*
X0026820Y-0130580D01*
X0042433Y-0154000D01*
X0042433Y-0130580D01*
X0050208Y-0130580D02*
X0050208Y-0154000D01*
X0065821Y-0154000D01*
X0073596Y-0154000D02*
X0073596Y-0130580D01*
X0089209Y-0154000D01*
X0089209Y-0130580D01*
X0096984Y-0130580D02*
X0112597Y-0130580D01*
X0104790Y-0130580D02*
X0104790Y-0154000D01*
X0065821Y-0130580D02*
X0050208Y-0130580D01*
X0050208Y-0142290D02*
X0058014Y-0142290D01*
X-0144671Y-0130580D02*
X-0160284Y-0130580D01*
X-0160284Y-0142290D02*
X-0152477Y-0142290D01*
D11*
X-0215000Y0175000D03*
X0395000Y0175000D03*
D12*
X0395000Y0185000D03*
X0405000Y0185000D03*
X0405000Y0175000D03*
X0405000Y0195000D03*
X0395000Y0195000D03*
X-0215000Y0195000D03*
X-0225000Y0195000D03*
X-0225000Y0185000D03*
X-0225000Y0175000D03*
X-0215000Y0185000D03*
D13*
X0240000Y0095000D03*
X0250000Y0095000D03*
X0260000Y0095000D03*
X0270000Y0095000D03*
X0280000Y0095000D03*
X0290000Y0095000D03*
X0300000Y0095000D03*
X0310000Y0095000D03*
X0325000Y0095000D03*
X0335000Y0095000D03*
X0345000Y0095000D03*
X0355000Y0095000D03*
X0365000Y0095000D03*
X0375000Y0095000D03*
X0385000Y0095000D03*
X0395000Y0095000D03*
X0415000Y0095000D03*
X0425000Y0095000D03*
X0435000Y0095000D03*
X0445000Y0095000D03*
X0455000Y0095000D03*
X0465000Y0095000D03*
X0475000Y0095000D03*
X0485000Y0095000D03*
X0515000Y0095000D03*
X0515000Y0105000D03*
X0515000Y0115000D03*
X0525000Y0115000D03*
X0525000Y0105000D03*
X0525000Y0095000D03*
X0525000Y0125000D03*
X0525000Y0135000D03*
X0515000Y0135000D03*
X0515000Y0125000D03*
X0515000Y0145000D03*
X0515000Y0155000D03*
X0515000Y0165000D03*
X0525000Y0165000D03*
X0525000Y0155000D03*
X0525000Y0145000D03*
X0525000Y0175000D03*
X0525000Y0185000D03*
X0515000Y0185000D03*
X0515000Y0175000D03*
X0515000Y0195000D03*
X0515000Y0205000D03*
X0525000Y0205000D03*
X0525000Y0195000D03*
X0525000Y0215000D03*
X0525000Y0225000D03*
X0525000Y0235000D03*
X0515000Y0235000D03*
X0515000Y0225000D03*
X0515000Y0215000D03*
X0515000Y0245000D03*
X0515000Y0255000D03*
X0525000Y0255000D03*
X0525000Y0245000D03*
X0525000Y0265000D03*
X0515000Y0265000D03*
X0505000Y0285000D03*
X0495000Y0285000D03*
X0485000Y0285000D03*
X0475000Y0285000D03*
X0465000Y0285000D03*
X0455000Y0285000D03*
X0445000Y0285000D03*
X0435000Y0285000D03*
X0415000Y0285000D03*
X0405000Y0285000D03*
X0395000Y0285000D03*
X0385000Y0285000D03*
X0375000Y0285000D03*
X0365000Y0285000D03*
X0355000Y0285000D03*
X0345000Y0285000D03*
X0325000Y0285000D03*
X0315000Y0285000D03*
X0305000Y0285000D03*
X0295000Y0285000D03*
X0285000Y0285000D03*
X0275000Y0285000D03*
D14*
X-0080000Y0282031D02*
X-0080000Y0287969D01*
X-0090000Y0287969D02*
X-0090000Y0282031D01*
X-0100000Y0282031D02*
X-0100000Y0287969D01*
X-0110000Y0287969D02*
X-0110000Y0282031D01*
X-0120000Y0282031D02*
X-0120000Y0287969D01*
X-0130000Y0287969D02*
X-0130000Y0282031D01*
X-0165000Y0282969D02*
X-0165000Y0277031D01*
X-0175000Y0277031D02*
X-0175000Y0282969D01*
X-0185000Y0282969D02*
X-0185000Y0277031D01*
X-0195000Y0277031D02*
X-0195000Y0282969D01*
X-0205000Y0282969D02*
X-0205000Y0277031D01*
X-0215000Y0277031D02*
X-0215000Y0282969D01*
X-0210000Y0097969D02*
X-0210000Y0092031D01*
X-0200000Y0092031D02*
X-0200000Y0097969D01*
X-0190000Y0097969D02*
X-0190000Y0092031D01*
X-0180000Y0092031D02*
X-0180000Y0097969D01*
X-0170000Y0097969D02*
X-0170000Y0092031D01*
X-0160000Y0092031D02*
X-0160000Y0097969D01*
X-0150000Y0097969D02*
X-0150000Y0092031D01*
X-0140000Y0092031D02*
X-0140000Y0097969D01*
X-0125000Y0097969D02*
X-0125000Y0092031D01*
X-0115000Y0092031D02*
X-0115000Y0097969D01*
X-0105000Y0097969D02*
X-0105000Y0092031D01*
X-0095000Y0092031D02*
X-0095000Y0097969D01*
X-0085000Y0097969D02*
X-0085000Y0092031D01*
X-0075000Y0092031D02*
X-0075000Y0097969D01*
X-0065000Y0097969D02*
X-0065000Y0092031D01*
X-0055000Y0092031D02*
X-0055000Y0097969D01*
X0410000Y0022969D02*
X0410000Y0017031D01*
X0420000Y0017031D02*
X0420000Y0022969D01*
X0430000Y0022969D02*
X0430000Y0017031D01*
X0440000Y0017031D02*
X0440000Y0022969D01*
X0450000Y0022969D02*
X0450000Y0017031D01*
X0460000Y0017031D02*
X0460000Y0022969D01*
X0475000Y-0067031D02*
X0475000Y-0072969D01*
X0485000Y-0072969D02*
X0485000Y-0067031D01*
X0495000Y-0067031D02*
X0495000Y-0072969D01*
X0702031Y-0070000D02*
X0707969Y-0070000D01*
X0707969Y-0080000D02*
X0702031Y-0080000D01*
X0702031Y-0090000D02*
X0707969Y-0090000D01*
X0707969Y-0100000D02*
X0702031Y-0100000D01*
X0702031Y-0060000D02*
X0707969Y-0060000D01*
X0707969Y-0050000D02*
X0702031Y-0050000D01*
X0702031Y-0040000D02*
X0707969Y-0040000D01*
X0707969Y0020000D02*
X0702031Y0020000D01*
X0702031Y0030000D02*
X0707969Y0030000D01*
X0707969Y0040000D02*
X0702031Y0040000D01*
X0702031Y0050000D02*
X0707969Y0050000D01*
X0707969Y0060000D02*
X0702031Y0060000D01*
X0702031Y0070000D02*
X0707969Y0070000D01*
X0707969Y0080000D02*
X0702031Y0080000D01*
X0702031Y0135000D02*
X0707969Y0135000D01*
X0707969Y0145000D02*
X0702031Y0145000D01*
X0702031Y0155000D02*
X0707969Y0155000D01*
X0707969Y0165000D02*
X0702031Y0165000D01*
X0702031Y0175000D02*
X0707969Y0175000D01*
X0707969Y0185000D02*
X0702031Y0185000D01*
X0702031Y0195000D02*
X0707969Y0195000D01*
X0707969Y0250000D02*
X0702031Y0250000D01*
X0702031Y0260000D02*
X0707969Y0260000D01*
X0707969Y0270000D02*
X0702031Y0270000D01*
X0702031Y0280000D02*
X0707969Y0280000D01*
X0707969Y0290000D02*
X0702031Y0290000D01*
X0702031Y0300000D02*
X0707969Y0300000D01*
X0707969Y0310000D02*
X0702031Y0310000D01*
X0707031Y0365000D02*
X0712969Y0365000D01*
X0712969Y0375000D02*
X0707031Y0375000D01*
X0707031Y0385000D02*
X0712969Y0385000D01*
X0712969Y0395000D02*
X0707031Y0395000D01*
X0707031Y0405000D02*
X0712969Y0405000D01*
X0712969Y0415000D02*
X0707031Y0415000D01*
X0707031Y0425000D02*
X0712969Y0425000D01*
D15*
X-0046324Y0085374D02*
X-0048343Y0083355D01*
X-0050815Y0081928D01*
X-0053573Y0081189D01*
X-0056427Y0081189D01*
X-0059185Y0081928D01*
X-0060000Y0082398D01*
X-0060815Y0081928D01*
X-0063573Y0081189D01*
X-0066427Y0081189D01*
X-0069185Y0081928D01*
X-0070000Y0082398D01*
X-0070815Y0081928D01*
X-0073573Y0081189D01*
X-0076427Y0081189D01*
X-0079185Y0081928D01*
X-0080000Y0082398D01*
X-0080815Y0081928D01*
X-0083573Y0081189D01*
X-0086427Y0081189D01*
X-0089185Y0081928D01*
X-0090000Y0082398D01*
X-0090815Y0081928D01*
X-0093573Y0081189D01*
X-0096427Y0081189D01*
X-0099185Y0081928D01*
X-0100000Y0082398D01*
X-0100815Y0081928D01*
X-0103573Y0081189D01*
X-0106427Y0081189D01*
X-0109185Y0081928D01*
X-0110000Y0082398D01*
X-0110815Y0081928D01*
X-0113573Y0081189D01*
X-0116427Y0081189D01*
X-0119185Y0081928D01*
X-0120000Y0082398D01*
X-0120815Y0081928D01*
X-0123573Y0081189D01*
X-0126427Y0081189D01*
X-0129185Y0081928D01*
X-0131657Y0083355D01*
X-0132500Y0084198D01*
X-0133343Y0083355D01*
X-0135815Y0081928D01*
X-0138573Y0081189D01*
X-0141427Y0081189D01*
X-0144185Y0081928D01*
X-0145000Y0082398D01*
X-0145815Y0081928D01*
X-0148573Y0081189D01*
X-0151427Y0081189D01*
X-0154185Y0081928D01*
X-0155000Y0082398D01*
X-0155815Y0081928D01*
X-0158573Y0081189D01*
X-0161427Y0081189D01*
X-0164185Y0081928D01*
X-0165000Y0082398D01*
X-0165815Y0081928D01*
X-0168573Y0081189D01*
X-0171427Y0081189D01*
X-0174185Y0081928D01*
X-0175000Y0082398D01*
X-0175815Y0081928D01*
X-0178573Y0081189D01*
X-0181427Y0081189D01*
X-0184185Y0081928D01*
X-0185000Y0082398D01*
X-0185815Y0081928D01*
X-0188573Y0081189D01*
X-0191427Y0081189D01*
X-0194185Y0081928D01*
X-0195000Y0082398D01*
X-0195815Y0081928D01*
X-0198573Y0081189D01*
X-0201427Y0081189D01*
X-0204185Y0081928D01*
X-0205000Y0082398D01*
X-0205815Y0081928D01*
X-0208573Y0081189D01*
X-0211427Y0081189D01*
X-0214185Y0081928D01*
X-0216657Y0083355D01*
X-0218676Y0085374D01*
X-0220104Y0087846D01*
X-0220843Y0090604D01*
X-0220843Y0099396D01*
X-0220104Y0102154D01*
X-0218676Y0104626D01*
X-0216657Y0106645D01*
X-0214185Y0108072D01*
X-0211427Y0108811D01*
X-0208573Y0108811D01*
X-0205815Y0108072D01*
X-0205000Y0107602D01*
X-0204185Y0108072D01*
X-0201427Y0108811D01*
X-0198573Y0108811D01*
X-0195815Y0108072D01*
X-0195000Y0107602D01*
X-0194185Y0108072D01*
X-0191427Y0108811D01*
X-0188573Y0108811D01*
X-0185815Y0108072D01*
X-0185000Y0107602D01*
X-0184185Y0108072D01*
X-0181427Y0108811D01*
X-0178573Y0108811D01*
X-0175815Y0108072D01*
X-0175000Y0107602D01*
X-0174185Y0108072D01*
X-0171427Y0108811D01*
X-0168573Y0108811D01*
X-0165815Y0108072D01*
X-0165000Y0107602D01*
X-0164185Y0108072D01*
X-0161427Y0108811D01*
X-0158573Y0108811D01*
X-0155815Y0108072D01*
X-0155000Y0107602D01*
X-0154185Y0108072D01*
X-0151427Y0108811D01*
X-0148573Y0108811D01*
X-0145815Y0108072D01*
X-0145000Y0107602D01*
X-0144185Y0108072D01*
X-0141427Y0108811D01*
X-0138573Y0108811D01*
X-0135815Y0108072D01*
X-0133343Y0106645D01*
X-0132500Y0105802D01*
X-0131657Y0106645D01*
X-0129185Y0108072D01*
X-0126427Y0108811D01*
X-0123573Y0108811D01*
X-0120815Y0108072D01*
X-0120000Y0107602D01*
X-0119185Y0108072D01*
X-0116427Y0108811D01*
X-0113573Y0108811D01*
X-0110815Y0108072D01*
X-0110000Y0107602D01*
X-0109185Y0108072D01*
X-0106427Y0108811D01*
X-0103573Y0108811D01*
X-0100815Y0108072D01*
X-0100000Y0107602D01*
X-0099185Y0108072D01*
X-0096427Y0108811D01*
X-0093573Y0108811D01*
X-0090815Y0108072D01*
X-0090000Y0107602D01*
X-0089185Y0108072D01*
X-0086427Y0108811D01*
X-0083573Y0108811D01*
X-0080815Y0108072D01*
X-0080000Y0107602D01*
X-0079185Y0108072D01*
X-0076427Y0108811D01*
X-0073573Y0108811D01*
X-0070815Y0108072D01*
X-0070000Y0107602D01*
X-0069185Y0108072D01*
X-0066427Y0108811D01*
X-0063573Y0108811D01*
X-0060815Y0108072D01*
X-0060000Y0107602D01*
X-0059185Y0108072D01*
X-0056427Y0108811D01*
X-0053573Y0108811D01*
X-0050815Y0108072D01*
X-0048343Y0106645D01*
X-0046324Y0104626D01*
X-0044896Y0102154D01*
X-0044157Y0099396D01*
X-0044157Y0090604D01*
X-0044896Y0087846D01*
X-0046324Y0085374D01*
X-0045627Y0086581D02*
X0233684Y0086581D01*
X0233584Y0086639D02*
X0235967Y0085263D01*
X0238624Y0084551D01*
X0241376Y0084551D01*
X0244033Y0085263D01*
X0245000Y0085822D01*
X0245967Y0085263D01*
X0248624Y0084551D01*
X0251376Y0084551D01*
X0254033Y0085263D01*
X0255000Y0085822D01*
X0255967Y0085263D01*
X0258624Y0084551D01*
X0261376Y0084551D01*
X0264033Y0085263D01*
X0265000Y0085822D01*
X0265967Y0085263D01*
X0268624Y0084551D01*
X0271376Y0084551D01*
X0274033Y0085263D01*
X0275000Y0085821D01*
X0275967Y0085263D01*
X0278624Y0084551D01*
X0281376Y0084551D01*
X0284033Y0085263D01*
X0285000Y0085822D01*
X0285967Y0085263D01*
X0288624Y0084551D01*
X0291376Y0084551D01*
X0294033Y0085263D01*
X0295000Y0085822D01*
X0295967Y0085263D01*
X0298624Y0084551D01*
X0301376Y0084551D01*
X0304033Y0085263D01*
X0305000Y0085822D01*
X0305967Y0085263D01*
X0308624Y0084551D01*
X0311376Y0084551D01*
X0314033Y0085263D01*
X0316416Y0086639D01*
X0317500Y0087723D01*
X0318584Y0086639D01*
X0320967Y0085263D01*
X0323624Y0084551D01*
X0326376Y0084551D01*
X0329033Y0085263D01*
X0330000Y0085822D01*
X0330967Y0085263D01*
X0333624Y0084551D01*
X0336376Y0084551D01*
X0339033Y0085263D01*
X0340000Y0085822D01*
X0340967Y0085263D01*
X0343624Y0084551D01*
X0346376Y0084551D01*
X0349033Y0085263D01*
X0350000Y0085822D01*
X0350967Y0085263D01*
X0353624Y0084551D01*
X0356376Y0084551D01*
X0359033Y0085263D01*
X0360000Y0085822D01*
X0360967Y0085263D01*
X0363624Y0084551D01*
X0366376Y0084551D01*
X0369033Y0085263D01*
X0370000Y0085822D01*
X0370967Y0085263D01*
X0373624Y0084551D01*
X0376376Y0084551D01*
X0379033Y0085263D01*
X0380000Y0085822D01*
X0380967Y0085263D01*
X0383624Y0084551D01*
X0386376Y0084551D01*
X0389033Y0085263D01*
X0390000Y0085822D01*
X0390967Y0085263D01*
X0393624Y0084551D01*
X0396376Y0084551D01*
X0399033Y0085263D01*
X0401416Y0086639D01*
X0403361Y0088584D01*
X0404737Y0090967D01*
X0405000Y0091949D01*
X0405263Y0090967D01*
X0406639Y0088584D01*
X0408584Y0086639D01*
X0410967Y0085263D01*
X0413624Y0084551D01*
X0416376Y0084551D01*
X0419033Y0085263D01*
X0420000Y0085822D01*
X0420967Y0085263D01*
X0423624Y0084551D01*
X0426376Y0084551D01*
X0429033Y0085263D01*
X0430000Y0085822D01*
X0430967Y0085263D01*
X0433624Y0084551D01*
X0436376Y0084551D01*
X0439033Y0085263D01*
X0440000Y0085822D01*
X0440967Y0085263D01*
X0443624Y0084551D01*
X0446376Y0084551D01*
X0449033Y0085263D01*
X0450000Y0085822D01*
X0450967Y0085263D01*
X0453624Y0084551D01*
X0456376Y0084551D01*
X0459033Y0085263D01*
X0460000Y0085822D01*
X0460967Y0085263D01*
X0463624Y0084551D01*
X0466376Y0084551D01*
X0469033Y0085263D01*
X0470000Y0085822D01*
X0470967Y0085263D01*
X0473624Y0084551D01*
X0476376Y0084551D01*
X0479033Y0085263D01*
X0480000Y0085822D01*
X0480967Y0085263D01*
X0483624Y0084551D01*
X0486376Y0084551D01*
X0489033Y0085263D01*
X0491416Y0086639D01*
X0493361Y0088584D01*
X0494737Y0090967D01*
X0495449Y0093624D01*
X0495449Y0096376D01*
X0494737Y0099033D01*
X0493361Y0101416D01*
X0491416Y0103361D01*
X0489033Y0104737D01*
X0486376Y0105449D01*
X0483624Y0105449D01*
X0480967Y0104737D01*
X0480000Y0104178D01*
X0479033Y0104737D01*
X0476376Y0105449D01*
X0473624Y0105449D01*
X0470967Y0104737D01*
X0470000Y0104178D01*
X0469033Y0104737D01*
X0466376Y0105449D01*
X0463624Y0105449D01*
X0460967Y0104737D01*
X0460000Y0104178D01*
X0459033Y0104737D01*
X0456376Y0105449D01*
X0453624Y0105449D01*
X0450967Y0104737D01*
X0450000Y0104178D01*
X0449033Y0104737D01*
X0446376Y0105449D01*
X0443624Y0105449D01*
X0440967Y0104737D01*
X0440000Y0104178D01*
X0439033Y0104737D01*
X0436376Y0105449D01*
X0433624Y0105449D01*
X0430967Y0104737D01*
X0430000Y0104178D01*
X0429033Y0104737D01*
X0426376Y0105449D01*
X0423624Y0105449D01*
X0420967Y0104737D01*
X0420000Y0104178D01*
X0419033Y0104737D01*
X0416376Y0105449D01*
X0413624Y0105449D01*
X0410967Y0104737D01*
X0408584Y0103361D01*
X0406639Y0101416D01*
X0405263Y0099033D01*
X0405000Y0098051D01*
X0404737Y0099033D01*
X0403361Y0101416D01*
X0401416Y0103361D01*
X0399033Y0104737D01*
X0396376Y0105449D01*
X0393624Y0105449D01*
X0390967Y0104737D01*
X0390000Y0104178D01*
X0389033Y0104737D01*
X0386376Y0105449D01*
X0383624Y0105449D01*
X0380967Y0104737D01*
X0380000Y0104178D01*
X0379033Y0104737D01*
X0376376Y0105449D01*
X0373624Y0105449D01*
X0370967Y0104737D01*
X0370000Y0104178D01*
X0369033Y0104737D01*
X0366376Y0105449D01*
X0363624Y0105449D01*
X0360967Y0104737D01*
X0360000Y0104178D01*
X0359033Y0104737D01*
X0356376Y0105449D01*
X0353624Y0105449D01*
X0350967Y0104737D01*
X0350000Y0104178D01*
X0349033Y0104737D01*
X0346376Y0105449D01*
X0343624Y0105449D01*
X0340967Y0104737D01*
X0340000Y0104178D01*
X0339033Y0104737D01*
X0336376Y0105449D01*
X0333624Y0105449D01*
X0330967Y0104737D01*
X0330000Y0104178D01*
X0329033Y0104737D01*
X0326376Y0105449D01*
X0323624Y0105449D01*
X0320967Y0104737D01*
X0318584Y0103361D01*
X0317500Y0102277D01*
X0316416Y0103361D01*
X0314033Y0104737D01*
X0311376Y0105449D01*
X0308624Y0105449D01*
X0305967Y0104737D01*
X0305000Y0104178D01*
X0304033Y0104737D01*
X0301376Y0105449D01*
X0298624Y0105449D01*
X0295967Y0104737D01*
X0295000Y0104178D01*
X0294033Y0104737D01*
X0291376Y0105449D01*
X0288624Y0105449D01*
X0285967Y0104737D01*
X0285000Y0104178D01*
X0284033Y0104737D01*
X0281376Y0105449D01*
X0278624Y0105449D01*
X0275967Y0104737D01*
X0275000Y0104178D01*
X0274033Y0104737D01*
X0271376Y0105449D01*
X0268624Y0105449D01*
X0265967Y0104737D01*
X0265000Y0104178D01*
X0264033Y0104737D01*
X0261376Y0105449D01*
X0258624Y0105449D01*
X0255967Y0104737D01*
X0255000Y0104178D01*
X0254033Y0104737D01*
X0251376Y0105449D01*
X0248624Y0105449D01*
X0245967Y0104737D01*
X0245000Y0104178D01*
X0244033Y0104737D01*
X0241376Y0105449D01*
X0238624Y0105449D01*
X0235967Y0104737D01*
X0233584Y0103361D01*
X0231639Y0101416D01*
X0230263Y0099033D01*
X0229551Y0096376D01*
X0229551Y0093624D01*
X0230263Y0090967D01*
X0231639Y0088584D01*
X0233584Y0086639D01*
X0230523Y0090517D02*
X-0044181Y0090517D01*
X-0044157Y0094452D02*
X0229551Y0094452D01*
X0230090Y0098388D02*
X-0044157Y0098388D01*
X-0044994Y0102323D02*
X0232547Y0102323D01*
X0316316Y0086581D02*
X0318684Y0086581D01*
X0317547Y0102323D02*
X0317453Y0102323D01*
X0402453Y0102323D02*
X0407547Y0102323D01*
X0405090Y0098388D02*
X0404910Y0098388D01*
X0404477Y0090517D02*
X0405523Y0090517D01*
X0408684Y0086581D02*
X0401316Y0086581D01*
X0491316Y0086581D02*
X0508684Y0086581D01*
X0508584Y0086639D02*
X0510967Y0085263D01*
X0513624Y0084551D01*
X0516376Y0084551D01*
X0519033Y0085263D01*
X0520000Y0085822D01*
X0520967Y0085263D01*
X0523624Y0084551D01*
X0526376Y0084551D01*
X0529033Y0085263D01*
X0531416Y0086639D01*
X0533361Y0088584D01*
X0534737Y0090967D01*
X0535449Y0093624D01*
X0535449Y0096376D01*
X0534737Y0099033D01*
X0534178Y0100000D01*
X0534737Y0100967D01*
X0535449Y0103624D01*
X0535449Y0106376D01*
X0534737Y0109033D01*
X0534178Y0110000D01*
X0534737Y0110967D01*
X0535449Y0113624D01*
X0535449Y0116376D01*
X0534737Y0119033D01*
X0534178Y0120000D01*
X0534737Y0120967D01*
X0535449Y0123624D01*
X0535449Y0126376D01*
X0534737Y0129033D01*
X0534178Y0130000D01*
X0534737Y0130967D01*
X0535449Y0133624D01*
X0535449Y0136376D01*
X0534737Y0139033D01*
X0534178Y0140000D01*
X0534737Y0140967D01*
X0535449Y0143624D01*
X0535449Y0146376D01*
X0534737Y0149033D01*
X0534178Y0150000D01*
X0534737Y0150967D01*
X0535449Y0153624D01*
X0535449Y0156376D01*
X0534737Y0159033D01*
X0534178Y0160000D01*
X0534737Y0160967D01*
X0535449Y0163624D01*
X0535449Y0166376D01*
X0534737Y0169033D01*
X0534178Y0170000D01*
X0534737Y0170967D01*
X0535449Y0173624D01*
X0535449Y0176376D01*
X0534737Y0179033D01*
X0534178Y0180000D01*
X0534737Y0180967D01*
X0535449Y0183624D01*
X0535449Y0186376D01*
X0534737Y0189033D01*
X0534178Y0190000D01*
X0534737Y0190967D01*
X0535449Y0193624D01*
X0535449Y0196376D01*
X0534737Y0199033D01*
X0534178Y0200000D01*
X0534737Y0200967D01*
X0535449Y0203624D01*
X0535449Y0206376D01*
X0534737Y0209033D01*
X0534178Y0210000D01*
X0534737Y0210967D01*
X0535449Y0213624D01*
X0535449Y0216376D01*
X0534737Y0219033D01*
X0534178Y0220000D01*
X0534737Y0220967D01*
X0535449Y0223624D01*
X0535449Y0226376D01*
X0534737Y0229033D01*
X0534178Y0230000D01*
X0534737Y0230967D01*
X0535449Y0233624D01*
X0535449Y0236376D01*
X0534737Y0239033D01*
X0534178Y0240000D01*
X0534737Y0240967D01*
X0535449Y0243624D01*
X0535449Y0246376D01*
X0534737Y0249033D01*
X0534178Y0250000D01*
X0534737Y0250967D01*
X0535449Y0253624D01*
X0535449Y0256376D01*
X0534737Y0259033D01*
X0533361Y0261416D01*
X0531416Y0263361D01*
X0530442Y0263923D01*
X0530543Y0264564D01*
X0530543Y0265000D01*
X0530543Y0265436D01*
X0530407Y0266298D01*
X0530137Y0267128D01*
X0529741Y0267905D01*
X0529228Y0268611D01*
X0528611Y0269228D01*
X0527905Y0269741D01*
X0527128Y0270137D01*
X0526298Y0270407D01*
X0525436Y0270543D01*
X0525000Y0270543D01*
X0524564Y0270543D01*
X0523702Y0270407D01*
X0522872Y0270137D01*
X0522095Y0269741D01*
X0521389Y0269228D01*
X0520772Y0268611D01*
X0520259Y0267905D01*
X0520000Y0267397D01*
X0519741Y0267905D01*
X0519228Y0268611D01*
X0518611Y0269228D01*
X0517905Y0269741D01*
X0517128Y0270137D01*
X0516298Y0270407D01*
X0515436Y0270543D01*
X0515000Y0270543D01*
X0514564Y0270543D01*
X0513702Y0270407D01*
X0512872Y0270137D01*
X0512095Y0269741D01*
X0511389Y0269228D01*
X0510772Y0268611D01*
X0510259Y0267905D01*
X0509863Y0267128D01*
X0509593Y0266298D01*
X0509457Y0265436D01*
X0509457Y0265000D01*
X0509457Y0264564D01*
X0509558Y0263923D01*
X0508584Y0263361D01*
X0506639Y0261416D01*
X0505263Y0259033D01*
X0504551Y0256376D01*
X0504551Y0253624D01*
X0505263Y0250967D01*
X0505821Y0250000D01*
X0505263Y0249033D01*
X0504551Y0246376D01*
X0504551Y0243624D01*
X0505263Y0240967D01*
X0505822Y0240000D01*
X0505263Y0239033D01*
X0504551Y0236376D01*
X0504551Y0233624D01*
X0505263Y0230967D01*
X0505822Y0230000D01*
X0505263Y0229033D01*
X0504551Y0226376D01*
X0504551Y0223624D01*
X0505263Y0220967D01*
X0505822Y0220000D01*
X0505263Y0219033D01*
X0504551Y0216376D01*
X0504551Y0213624D01*
X0505263Y0210967D01*
X0505822Y0210000D01*
X0505263Y0209033D01*
X0504551Y0206376D01*
X0504551Y0203624D01*
X0505263Y0200967D01*
X0505822Y0200000D01*
X0505263Y0199033D01*
X0504551Y0196376D01*
X0504551Y0193624D01*
X0505263Y0190967D01*
X0505822Y0190000D01*
X0505263Y0189033D01*
X0504551Y0186376D01*
X0504551Y0183624D01*
X0505263Y0180967D01*
X0505822Y0180000D01*
X0505263Y0179033D01*
X0504551Y0176376D01*
X0504551Y0173624D01*
X0505263Y0170967D01*
X0505822Y0170000D01*
X0505263Y0169033D01*
X0504551Y0166376D01*
X0504551Y0163624D01*
X0505263Y0160967D01*
X0505822Y0160000D01*
X0505263Y0159033D01*
X0504551Y0156376D01*
X0504551Y0153624D01*
X0505263Y0150967D01*
X0505822Y0150000D01*
X0505263Y0149033D01*
X0504551Y0146376D01*
X0504551Y0143624D01*
X0505263Y0140967D01*
X0505822Y0140000D01*
X0505263Y0139033D01*
X0504551Y0136376D01*
X0504551Y0133624D01*
X0505263Y0130967D01*
X0505822Y0130000D01*
X0505263Y0129033D01*
X0504551Y0126376D01*
X0504551Y0123624D01*
X0505263Y0120967D01*
X0505822Y0120000D01*
X0505263Y0119033D01*
X0504551Y0116376D01*
X0504551Y0113624D01*
X0505263Y0110967D01*
X0505822Y0110000D01*
X0505263Y0109033D01*
X0504551Y0106376D01*
X0504551Y0103624D01*
X0505263Y0100967D01*
X0505822Y0100000D01*
X0505263Y0099033D01*
X0504551Y0096376D01*
X0504551Y0093624D01*
X0505263Y0090967D01*
X0506639Y0088584D01*
X0508584Y0086639D01*
X0505523Y0090517D02*
X0494477Y0090517D01*
X0495449Y0094452D02*
X0504551Y0094452D01*
X0505090Y0098388D02*
X0494910Y0098388D01*
X0492453Y0102323D02*
X0504900Y0102323D01*
X0504551Y0106259D02*
X-0047957Y0106259D01*
X-0049571Y0082646D02*
X0691515Y0082646D01*
X0691189Y0081427D02*
X0691189Y0078573D01*
X0691928Y0075815D01*
X0692398Y0075000D01*
X0691928Y0074185D01*
X0691189Y0071427D01*
X0691189Y0068573D01*
X0691928Y0065815D01*
X0692398Y0065000D01*
X0691928Y0064185D01*
X0691189Y0061427D01*
X0691189Y0058573D01*
X0691928Y0055815D01*
X0692398Y0055000D01*
X0691928Y0054185D01*
X0691189Y0051427D01*
X0691189Y0048573D01*
X0691928Y0045815D01*
X0692398Y0045000D01*
X0691928Y0044185D01*
X0691189Y0041427D01*
X0691189Y0038573D01*
X0691928Y0035815D01*
X0692398Y0035000D01*
X0691928Y0034185D01*
X0691189Y0031427D01*
X0691189Y0028573D01*
X0691928Y0025815D01*
X0692398Y0025000D01*
X0691928Y0024185D01*
X0691189Y0021427D01*
X0691189Y0018573D01*
X0691928Y0015815D01*
X0693355Y0013343D01*
X0695374Y0011324D01*
X0697846Y0009896D01*
X0700604Y0009157D01*
X0709396Y0009157D01*
X0712154Y0009896D01*
X0714626Y0011324D01*
X0716645Y0013343D01*
X0718072Y0015815D01*
X0718811Y0018573D01*
X0718811Y0021427D01*
X0718072Y0024185D01*
X0717602Y0025000D01*
X0718072Y0025815D01*
X0718811Y0028573D01*
X0718811Y0031427D01*
X0718072Y0034185D01*
X0717602Y0035000D01*
X0718072Y0035815D01*
X0718811Y0038573D01*
X0718811Y0041427D01*
X0718072Y0044185D01*
X0717602Y0045000D01*
X0718072Y0045815D01*
X0718811Y0048573D01*
X0718811Y0051427D01*
X0718072Y0054185D01*
X0717602Y0055000D01*
X0718072Y0055815D01*
X0718811Y0058573D01*
X0718811Y0061427D01*
X0718072Y0064185D01*
X0717602Y0065000D01*
X0718072Y0065815D01*
X0718811Y0068573D01*
X0718811Y0071427D01*
X0718072Y0074185D01*
X0717602Y0075000D01*
X0718072Y0075815D01*
X0718811Y0078573D01*
X0718811Y0081427D01*
X0718072Y0084185D01*
X0716645Y0086657D01*
X0714626Y0088676D01*
X0712154Y0090104D01*
X0709396Y0090843D01*
X0700604Y0090843D01*
X0697846Y0090104D01*
X0695374Y0088676D01*
X0693355Y0086657D01*
X0691928Y0084185D01*
X0691189Y0081427D01*
X0691189Y0078710D02*
X-0277126Y0078710D01*
X-0277126Y0074775D02*
X0692268Y0074775D01*
X0691189Y0070839D02*
X-0277126Y0070839D01*
X-0277126Y0066904D02*
X0691636Y0066904D01*
X0691602Y0062968D02*
X-0277126Y0062968D01*
X-0277126Y0059033D02*
X0691189Y0059033D01*
X0692342Y0055097D02*
X-0277126Y0055097D01*
X-0277126Y0051162D02*
X0691189Y0051162D01*
X0691550Y0047226D02*
X-0277126Y0047226D01*
X-0277126Y0043291D02*
X0691688Y0043291D01*
X0691189Y0039355D02*
X-0277126Y0039355D01*
X-0277126Y0035420D02*
X0692156Y0035420D01*
X0691204Y0031484D02*
X0466818Y0031484D01*
X0466657Y0031645D02*
X0464185Y0033072D01*
X0461427Y0033811D01*
X0458573Y0033811D01*
X0455815Y0033072D01*
X0455000Y0032602D01*
X0454185Y0033072D01*
X0451427Y0033811D01*
X0448573Y0033811D01*
X0445815Y0033072D01*
X0445000Y0032602D01*
X0444185Y0033072D01*
X0441427Y0033811D01*
X0438573Y0033811D01*
X0435815Y0033072D01*
X0435000Y0032602D01*
X0434185Y0033072D01*
X0431427Y0033811D01*
X0428573Y0033811D01*
X0425815Y0033072D01*
X0425000Y0032602D01*
X0424185Y0033072D01*
X0421427Y0033811D01*
X0418573Y0033811D01*
X0415815Y0033072D01*
X0413343Y0031645D01*
X0411324Y0029626D01*
X0410871Y0028842D01*
X0410467Y0028905D01*
X0410000Y0028905D01*
X0409533Y0028905D01*
X0408610Y0028759D01*
X0407721Y0028471D01*
X0406888Y0028046D01*
X0406132Y0027497D01*
X0405472Y0026836D01*
X0404922Y0026080D01*
X0404498Y0025248D01*
X0404209Y0024359D01*
X0404063Y0023436D01*
X0404063Y0020000D01*
X0409157Y0020000D01*
X0404063Y0020000D01*
X0404063Y0016564D01*
X0404209Y0015641D01*
X0404498Y0014752D01*
X0404922Y0013920D01*
X0405472Y0013164D01*
X0406132Y0012503D01*
X0406888Y0011954D01*
X0407721Y0011529D01*
X0408610Y0011241D01*
X0409533Y0011094D01*
X0410000Y0011094D01*
X0410467Y0011094D01*
X0410871Y0011158D01*
X0411324Y0010374D01*
X0413343Y0008355D01*
X0415815Y0006928D01*
X0418573Y0006189D01*
X0421427Y0006189D01*
X0424185Y0006928D01*
X0425000Y0007398D01*
X0425815Y0006928D01*
X0428573Y0006189D01*
X0431427Y0006189D01*
X0434185Y0006928D01*
X0435000Y0007398D01*
X0435815Y0006928D01*
X0438573Y0006189D01*
X0441427Y0006189D01*
X0444185Y0006928D01*
X0445000Y0007398D01*
X0445815Y0006928D01*
X0448573Y0006189D01*
X0451427Y0006189D01*
X0454185Y0006928D01*
X0455000Y0007398D01*
X0455815Y0006928D01*
X0458573Y0006189D01*
X0461427Y0006189D01*
X0464185Y0006928D01*
X0466657Y0008355D01*
X0468676Y0010374D01*
X0470104Y0012846D01*
X0470843Y0015604D01*
X0470843Y0024396D01*
X0470104Y0027154D01*
X0468676Y0029626D01*
X0466657Y0031645D01*
X0469876Y0027549D02*
X0691463Y0027549D01*
X0691775Y0023613D02*
X0470843Y0023613D01*
X0470843Y0019678D02*
X0691189Y0019678D01*
X0691970Y0015742D02*
X0470843Y0015742D01*
X0469503Y0011807D02*
X0694891Y0011807D01*
X0715109Y0011807D02*
X0837047Y0011807D01*
X0837047Y0015742D02*
X0718030Y0015742D01*
X0718811Y0019678D02*
X0837047Y0019678D01*
X0837047Y0023613D02*
X0718225Y0023613D01*
X0718537Y0027549D02*
X0837047Y0027549D01*
X0837047Y0031484D02*
X0718796Y0031484D01*
X0717844Y0035420D02*
X0837047Y0035420D01*
X0837047Y0039355D02*
X0718811Y0039355D01*
X0718312Y0043291D02*
X0837047Y0043291D01*
X0837047Y0047226D02*
X0718450Y0047226D01*
X0718811Y0051162D02*
X0837047Y0051162D01*
X0837047Y0055097D02*
X0717658Y0055097D01*
X0718811Y0059033D02*
X0837047Y0059033D01*
X0837047Y0062968D02*
X0718398Y0062968D01*
X0718364Y0066904D02*
X0837047Y0066904D01*
X0837047Y0070839D02*
X0718811Y0070839D01*
X0717732Y0074775D02*
X0837047Y0074775D01*
X0837047Y0078710D02*
X0718811Y0078710D01*
X0718485Y0082646D02*
X0837047Y0082646D01*
X0837047Y0086581D02*
X0716689Y0086581D01*
X0710611Y0090517D02*
X0837047Y0090517D01*
X0837047Y0094452D02*
X0535449Y0094452D01*
X0534910Y0098388D02*
X0837047Y0098388D01*
X0837047Y0102323D02*
X0535100Y0102323D01*
X0535449Y0106259D02*
X0837047Y0106259D01*
X0837047Y0110195D02*
X0534291Y0110195D01*
X0535449Y0114130D02*
X0837047Y0114130D01*
X0837047Y0118066D02*
X0534996Y0118066D01*
X0535014Y0122001D02*
X0837047Y0122001D01*
X0837047Y0125937D02*
X0713955Y0125937D01*
X0714626Y0126324D02*
X0716645Y0128343D01*
X0718072Y0130815D01*
X0718811Y0133573D01*
X0718811Y0136427D01*
X0718072Y0139185D01*
X0717602Y0140000D01*
X0718072Y0140815D01*
X0718811Y0143573D01*
X0718811Y0146427D01*
X0718072Y0149185D01*
X0717602Y0150000D01*
X0718072Y0150815D01*
X0718811Y0153573D01*
X0718811Y0156427D01*
X0718072Y0159185D01*
X0717602Y0160000D01*
X0718072Y0160815D01*
X0718811Y0163573D01*
X0718811Y0166427D01*
X0718072Y0169185D01*
X0717602Y0170000D01*
X0718072Y0170815D01*
X0718811Y0173573D01*
X0718811Y0176427D01*
X0718072Y0179185D01*
X0717602Y0180000D01*
X0718072Y0180815D01*
X0718811Y0183573D01*
X0718811Y0186427D01*
X0718072Y0189185D01*
X0717602Y0190000D01*
X0718072Y0190815D01*
X0718811Y0193573D01*
X0718811Y0196427D01*
X0718072Y0199185D01*
X0716645Y0201657D01*
X0714626Y0203676D01*
X0712154Y0205104D01*
X0709396Y0205843D01*
X0700604Y0205843D01*
X0697846Y0205104D01*
X0695374Y0203676D01*
X0693355Y0201657D01*
X0691928Y0199185D01*
X0691189Y0196427D01*
X0691189Y0193573D01*
X0691928Y0190815D01*
X0692398Y0190000D01*
X0691928Y0189185D01*
X0691189Y0186427D01*
X0691189Y0183573D01*
X0691928Y0180815D01*
X0692398Y0180000D01*
X0691928Y0179185D01*
X0691189Y0176427D01*
X0691189Y0173573D01*
X0691928Y0170815D01*
X0692398Y0170000D01*
X0691928Y0169185D01*
X0691189Y0166427D01*
X0691189Y0163573D01*
X0691928Y0160815D01*
X0692398Y0160000D01*
X0691928Y0159185D01*
X0691189Y0156427D01*
X0691189Y0153573D01*
X0691928Y0150815D01*
X0692398Y0150000D01*
X0691928Y0149185D01*
X0691189Y0146427D01*
X0691189Y0143573D01*
X0691928Y0140815D01*
X0692398Y0140000D01*
X0691928Y0139185D01*
X0691189Y0136427D01*
X0691189Y0133573D01*
X0691928Y0130815D01*
X0693355Y0128343D01*
X0695374Y0126324D01*
X0697846Y0124896D01*
X0700604Y0124157D01*
X0709396Y0124157D01*
X0712154Y0124896D01*
X0714626Y0126324D01*
X0717528Y0129872D02*
X0837047Y0129872D01*
X0837047Y0133808D02*
X0718811Y0133808D01*
X0718458Y0137743D02*
X0837047Y0137743D01*
X0837047Y0141679D02*
X0718304Y0141679D01*
X0718811Y0145614D02*
X0837047Y0145614D01*
X0837047Y0149550D02*
X0717862Y0149550D01*
X0718788Y0153485D02*
X0837047Y0153485D01*
X0837047Y0157421D02*
X0718545Y0157421D01*
X0718217Y0161356D02*
X0837047Y0161356D01*
X0837047Y0165292D02*
X0718811Y0165292D01*
X0718048Y0169227D02*
X0837047Y0169227D01*
X0837047Y0173163D02*
X0718701Y0173163D01*
X0718631Y0177098D02*
X0837047Y0177098D01*
X0837047Y0181034D02*
X0718131Y0181034D01*
X0718811Y0184969D02*
X0837047Y0184969D01*
X0837047Y0188905D02*
X0718147Y0188905D01*
X0718615Y0192840D02*
X0837047Y0192840D01*
X0837047Y0196776D02*
X0718718Y0196776D01*
X0717191Y0200711D02*
X0837047Y0200711D01*
X0837047Y0204647D02*
X0712944Y0204647D01*
X0697056Y0204647D02*
X0535449Y0204647D01*
X0534857Y0208583D02*
X0837047Y0208583D01*
X0837047Y0212518D02*
X0535152Y0212518D01*
X0535428Y0216454D02*
X0837047Y0216454D01*
X0837047Y0220389D02*
X0534403Y0220389D01*
X0535449Y0224325D02*
X0837047Y0224325D01*
X0837047Y0228260D02*
X0534944Y0228260D01*
X0535066Y0232196D02*
X0837047Y0232196D01*
X0837047Y0236131D02*
X0535449Y0236131D01*
X0534217Y0240067D02*
X0697551Y0240067D01*
X0697846Y0239896D02*
X0700604Y0239157D01*
X0709396Y0239157D01*
X0712154Y0239896D01*
X0714626Y0241324D01*
X0716645Y0243343D01*
X0718072Y0245815D01*
X0718811Y0248573D01*
X0718811Y0251427D01*
X0718072Y0254185D01*
X0717602Y0255000D01*
X0718072Y0255815D01*
X0718811Y0258573D01*
X0718811Y0261427D01*
X0718072Y0264185D01*
X0717602Y0265000D01*
X0718072Y0265815D01*
X0718811Y0268573D01*
X0718811Y0271427D01*
X0718072Y0274185D01*
X0717602Y0275000D01*
X0718072Y0275815D01*
X0718811Y0278573D01*
X0718811Y0281427D01*
X0718072Y0284185D01*
X0717602Y0285000D01*
X0718072Y0285815D01*
X0718811Y0288573D01*
X0718811Y0291427D01*
X0718072Y0294185D01*
X0717602Y0295000D01*
X0718072Y0295815D01*
X0718811Y0298573D01*
X0718811Y0301427D01*
X0718072Y0304185D01*
X0717602Y0305000D01*
X0718072Y0305815D01*
X0718811Y0308573D01*
X0718811Y0311427D01*
X0718072Y0314185D01*
X0716645Y0316657D01*
X0714626Y0318676D01*
X0712154Y0320104D01*
X0709396Y0320843D01*
X0700604Y0320843D01*
X0697846Y0320104D01*
X0695374Y0318676D01*
X0693355Y0316657D01*
X0691928Y0314185D01*
X0691189Y0311427D01*
X0691189Y0308573D01*
X0691928Y0305815D01*
X0692398Y0305000D01*
X0691928Y0304185D01*
X0691189Y0301427D01*
X0691189Y0298573D01*
X0691928Y0295815D01*
X0692398Y0295000D01*
X0691928Y0294185D01*
X0691189Y0291427D01*
X0691189Y0288573D01*
X0691928Y0285815D01*
X0692398Y0285000D01*
X0691928Y0284185D01*
X0691189Y0281427D01*
X0691189Y0278573D01*
X0691928Y0275815D01*
X0692398Y0275000D01*
X0691928Y0274185D01*
X0691189Y0271427D01*
X0691189Y0268573D01*
X0691928Y0265815D01*
X0692398Y0265000D01*
X0691928Y0264185D01*
X0691189Y0261427D01*
X0691189Y0258573D01*
X0691928Y0255815D01*
X0692398Y0255000D01*
X0691928Y0254185D01*
X0691189Y0251427D01*
X0691189Y0248573D01*
X0691928Y0245815D01*
X0693355Y0243343D01*
X0695374Y0241324D01*
X0697846Y0239896D01*
X0692974Y0244002D02*
X0535449Y0244002D01*
X0535030Y0247938D02*
X0691359Y0247938D01*
X0691308Y0251873D02*
X0534980Y0251873D01*
X0535449Y0255809D02*
X0691931Y0255809D01*
X0691189Y0259744D02*
X0534326Y0259744D01*
X0530864Y0263680D02*
X0691792Y0263680D01*
X0691445Y0267615D02*
X0529889Y0267615D01*
X0530543Y0265000D02*
X0528050Y0265000D01*
X0528051Y0265000D01*
X0530543Y0265000D01*
X0525000Y0265449D02*
X0525000Y0265449D01*
X0525000Y0270543D01*
X0525000Y0265449D01*
X0525000Y0267615D02*
X0525000Y0267615D01*
X0520111Y0267615D02*
X0519889Y0267615D01*
X0515000Y0267615D02*
X0515000Y0267615D01*
X0515000Y0265449D02*
X0515000Y0270543D01*
X0515000Y0265449D01*
X0515000Y0265449D01*
X0511950Y0265000D02*
X0511949Y0265000D01*
X0509457Y0265000D01*
X0511950Y0265000D01*
X0509136Y0263680D02*
X-0277126Y0263680D01*
X-0277126Y0267615D02*
X-0220376Y0267615D01*
X-0219185Y0266928D02*
X-0216427Y0266189D01*
X-0213573Y0266189D01*
X-0210815Y0266928D01*
X-0210000Y0267398D01*
X-0209185Y0266928D01*
X-0206427Y0266189D01*
X-0203573Y0266189D01*
X-0200815Y0266928D01*
X-0200000Y0267398D01*
X-0199185Y0266928D01*
X-0196427Y0266189D01*
X-0193573Y0266189D01*
X-0190815Y0266928D01*
X-0190000Y0267398D01*
X-0189185Y0266928D01*
X-0186427Y0266189D01*
X-0183573Y0266189D01*
X-0180815Y0266928D01*
X-0180000Y0267398D01*
X-0179185Y0266928D01*
X-0176427Y0266189D01*
X-0173573Y0266189D01*
X-0170815Y0266928D01*
X-0170000Y0267398D01*
X-0169185Y0266928D01*
X-0166427Y0266189D01*
X-0163573Y0266189D01*
X-0160815Y0266928D01*
X-0158343Y0268355D01*
X-0156324Y0270374D01*
X-0154896Y0272846D01*
X-0154157Y0275604D01*
X-0154157Y0284396D01*
X-0154896Y0287154D01*
X-0156324Y0289626D01*
X-0158343Y0291645D01*
X-0160815Y0293072D01*
X-0163573Y0293811D01*
X-0166427Y0293811D01*
X-0169185Y0293072D01*
X-0170000Y0292602D01*
X-0170815Y0293072D01*
X-0173573Y0293811D01*
X-0176427Y0293811D01*
X-0179185Y0293072D01*
X-0180000Y0292602D01*
X-0180815Y0293072D01*
X-0183573Y0293811D01*
X-0186427Y0293811D01*
X-0189185Y0293072D01*
X-0190000Y0292602D01*
X-0190815Y0293072D01*
X-0193573Y0293811D01*
X-0196427Y0293811D01*
X-0199185Y0293072D01*
X-0200000Y0292602D01*
X-0200815Y0293072D01*
X-0203573Y0293811D01*
X-0206427Y0293811D01*
X-0209185Y0293072D01*
X-0210000Y0292602D01*
X-0210815Y0293072D01*
X-0213573Y0293811D01*
X-0216427Y0293811D01*
X-0219185Y0293072D01*
X-0221657Y0291645D01*
X-0223676Y0289626D01*
X-0225104Y0287154D01*
X-0225843Y0284396D01*
X-0225843Y0275604D01*
X-0225104Y0272846D01*
X-0223676Y0270374D01*
X-0221657Y0268355D01*
X-0219185Y0266928D01*
X-0224356Y0271551D02*
X-0277126Y0271551D01*
X-0277126Y0275486D02*
X-0225811Y0275486D01*
X-0225843Y0279422D02*
X-0277126Y0279422D01*
X-0277126Y0283357D02*
X-0225843Y0283357D01*
X-0225023Y0287293D02*
X-0277126Y0287293D01*
X-0277126Y0291228D02*
X-0222074Y0291228D01*
X-0277126Y0295164D02*
X-0138138Y0295164D01*
X-0138676Y0294626D02*
X-0140104Y0292154D01*
X-0140843Y0289396D01*
X-0140843Y0280604D01*
X-0140104Y0277846D01*
X-0138676Y0275374D01*
X-0136657Y0273355D01*
X-0134185Y0271928D01*
X-0131427Y0271189D01*
X-0128573Y0271189D01*
X-0125815Y0271928D01*
X-0123343Y0273355D01*
X-0121324Y0275374D01*
X-0120871Y0276158D01*
X-0120467Y0276094D01*
X-0120000Y0276094D01*
X-0119533Y0276094D01*
X-0118610Y0276241D01*
X-0117721Y0276529D01*
X-0116888Y0276954D01*
X-0116132Y0277503D01*
X-0115472Y0278164D01*
X-0115000Y0278813D01*
X-0114528Y0278164D01*
X-0113868Y0277503D01*
X-0113112Y0276954D01*
X-0112279Y0276529D01*
X-0111390Y0276241D01*
X-0110467Y0276094D01*
X-0110000Y0276094D01*
X-0109533Y0276094D01*
X-0109129Y0276158D01*
X-0108676Y0275374D01*
X-0106657Y0273355D01*
X-0104185Y0271928D01*
X-0101427Y0271189D01*
X-0098573Y0271189D01*
X-0095815Y0271928D01*
X-0095000Y0272398D01*
X-0094185Y0271928D01*
X-0091427Y0271189D01*
X-0088573Y0271189D01*
X-0085815Y0271928D01*
X-0085000Y0272398D01*
X-0084185Y0271928D01*
X-0081427Y0271189D01*
X-0078573Y0271189D01*
X-0075815Y0271928D01*
X-0073343Y0273355D01*
X-0071324Y0275374D01*
X-0069896Y0277846D01*
X-0069157Y0280604D01*
X-0069157Y0289396D01*
X-0069896Y0292154D01*
X-0071324Y0294626D01*
X-0073343Y0296645D01*
X-0075815Y0298072D01*
X-0078573Y0298811D01*
X-0081427Y0298811D01*
X-0084185Y0298072D01*
X-0085000Y0297602D01*
X-0085815Y0298072D01*
X-0088573Y0298811D01*
X-0091427Y0298811D01*
X-0094185Y0298072D01*
X-0095000Y0297602D01*
X-0095815Y0298072D01*
X-0098573Y0298811D01*
X-0101427Y0298811D01*
X-0104185Y0298072D01*
X-0106657Y0296645D01*
X-0108676Y0294626D01*
X-0109129Y0293842D01*
X-0109533Y0293905D01*
X-0110000Y0293905D01*
X-0110467Y0293905D01*
X-0111390Y0293759D01*
X-0112279Y0293471D01*
X-0113112Y0293046D01*
X-0113868Y0292497D01*
X-0114528Y0291836D01*
X-0115000Y0291187D01*
X-0115472Y0291836D01*
X-0116132Y0292497D01*
X-0116888Y0293046D01*
X-0117721Y0293471D01*
X-0118610Y0293759D01*
X-0119533Y0293905D01*
X-0120000Y0293905D01*
X-0120467Y0293905D01*
X-0120871Y0293842D01*
X-0121324Y0294626D01*
X-0123343Y0296645D01*
X-0125815Y0298072D01*
X-0128573Y0298811D01*
X-0131427Y0298811D01*
X-0134185Y0298072D01*
X-0136657Y0296645D01*
X-0138676Y0294626D01*
X-0140351Y0291228D02*
X-0157926Y0291228D01*
X-0154977Y0287293D02*
X-0140843Y0287293D01*
X-0140843Y0283357D02*
X-0154157Y0283357D01*
X-0154157Y0279422D02*
X-0140526Y0279422D01*
X-0138741Y0275486D02*
X-0154189Y0275486D01*
X-0155644Y0271551D02*
X-0132778Y0271551D01*
X-0127222Y0271551D02*
X-0102778Y0271551D01*
X-0097222Y0271551D02*
X-0092778Y0271551D01*
X-0087222Y0271551D02*
X-0082778Y0271551D01*
X-0077222Y0271551D02*
X0691222Y0271551D01*
X0692118Y0275486D02*
X0509419Y0275486D01*
X0509033Y0275263D02*
X0511416Y0276639D01*
X0513361Y0278584D01*
X0514737Y0280967D01*
X0515449Y0283624D01*
X0515449Y0286376D01*
X0514737Y0289033D01*
X0513361Y0291416D01*
X0511416Y0293361D01*
X0509033Y0294737D01*
X0506376Y0295449D01*
X0503624Y0295449D01*
X0500967Y0294737D01*
X0500000Y0294178D01*
X0499033Y0294737D01*
X0496376Y0295449D01*
X0493624Y0295449D01*
X0490967Y0294737D01*
X0490000Y0294178D01*
X0489033Y0294737D01*
X0486376Y0295449D01*
X0483624Y0295449D01*
X0480967Y0294737D01*
X0480000Y0294178D01*
X0479033Y0294737D01*
X0476376Y0295449D01*
X0473624Y0295449D01*
X0470967Y0294737D01*
X0470000Y0294178D01*
X0469033Y0294737D01*
X0466376Y0295449D01*
X0463624Y0295449D01*
X0460967Y0294737D01*
X0460000Y0294178D01*
X0459033Y0294737D01*
X0456376Y0295449D01*
X0453624Y0295449D01*
X0450967Y0294737D01*
X0450000Y0294178D01*
X0449033Y0294737D01*
X0446376Y0295449D01*
X0443624Y0295449D01*
X0440967Y0294737D01*
X0440000Y0294178D01*
X0439033Y0294737D01*
X0436376Y0295449D01*
X0433624Y0295449D01*
X0430967Y0294737D01*
X0428584Y0293361D01*
X0426639Y0291416D01*
X0425263Y0289033D01*
X0425000Y0288051D01*
X0424737Y0289033D01*
X0423361Y0291416D01*
X0421416Y0293361D01*
X0419033Y0294737D01*
X0416376Y0295449D01*
X0413624Y0295449D01*
X0410967Y0294737D01*
X0410000Y0294178D01*
X0409033Y0294737D01*
X0406376Y0295449D01*
X0403624Y0295449D01*
X0400967Y0294737D01*
X0400000Y0294178D01*
X0399033Y0294737D01*
X0396376Y0295449D01*
X0393624Y0295449D01*
X0390967Y0294737D01*
X0390000Y0294178D01*
X0389033Y0294737D01*
X0386376Y0295449D01*
X0383624Y0295449D01*
X0380967Y0294737D01*
X0380000Y0294178D01*
X0379033Y0294737D01*
X0376376Y0295449D01*
X0373624Y0295449D01*
X0370967Y0294737D01*
X0370000Y0294178D01*
X0369033Y0294737D01*
X0366376Y0295449D01*
X0363624Y0295449D01*
X0360967Y0294737D01*
X0360000Y0294178D01*
X0359033Y0294737D01*
X0356376Y0295449D01*
X0353624Y0295449D01*
X0350967Y0294737D01*
X0350000Y0294178D01*
X0349033Y0294737D01*
X0346376Y0295449D01*
X0343624Y0295449D01*
X0340967Y0294737D01*
X0338584Y0293361D01*
X0336639Y0291416D01*
X0335263Y0289033D01*
X0335000Y0288051D01*
X0334737Y0289033D01*
X0333361Y0291416D01*
X0331416Y0293361D01*
X0329033Y0294737D01*
X0326376Y0295449D01*
X0323624Y0295449D01*
X0320967Y0294737D01*
X0318584Y0293361D01*
X0316639Y0291416D01*
X0316077Y0290442D01*
X0315436Y0290543D01*
X0315000Y0290543D01*
X0314564Y0290543D01*
X0313702Y0290407D01*
X0312872Y0290137D01*
X0312095Y0289741D01*
X0311389Y0289228D01*
X0310772Y0288611D01*
X0310259Y0287905D01*
X0310000Y0287397D01*
X0309741Y0287905D01*
X0309228Y0288611D01*
X0308611Y0289228D01*
X0307905Y0289741D01*
X0307128Y0290137D01*
X0306298Y0290407D01*
X0305436Y0290543D01*
X0305000Y0290543D01*
X0304564Y0290543D01*
X0303923Y0290442D01*
X0303361Y0291416D01*
X0301416Y0293361D01*
X0299033Y0294737D01*
X0296376Y0295449D01*
X0293624Y0295449D01*
X0290967Y0294737D01*
X0290000Y0294178D01*
X0289033Y0294737D01*
X0286376Y0295449D01*
X0283624Y0295449D01*
X0280967Y0294737D01*
X0280000Y0294178D01*
X0279033Y0294737D01*
X0276376Y0295449D01*
X0273624Y0295449D01*
X0270967Y0294737D01*
X0268584Y0293361D01*
X0266639Y0291416D01*
X0265263Y0289033D01*
X0264551Y0286376D01*
X0264551Y0283624D01*
X0265263Y0280967D01*
X0266639Y0278584D01*
X0268584Y0276639D01*
X0270967Y0275263D01*
X0273624Y0274551D01*
X0276376Y0274551D01*
X0279033Y0275263D01*
X0280000Y0275822D01*
X0280967Y0275263D01*
X0283624Y0274551D01*
X0286376Y0274551D01*
X0289033Y0275263D01*
X0290000Y0275822D01*
X0290967Y0275263D01*
X0293624Y0274551D01*
X0296376Y0274551D01*
X0299033Y0275263D01*
X0301416Y0276639D01*
X0303361Y0278584D01*
X0303923Y0279558D01*
X0304564Y0279457D01*
X0305000Y0279457D01*
X0305436Y0279457D01*
X0306298Y0279593D01*
X0307128Y0279863D01*
X0307905Y0280259D01*
X0308611Y0280772D01*
X0309228Y0281389D01*
X0309741Y0282095D01*
X0310000Y0282603D01*
X0310259Y0282095D01*
X0310772Y0281389D01*
X0311389Y0280772D01*
X0312095Y0280259D01*
X0312872Y0279863D01*
X0313702Y0279593D01*
X0314564Y0279457D01*
X0315000Y0279457D01*
X0315436Y0279457D01*
X0316077Y0279558D01*
X0316639Y0278584D01*
X0318584Y0276639D01*
X0320967Y0275263D01*
X0323624Y0274551D01*
X0326376Y0274551D01*
X0329033Y0275263D01*
X0331416Y0276639D01*
X0333361Y0278584D01*
X0334737Y0280967D01*
X0335000Y0281949D01*
X0335263Y0280967D01*
X0336639Y0278584D01*
X0338584Y0276639D01*
X0340967Y0275263D01*
X0343624Y0274551D01*
X0346376Y0274551D01*
X0349033Y0275263D01*
X0350000Y0275822D01*
X0350967Y0275263D01*
X0353624Y0274551D01*
X0356376Y0274551D01*
X0359033Y0275263D01*
X0360000Y0275822D01*
X0360967Y0275263D01*
X0363624Y0274551D01*
X0366376Y0274551D01*
X0369033Y0275263D01*
X0370000Y0275822D01*
X0370967Y0275263D01*
X0373624Y0274551D01*
X0376376Y0274551D01*
X0379033Y0275263D01*
X0380000Y0275822D01*
X0380967Y0275263D01*
X0383624Y0274551D01*
X0386376Y0274551D01*
X0389033Y0275263D01*
X0390000Y0275822D01*
X0390967Y0275263D01*
X0393624Y0274551D01*
X0396376Y0274551D01*
X0399033Y0275263D01*
X0400000Y0275822D01*
X0400967Y0275263D01*
X0403624Y0274551D01*
X0406376Y0274551D01*
X0409033Y0275263D01*
X0410000Y0275822D01*
X0410967Y0275263D01*
X0413624Y0274551D01*
X0416376Y0274551D01*
X0419033Y0275263D01*
X0421416Y0276639D01*
X0423361Y0278584D01*
X0424737Y0280967D01*
X0425000Y0281949D01*
X0425263Y0280967D01*
X0426639Y0278584D01*
X0428584Y0276639D01*
X0430967Y0275263D01*
X0433624Y0274551D01*
X0436376Y0274551D01*
X0439033Y0275263D01*
X0440000Y0275822D01*
X0440967Y0275263D01*
X0443624Y0274551D01*
X0446376Y0274551D01*
X0449033Y0275263D01*
X0450000Y0275822D01*
X0450967Y0275263D01*
X0453624Y0274551D01*
X0456376Y0274551D01*
X0459033Y0275263D01*
X0460000Y0275822D01*
X0460967Y0275263D01*
X0463624Y0274551D01*
X0466376Y0274551D01*
X0469033Y0275263D01*
X0470000Y0275822D01*
X0470967Y0275263D01*
X0473624Y0274551D01*
X0476376Y0274551D01*
X0479033Y0275263D01*
X0480000Y0275822D01*
X0480967Y0275263D01*
X0483624Y0274551D01*
X0486376Y0274551D01*
X0489033Y0275263D01*
X0490000Y0275822D01*
X0490967Y0275263D01*
X0493624Y0274551D01*
X0496376Y0274551D01*
X0499033Y0275263D01*
X0500000Y0275822D01*
X0500967Y0275263D01*
X0503624Y0274551D01*
X0506376Y0274551D01*
X0509033Y0275263D01*
X0513845Y0279422D02*
X0691189Y0279422D01*
X0691706Y0283357D02*
X0515377Y0283357D01*
X0515203Y0287293D02*
X0691532Y0287293D01*
X0691189Y0291228D02*
X0513469Y0291228D01*
X0507439Y0295164D02*
X0692304Y0295164D01*
X0691189Y0299099D02*
X-0277126Y0299099D01*
X-0277126Y0303035D02*
X0691620Y0303035D01*
X0691618Y0306970D02*
X-0277126Y0306970D01*
X-0277126Y0310906D02*
X0691189Y0310906D01*
X0692307Y0314842D02*
X-0277126Y0314842D01*
X-0277126Y0318777D02*
X0695549Y0318777D01*
X0714451Y0318777D02*
X0837047Y0318777D01*
X0837047Y0314842D02*
X0717693Y0314842D01*
X0718811Y0310906D02*
X0837047Y0310906D01*
X0837047Y0306970D02*
X0718382Y0306970D01*
X0718380Y0303035D02*
X0837047Y0303035D01*
X0837047Y0299099D02*
X0718811Y0299099D01*
X0717696Y0295164D02*
X0837047Y0295164D01*
X0837047Y0291228D02*
X0718811Y0291228D01*
X0718468Y0287293D02*
X0837047Y0287293D01*
X0837047Y0283357D02*
X0718294Y0283357D01*
X0718811Y0279422D02*
X0837047Y0279422D01*
X0837047Y0275486D02*
X0717882Y0275486D01*
X0718778Y0271551D02*
X0837047Y0271551D01*
X0837047Y0267615D02*
X0718555Y0267615D01*
X0718208Y0263680D02*
X0837047Y0263680D01*
X0837047Y0259744D02*
X0718811Y0259744D01*
X0718069Y0255809D02*
X0837047Y0255809D01*
X0837047Y0251873D02*
X0718692Y0251873D01*
X0718641Y0247938D02*
X0837047Y0247938D01*
X0837047Y0244002D02*
X0717026Y0244002D01*
X0712448Y0240067D02*
X0837047Y0240067D01*
X0692809Y0200711D02*
X0534589Y0200711D01*
X0535342Y0196776D02*
X0691282Y0196776D01*
X0691385Y0192840D02*
X0535239Y0192840D01*
X0534771Y0188905D02*
X0691853Y0188905D01*
X0691189Y0184969D02*
X0535449Y0184969D01*
X0534755Y0181034D02*
X0691869Y0181034D01*
X0691369Y0177098D02*
X0535255Y0177098D01*
X0535325Y0173163D02*
X0691299Y0173163D01*
X0691952Y0169227D02*
X0534625Y0169227D01*
X0535449Y0165292D02*
X0691189Y0165292D01*
X0691783Y0161356D02*
X0534841Y0161356D01*
X0535169Y0157421D02*
X0691455Y0157421D01*
X0691212Y0153485D02*
X0535412Y0153485D01*
X0534438Y0149550D02*
X0692138Y0149550D01*
X0691189Y0145614D02*
X0535449Y0145614D01*
X0534927Y0141679D02*
X0691696Y0141679D01*
X0691542Y0137743D02*
X0535082Y0137743D01*
X0535449Y0133808D02*
X0691189Y0133808D01*
X0692472Y0129872D02*
X0534252Y0129872D01*
X0535449Y0125937D02*
X0696045Y0125937D01*
X0699389Y0090517D02*
X0534477Y0090517D01*
X0531316Y0086581D02*
X0693311Y0086581D01*
X0837047Y0007871D02*
X0465819Y0007871D01*
X0414181Y0007871D02*
X-0277126Y0007871D01*
X-0277126Y0003936D02*
X0837047Y0003936D01*
X0837047Y0000000D02*
X-0277126Y0000000D01*
X-0277126Y-0003936D02*
X0837047Y-0003936D01*
X0837047Y-0007871D02*
X-0277126Y-0007871D01*
X-0277126Y-0011807D02*
X0837047Y-0011807D01*
X0837047Y-0015742D02*
X-0277126Y-0015742D01*
X-0277126Y-0019678D02*
X0837047Y-0019678D01*
X0837047Y-0023613D02*
X-0277126Y-0023613D01*
X-0277126Y-0027549D02*
X0837047Y-0027549D01*
X0837047Y-0031484D02*
X0714786Y-0031484D01*
X0714626Y-0031324D02*
X0716645Y-0033343D01*
X0718072Y-0035815D01*
X0718811Y-0038573D01*
X0718811Y-0041427D01*
X0718072Y-0044185D01*
X0717602Y-0045000D01*
X0718072Y-0045815D01*
X0718811Y-0048573D01*
X0718811Y-0051427D01*
X0718072Y-0054185D01*
X0717602Y-0055000D01*
X0718072Y-0055815D01*
X0718811Y-0058573D01*
X0718811Y-0061427D01*
X0718072Y-0064185D01*
X0717602Y-0065000D01*
X0718072Y-0065815D01*
X0718811Y-0068573D01*
X0718811Y-0071427D01*
X0718072Y-0074185D01*
X0717602Y-0075000D01*
X0718072Y-0075815D01*
X0718811Y-0078573D01*
X0718811Y-0081427D01*
X0718072Y-0084185D01*
X0717602Y-0085000D01*
X0718072Y-0085815D01*
X0718811Y-0088573D01*
X0718811Y-0091427D01*
X0718072Y-0094185D01*
X0717602Y-0095000D01*
X0718072Y-0095815D01*
X0718811Y-0098573D01*
X0718811Y-0101427D01*
X0718072Y-0104185D01*
X0716645Y-0106657D01*
X0714626Y-0108676D01*
X0712154Y-0110104D01*
X0709396Y-0110843D01*
X0700604Y-0110843D01*
X0697846Y-0110104D01*
X0695374Y-0108676D01*
X0693355Y-0106657D01*
X0691928Y-0104185D01*
X0691189Y-0101427D01*
X0691189Y-0098573D01*
X0691928Y-0095815D01*
X0692398Y-0095000D01*
X0691928Y-0094185D01*
X0691189Y-0091427D01*
X0691189Y-0088573D01*
X0691928Y-0085815D01*
X0692398Y-0085000D01*
X0691928Y-0084185D01*
X0691189Y-0081427D01*
X0691189Y-0078573D01*
X0691928Y-0075815D01*
X0692398Y-0075000D01*
X0691928Y-0074185D01*
X0691189Y-0071427D01*
X0691189Y-0068573D01*
X0691928Y-0065815D01*
X0692398Y-0065000D01*
X0691928Y-0064185D01*
X0691189Y-0061427D01*
X0691189Y-0058573D01*
X0691928Y-0055815D01*
X0692398Y-0055000D01*
X0691928Y-0054185D01*
X0691189Y-0051427D01*
X0691189Y-0048573D01*
X0691928Y-0045815D01*
X0692398Y-0045000D01*
X0691928Y-0044185D01*
X0691189Y-0041427D01*
X0691189Y-0038573D01*
X0691928Y-0035815D01*
X0693355Y-0033343D01*
X0695374Y-0031324D01*
X0697846Y-0029896D01*
X0700604Y-0029157D01*
X0709396Y-0029157D01*
X0712154Y-0029896D01*
X0714626Y-0031324D01*
X0717844Y-0035420D02*
X0837047Y-0035420D01*
X0837047Y-0039355D02*
X0718811Y-0039355D01*
X0718312Y-0043291D02*
X0837047Y-0043291D01*
X0837047Y-0047226D02*
X0718450Y-0047226D01*
X0718811Y-0051162D02*
X0837047Y-0051162D01*
X0837047Y-0055097D02*
X0717658Y-0055097D01*
X0718811Y-0059033D02*
X0837047Y-0059033D01*
X0837047Y-0062968D02*
X0718398Y-0062968D01*
X0718364Y-0066904D02*
X0837047Y-0066904D01*
X0837047Y-0070839D02*
X0718811Y-0070839D01*
X0717732Y-0074775D02*
X0837047Y-0074775D01*
X0837047Y-0078710D02*
X0718811Y-0078710D01*
X0718485Y-0082646D02*
X0837047Y-0082646D01*
X0837047Y-0086581D02*
X0718277Y-0086581D01*
X0718811Y-0090517D02*
X0837047Y-0090517D01*
X0837047Y-0094452D02*
X0717918Y-0094452D01*
X0718762Y-0098388D02*
X0837047Y-0098388D01*
X0837047Y-0102323D02*
X0718571Y-0102323D01*
X0716875Y-0106259D02*
X0837047Y-0106259D01*
X0837047Y-0110195D02*
X0711814Y-0110195D01*
X0698186Y-0110195D02*
X-0277126Y-0110195D01*
X-0277126Y-0114130D02*
X0837047Y-0114130D01*
X0837047Y-0118066D02*
X-0277126Y-0118066D01*
X-0277126Y-0121706D02*
X-0277126Y0412732D01*
X-0275591Y0411197D01*
X-0271658Y0408926D01*
X-0267271Y0407751D01*
X-0262729Y0407751D01*
X-0258342Y0408926D01*
X-0254409Y0411197D01*
X-0251197Y0414409D01*
X-0248926Y0418342D01*
X-0247751Y0422729D01*
X-0247751Y0427271D01*
X-0248926Y0431658D01*
X-0251197Y0435591D01*
X-0251433Y0435827D01*
X0705545Y0435827D01*
X0702846Y0435104D01*
X0700374Y0433676D01*
X0698355Y0431657D01*
X0696928Y0429185D01*
X0696189Y0426427D01*
X0696189Y0423573D01*
X0696928Y0420815D01*
X0697398Y0420000D01*
X0696928Y0419185D01*
X0696189Y0416427D01*
X0696189Y0413573D01*
X0696928Y0410815D01*
X0697398Y0410000D01*
X0696928Y0409185D01*
X0696189Y0406427D01*
X0696189Y0403573D01*
X0696928Y0400815D01*
X0697398Y0400000D01*
X0696928Y0399185D01*
X0696189Y0396427D01*
X0696189Y0393573D01*
X0696928Y0390815D01*
X0697398Y0390000D01*
X0696928Y0389185D01*
X0696189Y0386427D01*
X0696189Y0383573D01*
X0696928Y0380815D01*
X0697398Y0380000D01*
X0696928Y0379185D01*
X0696189Y0376427D01*
X0696189Y0373573D01*
X0696928Y0370815D01*
X0697398Y0370000D01*
X0696928Y0369185D01*
X0696189Y0366427D01*
X0696189Y0363573D01*
X0696928Y0360815D01*
X0698355Y0358343D01*
X0700374Y0356324D01*
X0702846Y0354896D01*
X0705604Y0354157D01*
X0714396Y0354157D01*
X0717154Y0354896D01*
X0719626Y0356324D01*
X0721645Y0358343D01*
X0723072Y0360815D01*
X0723811Y0363573D01*
X0723811Y0366427D01*
X0723072Y0369185D01*
X0722602Y0370000D01*
X0723072Y0370815D01*
X0723811Y0373573D01*
X0723811Y0376427D01*
X0723072Y0379185D01*
X0722602Y0380000D01*
X0723072Y0380815D01*
X0723811Y0383573D01*
X0723811Y0386427D01*
X0723072Y0389185D01*
X0722602Y0390000D01*
X0723072Y0390815D01*
X0723811Y0393573D01*
X0723811Y0396427D01*
X0723072Y0399185D01*
X0722602Y0400000D01*
X0723072Y0400815D01*
X0723811Y0403573D01*
X0723811Y0406427D01*
X0723072Y0409185D01*
X0722602Y0410000D01*
X0723072Y0410815D01*
X0723811Y0413573D01*
X0723811Y0416427D01*
X0723072Y0419185D01*
X0722602Y0420000D01*
X0723072Y0420815D01*
X0723811Y0423573D01*
X0723811Y0426427D01*
X0723072Y0429185D01*
X0721645Y0431657D01*
X0719626Y0433676D01*
X0717154Y0435104D01*
X0714455Y0435827D01*
X0811433Y0435827D01*
X0811197Y0435591D01*
X0808926Y0431658D01*
X0807751Y0427271D01*
X0807751Y0422729D01*
X0808926Y0418342D01*
X0811197Y0414409D01*
X0814409Y0411197D01*
X0818342Y0408926D01*
X0822729Y0407751D01*
X0827271Y0407751D01*
X0831658Y0408926D01*
X0835591Y0411197D01*
X0837047Y0412653D01*
X0837047Y-0167653D01*
X0835591Y-0166197D01*
X0831658Y-0163926D01*
X0827271Y-0162751D01*
X0822729Y-0162751D01*
X0818342Y-0163926D01*
X0814409Y-0166197D01*
X0811197Y-0169409D01*
X0808926Y-0173342D01*
X0807751Y-0177729D01*
X0807751Y-0182271D01*
X0808926Y-0186658D01*
X0811197Y-0190591D01*
X0812732Y-0192126D01*
X-0252732Y-0192126D01*
X-0251197Y-0190591D01*
X-0248926Y-0186658D01*
X-0247751Y-0182271D01*
X-0247751Y-0177729D01*
X-0248926Y-0173342D01*
X-0251197Y-0169409D01*
X-0254409Y-0166197D01*
X-0258342Y-0163926D01*
X-0262729Y-0162751D01*
X-0267271Y-0162751D01*
X-0271658Y-0163926D01*
X-0275591Y-0166197D01*
X-0277126Y-0167732D01*
X-0277126Y-0162874D01*
X-0275459Y-0162874D01*
X-0272197Y-0161523D01*
X-0269701Y-0159027D01*
X-0268350Y-0155765D01*
X-0268350Y-0155067D01*
X-0263749Y-0155067D01*
X-0260487Y-0153716D01*
X-0257991Y-0151220D01*
X-0254088Y-0147317D01*
X-0252737Y-0144055D01*
X-0252737Y-0132718D01*
X-0254088Y-0129457D01*
X-0256584Y-0126960D01*
X-0260487Y-0123057D01*
X-0263749Y-0121706D01*
X-0277126Y-0121706D01*
X-0263036Y-0122001D02*
X-0232926Y-0122001D01*
X-0232213Y-0121706D02*
X-0235475Y-0123057D01*
X-0237971Y-0125553D01*
X-0239322Y-0128815D01*
X-0239322Y-0155765D01*
X-0237971Y-0159027D01*
X-0235475Y-0161523D01*
X-0232213Y-0162874D01*
X-0213070Y-0162874D01*
X-0210947Y-0161995D01*
X-0208825Y-0162874D01*
X-0205295Y-0162874D01*
X-0202033Y-0161523D01*
X-0199537Y-0159027D01*
X-0199253Y-0158342D01*
X-0198970Y-0159027D01*
X-0196473Y-0161523D01*
X-0193212Y-0162874D01*
X-0189682Y-0162874D01*
X-0186420Y-0161523D01*
X-0183924Y-0159027D01*
X-0183656Y-0158381D01*
X-0183388Y-0159027D01*
X-0180892Y-0161523D01*
X-0177631Y-0162874D01*
X-0174100Y-0162874D01*
X-0170839Y-0161523D01*
X-0168342Y-0159027D01*
X-0168075Y-0158381D01*
X-0167807Y-0159027D01*
X-0165311Y-0161523D01*
X-0162049Y-0162874D01*
X-0142906Y-0162874D01*
X-0140783Y-0161995D01*
X-0138661Y-0162874D01*
X-0135131Y-0162874D01*
X-0131869Y-0161523D01*
X-0129373Y-0159027D01*
X-0129207Y-0158626D01*
X-0126310Y-0161523D01*
X-0123048Y-0162874D01*
X-0119518Y-0162874D01*
X-0116256Y-0161523D01*
X-0113760Y-0159027D01*
X-0112409Y-0155765D01*
X-0112409Y-0152235D01*
X-0113760Y-0148973D01*
X-0114588Y-0148145D01*
X-0113760Y-0147317D01*
X-0112409Y-0144055D01*
X-0112409Y-0132718D01*
X-0113760Y-0129457D01*
X-0116256Y-0126960D01*
X-0120159Y-0123057D01*
X-0123421Y-0121706D01*
X-0138661Y-0121706D01*
X-0140783Y-0122585D01*
X-0142906Y-0121706D01*
X-0162049Y-0121706D01*
X-0164171Y-0122585D01*
X-0166294Y-0121706D01*
X-0169824Y-0121706D01*
X-0173086Y-0123057D01*
X-0175582Y-0125553D01*
X-0175865Y-0126238D01*
X-0176149Y-0125553D01*
X-0178645Y-0123057D01*
X-0181907Y-0121706D01*
X-0185437Y-0121706D01*
X-0188699Y-0123057D01*
X-0191195Y-0125553D01*
X-0191352Y-0125932D01*
X-0194227Y-0123057D01*
X-0197488Y-0121706D01*
X-0201019Y-0121706D01*
X-0204280Y-0123057D01*
X-0206776Y-0125553D01*
X-0214583Y-0133360D01*
X-0215934Y-0136622D01*
X-0215934Y-0145126D01*
X-0221574Y-0145126D01*
X-0221574Y-0128815D01*
X-0222925Y-0125553D01*
X-0225421Y-0123057D01*
X-0228683Y-0121706D01*
X-0232213Y-0121706D01*
X-0227970Y-0122001D02*
X-0201731Y-0122001D01*
X-0196776Y-0122001D02*
X-0186150Y-0122001D01*
X-0181194Y-0122001D02*
X-0170536Y-0122001D01*
X-0165581Y-0122001D02*
X-0162762Y-0122001D01*
X-0175741Y-0125937D02*
X-0175990Y-0125937D01*
X-0142193Y-0122001D02*
X-0139374Y-0122001D01*
X-0122709Y-0122001D02*
X-0088694Y-0122001D01*
X-0087982Y-0121706D02*
X-0091244Y-0123057D01*
X-0095147Y-0126960D01*
X-0097643Y-0129457D01*
X-0098994Y-0132718D01*
X-0098994Y-0151862D01*
X-0097643Y-0155123D01*
X-0093740Y-0159027D01*
X-0091244Y-0161523D01*
X-0087982Y-0162874D01*
X-0076645Y-0162874D01*
X-0073383Y-0161523D01*
X-0070620Y-0158759D01*
X-0070352Y-0159027D01*
X-0067856Y-0161523D01*
X-0064594Y-0162874D01*
X-0053257Y-0162874D01*
X-0049995Y-0161523D01*
X-0049183Y-0160711D01*
X-0048371Y-0161523D01*
X-0045109Y-0162874D01*
X-0041579Y-0162874D01*
X-0038318Y-0161523D01*
X-0035821Y-0159027D01*
X-0035538Y-0158342D01*
X-0035254Y-0159027D01*
X-0032758Y-0161523D01*
X-0029496Y-0162874D01*
X-0025966Y-0162874D01*
X-0023844Y-0161995D01*
X-0021721Y-0162874D01*
X-0018191Y-0162874D01*
X-0014930Y-0161523D01*
X-0012433Y-0159027D01*
X-0011082Y-0155765D01*
X-0011082Y-0155067D01*
X-0006481Y-0155067D01*
X-0004461Y-0154231D01*
X-0004091Y-0155123D01*
X-0000188Y-0159027D01*
X0002308Y-0161523D01*
X0005570Y-0162874D01*
X0016907Y-0162874D01*
X0020168Y-0161523D01*
X0020981Y-0160711D01*
X0021793Y-0161523D01*
X0025055Y-0162874D01*
X0028585Y-0162874D01*
X0031846Y-0161523D01*
X0034343Y-0159027D01*
X0034626Y-0158342D01*
X0034910Y-0159027D01*
X0035537Y-0159654D01*
X0036029Y-0160391D01*
X0036773Y-0160890D01*
X0037406Y-0161523D01*
X0038225Y-0161862D01*
X0038962Y-0162355D01*
X0039840Y-0162531D01*
X0040668Y-0162874D01*
X0041554Y-0162874D01*
X0042424Y-0163048D01*
X0043302Y-0162874D01*
X0044198Y-0162874D01*
X0045017Y-0162535D01*
X0045887Y-0162363D01*
X0046393Y-0162025D01*
X0048443Y-0162874D01*
X0067586Y-0162874D01*
X0069708Y-0161995D01*
X0071830Y-0162874D01*
X0075361Y-0162874D01*
X0078622Y-0161523D01*
X0081119Y-0159027D01*
X0081402Y-0158342D01*
X0081686Y-0159027D01*
X0082313Y-0159654D01*
X0082804Y-0160391D01*
X0083549Y-0160890D01*
X0084182Y-0161523D01*
X0085001Y-0161862D01*
X0085738Y-0162355D01*
X0086616Y-0162531D01*
X0087444Y-0162874D01*
X0088330Y-0162874D01*
X0089200Y-0163048D01*
X0090078Y-0162874D01*
X0090974Y-0162874D01*
X0091793Y-0162535D01*
X0092663Y-0162363D01*
X0093408Y-0161866D01*
X0094236Y-0161523D01*
X0094863Y-0160896D01*
X0095600Y-0160404D01*
X0096099Y-0159660D01*
X0096732Y-0159027D01*
X0097000Y-0158381D01*
X0097267Y-0159027D01*
X0099764Y-0161523D01*
X0103025Y-0162874D01*
X0106555Y-0162874D01*
X0109817Y-0161523D01*
X0112313Y-0159027D01*
X0113664Y-0155765D01*
X0113664Y-0139454D01*
X0114362Y-0139454D01*
X0117624Y-0138103D01*
X0120120Y-0135607D01*
X0121471Y-0132345D01*
X0121471Y-0128815D01*
X0120120Y-0125553D01*
X0117624Y-0123057D01*
X0114362Y-0121706D01*
X0095218Y-0121706D01*
X0093096Y-0122585D01*
X0090974Y-0121706D01*
X0087444Y-0121706D01*
X0084182Y-0123057D01*
X0081686Y-0125553D01*
X0081402Y-0126238D01*
X0081119Y-0125553D01*
X0080492Y-0124926D01*
X0080000Y-0124189D01*
X0079256Y-0123690D01*
X0078622Y-0123057D01*
X0077803Y-0122718D01*
X0077067Y-0122224D01*
X0076188Y-0122049D01*
X0075361Y-0121706D01*
X0074474Y-0121706D01*
X0073605Y-0121532D01*
X0072726Y-0121706D01*
X0071830Y-0121706D01*
X0071012Y-0122045D01*
X0070142Y-0122217D01*
X0069636Y-0122555D01*
X0067586Y-0121706D01*
X0048443Y-0121706D01*
X0046320Y-0122585D01*
X0044198Y-0121706D01*
X0040668Y-0121706D01*
X0037406Y-0123057D01*
X0034910Y-0125553D01*
X0034626Y-0126238D01*
X0034343Y-0125553D01*
X0033716Y-0124926D01*
X0033224Y-0124189D01*
X0032480Y-0123690D01*
X0031846Y-0123057D01*
X0031027Y-0122718D01*
X0030291Y-0122224D01*
X0029412Y-0122049D01*
X0028585Y-0121706D01*
X0027698Y-0121706D01*
X0026829Y-0121532D01*
X0025950Y-0121706D01*
X0025055Y-0121706D01*
X0024236Y-0122045D01*
X0023366Y-0122217D01*
X0022621Y-0122714D01*
X0021793Y-0123057D01*
X0021166Y-0123684D01*
X0020944Y-0123832D01*
X0020168Y-0123057D01*
X0016907Y-0121706D01*
X0005570Y-0121706D01*
X0002308Y-0123057D01*
X-0000456Y-0125821D01*
X-0003220Y-0123057D01*
X-0006481Y-0121706D01*
X-0021721Y-0121706D01*
X-0023844Y-0122585D01*
X-0025966Y-0121706D01*
X-0029496Y-0121706D01*
X-0032758Y-0123057D01*
X-0035254Y-0125553D01*
X-0035538Y-0125837D01*
X-0038318Y-0123057D01*
X-0041579Y-0121706D01*
X-0045109Y-0121706D01*
X-0048371Y-0123057D01*
X-0049183Y-0123869D01*
X-0049995Y-0123057D01*
X-0053257Y-0121706D01*
X-0056787Y-0121706D01*
X-0061064Y-0121706D01*
X-0064594Y-0121706D01*
X-0067856Y-0123057D01*
X-0070620Y-0125821D01*
X-0070887Y-0125553D01*
X-0073383Y-0123057D01*
X-0076645Y-0121706D01*
X-0087982Y-0121706D01*
X-0094123Y-0125937D02*
X-0117280Y-0125937D01*
X-0116256Y-0126960D02*
X-0116256Y-0126960D01*
X-0113588Y-0129872D02*
X-0097815Y-0129872D01*
X-0098994Y-0133808D02*
X-0112409Y-0133808D01*
X-0112409Y-0137743D02*
X-0098994Y-0137743D01*
X-0098994Y-0141679D02*
X-0112409Y-0141679D01*
X-0113055Y-0145614D02*
X-0098994Y-0145614D01*
X-0098994Y-0149550D02*
X-0113521Y-0149550D01*
X-0112409Y-0153485D02*
X-0098322Y-0153485D01*
X-0095346Y-0157421D02*
X-0113095Y-0157421D01*
X-0116089Y-0161356D02*
X-0091410Y-0161356D01*
X-0073217Y-0161356D02*
X-0068022Y-0161356D01*
X-0049829Y-0161356D02*
X-0048538Y-0161356D01*
X-0038151Y-0161356D02*
X-0032924Y-0161356D01*
X-0014763Y-0161356D02*
X0002142Y-0161356D01*
X-0001794Y-0157421D02*
X-0011768Y-0157421D01*
X0020335Y-0161356D02*
X0021626Y-0161356D01*
X0032013Y-0161356D02*
X0037240Y-0161356D01*
X0078789Y-0161356D02*
X0084016Y-0161356D01*
X0094402Y-0161356D02*
X0099597Y-0161356D01*
X0109984Y-0161356D02*
X0837047Y-0161356D01*
X0837047Y-0157421D02*
X0112979Y-0157421D01*
X0113664Y-0153485D02*
X0837047Y-0153485D01*
X0837047Y-0149550D02*
X0113664Y-0149550D01*
X0113664Y-0145614D02*
X0837047Y-0145614D01*
X0837047Y-0141679D02*
X0113664Y-0141679D01*
X0117984Y-0137743D02*
X0837047Y-0137743D01*
X0837047Y-0133808D02*
X0120865Y-0133808D01*
X0121471Y-0129872D02*
X0837047Y-0129872D01*
X0837047Y-0125937D02*
X0120279Y-0125937D01*
X0115075Y-0122001D02*
X0837047Y-0122001D01*
X0837047Y-0165292D02*
X0834023Y-0165292D01*
X0815977Y-0165292D02*
X-0255977Y-0165292D01*
X-0251379Y-0169227D02*
X0811379Y-0169227D01*
X0809030Y-0173163D02*
X-0249030Y-0173163D01*
X-0247920Y-0177098D02*
X0807920Y-0177098D01*
X0807751Y-0181034D02*
X-0247751Y-0181034D01*
X-0248474Y-0184969D02*
X0808474Y-0184969D01*
X0810224Y-0188905D02*
X-0250224Y-0188905D01*
X-0274023Y-0165292D02*
X-0277126Y-0165292D01*
X-0272031Y-0161356D02*
X-0235642Y-0161356D01*
X-0238636Y-0157421D02*
X-0269036Y-0157421D01*
X-0260256Y-0153485D02*
X-0239322Y-0153485D01*
X-0239322Y-0149550D02*
X-0256321Y-0149550D01*
X-0253382Y-0145614D02*
X-0239322Y-0145614D01*
X-0239322Y-0141679D02*
X-0252737Y-0141679D01*
X-0252737Y-0137743D02*
X-0239322Y-0137743D01*
X-0239322Y-0133808D02*
X-0252737Y-0133808D01*
X-0253916Y-0129872D02*
X-0239322Y-0129872D01*
X-0238130Y-0125937D02*
X-0257608Y-0125937D01*
X-0277126Y-0106259D02*
X0693125Y-0106259D01*
X0691429Y-0102323D02*
X-0277126Y-0102323D01*
X-0277126Y-0098388D02*
X0691238Y-0098388D01*
X0692082Y-0094452D02*
X-0277126Y-0094452D01*
X-0277126Y-0090517D02*
X0691189Y-0090517D01*
X0691723Y-0086581D02*
X-0277126Y-0086581D01*
X-0277126Y-0082646D02*
X0470077Y-0082646D01*
X0470815Y-0083072D02*
X0473573Y-0083811D01*
X0476427Y-0083811D01*
X0479185Y-0083072D01*
X0480000Y-0082602D01*
X0480815Y-0083072D01*
X0483573Y-0083811D01*
X0486427Y-0083811D01*
X0489185Y-0083072D01*
X0491657Y-0081645D01*
X0493676Y-0079626D01*
X0494129Y-0078842D01*
X0494533Y-0078905D01*
X0495000Y-0078905D01*
X0495467Y-0078905D01*
X0496390Y-0078759D01*
X0497279Y-0078471D01*
X0498112Y-0078046D01*
X0498868Y-0077497D01*
X0499528Y-0076836D01*
X0500078Y-0076080D01*
X0500502Y-0075248D01*
X0500791Y-0074359D01*
X0500937Y-0073436D01*
X0500937Y-0070000D01*
X0495843Y-0070000D01*
X0500937Y-0070000D01*
X0500937Y-0066564D01*
X0500791Y-0065641D01*
X0500502Y-0064752D01*
X0500078Y-0063920D01*
X0499528Y-0063164D01*
X0498868Y-0062503D01*
X0498112Y-0061954D01*
X0497279Y-0061529D01*
X0496390Y-0061241D01*
X0495467Y-0061094D01*
X0495000Y-0061094D01*
X0494533Y-0061094D01*
X0494129Y-0061158D01*
X0493676Y-0060374D01*
X0491657Y-0058355D01*
X0489185Y-0056928D01*
X0486427Y-0056189D01*
X0483573Y-0056189D01*
X0480815Y-0056928D01*
X0480000Y-0057398D01*
X0479185Y-0056928D01*
X0476427Y-0056189D01*
X0473573Y-0056189D01*
X0470815Y-0056928D01*
X0468343Y-0058355D01*
X0466324Y-0060374D01*
X0464896Y-0062846D01*
X0464157Y-0065604D01*
X0464157Y-0074396D01*
X0464896Y-0077154D01*
X0466324Y-0079626D01*
X0468343Y-0081645D01*
X0470815Y-0083072D01*
X0465795Y-0078710D02*
X-0277126Y-0078710D01*
X-0277126Y-0074775D02*
X0464259Y-0074775D01*
X0464157Y-0070839D02*
X-0277126Y-0070839D01*
X-0277126Y-0066904D02*
X0464157Y-0066904D01*
X0464864Y-0062968D02*
X-0277126Y-0062968D01*
X-0277126Y-0059033D02*
X0467665Y-0059033D01*
X0492335Y-0059033D02*
X0691189Y-0059033D01*
X0691602Y-0062968D02*
X0499333Y-0062968D01*
X0500937Y-0066904D02*
X0691636Y-0066904D01*
X0691189Y-0070839D02*
X0500937Y-0070839D01*
X0500656Y-0074775D02*
X0692268Y-0074775D01*
X0691189Y-0078710D02*
X0496541Y-0078710D01*
X0495000Y-0078710D02*
X0495000Y-0078710D01*
X0495000Y-0078905D02*
X0495000Y-0077333D01*
X0495000Y-0077333D01*
X0495000Y-0078905D01*
X0489923Y-0082646D02*
X0691515Y-0082646D01*
X0692342Y-0055097D02*
X-0277126Y-0055097D01*
X-0277126Y-0051162D02*
X0691189Y-0051162D01*
X0691550Y-0047226D02*
X-0277126Y-0047226D01*
X-0277126Y-0043291D02*
X0691688Y-0043291D01*
X0691189Y-0039355D02*
X-0277126Y-0039355D01*
X-0277126Y-0035420D02*
X0692156Y-0035420D01*
X0695214Y-0031484D02*
X-0277126Y-0031484D01*
X-0277126Y0011807D02*
X0407177Y0011807D01*
X0410000Y0011807D02*
X0410000Y0011807D01*
X0410000Y0011094D02*
X0410000Y0012667D01*
X0410000Y0012667D01*
X0410000Y0011094D01*
X0404193Y0015742D02*
X-0277126Y0015742D01*
X-0277126Y0019678D02*
X0404063Y0019678D01*
X0404091Y0023613D02*
X-0277126Y0023613D01*
X-0277126Y0027549D02*
X0406203Y0027549D01*
X0410000Y0027549D02*
X0410000Y0027549D01*
X0410000Y0027333D02*
X0410000Y0027333D01*
X0410000Y0028905D01*
X0410000Y0027333D01*
X0413182Y0031484D02*
X-0277126Y0031484D01*
X-0277126Y0082646D02*
X-0215429Y0082646D01*
X-0219373Y0086581D02*
X-0277126Y0086581D01*
X-0277126Y0090517D02*
X-0220819Y0090517D01*
X-0220843Y0094452D02*
X-0277126Y0094452D01*
X-0277126Y0098388D02*
X-0220843Y0098388D01*
X-0220005Y0102323D02*
X-0277126Y0102323D01*
X-0277126Y0106259D02*
X-0217043Y0106259D01*
X-0277126Y0110195D02*
X0505709Y0110195D01*
X0504551Y0114130D02*
X-0277126Y0114130D01*
X-0277126Y0118066D02*
X0505004Y0118066D01*
X0504986Y0122001D02*
X-0277126Y0122001D01*
X-0277126Y0125937D02*
X0504551Y0125937D01*
X0505748Y0129872D02*
X-0277126Y0129872D01*
X-0277126Y0133808D02*
X0504551Y0133808D01*
X0504918Y0137743D02*
X-0277126Y0137743D01*
X-0277126Y0141679D02*
X0505073Y0141679D01*
X0504551Y0145614D02*
X-0277126Y0145614D01*
X-0277126Y0149550D02*
X0505562Y0149550D01*
X0504588Y0153485D02*
X-0277126Y0153485D01*
X-0277126Y0157421D02*
X0504831Y0157421D01*
X0505159Y0161356D02*
X-0277126Y0161356D01*
X-0277126Y0165292D02*
X-0231519Y0165292D01*
X-0229753Y0163526D02*
X-0236474Y0170247D01*
X-0236474Y0179753D01*
X-0236227Y0180000D01*
X-0236474Y0180247D01*
X-0236474Y0189753D01*
X-0236227Y0190000D01*
X-0236474Y0190247D01*
X-0236474Y0199753D01*
X-0229753Y0206474D01*
X-0220247Y0206474D01*
X-0220000Y0206227D01*
X-0219753Y0206474D01*
X-0210247Y0206474D01*
X-0203526Y0199753D01*
X-0203526Y0190247D01*
X-0203773Y0190000D01*
X-0203526Y0189753D01*
X-0203526Y0180247D01*
X-0203550Y0180224D01*
X-0203526Y0180166D01*
X-0203526Y0169834D01*
X-0204725Y0166940D01*
X-0206940Y0164725D01*
X-0209834Y0163526D01*
X-0220166Y0163526D01*
X-0220224Y0163550D01*
X-0220247Y0163526D01*
X-0229753Y0163526D01*
X-0235454Y0169227D02*
X-0277126Y0169227D01*
X-0277126Y0173163D02*
X-0236474Y0173163D01*
X-0236474Y0177098D02*
X-0277126Y0177098D01*
X-0277126Y0181034D02*
X-0236474Y0181034D01*
X-0236474Y0184969D02*
X-0277126Y0184969D01*
X-0277126Y0188905D02*
X-0236474Y0188905D01*
X-0236474Y0192840D02*
X-0277126Y0192840D01*
X-0277126Y0196776D02*
X-0236474Y0196776D01*
X-0235515Y0200711D02*
X-0277126Y0200711D01*
X-0277126Y0204647D02*
X-0231580Y0204647D01*
X-0208420Y0204647D02*
X0388420Y0204647D01*
X0390247Y0206474D02*
X0383526Y0199753D01*
X0383526Y0190247D01*
X0383773Y0190000D01*
X0383526Y0189753D01*
X0383526Y0180247D01*
X0383550Y0180224D01*
X0383526Y0180166D01*
X0383526Y0169834D01*
X0384725Y0166940D01*
X0386940Y0164725D01*
X0389834Y0163526D01*
X0400166Y0163526D01*
X0400224Y0163550D01*
X0400247Y0163526D01*
X0409753Y0163526D01*
X0416474Y0170247D01*
X0416474Y0179753D01*
X0416227Y0180000D01*
X0416474Y0180247D01*
X0416474Y0189753D01*
X0416227Y0190000D01*
X0416474Y0190247D01*
X0416474Y0199753D01*
X0409753Y0206474D01*
X0400247Y0206474D01*
X0400000Y0206227D01*
X0399753Y0206474D01*
X0390247Y0206474D01*
X0384485Y0200711D02*
X-0204485Y0200711D01*
X-0203526Y0196776D02*
X0383526Y0196776D01*
X0383526Y0192840D02*
X-0203526Y0192840D01*
X-0203526Y0188905D02*
X0383526Y0188905D01*
X0383526Y0184969D02*
X-0203526Y0184969D01*
X-0203526Y0181034D02*
X0383526Y0181034D01*
X0383526Y0177098D02*
X-0203526Y0177098D01*
X-0203526Y0173163D02*
X0383526Y0173163D01*
X0383777Y0169227D02*
X-0203777Y0169227D01*
X-0206373Y0165292D02*
X0386373Y0165292D01*
X0411519Y0165292D02*
X0504551Y0165292D01*
X0505375Y0169227D02*
X0415454Y0169227D01*
X0416474Y0173163D02*
X0504675Y0173163D01*
X0504745Y0177098D02*
X0416474Y0177098D01*
X0416474Y0181034D02*
X0505245Y0181034D01*
X0504551Y0184969D02*
X0416474Y0184969D01*
X0416474Y0188905D02*
X0505229Y0188905D01*
X0504761Y0192840D02*
X0416474Y0192840D01*
X0416474Y0196776D02*
X0504658Y0196776D01*
X0505411Y0200711D02*
X0415515Y0200711D01*
X0411580Y0204647D02*
X0504551Y0204647D01*
X0505143Y0208583D02*
X-0277126Y0208583D01*
X-0277126Y0212518D02*
X0504848Y0212518D01*
X0504572Y0216454D02*
X-0277126Y0216454D01*
X-0277126Y0220389D02*
X0505597Y0220389D01*
X0504551Y0224325D02*
X-0277126Y0224325D01*
X-0277126Y0228260D02*
X0505056Y0228260D01*
X0504934Y0232196D02*
X-0277126Y0232196D01*
X-0277126Y0236131D02*
X0504551Y0236131D01*
X0505783Y0240067D02*
X-0277126Y0240067D01*
X-0277126Y0244002D02*
X0504551Y0244002D01*
X0504970Y0247938D02*
X-0277126Y0247938D01*
X-0277126Y0251873D02*
X0505020Y0251873D01*
X0504551Y0255809D02*
X-0277126Y0255809D01*
X-0277126Y0259744D02*
X0505674Y0259744D01*
X0510111Y0267615D02*
X-0159624Y0267615D01*
X-0121259Y0275486D02*
X-0108741Y0275486D01*
X-0110000Y0276094D02*
X-0110000Y0277667D01*
X-0110000Y0277667D01*
X-0110000Y0276094D01*
X-0110843Y0285000D02*
X-0115937Y0285000D01*
X-0119157Y0285000D01*
X-0110843Y0285000D01*
X-0110843Y0285000D01*
X-0110000Y0292333D02*
X-0110000Y0293905D01*
X-0110000Y0292333D01*
X-0110000Y0292333D01*
X-0108138Y0295164D02*
X-0121862Y0295164D01*
X-0120000Y0293905D02*
X-0120000Y0292333D01*
X-0120000Y0292333D01*
X-0120000Y0293905D01*
X-0115030Y0291228D02*
X-0114970Y0291228D01*
X-0119157Y0285000D02*
X-0119157Y0285000D01*
X-0120000Y0277667D02*
X-0120000Y0276094D01*
X-0120000Y0277667D01*
X-0120000Y0277667D01*
X-0071259Y0275486D02*
X0270580Y0275486D01*
X0266155Y0279422D02*
X-0069474Y0279422D01*
X-0069157Y0283357D02*
X0264623Y0283357D01*
X0264797Y0287293D02*
X-0069157Y0287293D01*
X-0069648Y0291228D02*
X0266531Y0291228D01*
X0272561Y0295164D02*
X-0071862Y0295164D01*
X-0277126Y0322713D02*
X0837047Y0322713D01*
X0837047Y0326648D02*
X-0277126Y0326648D01*
X-0277126Y0330584D02*
X0837047Y0330584D01*
X0837047Y0334519D02*
X-0277126Y0334519D01*
X-0277126Y0338455D02*
X0837047Y0338455D01*
X0837047Y0342390D02*
X-0277126Y0342390D01*
X-0277126Y0346326D02*
X0837047Y0346326D01*
X0837047Y0350261D02*
X-0277126Y0350261D01*
X-0277126Y0354197D02*
X0705458Y0354197D01*
X0698566Y0358132D02*
X-0277126Y0358132D01*
X-0277126Y0362068D02*
X0696592Y0362068D01*
X0696189Y0366003D02*
X-0277126Y0366003D01*
X-0277126Y0369939D02*
X0697363Y0369939D01*
X0696189Y0373874D02*
X-0277126Y0373874D01*
X-0277126Y0377810D02*
X0696559Y0377810D01*
X0696679Y0381745D02*
X-0277126Y0381745D01*
X-0277126Y0385681D02*
X0696189Y0385681D01*
X0697177Y0389616D02*
X-0277126Y0389616D01*
X-0277126Y0393552D02*
X0696195Y0393552D01*
X0696473Y0397487D02*
X-0277126Y0397487D01*
X-0277126Y0401423D02*
X0696765Y0401423D01*
X0696189Y0405358D02*
X-0277126Y0405358D01*
X-0277126Y0409294D02*
X-0272294Y0409294D01*
X-0257706Y0409294D02*
X0696991Y0409294D01*
X0696281Y0413230D02*
X-0252377Y0413230D01*
X-0249606Y0417165D02*
X0696387Y0417165D01*
X0696851Y0421101D02*
X-0248187Y0421101D01*
X-0247751Y0425036D02*
X0696189Y0425036D01*
X0696871Y0428972D02*
X-0248207Y0428972D01*
X-0249648Y0432907D02*
X0699605Y0432907D01*
X0720395Y0432907D02*
X0809648Y0432907D01*
X0808207Y0428972D02*
X0723129Y0428972D01*
X0723811Y0425036D02*
X0807751Y0425036D01*
X0808187Y0421101D02*
X0723149Y0421101D01*
X0723613Y0417165D02*
X0809606Y0417165D01*
X0812377Y0413230D02*
X0723719Y0413230D01*
X0723009Y0409294D02*
X0817706Y0409294D01*
X0832294Y0409294D02*
X0837047Y0409294D01*
X0837047Y0405358D02*
X0723811Y0405358D01*
X0723235Y0401423D02*
X0837047Y0401423D01*
X0837047Y0397487D02*
X0723527Y0397487D01*
X0723805Y0393552D02*
X0837047Y0393552D01*
X0837047Y0389616D02*
X0722823Y0389616D01*
X0723811Y0385681D02*
X0837047Y0385681D01*
X0837047Y0381745D02*
X0723321Y0381745D01*
X0723441Y0377810D02*
X0837047Y0377810D01*
X0837047Y0373874D02*
X0723811Y0373874D01*
X0722637Y0369939D02*
X0837047Y0369939D01*
X0837047Y0366003D02*
X0723811Y0366003D01*
X0723408Y0362068D02*
X0837047Y0362068D01*
X0837047Y0358132D02*
X0721434Y0358132D01*
X0714542Y0354197D02*
X0837047Y0354197D01*
X0502561Y0295164D02*
X0497439Y0295164D01*
X0492561Y0295164D02*
X0487439Y0295164D01*
X0482561Y0295164D02*
X0477439Y0295164D01*
X0472561Y0295164D02*
X0467439Y0295164D01*
X0462561Y0295164D02*
X0457439Y0295164D01*
X0452561Y0295164D02*
X0447439Y0295164D01*
X0442561Y0295164D02*
X0437439Y0295164D01*
X0432561Y0295164D02*
X0417439Y0295164D01*
X0412561Y0295164D02*
X0407439Y0295164D01*
X0402561Y0295164D02*
X0397439Y0295164D01*
X0392561Y0295164D02*
X0387439Y0295164D01*
X0382561Y0295164D02*
X0377439Y0295164D01*
X0372561Y0295164D02*
X0367439Y0295164D01*
X0362561Y0295164D02*
X0357439Y0295164D01*
X0352561Y0295164D02*
X0347439Y0295164D01*
X0342561Y0295164D02*
X0327439Y0295164D01*
X0322561Y0295164D02*
X0297439Y0295164D01*
X0292561Y0295164D02*
X0287439Y0295164D01*
X0282561Y0295164D02*
X0277439Y0295164D01*
X0303469Y0291228D02*
X0316531Y0291228D01*
X0315000Y0290543D02*
X0315000Y0288051D01*
X0315000Y0288050D01*
X0315000Y0290543D01*
X0314551Y0285000D02*
X0314551Y0285000D01*
X0310543Y0285000D01*
X0305449Y0285000D01*
X0305449Y0285000D01*
X0314551Y0285000D01*
X0315000Y0281950D02*
X0315000Y0281949D01*
X0315000Y0279457D01*
X0315000Y0281950D01*
X0316155Y0279422D02*
X0303845Y0279422D01*
X0305000Y0279457D02*
X0305000Y0281949D01*
X0305000Y0281950D01*
X0305000Y0279457D01*
X0299419Y0275486D02*
X0320580Y0275486D01*
X0329419Y0275486D02*
X0340580Y0275486D01*
X0336155Y0279422D02*
X0333845Y0279422D01*
X0333469Y0291228D02*
X0336531Y0291228D01*
X0349419Y0275486D02*
X0350580Y0275486D01*
X0359419Y0275486D02*
X0360580Y0275486D01*
X0369419Y0275486D02*
X0370580Y0275486D01*
X0379419Y0275486D02*
X0380580Y0275486D01*
X0389419Y0275486D02*
X0390580Y0275486D01*
X0399419Y0275486D02*
X0400580Y0275486D01*
X0409419Y0275486D02*
X0410580Y0275486D01*
X0419419Y0275486D02*
X0430580Y0275486D01*
X0426155Y0279422D02*
X0423845Y0279422D01*
X0423469Y0291228D02*
X0426531Y0291228D01*
X0439419Y0275486D02*
X0440580Y0275486D01*
X0449419Y0275486D02*
X0450580Y0275486D01*
X0459419Y0275486D02*
X0460580Y0275486D01*
X0469419Y0275486D02*
X0470580Y0275486D01*
X0479419Y0275486D02*
X0480580Y0275486D01*
X0489419Y0275486D02*
X0490580Y0275486D01*
X0499419Y0275486D02*
X0500580Y0275486D01*
X0305000Y0288050D02*
X0305000Y0288051D01*
X0305000Y0290543D01*
X0305000Y0288050D01*
X0290580Y0275486D02*
X0289419Y0275486D01*
X0280580Y0275486D02*
X0279419Y0275486D01*
X-0132043Y0106259D02*
X-0132957Y0106259D01*
X-0134571Y0082646D02*
X-0130429Y0082646D01*
X-0075933Y-0122001D02*
X-0065306Y-0122001D01*
X-0052545Y-0122001D02*
X-0045822Y-0122001D01*
X-0040867Y-0122001D02*
X-0030209Y-0122001D01*
X-0025253Y-0122001D02*
X-0022434Y-0122001D01*
X-0005769Y-0122001D02*
X0004857Y-0122001D01*
X0017619Y-0122001D02*
X0024342Y-0122001D01*
X0029297Y-0122001D02*
X0039955Y-0122001D01*
X0044911Y-0122001D02*
X0047730Y-0122001D01*
X0034751Y-0125937D02*
X0034502Y-0125937D01*
X0068299Y-0122001D02*
X0071118Y-0122001D01*
X0076073Y-0122001D02*
X0086731Y-0122001D01*
X0091687Y-0122001D02*
X0094506Y-0122001D01*
X0081527Y-0125937D02*
X0081277Y-0125937D01*
X-0126476Y-0161356D02*
X-0131703Y-0161356D01*
X-0165478Y-0161356D02*
X-0170672Y-0161356D01*
X-0181059Y-0161356D02*
X-0186253Y-0161356D01*
X-0196640Y-0161356D02*
X-0201867Y-0161356D01*
X-0215934Y-0141679D02*
X-0221574Y-0141679D01*
X-0221574Y-0137743D02*
X-0215934Y-0137743D01*
X-0214769Y-0133808D02*
X-0221574Y-0133808D01*
X-0221574Y-0129872D02*
X-0211095Y-0129872D01*
X-0207160Y-0125937D02*
X-0222766Y-0125937D01*
X0409157Y0020000D02*
X0409157Y0020000D01*
X0495000Y-0061094D02*
X0495000Y-0062667D01*
X0495000Y-0062667D01*
X0495000Y-0061094D01*
X0495843Y-0070000D02*
X0495843Y-0070000D01*
X0480077Y-0082646D02*
X0479923Y-0082646D01*
D16*
X0520000Y-0100000D03*
X0430000Y-0020000D03*
X0465000Y0060000D03*
X0630000Y-0010000D03*
X0260000Y-0025000D03*
X0625000Y0220000D03*
X0335000Y0250000D03*
X0470000Y0375000D03*
M02*
