%
M48
M72
T01C0.03150
T02C0.03937
T03C0.04000
T04C0.06299
T05C0.07874
%
T01
X-80000Y10000
X-80000Y50000
X-150000Y85000
X75000Y75000
X85000Y75000
X95000Y75000
X105000Y75000
X115000Y75000
X125000Y75000
X135000Y75000
X145000Y75000
X160000Y75000
X170000Y75000
X180000Y75000
X190000Y75000
X200000Y75000
X210000Y75000
X220000Y75000
X230000Y75000
X250000Y75000
X260000Y75000
X270000Y75000
X280000Y75000
X290000Y75000
X300000Y75000
X310000Y75000
X320000Y75000
X350000Y75000
X360000Y75000
X360000Y85000
X350000Y85000
X350000Y95000
X360000Y95000
X360000Y105000
X350000Y105000
X350000Y115000
X360000Y115000
X360000Y125000
X350000Y125000
X350000Y135000
X360000Y135000
X360000Y145000
X350000Y145000
X350000Y155000
X360000Y155000
X360000Y165000
X350000Y165000
X350000Y175000
X360000Y175000
X360000Y185000
X350000Y185000
X350000Y195000
X360000Y195000
X360000Y205000
X350000Y205000
X350000Y215000
X360000Y215000
X360000Y225000
X350000Y225000
X350000Y235000
X360000Y235000
X360000Y245000
X350000Y245000
X340000Y265000
X330000Y265000
X320000Y265000
X310000Y265000
X300000Y265000
X290000Y265000
X280000Y265000
X270000Y265000
X250000Y265000
X240000Y265000
X230000Y265000
X220000Y265000
X210000Y265000
X200000Y265000
X190000Y265000
X180000Y265000
X160000Y265000
X150000Y265000
X140000Y265000
X130000Y265000
X120000Y265000
X110000Y265000
X205000Y300000
X530000Y165000
X565000Y165000
X445000Y95000
X470000Y50000
X480000Y40000
X465000Y20000
X530000Y0
X515000Y-25000
X350000Y-45000
X295000Y-40000
X260000Y-20000
X260000Y-10000
X325000Y10000
X330000Y20000
X335000Y35000
X335000Y45000
X85000Y5000
X-135000Y240000
T02
X148307Y330000
X162087Y330000
X550000Y326693
X550000Y312913
T03
X450000Y265000
X450000Y255000
X450000Y245000
X450000Y235000
X450000Y215000
X450000Y205000
X450000Y195000
X450000Y185000
X505000Y165000
X515000Y165000
X515000Y155000
X505000Y155000
X505000Y145000
X515000Y145000
X515000Y135000
X505000Y135000
X505000Y125000
X515000Y125000
X515000Y60000
X505000Y60000
X505000Y50000
X515000Y50000
X515000Y40000
X505000Y40000
X505000Y30000
X515000Y30000
X515000Y20000
X505000Y20000
X380000Y-10000
X370000Y-10000
X370000Y-20000
X380000Y-20000
X360000Y-20000
X350000Y-20000
X340000Y-20000
X340000Y-10000
X350000Y-10000
X360000Y-10000
X250000Y-10000
X240000Y-10000
X230000Y-10000
X220000Y-10000
X210000Y-10000
X210000Y-20000
X220000Y-20000
X230000Y-20000
X240000Y-20000
X250000Y-20000
X160000Y-20000
X150000Y-20000
X140000Y-20000
X130000Y-20000
X120000Y-20000
X110000Y-20000
X100000Y-20000
X-160000Y0
X-160000Y10000
X-160000Y20000
X-160000Y30000
X-160000Y40000
X-160000Y50000
X-160000Y60000
X-170000Y155000
X-170000Y165000
X-170000Y175000
X-170000Y185000
X-170000Y195000
X-170000Y205000
X-170000Y215000
X-170000Y260000
X-170000Y270000
X-170000Y280000
X-170000Y290000
X-170000Y300000
X-170000Y310000
X-170000Y320000
X-80000Y325000
X-70000Y325000
X-60000Y325000
X-50000Y325000
X-40000Y325000
X-30000Y325000
X-5000Y325000
X5000Y325000
X15000Y325000
X25000Y325000
X35000Y325000
X45000Y325000
X55000Y325000
X210000Y325000
X220000Y325000
X230000Y325000
X305000Y325000
X315000Y325000
X325000Y325000
X405000Y325000
X415000Y325000
X425000Y325000
T04
X-220000Y345000
T05
X-220000Y-45000
X570000Y-45000
X570000Y345000
M30
