G75*
%MOIN*%
%OFA0B0*%
%FSLAX25Y25*%
%IPPOS*%
%LPD*%
%AMOC8*
5,1,8,0,0,1.08239X$1,22.5*
%
%ADD10C,0.07099*%
%ADD11C,0.08674*%
%ADD12C,0.06800*%
%ADD13C,0.05950*%
%ADD14C,0.09400*%
%ADD15C,0.05550*%
D10*
X-0220000Y0345000D03*
D11*
X-0220000Y-0045000D03*
X0570000Y-0045000D03*
X0570000Y0345000D03*
D12*
X0425000Y0328000D02*
X0425000Y0322000D01*
X0415000Y0322000D02*
X0415000Y0328000D01*
X0405000Y0328000D02*
X0405000Y0322000D01*
X0325000Y0322000D02*
X0325000Y0328000D01*
X0315000Y0328000D02*
X0315000Y0322000D01*
X0305000Y0322000D02*
X0305000Y0328000D01*
X0230000Y0328000D02*
X0230000Y0322000D01*
X0220000Y0322000D02*
X0220000Y0328000D01*
X0210000Y0328000D02*
X0210000Y0322000D01*
X0055000Y0322000D02*
X0055000Y0328000D01*
X0045000Y0328000D02*
X0045000Y0322000D01*
X0035000Y0322000D02*
X0035000Y0328000D01*
X0025000Y0328000D02*
X0025000Y0322000D01*
X0015000Y0322000D02*
X0015000Y0328000D01*
X0005000Y0328000D02*
X0005000Y0322000D01*
X-0005000Y0322000D02*
X-0005000Y0328000D01*
X-0030000Y0328000D02*
X-0030000Y0322000D01*
X-0040000Y0322000D02*
X-0040000Y0328000D01*
X-0050000Y0328000D02*
X-0050000Y0322000D01*
X-0060000Y0322000D02*
X-0060000Y0328000D01*
X-0070000Y0328000D02*
X-0070000Y0322000D01*
X-0080000Y0322000D02*
X-0080000Y0328000D01*
X-0167000Y0320000D02*
X-0173000Y0320000D01*
X-0173000Y0310000D02*
X-0167000Y0310000D01*
X-0167000Y0300000D02*
X-0173000Y0300000D01*
X-0173000Y0290000D02*
X-0167000Y0290000D01*
X-0167000Y0280000D02*
X-0173000Y0280000D01*
X-0173000Y0270000D02*
X-0167000Y0270000D01*
X-0167000Y0260000D02*
X-0173000Y0260000D01*
X-0173000Y0215000D02*
X-0167000Y0215000D01*
X-0167000Y0205000D02*
X-0173000Y0205000D01*
X-0173000Y0195000D02*
X-0167000Y0195000D01*
X-0167000Y0185000D02*
X-0173000Y0185000D01*
X-0173000Y0175000D02*
X-0167000Y0175000D01*
X-0167000Y0165000D02*
X-0173000Y0165000D01*
X-0173000Y0155000D02*
X-0167000Y0155000D01*
X-0163000Y0060000D02*
X-0157000Y0060000D01*
X-0157000Y0050000D02*
X-0163000Y0050000D01*
X-0163000Y0040000D02*
X-0157000Y0040000D01*
X-0157000Y0030000D02*
X-0163000Y0030000D01*
X-0163000Y0020000D02*
X-0157000Y0020000D01*
X-0157000Y0010000D02*
X-0163000Y0010000D01*
X-0163000Y0000000D02*
X-0157000Y0000000D01*
X0100000Y-0017000D02*
X0100000Y-0023000D01*
X0110000Y-0023000D02*
X0110000Y-0017000D01*
X0120000Y-0017000D02*
X0120000Y-0023000D01*
X0130000Y-0023000D02*
X0130000Y-0017000D01*
X0140000Y-0017000D02*
X0140000Y-0023000D01*
X0150000Y-0023000D02*
X0150000Y-0017000D01*
X0160000Y-0017000D02*
X0160000Y-0023000D01*
X0210000Y-0023000D02*
X0210000Y-0017000D01*
X0210000Y-0013000D02*
X0210000Y-0007000D01*
X0220000Y-0007000D02*
X0220000Y-0013000D01*
X0220000Y-0017000D02*
X0220000Y-0023000D01*
X0230000Y-0023000D02*
X0230000Y-0017000D01*
X0230000Y-0013000D02*
X0230000Y-0007000D01*
X0240000Y-0007000D02*
X0240000Y-0013000D01*
X0240000Y-0017000D02*
X0240000Y-0023000D01*
X0250000Y-0023000D02*
X0250000Y-0017000D01*
X0250000Y-0013000D02*
X0250000Y-0007000D01*
X0340000Y-0007000D02*
X0340000Y-0013000D01*
X0340000Y-0017000D02*
X0340000Y-0023000D01*
X0350000Y-0023000D02*
X0350000Y-0017000D01*
X0350000Y-0013000D02*
X0350000Y-0007000D01*
X0360000Y-0007000D02*
X0360000Y-0013000D01*
X0360000Y-0017000D02*
X0360000Y-0023000D01*
X0370000Y-0023000D02*
X0370000Y-0017000D01*
X0370000Y-0013000D02*
X0370000Y-0007000D01*
X0380000Y-0007000D02*
X0380000Y-0013000D01*
X0380000Y-0017000D02*
X0380000Y-0023000D01*
X0502000Y0020000D02*
X0508000Y0020000D01*
X0512000Y0020000D02*
X0518000Y0020000D01*
X0518000Y0030000D02*
X0512000Y0030000D01*
X0508000Y0030000D02*
X0502000Y0030000D01*
X0502000Y0040000D02*
X0508000Y0040000D01*
X0512000Y0040000D02*
X0518000Y0040000D01*
X0518000Y0050000D02*
X0512000Y0050000D01*
X0508000Y0050000D02*
X0502000Y0050000D01*
X0502000Y0060000D02*
X0508000Y0060000D01*
X0512000Y0060000D02*
X0518000Y0060000D01*
X0518000Y0125000D02*
X0512000Y0125000D01*
X0508000Y0125000D02*
X0502000Y0125000D01*
X0502000Y0135000D02*
X0508000Y0135000D01*
X0512000Y0135000D02*
X0518000Y0135000D01*
X0518000Y0145000D02*
X0512000Y0145000D01*
X0508000Y0145000D02*
X0502000Y0145000D01*
X0502000Y0155000D02*
X0508000Y0155000D01*
X0512000Y0155000D02*
X0518000Y0155000D01*
X0518000Y0165000D02*
X0512000Y0165000D01*
X0508000Y0165000D02*
X0502000Y0165000D01*
X0453000Y0185000D02*
X0447000Y0185000D01*
X0447000Y0195000D02*
X0453000Y0195000D01*
X0453000Y0205000D02*
X0447000Y0205000D01*
X0447000Y0215000D02*
X0453000Y0215000D01*
X0453000Y0235000D02*
X0447000Y0235000D01*
X0447000Y0245000D02*
X0453000Y0245000D01*
X0453000Y0255000D02*
X0447000Y0255000D01*
X0447000Y0265000D02*
X0453000Y0265000D01*
D13*
X0360000Y0245000D03*
X0350000Y0245000D03*
X0350000Y0235000D03*
X0360000Y0235000D03*
X0360000Y0225000D03*
X0350000Y0225000D03*
X0350000Y0215000D03*
X0360000Y0215000D03*
X0360000Y0205000D03*
X0350000Y0205000D03*
X0350000Y0195000D03*
X0360000Y0195000D03*
X0360000Y0185000D03*
X0350000Y0185000D03*
X0350000Y0175000D03*
X0360000Y0175000D03*
X0360000Y0165000D03*
X0350000Y0165000D03*
X0350000Y0155000D03*
X0360000Y0155000D03*
X0360000Y0145000D03*
X0350000Y0145000D03*
X0350000Y0135000D03*
X0360000Y0135000D03*
X0360000Y0125000D03*
X0350000Y0125000D03*
X0350000Y0115000D03*
X0360000Y0115000D03*
X0360000Y0105000D03*
X0350000Y0105000D03*
X0350000Y0095000D03*
X0360000Y0095000D03*
X0360000Y0085000D03*
X0350000Y0085000D03*
X0350000Y0075000D03*
X0360000Y0075000D03*
X0320000Y0075000D03*
X0310000Y0075000D03*
X0300000Y0075000D03*
X0290000Y0075000D03*
X0280000Y0075000D03*
X0270000Y0075000D03*
X0260000Y0075000D03*
X0250000Y0075000D03*
X0230000Y0075000D03*
X0220000Y0075000D03*
X0210000Y0075000D03*
X0200000Y0075000D03*
X0190000Y0075000D03*
X0180000Y0075000D03*
X0170000Y0075000D03*
X0160000Y0075000D03*
X0145000Y0075000D03*
X0135000Y0075000D03*
X0125000Y0075000D03*
X0115000Y0075000D03*
X0105000Y0075000D03*
X0095000Y0075000D03*
X0085000Y0075000D03*
X0075000Y0075000D03*
X0110000Y0265000D03*
X0120000Y0265000D03*
X0130000Y0265000D03*
X0140000Y0265000D03*
X0150000Y0265000D03*
X0160000Y0265000D03*
X0180000Y0265000D03*
X0190000Y0265000D03*
X0200000Y0265000D03*
X0210000Y0265000D03*
X0220000Y0265000D03*
X0230000Y0265000D03*
X0240000Y0265000D03*
X0250000Y0265000D03*
X0270000Y0265000D03*
X0280000Y0265000D03*
X0290000Y0265000D03*
X0300000Y0265000D03*
X0310000Y0265000D03*
X0320000Y0265000D03*
X0330000Y0265000D03*
X0340000Y0265000D03*
D14*
X0162087Y0330000D03*
X0148307Y0330000D03*
X0550000Y0326693D03*
X0550000Y0312913D03*
D15*
X-0080000Y0010000D03*
X-0080000Y0050000D03*
X-0150000Y0085000D03*
X0085000Y0005000D03*
X0260000Y-0010000D03*
X0260000Y-0020000D03*
X0295000Y-0040000D03*
X0350000Y-0045000D03*
X0325000Y0010000D03*
X0330000Y0020000D03*
X0335000Y0035000D03*
X0335000Y0045000D03*
X0445000Y0095000D03*
X0470000Y0050000D03*
X0480000Y0040000D03*
X0465000Y0020000D03*
X0530000Y0000000D03*
X0515000Y-0025000D03*
X0530000Y0165000D03*
X0565000Y0165000D03*
X0205000Y0300000D03*
X-0135000Y0240000D03*
M02*
