G75*
%MOIN*%
%OFA0B0*%
%FSLAX25Y25*%
%IPPOS*%
%LPD*%
%AMOC8*
5,1,8,0,0,1.08239X$1,22.5*
%
%ADD10C,0.00700*%
%ADD11C,0.06000*%
%ADD12C,0.05150*%
%ADD13C,0.08600*%
%ADD14C,0.03937*%
%ADD15C,0.04750*%
D10*
X0442831Y0315350D02*
X0448102Y0315350D01*
X0448102Y0323257D01*
X0442831Y0323257D01*
X0445466Y0319303D02*
X0448102Y0319303D01*
X0450750Y0316668D02*
X0450750Y0321939D01*
X0452067Y0323257D01*
X0456021Y0323257D01*
X0456021Y0315350D01*
X0452067Y0315350D01*
X0450750Y0316668D01*
X0458664Y0315350D02*
X0461300Y0315350D01*
X0459982Y0315350D02*
X0459982Y0323257D01*
X0461300Y0323257D02*
X0458664Y0323257D01*
X0463948Y0321939D02*
X0465265Y0323257D01*
X0467901Y0323257D01*
X0469219Y0321939D01*
X0469219Y0320621D01*
X0467901Y0319303D01*
X0465265Y0319303D01*
X0463948Y0317986D01*
X0463948Y0316668D01*
X0465265Y0315350D01*
X0467901Y0315350D01*
X0469219Y0316668D01*
X0479785Y0315350D02*
X0479785Y0323257D01*
X0482421Y0320621D01*
X0485056Y0323257D01*
X0485056Y0315350D01*
X0487704Y0316668D02*
X0487704Y0321939D01*
X0489022Y0323257D01*
X0491657Y0323257D01*
X0492975Y0321939D01*
X0492975Y0316668D01*
X0491657Y0315350D01*
X0489022Y0315350D01*
X0487704Y0316668D01*
X0495623Y0323257D02*
X0500894Y0323257D01*
X0498258Y0323257D02*
X0498258Y0315350D01*
X0506177Y0315350D02*
X0506177Y0323257D01*
X0508812Y0323257D02*
X0503541Y0323257D01*
X0511460Y0321939D02*
X0511460Y0316668D01*
X0512778Y0315350D01*
X0515413Y0315350D01*
X0516731Y0316668D01*
X0516731Y0321939D01*
X0515413Y0323257D01*
X0512778Y0323257D01*
X0511460Y0321939D01*
X0519379Y0321939D02*
X0519379Y0320621D01*
X0520697Y0319303D01*
X0524650Y0319303D01*
X0524650Y0315350D02*
X0520697Y0315350D01*
X0519379Y0316668D01*
X0519379Y0317986D01*
X0520697Y0319303D01*
X0519379Y0321939D02*
X0520697Y0323257D01*
X0524650Y0323257D01*
X0524650Y0315350D01*
D11*
X0453000Y0265000D02*
X0447000Y0265000D01*
X0447000Y0255000D02*
X0453000Y0255000D01*
X0453000Y0245000D02*
X0447000Y0245000D01*
X0447000Y0235000D02*
X0453000Y0235000D01*
X0453000Y0215000D02*
X0447000Y0215000D01*
X0447000Y0205000D02*
X0453000Y0205000D01*
X0453000Y0195000D02*
X0447000Y0195000D01*
X0447000Y0185000D02*
X0453000Y0185000D01*
X0502000Y0165000D02*
X0508000Y0165000D01*
X0512000Y0165000D02*
X0518000Y0165000D01*
X0518000Y0155000D02*
X0512000Y0155000D01*
X0508000Y0155000D02*
X0502000Y0155000D01*
X0502000Y0145000D02*
X0508000Y0145000D01*
X0512000Y0145000D02*
X0518000Y0145000D01*
X0518000Y0135000D02*
X0512000Y0135000D01*
X0508000Y0135000D02*
X0502000Y0135000D01*
X0502000Y0125000D02*
X0508000Y0125000D01*
X0512000Y0125000D02*
X0518000Y0125000D01*
X0518000Y0060000D02*
X0512000Y0060000D01*
X0508000Y0060000D02*
X0502000Y0060000D01*
X0502000Y0050000D02*
X0508000Y0050000D01*
X0512000Y0050000D02*
X0518000Y0050000D01*
X0518000Y0040000D02*
X0512000Y0040000D01*
X0508000Y0040000D02*
X0502000Y0040000D01*
X0502000Y0030000D02*
X0508000Y0030000D01*
X0512000Y0030000D02*
X0518000Y0030000D01*
X0518000Y0020000D02*
X0512000Y0020000D01*
X0508000Y0020000D02*
X0502000Y0020000D01*
X0380000Y-0007000D02*
X0380000Y-0013000D01*
X0380000Y-0017000D02*
X0380000Y-0023000D01*
X0370000Y-0023000D02*
X0370000Y-0017000D01*
X0370000Y-0013000D02*
X0370000Y-0007000D01*
X0360000Y-0007000D02*
X0360000Y-0013000D01*
X0360000Y-0017000D02*
X0360000Y-0023000D01*
X0350000Y-0023000D02*
X0350000Y-0017000D01*
X0350000Y-0013000D02*
X0350000Y-0007000D01*
X0340000Y-0007000D02*
X0340000Y-0013000D01*
X0340000Y-0017000D02*
X0340000Y-0023000D01*
X0250000Y-0023000D02*
X0250000Y-0017000D01*
X0250000Y-0013000D02*
X0250000Y-0007000D01*
X0240000Y-0007000D02*
X0240000Y-0013000D01*
X0240000Y-0017000D02*
X0240000Y-0023000D01*
X0230000Y-0023000D02*
X0230000Y-0017000D01*
X0230000Y-0013000D02*
X0230000Y-0007000D01*
X0220000Y-0007000D02*
X0220000Y-0013000D01*
X0220000Y-0017000D02*
X0220000Y-0023000D01*
X0210000Y-0023000D02*
X0210000Y-0017000D01*
X0210000Y-0013000D02*
X0210000Y-0007000D01*
X0160000Y-0017000D02*
X0160000Y-0023000D01*
X0150000Y-0023000D02*
X0150000Y-0017000D01*
X0140000Y-0017000D02*
X0140000Y-0023000D01*
X0130000Y-0023000D02*
X0130000Y-0017000D01*
X0120000Y-0017000D02*
X0120000Y-0023000D01*
X0110000Y-0023000D02*
X0110000Y-0017000D01*
X0100000Y-0017000D02*
X0100000Y-0023000D01*
X-0157000Y0000000D02*
X-0163000Y0000000D01*
X-0163000Y0010000D02*
X-0157000Y0010000D01*
X-0157000Y0020000D02*
X-0163000Y0020000D01*
X-0163000Y0030000D02*
X-0157000Y0030000D01*
X-0157000Y0040000D02*
X-0163000Y0040000D01*
X-0163000Y0050000D02*
X-0157000Y0050000D01*
X-0157000Y0060000D02*
X-0163000Y0060000D01*
X-0167000Y0155000D02*
X-0173000Y0155000D01*
X-0173000Y0165000D02*
X-0167000Y0165000D01*
X-0167000Y0175000D02*
X-0173000Y0175000D01*
X-0173000Y0185000D02*
X-0167000Y0185000D01*
X-0167000Y0195000D02*
X-0173000Y0195000D01*
X-0173000Y0205000D02*
X-0167000Y0205000D01*
X-0167000Y0215000D02*
X-0173000Y0215000D01*
X-0173000Y0260000D02*
X-0167000Y0260000D01*
X-0167000Y0270000D02*
X-0173000Y0270000D01*
X-0173000Y0280000D02*
X-0167000Y0280000D01*
X-0167000Y0290000D02*
X-0173000Y0290000D01*
X-0173000Y0300000D02*
X-0167000Y0300000D01*
X-0167000Y0310000D02*
X-0173000Y0310000D01*
X-0173000Y0320000D02*
X-0167000Y0320000D01*
X-0080000Y0322000D02*
X-0080000Y0328000D01*
X-0070000Y0328000D02*
X-0070000Y0322000D01*
X-0060000Y0322000D02*
X-0060000Y0328000D01*
X-0050000Y0328000D02*
X-0050000Y0322000D01*
X-0040000Y0322000D02*
X-0040000Y0328000D01*
X-0030000Y0328000D02*
X-0030000Y0322000D01*
X-0005000Y0322000D02*
X-0005000Y0328000D01*
X0005000Y0328000D02*
X0005000Y0322000D01*
X0015000Y0322000D02*
X0015000Y0328000D01*
X0025000Y0328000D02*
X0025000Y0322000D01*
X0035000Y0322000D02*
X0035000Y0328000D01*
X0045000Y0328000D02*
X0045000Y0322000D01*
X0055000Y0322000D02*
X0055000Y0328000D01*
X0210000Y0328000D02*
X0210000Y0322000D01*
X0220000Y0322000D02*
X0220000Y0328000D01*
X0230000Y0328000D02*
X0230000Y0322000D01*
X0305000Y0322000D02*
X0305000Y0328000D01*
X0315000Y0328000D02*
X0315000Y0322000D01*
X0325000Y0322000D02*
X0325000Y0328000D01*
X0405000Y0328000D02*
X0405000Y0322000D01*
X0415000Y0322000D02*
X0415000Y0328000D01*
X0425000Y0328000D02*
X0425000Y0322000D01*
D12*
X0340000Y0265000D03*
X0330000Y0265000D03*
X0320000Y0265000D03*
X0310000Y0265000D03*
X0300000Y0265000D03*
X0290000Y0265000D03*
X0280000Y0265000D03*
X0270000Y0265000D03*
X0250000Y0265000D03*
X0240000Y0265000D03*
X0230000Y0265000D03*
X0220000Y0265000D03*
X0210000Y0265000D03*
X0200000Y0265000D03*
X0190000Y0265000D03*
X0180000Y0265000D03*
X0160000Y0265000D03*
X0150000Y0265000D03*
X0140000Y0265000D03*
X0130000Y0265000D03*
X0120000Y0265000D03*
X0110000Y0265000D03*
X0350000Y0245000D03*
X0360000Y0245000D03*
X0360000Y0235000D03*
X0350000Y0235000D03*
X0350000Y0225000D03*
X0360000Y0225000D03*
X0360000Y0215000D03*
X0350000Y0215000D03*
X0350000Y0205000D03*
X0360000Y0205000D03*
X0360000Y0195000D03*
X0350000Y0195000D03*
X0350000Y0185000D03*
X0360000Y0185000D03*
X0360000Y0175000D03*
X0350000Y0175000D03*
X0350000Y0165000D03*
X0360000Y0165000D03*
X0360000Y0155000D03*
X0350000Y0155000D03*
X0350000Y0145000D03*
X0360000Y0145000D03*
X0360000Y0135000D03*
X0350000Y0135000D03*
X0350000Y0125000D03*
X0360000Y0125000D03*
X0360000Y0115000D03*
X0350000Y0115000D03*
X0350000Y0105000D03*
X0360000Y0105000D03*
X0360000Y0095000D03*
X0350000Y0095000D03*
X0350000Y0085000D03*
X0360000Y0085000D03*
X0360000Y0075000D03*
X0350000Y0075000D03*
X0320000Y0075000D03*
X0310000Y0075000D03*
X0300000Y0075000D03*
X0290000Y0075000D03*
X0280000Y0075000D03*
X0270000Y0075000D03*
X0260000Y0075000D03*
X0250000Y0075000D03*
X0230000Y0075000D03*
X0220000Y0075000D03*
X0210000Y0075000D03*
X0200000Y0075000D03*
X0190000Y0075000D03*
X0180000Y0075000D03*
X0170000Y0075000D03*
X0160000Y0075000D03*
X0145000Y0075000D03*
X0135000Y0075000D03*
X0125000Y0075000D03*
X0115000Y0075000D03*
X0105000Y0075000D03*
X0095000Y0075000D03*
X0085000Y0075000D03*
X0075000Y0075000D03*
D13*
X0550000Y0312913D03*
X0550000Y0326693D03*
X0162087Y0330000D03*
X0148307Y0330000D03*
D14*
X0009274Y-0011807D02*
X-0175157Y-0011807D01*
X-0175157Y-0015157D02*
X-0175157Y0144320D01*
X-0174432Y0144126D01*
X-0165568Y0144126D01*
X-0162803Y0144867D01*
X-0160323Y0146299D01*
X-0158299Y0148323D01*
X-0156867Y0150803D01*
X-0156126Y0153568D01*
X-0156126Y0155157D01*
X-0134843Y0155157D01*
X-0134843Y0103042D01*
X-0133344Y0099425D01*
X-0130575Y0096656D01*
X-0126958Y0095157D01*
X-0113762Y0095157D01*
X-0146414Y0062506D01*
X-0146867Y0064197D01*
X-0148299Y0066677D01*
X-0150323Y0068701D01*
X-0152803Y0070133D01*
X-0155568Y0070874D01*
X-0164432Y0070874D01*
X-0167197Y0070133D01*
X-0169677Y0068701D01*
X-0171701Y0066677D01*
X-0173133Y0064197D01*
X-0173874Y0061432D01*
X-0173874Y0058568D01*
X-0173133Y0055803D01*
X-0172669Y0055000D01*
X-0173133Y0054197D01*
X-0173874Y0051432D01*
X-0173874Y0048568D01*
X-0173133Y0045803D01*
X-0172669Y0045000D01*
X-0173133Y0044197D01*
X-0173874Y0041432D01*
X-0173874Y0038568D01*
X-0173133Y0035803D01*
X-0172669Y0035000D01*
X-0173133Y0034197D01*
X-0173874Y0031432D01*
X-0173874Y0028568D01*
X-0173133Y0025803D01*
X-0172669Y0025000D01*
X-0173133Y0024197D01*
X-0173874Y0021432D01*
X-0173874Y0018568D01*
X-0173133Y0015803D01*
X-0172669Y0015000D01*
X-0173133Y0014197D01*
X-0173874Y0011432D01*
X-0173874Y0008568D01*
X-0173133Y0005803D01*
X-0172669Y0005000D01*
X-0173133Y0004197D01*
X-0173874Y0001432D01*
X-0173874Y-0001432D01*
X-0173133Y-0004197D01*
X-0171701Y-0006677D01*
X-0169677Y-0008701D01*
X-0167197Y-0010133D01*
X-0164432Y-0010874D01*
X-0155568Y-0010874D01*
X-0152803Y-0010133D01*
X-0150323Y-0008701D01*
X-0148299Y-0006677D01*
X-0146867Y-0004197D01*
X-0146126Y-0001432D01*
X-0146126Y0000157D01*
X-0082866Y0000157D01*
X-0081349Y-0000249D01*
X-0078651Y-0000249D01*
X-0076044Y0000450D01*
X-0073707Y0001799D01*
X-0071799Y0003707D01*
X-0070450Y0006044D01*
X-0069751Y0008651D01*
X-0069751Y0011349D01*
X-0070450Y0013956D01*
X-0071799Y0016293D01*
X-0073707Y0018201D01*
X-0076044Y0019550D01*
X-0078310Y0020157D01*
X0041238Y0020157D01*
X0005923Y-0015157D01*
X-0175157Y-0015157D01*
X-0175157Y-0007871D02*
X-0170507Y-0007871D01*
X-0173203Y-0003936D02*
X-0175157Y-0003936D01*
X-0175157Y0000000D02*
X-0173874Y0000000D01*
X-0173203Y0003936D02*
X-0175157Y0003936D01*
X-0175157Y0007871D02*
X-0173687Y0007871D01*
X-0173774Y0011807D02*
X-0175157Y0011807D01*
X-0175157Y0015742D02*
X-0173098Y0015742D01*
X-0173874Y0019678D02*
X-0175157Y0019678D01*
X-0175157Y0023613D02*
X-0173289Y0023613D01*
X-0173601Y0027549D02*
X-0175157Y0027549D01*
X-0175157Y0031484D02*
X-0173860Y0031484D01*
X-0172912Y0035420D02*
X-0175157Y0035420D01*
X-0175157Y0039355D02*
X-0173874Y0039355D01*
X-0173376Y0043291D02*
X-0175157Y0043291D01*
X-0175157Y0047226D02*
X-0173514Y0047226D01*
X-0173874Y0051162D02*
X-0175157Y0051162D01*
X-0175157Y0055097D02*
X-0172726Y0055097D01*
X-0173874Y0059033D02*
X-0175157Y0059033D01*
X-0175157Y0062968D02*
X-0173462Y0062968D01*
X-0175157Y0066904D02*
X-0171474Y0066904D01*
X-0175157Y0070839D02*
X-0164561Y0070839D01*
X-0155439Y0070839D02*
X-0138080Y0070839D01*
X-0142016Y0066904D02*
X-0148526Y0066904D01*
X-0146538Y0062968D02*
X-0145951Y0062968D01*
X-0145000Y0050000D02*
X-0160000Y0050000D01*
X-0145000Y0050000D02*
X-0100000Y0095000D01*
X0350000Y0095000D01*
X0360000Y0095000D02*
X0375000Y0095000D01*
X0375000Y0030000D01*
X0350000Y0030000D01*
X0350000Y-0010000D01*
X0340000Y-0010000D02*
X0325000Y-0010000D01*
X0260000Y0075000D01*
X0270000Y0075000D02*
X0325000Y0010000D01*
X0330000Y0020000D02*
X0280000Y0075000D01*
X0290000Y0075000D02*
X0335000Y0035000D01*
X0335000Y0045000D02*
X0300000Y0075000D01*
X0250000Y0075000D02*
X0320000Y-0020000D01*
X0340000Y-0020000D01*
X0331464Y-0029843D02*
X0321198Y-0029843D01*
X0320461Y-0030025D01*
X0319259Y-0029843D01*
X0318042Y-0029843D01*
X0317341Y-0029552D01*
X0316590Y-0029438D01*
X0315548Y-0028810D01*
X0314425Y-0028344D01*
X0313888Y-0027807D01*
X0313238Y-0027415D01*
X0312516Y-0026435D01*
X0311656Y-0025575D01*
X0311365Y-0024874D01*
X0289843Y0004336D01*
X0289843Y-0041958D01*
X0288344Y-0045575D01*
X0285575Y-0048344D01*
X0281958Y-0049843D01*
X0183042Y-0049843D01*
X0179425Y-0048344D01*
X0176656Y-0045575D01*
X0175157Y-0041958D01*
X0175157Y-0018768D01*
X0170874Y-0023052D01*
X0170874Y-0024432D01*
X0170133Y-0027197D01*
X0168701Y-0029677D01*
X0166677Y-0031701D01*
X0164197Y-0033133D01*
X0161432Y-0033874D01*
X0158568Y-0033874D01*
X0155803Y-0033133D01*
X0155000Y-0032669D01*
X0154197Y-0033133D01*
X0151432Y-0033874D01*
X0148568Y-0033874D01*
X0145803Y-0033133D01*
X0145000Y-0032669D01*
X0144197Y-0033133D01*
X0141432Y-0033874D01*
X0138568Y-0033874D01*
X0135803Y-0033133D01*
X0135000Y-0032669D01*
X0134197Y-0033133D01*
X0131432Y-0033874D01*
X0128568Y-0033874D01*
X0125803Y-0033133D01*
X0125000Y-0032669D01*
X0124197Y-0033133D01*
X0121432Y-0033874D01*
X0118568Y-0033874D01*
X0115803Y-0033133D01*
X0113323Y-0031701D01*
X0111299Y-0029677D01*
X0110855Y-0028908D01*
X0110470Y-0028968D01*
X0110000Y-0028968D01*
X0110000Y-0027428D01*
X0110000Y-0027427D01*
X0110000Y-0027428D01*
X0110000Y-0028968D01*
X0109530Y-0028968D01*
X0109145Y-0028908D01*
X0108701Y-0029677D01*
X0106677Y-0031701D01*
X0104197Y-0033133D01*
X0101432Y-0033874D01*
X0098568Y-0033874D01*
X0095803Y-0033133D01*
X0093323Y-0031701D01*
X0091464Y-0029843D01*
X0058154Y-0029843D01*
X0026957Y-0052126D01*
X0342632Y-0052126D01*
X0341799Y-0051293D01*
X0340450Y-0048956D01*
X0339751Y-0046349D01*
X0339751Y-0043651D01*
X0340450Y-0041044D01*
X0341799Y-0038707D01*
X0343707Y-0036799D01*
X0346044Y-0035450D01*
X0348651Y-0034751D01*
X0351349Y-0034751D01*
X0352866Y-0035157D01*
X0395157Y-0035157D01*
X0395157Y-0019843D01*
X0388536Y-0019843D01*
X0386677Y-0021701D01*
X0385968Y-0022110D01*
X0385968Y-0023470D01*
X0385822Y-0024398D01*
X0385531Y-0025291D01*
X0385105Y-0026128D01*
X0384553Y-0026888D01*
X0383888Y-0027553D01*
X0383128Y-0028105D01*
X0382291Y-0028531D01*
X0381398Y-0028822D01*
X0380470Y-0028968D01*
X0380000Y-0028968D01*
X0380000Y-0027427D01*
X0380000Y-0027428D01*
X0380000Y-0028968D01*
X0379530Y-0028968D01*
X0379145Y-0028908D01*
X0378701Y-0029677D01*
X0376677Y-0031701D01*
X0374197Y-0033133D01*
X0371432Y-0033874D01*
X0368568Y-0033874D01*
X0365803Y-0033133D01*
X0365000Y-0032669D01*
X0364197Y-0033133D01*
X0361432Y-0033874D01*
X0358568Y-0033874D01*
X0355803Y-0033133D01*
X0355000Y-0032669D01*
X0354197Y-0033133D01*
X0351432Y-0033874D01*
X0348568Y-0033874D01*
X0345803Y-0033133D01*
X0345000Y-0032669D01*
X0344197Y-0033133D01*
X0341432Y-0033874D01*
X0338568Y-0033874D01*
X0335803Y-0033133D01*
X0333323Y-0031701D01*
X0331464Y-0029843D01*
X0333106Y-0031484D02*
X0289843Y-0031484D01*
X0289843Y-0027549D02*
X0313459Y-0027549D01*
X0310436Y-0023613D02*
X0289843Y-0023613D01*
X0289843Y-0019678D02*
X0307537Y-0019678D01*
X0304637Y-0015742D02*
X0289843Y-0015742D01*
X0289843Y-0011807D02*
X0301737Y-0011807D01*
X0298837Y-0007871D02*
X0289843Y-0007871D01*
X0289843Y-0003936D02*
X0295937Y-0003936D01*
X0293037Y0000000D02*
X0289843Y0000000D01*
X0289843Y0003936D02*
X0290137Y0003936D01*
X0270000Y0010000D02*
X0270000Y-0030000D01*
X0210000Y-0030000D01*
X0210000Y-0020000D01*
X0210000Y-0010000D02*
X0185000Y-0010000D01*
X0185000Y-0040000D01*
X0280000Y-0040000D01*
X0280000Y0020000D01*
X0230000Y0020000D01*
X0230000Y0075000D01*
X0220000Y0075000D02*
X0220000Y0010000D01*
X0270000Y0010000D01*
X0260000Y-0010000D02*
X0250000Y-0010000D01*
X0250000Y-0020000D02*
X0260000Y-0020000D01*
X0289843Y-0035420D02*
X0346156Y-0035420D01*
X0341425Y-0039355D02*
X0289843Y-0039355D01*
X0289290Y-0043291D02*
X0339848Y-0043291D01*
X0339986Y-0047226D02*
X0286693Y-0047226D01*
X0295000Y-0040000D02*
X0295000Y-0035000D01*
X0380000Y-0035000D01*
X0380000Y-0020000D01*
X0385946Y-0023613D02*
X0395157Y-0023613D01*
X0395157Y-0027549D02*
X0383892Y-0027549D01*
X0380000Y-0027549D02*
X0380000Y-0027549D01*
X0376894Y-0031484D02*
X0395157Y-0031484D01*
X0405000Y-0045000D02*
X0350000Y-0045000D01*
X0341723Y-0051162D02*
X0028307Y-0051162D01*
X0033817Y-0047226D02*
X0178307Y-0047226D01*
X0175710Y-0043291D02*
X0039327Y-0043291D01*
X0044836Y-0039355D02*
X0175157Y-0039355D01*
X0175157Y-0035420D02*
X0050346Y-0035420D01*
X0055856Y-0031484D02*
X0093106Y-0031484D01*
X0106894Y-0031484D02*
X0113106Y-0031484D01*
X0110000Y-0027549D02*
X0110000Y-0027549D01*
X0110000Y-0020000D02*
X0105000Y0010000D01*
X0085000Y0005000D01*
X0075726Y0011807D02*
X0113320Y0011807D01*
X0113320Y0015742D02*
X0079661Y0015742D01*
X0083597Y0019678D02*
X0113320Y0019678D01*
X0113320Y0023613D02*
X0087533Y0023613D01*
X0089077Y0025157D02*
X0113320Y0025157D01*
X0113320Y-0008302D01*
X0111299Y-0010323D01*
X0110855Y-0011092D01*
X0110470Y-0011031D01*
X0110000Y-0011031D01*
X0110000Y-0012572D01*
X0110000Y-0011031D01*
X0109530Y-0011031D01*
X0109145Y-0011092D01*
X0108701Y-0010323D01*
X0106677Y-0008299D01*
X0104197Y-0006867D01*
X0101432Y-0006126D01*
X0098568Y-0006126D01*
X0095803Y-0006867D01*
X0093323Y-0008299D01*
X0091464Y-0010157D01*
X0055815Y-0010157D01*
X0054687Y-0009970D01*
X0053875Y-0010157D01*
X0053762Y-0010157D01*
X0089077Y0025157D01*
X0085000Y0035000D02*
X0015000Y-0035000D01*
X-0195000Y-0035000D01*
X-0195000Y0290000D01*
X-0170000Y0290000D01*
X-0183874Y0280157D02*
X-0183874Y0278568D01*
X-0183133Y0275803D01*
X-0182669Y0275000D01*
X-0183133Y0274197D01*
X-0183874Y0271432D01*
X-0183874Y0268568D01*
X-0183133Y0265803D01*
X-0182669Y0265000D01*
X-0183133Y0264197D01*
X-0183874Y0261432D01*
X-0183874Y0258568D01*
X-0183133Y0255803D01*
X-0181701Y0253323D01*
X-0179677Y0251299D01*
X-0177197Y0249867D01*
X-0174432Y0249126D01*
X-0165568Y0249126D01*
X-0162803Y0249867D01*
X-0160323Y0251299D01*
X-0158299Y0253323D01*
X-0156867Y0255803D01*
X-0156126Y0258568D01*
X-0156126Y0260157D01*
X-0109843Y0260157D01*
X-0109843Y0213517D01*
X-0113042Y0214843D01*
X-0156126Y0214843D01*
X-0156126Y0216432D01*
X-0156867Y0219197D01*
X-0158299Y0221677D01*
X-0160323Y0223701D01*
X-0162803Y0225133D01*
X-0165568Y0225874D01*
X-0174432Y0225874D01*
X-0177197Y0225133D01*
X-0179677Y0223701D01*
X-0181701Y0221677D01*
X-0183133Y0219197D01*
X-0183874Y0216432D01*
X-0183874Y0213568D01*
X-0183133Y0210803D01*
X-0182669Y0210000D01*
X-0183133Y0209197D01*
X-0183874Y0206432D01*
X-0183874Y0203568D01*
X-0183133Y0200803D01*
X-0182669Y0200000D01*
X-0183133Y0199197D01*
X-0183874Y0196432D01*
X-0183874Y0194843D01*
X-0185157Y0194843D01*
X-0185157Y0280157D01*
X-0183874Y0280157D01*
X-0183874Y0279422D02*
X-0185157Y0279422D01*
X-0185157Y0275486D02*
X-0182950Y0275486D01*
X-0183842Y0271551D02*
X-0185157Y0271551D01*
X-0185157Y0267615D02*
X-0183619Y0267615D01*
X-0183272Y0263680D02*
X-0185157Y0263680D01*
X-0185157Y0259744D02*
X-0183874Y0259744D01*
X-0183135Y0255809D02*
X-0185157Y0255809D01*
X-0185157Y0251873D02*
X-0180251Y0251873D01*
X-0185157Y0247938D02*
X-0109843Y0247938D01*
X-0109843Y0251873D02*
X-0159749Y0251873D01*
X-0156865Y0255809D02*
X-0109843Y0255809D01*
X-0109843Y0259744D02*
X-0156126Y0259744D01*
X-0170000Y0270000D02*
X-0100000Y0270000D01*
X-0100000Y0125000D01*
X0350000Y0125000D01*
X0360000Y0125000D02*
X0475000Y0030000D01*
X0505000Y0030000D01*
X0505000Y0020000D02*
X0465000Y0020000D01*
X0480000Y0040000D02*
X0515000Y0125000D01*
X0505000Y0125000D02*
X0470000Y0050000D01*
X0461109Y0055097D02*
X0460073Y0055097D01*
X0460774Y0054518D02*
X0369251Y0130125D01*
X0369737Y0130967D01*
X0370449Y0133624D01*
X0370449Y0136376D01*
X0369737Y0139033D01*
X0369178Y0140000D01*
X0369737Y0140967D01*
X0370449Y0143624D01*
X0370449Y0146376D01*
X0370169Y0147420D01*
X0403897Y0127183D01*
X0404425Y0126656D01*
X0405561Y0126185D01*
X0406615Y0125553D01*
X0407353Y0125443D01*
X0408042Y0125157D01*
X0409272Y0125157D01*
X0410488Y0124977D01*
X0411212Y0125157D01*
X0491126Y0125157D01*
X0491126Y0123568D01*
X0491867Y0120803D01*
X0492040Y0120503D01*
X0462317Y0056811D01*
X0461799Y0056293D01*
X0460774Y0054518D01*
X0463354Y0059033D02*
X0455309Y0059033D01*
X0450545Y0062968D02*
X0465190Y0062968D01*
X0467027Y0066904D02*
X0445781Y0066904D01*
X0441017Y0070839D02*
X0468864Y0070839D01*
X0470700Y0074775D02*
X0436253Y0074775D01*
X0431489Y0078710D02*
X0472537Y0078710D01*
X0474373Y0082646D02*
X0426725Y0082646D01*
X0421961Y0086581D02*
X0476210Y0086581D01*
X0478046Y0090517D02*
X0417197Y0090517D01*
X0412433Y0094452D02*
X0479883Y0094452D01*
X0481720Y0098388D02*
X0407669Y0098388D01*
X0402905Y0102323D02*
X0483556Y0102323D01*
X0485393Y0106259D02*
X0398141Y0106259D01*
X0393377Y0110195D02*
X0487229Y0110195D01*
X0489066Y0114130D02*
X0388613Y0114130D01*
X0383849Y0118066D02*
X0490902Y0118066D01*
X0491546Y0122001D02*
X0379084Y0122001D01*
X0374320Y0125937D02*
X0405975Y0125937D01*
X0399416Y0129872D02*
X0369556Y0129872D01*
X0370449Y0133808D02*
X0392857Y0133808D01*
X0386298Y0137743D02*
X0370082Y0137743D01*
X0369927Y0141679D02*
X0379738Y0141679D01*
X0373179Y0145614D02*
X0370449Y0145614D01*
X0350000Y0145000D02*
X-0070000Y0145000D01*
X-0070000Y0325000D01*
X-0060000Y0325000D02*
X-0060000Y0155000D01*
X0350000Y0155000D01*
X0350000Y0165000D02*
X-0050000Y0165000D01*
X-0050000Y0325000D01*
X-0040000Y0325000D02*
X-0040000Y0175000D01*
X0350000Y0175000D01*
X0350000Y0185000D02*
X0015000Y0185000D01*
X0015000Y0325000D01*
X0025000Y0325000D02*
X0025000Y0195000D01*
X0350000Y0195000D01*
X0360000Y0195000D02*
X0450000Y0195000D01*
X0450000Y0205000D02*
X0360000Y0205000D01*
X0350000Y0205000D02*
X0035000Y0205000D01*
X0035000Y0325000D01*
X0045000Y0325000D02*
X0045000Y0215000D01*
X0350000Y0215000D01*
X0360000Y0215000D02*
X0415000Y0245000D01*
X0450000Y0245000D01*
X0450000Y0235000D02*
X0475000Y0235000D01*
X0475000Y0185000D01*
X0450000Y0185000D01*
X0440323Y0176299D02*
X0438299Y0178323D01*
X0436867Y0180803D01*
X0436126Y0183568D01*
X0436126Y0185157D01*
X0370449Y0185157D01*
X0370449Y0183624D01*
X0369737Y0180967D01*
X0369178Y0180000D01*
X0369737Y0179033D01*
X0370449Y0176376D01*
X0370449Y0173624D01*
X0369737Y0170967D01*
X0369595Y0170721D01*
X0412726Y0144843D01*
X0491126Y0144843D01*
X0491126Y0146432D01*
X0491867Y0149197D01*
X0492331Y0150000D01*
X0491867Y0150803D01*
X0491126Y0153568D01*
X0491126Y0156432D01*
X0491867Y0159197D01*
X0492331Y0160000D01*
X0491867Y0160803D01*
X0491126Y0163568D01*
X0491126Y0166432D01*
X0491867Y0169197D01*
X0493299Y0171677D01*
X0495323Y0173701D01*
X0497793Y0175127D01*
X0501430Y0187082D01*
X0501430Y0187082D01*
X0501574Y0187554D01*
X0501574Y0188048D01*
X0502140Y0189414D01*
X0538481Y0308867D01*
X0537826Y0311311D01*
X0537826Y0314516D01*
X0538656Y0317612D01*
X0540258Y0320388D01*
X0542525Y0322655D01*
X0543585Y0323267D01*
X0543467Y0323471D01*
X0543102Y0324352D01*
X0542856Y0325272D01*
X0542731Y0326216D01*
X0542731Y0326693D01*
X0550000Y0326693D01*
X0550000Y0326693D01*
X0550000Y0333961D01*
X0549524Y0333961D01*
X0548579Y0333837D01*
X0547659Y0333590D01*
X0546778Y0333226D01*
X0545953Y0332749D01*
X0545197Y0332169D01*
X0544524Y0331496D01*
X0543943Y0330740D01*
X0543467Y0329915D01*
X0543102Y0329034D01*
X0542856Y0328114D01*
X0542731Y0327169D01*
X0542731Y0326693D01*
X0550000Y0326693D01*
X0550000Y0333961D01*
X0550476Y0333961D01*
X0551421Y0333837D01*
X0552341Y0333590D01*
X0553222Y0333226D01*
X0554047Y0332749D01*
X0554803Y0332169D01*
X0555476Y0331496D01*
X0556056Y0330740D01*
X0556533Y0329915D01*
X0556898Y0329034D01*
X0557144Y0328114D01*
X0557268Y0327169D01*
X0557268Y0326693D01*
X0550000Y0326693D01*
X0550000Y0326693D01*
X0550000Y0326693D01*
X0557268Y0326693D01*
X0557268Y0326216D01*
X0557144Y0325272D01*
X0556898Y0324352D01*
X0556533Y0323471D01*
X0556415Y0323267D01*
X0557475Y0322655D01*
X0559742Y0320388D01*
X0561344Y0317612D01*
X0562174Y0314516D01*
X0562174Y0311311D01*
X0561344Y0308214D01*
X0559742Y0305438D01*
X0557475Y0303172D01*
X0557292Y0303066D01*
X0524367Y0194843D01*
X0546958Y0194843D01*
X0550575Y0193344D01*
X0553344Y0190575D01*
X0554843Y0186958D01*
X0554843Y-0046958D01*
X0553344Y-0050575D01*
X0551793Y-0052126D01*
X0560476Y-0052126D01*
X0558994Y-0049559D01*
X0558189Y-0046555D01*
X0558189Y-0043445D01*
X0558994Y-0040441D01*
X0560549Y-0037748D01*
X0562748Y-0035549D01*
X0565441Y-0033994D01*
X0568445Y-0033189D01*
X0571555Y-0033189D01*
X0574559Y-0033994D01*
X0577252Y-0035549D01*
X0579451Y-0037748D01*
X0581006Y-0040441D01*
X0581811Y-0043445D01*
X0581811Y-0046555D01*
X0581006Y-0049559D01*
X0579524Y-0052126D01*
X0582047Y-0052126D01*
X0582047Y0350827D01*
X0580274Y0350827D01*
X0581006Y0349559D01*
X0581811Y0346555D01*
X0581811Y0343445D01*
X0581006Y0340441D01*
X0579451Y0337748D01*
X0577252Y0335549D01*
X0574559Y0333994D01*
X0571555Y0333189D01*
X0568445Y0333189D01*
X0565441Y0333994D01*
X0562748Y0335549D01*
X0560549Y0337748D01*
X0558994Y0340441D01*
X0558189Y0343445D01*
X0558189Y0346555D01*
X0558994Y0349559D01*
X0559726Y0350827D01*
X0434843Y0350827D01*
X0434843Y0332700D01*
X0435133Y0332197D01*
X0435874Y0329432D01*
X0435874Y0328045D01*
X0435931Y0327988D01*
X0438172Y0330229D01*
X0441195Y0331481D01*
X0449738Y0331481D01*
X0450085Y0331337D01*
X0450431Y0331481D01*
X0462936Y0331481D01*
X0463283Y0331337D01*
X0463629Y0331481D01*
X0469537Y0331481D01*
X0472559Y0330229D01*
X0473843Y0328945D01*
X0475126Y0330229D01*
X0475127Y0330229D01*
X0475127Y0330229D01*
X0475951Y0330570D01*
X0478149Y0331481D01*
X0481421Y0331481D01*
X0482421Y0331067D01*
X0483420Y0331481D01*
X0486692Y0331481D01*
X0487039Y0331337D01*
X0487386Y0331481D01*
X0493293Y0331481D01*
X0493640Y0331337D01*
X0493987Y0331481D01*
X0510448Y0331481D01*
X0510795Y0331337D01*
X0511142Y0331481D01*
X0517049Y0331481D01*
X0518055Y0331064D01*
X0519061Y0331481D01*
X0526286Y0331481D01*
X0529309Y0330229D01*
X0531622Y0327915D01*
X0532874Y0324893D01*
X0532874Y0313714D01*
X0531622Y0310691D01*
X0529309Y0308378D01*
X0526286Y0307126D01*
X0519061Y0307126D01*
X0518055Y0307543D01*
X0517049Y0307126D01*
X0511142Y0307126D01*
X0509477Y0307816D01*
X0507813Y0307126D01*
X0504541Y0307126D01*
X0502218Y0308088D01*
X0499894Y0307126D01*
X0496622Y0307126D01*
X0494958Y0307816D01*
X0493293Y0307126D01*
X0487386Y0307126D01*
X0487039Y0307270D01*
X0486692Y0307126D01*
X0483420Y0307126D01*
X0482421Y0307540D01*
X0481421Y0307126D01*
X0478149Y0307126D01*
X0475126Y0308378D01*
X0473843Y0309662D01*
X0472559Y0308378D01*
X0469537Y0307126D01*
X0463629Y0307126D01*
X0463283Y0307270D01*
X0462936Y0307126D01*
X0456793Y0307126D01*
X0480575Y0283344D01*
X0480575Y0283344D01*
X0483344Y0280575D01*
X0484843Y0276958D01*
X0484843Y0183042D01*
X0483344Y0179425D01*
X0480575Y0176656D01*
X0476958Y0175157D01*
X0457700Y0175157D01*
X0457197Y0174867D01*
X0454432Y0174126D01*
X0445568Y0174126D01*
X0442803Y0174867D01*
X0440323Y0176299D01*
X0439523Y0177098D02*
X0370255Y0177098D01*
X0370325Y0173163D02*
X0494785Y0173163D01*
X0491884Y0169227D02*
X0372085Y0169227D01*
X0378644Y0165292D02*
X0491126Y0165292D01*
X0491719Y0161356D02*
X0385203Y0161356D01*
X0391762Y0157421D02*
X0491391Y0157421D01*
X0491148Y0153485D02*
X0398322Y0153485D01*
X0404881Y0149550D02*
X0492071Y0149550D01*
X0491126Y0145614D02*
X0411440Y0145614D01*
X0410000Y0135000D02*
X0505000Y0135000D01*
X0527669Y0130000D02*
X0528133Y0130803D01*
X0528874Y0133568D01*
X0528874Y0136432D01*
X0528133Y0139197D01*
X0527669Y0140000D01*
X0528133Y0140803D01*
X0528874Y0143568D01*
X0528874Y0146432D01*
X0528133Y0149197D01*
X0527669Y0150000D01*
X0528133Y0150803D01*
X0528874Y0153568D01*
X0528874Y0156432D01*
X0528133Y0159197D01*
X0526701Y0161677D01*
X0524677Y0163701D01*
X0523908Y0164145D01*
X0523968Y0164530D01*
X0523968Y0165000D01*
X0523968Y0165470D01*
X0523822Y0166398D01*
X0523531Y0167291D01*
X0523105Y0168128D01*
X0522553Y0168888D01*
X0521888Y0169553D01*
X0521128Y0170105D01*
X0520291Y0170531D01*
X0519398Y0170822D01*
X0518470Y0170968D01*
X0517110Y0170968D01*
X0517106Y0170976D01*
X0518378Y0175157D01*
X0535157Y0175157D01*
X0535157Y0084843D01*
X0509109Y0084843D01*
X0521382Y0114649D01*
X0522197Y0114867D01*
X0524677Y0116299D01*
X0526701Y0118323D01*
X0528133Y0120803D01*
X0528874Y0123568D01*
X0528874Y0126432D01*
X0528133Y0129197D01*
X0527669Y0130000D01*
X0527743Y0129872D02*
X0535157Y0129872D01*
X0535157Y0125937D02*
X0528874Y0125937D01*
X0528454Y0122001D02*
X0535157Y0122001D01*
X0535157Y0118066D02*
X0526444Y0118066D01*
X0521168Y0114130D02*
X0535157Y0114130D01*
X0535157Y0110195D02*
X0519548Y0110195D01*
X0517927Y0106259D02*
X0535157Y0106259D01*
X0535157Y0102323D02*
X0516307Y0102323D01*
X0514686Y0098388D02*
X0535157Y0098388D01*
X0535157Y0094452D02*
X0513066Y0094452D01*
X0511445Y0090517D02*
X0535157Y0090517D01*
X0535157Y0086581D02*
X0509825Y0086581D01*
X0505000Y0075000D02*
X0545000Y0075000D01*
X0545000Y-0045000D01*
X0405000Y-0045000D01*
X0405000Y-0010000D01*
X0380000Y-0010000D01*
X0515000Y-0025000D02*
X0515000Y0020000D01*
X0526701Y0013323D02*
X0528133Y0015803D01*
X0528874Y0018568D01*
X0528874Y0021432D01*
X0528133Y0024197D01*
X0527669Y0025000D01*
X0528133Y0025803D01*
X0528874Y0028568D01*
X0528874Y0031432D01*
X0528133Y0034197D01*
X0527669Y0035000D01*
X0528133Y0035803D01*
X0528874Y0038568D01*
X0528874Y0041432D01*
X0528133Y0044197D01*
X0527669Y0045000D01*
X0528133Y0045803D01*
X0528874Y0048568D01*
X0528874Y0051432D01*
X0528133Y0054197D01*
X0526701Y0056677D01*
X0524677Y0058701D01*
X0523908Y0059145D01*
X0523968Y0059530D01*
X0523968Y0060000D01*
X0523968Y0060470D01*
X0523822Y0061398D01*
X0523531Y0062291D01*
X0523105Y0063128D01*
X0522553Y0063888D01*
X0521888Y0064553D01*
X0521128Y0065105D01*
X0521025Y0065157D01*
X0535157Y0065157D01*
X0535157Y-0035157D01*
X0516690Y-0035157D01*
X0518956Y-0034550D01*
X0521293Y-0033201D01*
X0523201Y-0031293D01*
X0524550Y-0028956D01*
X0525249Y-0026349D01*
X0525249Y-0023651D01*
X0524843Y-0022134D01*
X0524843Y0011464D01*
X0526701Y0013323D01*
X0525185Y0011807D02*
X0535157Y0011807D01*
X0535157Y0015742D02*
X0528098Y0015742D01*
X0528874Y0019678D02*
X0535157Y0019678D01*
X0535157Y0023613D02*
X0528289Y0023613D01*
X0528601Y0027549D02*
X0535157Y0027549D01*
X0535157Y0031484D02*
X0528860Y0031484D01*
X0527912Y0035420D02*
X0535157Y0035420D01*
X0535157Y0039355D02*
X0528874Y0039355D01*
X0528376Y0043291D02*
X0535157Y0043291D01*
X0535157Y0047226D02*
X0528514Y0047226D01*
X0528874Y0051162D02*
X0535157Y0051162D01*
X0535157Y0055097D02*
X0527613Y0055097D01*
X0524103Y0059033D02*
X0535157Y0059033D01*
X0535157Y0062968D02*
X0523186Y0062968D01*
X0522427Y0060000D02*
X0523968Y0060000D01*
X0522428Y0060000D01*
X0522427Y0060000D01*
X0515000Y0060000D02*
X0530000Y0060000D01*
X0530000Y0000000D01*
X0524843Y0000000D02*
X0535157Y0000000D01*
X0535157Y-0003936D02*
X0524843Y-0003936D01*
X0524843Y-0007871D02*
X0535157Y-0007871D01*
X0535157Y-0011807D02*
X0524843Y-0011807D01*
X0524843Y-0015742D02*
X0535157Y-0015742D01*
X0535157Y-0019678D02*
X0524843Y-0019678D01*
X0525239Y-0023613D02*
X0535157Y-0023613D01*
X0535157Y-0027549D02*
X0524927Y-0027549D01*
X0523010Y-0031484D02*
X0535157Y-0031484D01*
X0554843Y-0031484D02*
X0582047Y-0031484D01*
X0582047Y-0027549D02*
X0554843Y-0027549D01*
X0554843Y-0023613D02*
X0582047Y-0023613D01*
X0582047Y-0019678D02*
X0554843Y-0019678D01*
X0554843Y-0015742D02*
X0582047Y-0015742D01*
X0582047Y-0011807D02*
X0554843Y-0011807D01*
X0554843Y-0007871D02*
X0582047Y-0007871D01*
X0582047Y-0003936D02*
X0554843Y-0003936D01*
X0554843Y0000000D02*
X0582047Y0000000D01*
X0582047Y0003936D02*
X0554843Y0003936D01*
X0554843Y0007871D02*
X0582047Y0007871D01*
X0582047Y0011807D02*
X0554843Y0011807D01*
X0554843Y0015742D02*
X0582047Y0015742D01*
X0582047Y0019678D02*
X0554843Y0019678D01*
X0554843Y0023613D02*
X0582047Y0023613D01*
X0582047Y0027549D02*
X0554843Y0027549D01*
X0554843Y0031484D02*
X0582047Y0031484D01*
X0582047Y0035420D02*
X0554843Y0035420D01*
X0554843Y0039355D02*
X0582047Y0039355D01*
X0582047Y0043291D02*
X0554843Y0043291D01*
X0554843Y0047226D02*
X0582047Y0047226D01*
X0582047Y0051162D02*
X0554843Y0051162D01*
X0554843Y0055097D02*
X0582047Y0055097D01*
X0582047Y0059033D02*
X0554843Y0059033D01*
X0554843Y0062968D02*
X0582047Y0062968D01*
X0582047Y0066904D02*
X0554843Y0066904D01*
X0554843Y0070839D02*
X0582047Y0070839D01*
X0582047Y0074775D02*
X0554843Y0074775D01*
X0554843Y0078710D02*
X0582047Y0078710D01*
X0582047Y0082646D02*
X0554843Y0082646D01*
X0554843Y0086581D02*
X0582047Y0086581D01*
X0582047Y0090517D02*
X0554843Y0090517D01*
X0554843Y0094452D02*
X0582047Y0094452D01*
X0582047Y0098388D02*
X0554843Y0098388D01*
X0554843Y0102323D02*
X0582047Y0102323D01*
X0582047Y0106259D02*
X0554843Y0106259D01*
X0554843Y0110195D02*
X0582047Y0110195D01*
X0582047Y0114130D02*
X0554843Y0114130D01*
X0554843Y0118066D02*
X0582047Y0118066D01*
X0582047Y0122001D02*
X0554843Y0122001D01*
X0554843Y0125937D02*
X0582047Y0125937D01*
X0582047Y0129872D02*
X0554843Y0129872D01*
X0554843Y0133808D02*
X0582047Y0133808D01*
X0582047Y0137743D02*
X0554843Y0137743D01*
X0554843Y0141679D02*
X0582047Y0141679D01*
X0582047Y0145614D02*
X0554843Y0145614D01*
X0554843Y0149550D02*
X0582047Y0149550D01*
X0582047Y0153485D02*
X0554843Y0153485D01*
X0554843Y0157421D02*
X0582047Y0157421D01*
X0582047Y0161356D02*
X0554843Y0161356D01*
X0554843Y0165292D02*
X0582047Y0165292D01*
X0582047Y0169227D02*
X0554843Y0169227D01*
X0554843Y0173163D02*
X0582047Y0173163D01*
X0582047Y0177098D02*
X0554843Y0177098D01*
X0554843Y0181034D02*
X0582047Y0181034D01*
X0582047Y0184969D02*
X0554843Y0184969D01*
X0554036Y0188905D02*
X0582047Y0188905D01*
X0582047Y0192840D02*
X0551079Y0192840D01*
X0545000Y0185000D02*
X0512507Y0185000D01*
X0511416Y0186090D01*
X0505000Y0165000D01*
X0515000Y0165000D02*
X0530000Y0165000D01*
X0526886Y0161356D02*
X0535157Y0161356D01*
X0535157Y0157421D02*
X0528609Y0157421D01*
X0528852Y0153485D02*
X0535157Y0153485D01*
X0535157Y0149550D02*
X0527929Y0149550D01*
X0528874Y0145614D02*
X0535157Y0145614D01*
X0535157Y0141679D02*
X0528368Y0141679D01*
X0528523Y0137743D02*
X0535157Y0137743D01*
X0535157Y0133808D02*
X0528874Y0133808D01*
X0523968Y0165000D02*
X0522428Y0165000D01*
X0522427Y0165000D01*
X0523968Y0165000D01*
X0523968Y0165292D02*
X0535157Y0165292D01*
X0535157Y0169227D02*
X0522213Y0169227D01*
X0517771Y0173163D02*
X0535157Y0173163D01*
X0545000Y0185000D02*
X0545000Y0075000D01*
X0505000Y0075000D02*
X0505000Y0060000D01*
X0524843Y0007871D02*
X0535157Y0007871D01*
X0535157Y0003936D02*
X0524843Y0003936D01*
X0554843Y-0035420D02*
X0562972Y-0035420D01*
X0559621Y-0039355D02*
X0554843Y-0039355D01*
X0554843Y-0043291D02*
X0558230Y-0043291D01*
X0558369Y-0047226D02*
X0554731Y-0047226D01*
X0552758Y-0051162D02*
X0559919Y-0051162D01*
X0580081Y-0051162D02*
X0582047Y-0051162D01*
X0582047Y-0047226D02*
X0581631Y-0047226D01*
X0581770Y-0043291D02*
X0582047Y-0043291D01*
X0582047Y-0039355D02*
X0580379Y-0039355D01*
X0582047Y-0035420D02*
X0577028Y-0035420D01*
X0360000Y0075000D02*
X0357644Y0075792D01*
X0350539Y0075792D01*
X0350000Y0075000D01*
X0350000Y0085000D02*
X-0080000Y0085000D01*
X-0080000Y0050000D01*
X-0134145Y0074775D02*
X-0175157Y0074775D01*
X-0175157Y0078710D02*
X-0130209Y0078710D01*
X-0126273Y0082646D02*
X-0175157Y0082646D01*
X-0175157Y0086581D02*
X-0122338Y0086581D01*
X-0118402Y0090517D02*
X-0175157Y0090517D01*
X-0175157Y0094452D02*
X-0114467Y0094452D01*
X-0132307Y0098388D02*
X-0175157Y0098388D01*
X-0175157Y0102323D02*
X-0134545Y0102323D01*
X-0134843Y0106259D02*
X-0175157Y0106259D01*
X-0175157Y0110195D02*
X-0134843Y0110195D01*
X-0134843Y0114130D02*
X-0175157Y0114130D01*
X-0175157Y0118066D02*
X-0134843Y0118066D01*
X-0134843Y0122001D02*
X-0175157Y0122001D01*
X-0175157Y0125937D02*
X-0134843Y0125937D01*
X-0134843Y0129872D02*
X-0175157Y0129872D01*
X-0175157Y0133808D02*
X-0134843Y0133808D01*
X-0134843Y0137743D02*
X-0175157Y0137743D01*
X-0175157Y0141679D02*
X-0134843Y0141679D01*
X-0134843Y0145614D02*
X-0161509Y0145614D01*
X-0157590Y0149550D02*
X-0134843Y0149550D01*
X-0134843Y0153485D02*
X-0156148Y0153485D01*
X-0170000Y0165000D02*
X-0125000Y0165000D01*
X-0125000Y0105000D01*
X0350000Y0105000D01*
X0350000Y0115000D02*
X-0115000Y0115000D01*
X-0115000Y0205000D01*
X-0170000Y0205000D01*
X-0183080Y0200711D02*
X-0185157Y0200711D01*
X-0185157Y0196776D02*
X-0183782Y0196776D01*
X-0183874Y0204647D02*
X-0185157Y0204647D01*
X-0185157Y0208583D02*
X-0183298Y0208583D01*
X-0183593Y0212518D02*
X-0185157Y0212518D01*
X-0185157Y0216454D02*
X-0183868Y0216454D01*
X-0185157Y0220389D02*
X-0182445Y0220389D01*
X-0185157Y0224325D02*
X-0178597Y0224325D01*
X-0185157Y0228260D02*
X-0109843Y0228260D01*
X-0109843Y0224325D02*
X-0161403Y0224325D01*
X-0157555Y0220389D02*
X-0109843Y0220389D01*
X-0109843Y0216454D02*
X-0156132Y0216454D01*
X-0185157Y0232196D02*
X-0109843Y0232196D01*
X-0109843Y0236131D02*
X-0185157Y0236131D01*
X-0185157Y0240067D02*
X-0109843Y0240067D01*
X-0109843Y0244002D02*
X-0185157Y0244002D01*
X-0185000Y0185000D02*
X-0170000Y0185000D01*
X-0185000Y0185000D02*
X-0185000Y-0025000D01*
X0010000Y-0025000D01*
X0080000Y0045000D01*
X0105000Y0045000D01*
X0105000Y0075000D01*
X0095000Y0075000D02*
X0095000Y0055000D01*
X0070000Y0055000D01*
X0045000Y0030000D01*
X-0160000Y0030000D01*
X-0160000Y0010000D02*
X-0080000Y0010000D01*
X-0071481Y0015742D02*
X0036823Y0015742D01*
X0040758Y0019678D02*
X-0076519Y0019678D01*
X-0069874Y0011807D02*
X0032887Y0011807D01*
X0028952Y0007871D02*
X-0069960Y0007871D01*
X-0071667Y0003936D02*
X0025016Y0003936D01*
X0021081Y0000000D02*
X-0077722Y0000000D01*
X-0082278Y0000000D02*
X-0146126Y0000000D01*
X-0146797Y-0003936D02*
X0017145Y-0003936D01*
X0013210Y-0007871D02*
X-0149493Y-0007871D01*
X-0205000Y-0045000D02*
X-0205000Y0340000D01*
X-0080000Y0340000D01*
X-0080000Y0345000D01*
X-0025000Y0345000D01*
X-0005000Y0325000D01*
X-0005000Y0350000D01*
X0130000Y0350000D01*
X0220000Y0350000D01*
X0232500Y0337500D01*
X0240000Y0345000D01*
X0315000Y0345000D01*
X0320000Y0340000D01*
X0330000Y0350000D01*
X0425000Y0350000D01*
X0425000Y0325000D01*
X0475000Y0275000D01*
X0475000Y0235000D01*
X0484843Y0236131D02*
X0516352Y0236131D01*
X0515155Y0232196D02*
X0484843Y0232196D01*
X0484843Y0228260D02*
X0513958Y0228260D01*
X0512761Y0224325D02*
X0484843Y0224325D01*
X0484843Y0220389D02*
X0511563Y0220389D01*
X0510366Y0216454D02*
X0484843Y0216454D01*
X0484843Y0212518D02*
X0509169Y0212518D01*
X0507971Y0208583D02*
X0484843Y0208583D01*
X0484843Y0204647D02*
X0506774Y0204647D01*
X0505577Y0200711D02*
X0484843Y0200711D01*
X0484843Y0196776D02*
X0504379Y0196776D01*
X0503182Y0192840D02*
X0484843Y0192840D01*
X0484843Y0188905D02*
X0501929Y0188905D01*
X0500787Y0184969D02*
X0484843Y0184969D01*
X0484011Y0181034D02*
X0499590Y0181034D01*
X0498393Y0177098D02*
X0481018Y0177098D01*
X0511416Y0186090D02*
X0550000Y0312913D01*
X0560626Y0306970D02*
X0582047Y0306970D01*
X0582047Y0303035D02*
X0557283Y0303035D01*
X0556085Y0299099D02*
X0582047Y0299099D01*
X0582047Y0295164D02*
X0554888Y0295164D01*
X0553691Y0291228D02*
X0582047Y0291228D01*
X0582047Y0287293D02*
X0552493Y0287293D01*
X0551296Y0283357D02*
X0582047Y0283357D01*
X0582047Y0279422D02*
X0550099Y0279422D01*
X0548901Y0275486D02*
X0582047Y0275486D01*
X0582047Y0271551D02*
X0547704Y0271551D01*
X0546507Y0267615D02*
X0582047Y0267615D01*
X0582047Y0263680D02*
X0545309Y0263680D01*
X0544112Y0259744D02*
X0582047Y0259744D01*
X0582047Y0255809D02*
X0542915Y0255809D01*
X0541718Y0251873D02*
X0582047Y0251873D01*
X0582047Y0247938D02*
X0540520Y0247938D01*
X0539323Y0244002D02*
X0582047Y0244002D01*
X0582047Y0240067D02*
X0538126Y0240067D01*
X0536928Y0236131D02*
X0582047Y0236131D01*
X0582047Y0232196D02*
X0535731Y0232196D01*
X0534534Y0228260D02*
X0582047Y0228260D01*
X0582047Y0224325D02*
X0533336Y0224325D01*
X0532139Y0220389D02*
X0582047Y0220389D01*
X0582047Y0216454D02*
X0530942Y0216454D01*
X0529744Y0212518D02*
X0582047Y0212518D01*
X0582047Y0208583D02*
X0528547Y0208583D01*
X0527350Y0204647D02*
X0582047Y0204647D01*
X0582047Y0200711D02*
X0526152Y0200711D01*
X0524955Y0196776D02*
X0582047Y0196776D01*
X0517550Y0240067D02*
X0484843Y0240067D01*
X0484843Y0244002D02*
X0518747Y0244002D01*
X0519944Y0247938D02*
X0484843Y0247938D01*
X0484843Y0251873D02*
X0521142Y0251873D01*
X0522339Y0255809D02*
X0484843Y0255809D01*
X0484843Y0259744D02*
X0523536Y0259744D01*
X0524734Y0263680D02*
X0484843Y0263680D01*
X0484843Y0267615D02*
X0525931Y0267615D01*
X0527128Y0271551D02*
X0484843Y0271551D01*
X0484843Y0275486D02*
X0528326Y0275486D01*
X0529523Y0279422D02*
X0483822Y0279422D01*
X0480562Y0283357D02*
X0530720Y0283357D01*
X0531917Y0287293D02*
X0476626Y0287293D01*
X0472691Y0291228D02*
X0533115Y0291228D01*
X0534312Y0295164D02*
X0468755Y0295164D01*
X0464820Y0299099D02*
X0535509Y0299099D01*
X0536707Y0303035D02*
X0460884Y0303035D01*
X0456949Y0306970D02*
X0537904Y0306970D01*
X0537934Y0310906D02*
X0531711Y0310906D01*
X0532874Y0314842D02*
X0537913Y0314842D01*
X0539328Y0318777D02*
X0532874Y0318777D01*
X0532874Y0322713D02*
X0542625Y0322713D01*
X0542731Y0326648D02*
X0532147Y0326648D01*
X0528452Y0330584D02*
X0543853Y0330584D01*
X0550000Y0330584D02*
X0550000Y0330584D01*
X0556147Y0330584D02*
X0582047Y0330584D01*
X0582047Y0334519D02*
X0575469Y0334519D01*
X0579859Y0338455D02*
X0582047Y0338455D01*
X0582047Y0342390D02*
X0581528Y0342390D01*
X0581811Y0346326D02*
X0582047Y0346326D01*
X0582047Y0350261D02*
X0580601Y0350261D01*
X0559399Y0350261D02*
X0434843Y0350261D01*
X0434843Y0346326D02*
X0558189Y0346326D01*
X0558472Y0342390D02*
X0434843Y0342390D01*
X0434843Y0338455D02*
X0560141Y0338455D01*
X0564531Y0334519D02*
X0434843Y0334519D01*
X0435565Y0330584D02*
X0439029Y0330584D01*
X0415000Y0332428D02*
X0415000Y0332427D01*
X0415000Y0332428D01*
X0415000Y0333968D01*
X0414530Y0333968D01*
X0414145Y0333908D01*
X0413701Y0334677D01*
X0411677Y0336701D01*
X0409197Y0338133D01*
X0406432Y0338874D01*
X0403568Y0338874D01*
X0400803Y0338133D01*
X0398323Y0336701D01*
X0396299Y0334677D01*
X0394867Y0332197D01*
X0394126Y0329432D01*
X0394126Y0328045D01*
X0381656Y0315575D01*
X0381352Y0314843D01*
X0333221Y0314843D01*
X0333701Y0315323D01*
X0335133Y0317803D01*
X0335874Y0320568D01*
X0335874Y0329432D01*
X0335133Y0332197D01*
X0334328Y0333592D01*
X0334328Y0337473D01*
X0333468Y0339548D01*
X0334077Y0340157D01*
X0415157Y0340157D01*
X0415157Y0333968D01*
X0415000Y0333968D01*
X0415000Y0332428D01*
X0415157Y0334519D02*
X0413792Y0334519D01*
X0415157Y0338455D02*
X0407997Y0338455D01*
X0402003Y0338455D02*
X0333921Y0338455D01*
X0334328Y0334519D02*
X0396208Y0334519D01*
X0394435Y0330584D02*
X0335565Y0330584D01*
X0335874Y0326648D02*
X0392729Y0326648D01*
X0388793Y0322713D02*
X0335874Y0322713D01*
X0335394Y0318777D02*
X0384858Y0318777D01*
X0390000Y0310000D02*
X0405000Y0325000D01*
X0415000Y0325000D02*
X0415000Y0275000D01*
X0450000Y0275000D01*
X0450000Y0265000D01*
X0450000Y0265874D02*
X0450000Y0270968D01*
X0450000Y0265874D01*
X0450000Y0265874D01*
X0450000Y0267615D02*
X0450000Y0267615D01*
X0450000Y0270968D02*
X0453470Y0270968D01*
X0454398Y0270822D01*
X0455291Y0270531D01*
X0456128Y0270105D01*
X0456888Y0269553D01*
X0457553Y0268888D01*
X0458105Y0268128D01*
X0458531Y0267291D01*
X0458822Y0266398D01*
X0458968Y0265470D01*
X0458968Y0265000D01*
X0457427Y0265000D01*
X0457428Y0265000D01*
X0458968Y0265000D01*
X0458968Y0264530D01*
X0458908Y0264145D01*
X0459677Y0263701D01*
X0461701Y0261677D01*
X0463133Y0259197D01*
X0463874Y0256432D01*
X0463874Y0253568D01*
X0463133Y0250803D01*
X0462669Y0250000D01*
X0463133Y0249197D01*
X0463874Y0246432D01*
X0463874Y0244843D01*
X0465157Y0244843D01*
X0465157Y0270923D01*
X0424955Y0311126D01*
X0423568Y0311126D01*
X0420803Y0311867D01*
X0418323Y0313299D01*
X0416299Y0315323D01*
X0415855Y0316092D01*
X0415470Y0316031D01*
X0415000Y0316031D01*
X0415000Y0317572D01*
X0415000Y0317572D01*
X0415000Y0316031D01*
X0414530Y0316031D01*
X0414145Y0316092D01*
X0413701Y0315323D01*
X0411677Y0313299D01*
X0409197Y0311867D01*
X0406432Y0311126D01*
X0405045Y0311126D01*
X0399843Y0305923D01*
X0399843Y0303042D01*
X0398344Y0299425D01*
X0395575Y0296656D01*
X0391958Y0295157D01*
X0244077Y0295157D01*
X0223736Y0274816D01*
X0224033Y0274737D01*
X0225000Y0274178D01*
X0225967Y0274737D01*
X0228624Y0275449D01*
X0231376Y0275449D01*
X0234033Y0274737D01*
X0235000Y0274178D01*
X0235967Y0274737D01*
X0238624Y0275449D01*
X0241376Y0275449D01*
X0244033Y0274737D01*
X0245000Y0274178D01*
X0245967Y0274737D01*
X0248624Y0275449D01*
X0251376Y0275449D01*
X0254033Y0274737D01*
X0256416Y0273361D01*
X0258361Y0271416D01*
X0259737Y0269033D01*
X0260000Y0268051D01*
X0260263Y0269033D01*
X0261639Y0271416D01*
X0263584Y0273361D01*
X0265967Y0274737D01*
X0268624Y0275449D01*
X0271376Y0275449D01*
X0274033Y0274737D01*
X0275000Y0274178D01*
X0275967Y0274737D01*
X0278624Y0275449D01*
X0281376Y0275449D01*
X0284033Y0274737D01*
X0285000Y0274178D01*
X0285967Y0274737D01*
X0288624Y0275449D01*
X0291376Y0275449D01*
X0294033Y0274737D01*
X0295000Y0274178D01*
X0295967Y0274737D01*
X0298624Y0275449D01*
X0301376Y0275449D01*
X0304033Y0274737D01*
X0305000Y0274178D01*
X0305967Y0274737D01*
X0308624Y0275449D01*
X0311376Y0275449D01*
X0314033Y0274737D01*
X0315000Y0274178D01*
X0315967Y0274737D01*
X0318624Y0275449D01*
X0321376Y0275449D01*
X0324033Y0274737D01*
X0325000Y0274178D01*
X0325967Y0274737D01*
X0328624Y0275449D01*
X0331376Y0275449D01*
X0334033Y0274737D01*
X0335000Y0274178D01*
X0335967Y0274737D01*
X0338624Y0275449D01*
X0341376Y0275449D01*
X0344033Y0274737D01*
X0346416Y0273361D01*
X0348361Y0271416D01*
X0349737Y0269033D01*
X0350449Y0266376D01*
X0350449Y0263624D01*
X0349737Y0260967D01*
X0348361Y0258584D01*
X0346416Y0256639D01*
X0344033Y0255263D01*
X0341376Y0254551D01*
X0338624Y0254551D01*
X0335967Y0255263D01*
X0335000Y0255822D01*
X0334033Y0255263D01*
X0331376Y0254551D01*
X0328624Y0254551D01*
X0325967Y0255263D01*
X0325000Y0255822D01*
X0324033Y0255263D01*
X0321376Y0254551D01*
X0318624Y0254551D01*
X0315967Y0255263D01*
X0315000Y0255822D01*
X0314033Y0255263D01*
X0311376Y0254551D01*
X0308624Y0254551D01*
X0305967Y0255263D01*
X0305000Y0255822D01*
X0304033Y0255263D01*
X0301376Y0254551D01*
X0298624Y0254551D01*
X0295967Y0255263D01*
X0295000Y0255822D01*
X0294033Y0255263D01*
X0291376Y0254551D01*
X0288624Y0254551D01*
X0285967Y0255263D01*
X0285000Y0255822D01*
X0284033Y0255263D01*
X0281376Y0254551D01*
X0278624Y0254551D01*
X0275967Y0255263D01*
X0275000Y0255822D01*
X0274033Y0255263D01*
X0271376Y0254551D01*
X0268624Y0254551D01*
X0265967Y0255263D01*
X0263584Y0256639D01*
X0261639Y0258584D01*
X0260263Y0260967D01*
X0260000Y0261949D01*
X0259737Y0260967D01*
X0258361Y0258584D01*
X0256416Y0256639D01*
X0254033Y0255263D01*
X0251376Y0254551D01*
X0248624Y0254551D01*
X0245967Y0255263D01*
X0245000Y0255822D01*
X0244033Y0255263D01*
X0241376Y0254551D01*
X0238624Y0254551D01*
X0235967Y0255263D01*
X0235000Y0255822D01*
X0234033Y0255263D01*
X0231376Y0254551D01*
X0228624Y0254551D01*
X0225967Y0255263D01*
X0225000Y0255822D01*
X0224033Y0255263D01*
X0221376Y0254551D01*
X0218624Y0254551D01*
X0215967Y0255263D01*
X0215000Y0255822D01*
X0214033Y0255263D01*
X0211376Y0254551D01*
X0208624Y0254551D01*
X0205967Y0255263D01*
X0205000Y0255822D01*
X0204033Y0255263D01*
X0201376Y0254551D01*
X0198624Y0254551D01*
X0195967Y0255263D01*
X0195046Y0255795D01*
X0194922Y0255777D01*
X0194033Y0255263D01*
X0191376Y0254551D01*
X0188624Y0254551D01*
X0185967Y0255263D01*
X0185000Y0255822D01*
X0184033Y0255263D01*
X0181376Y0254551D01*
X0178624Y0254551D01*
X0175967Y0255263D01*
X0173584Y0256639D01*
X0171639Y0258584D01*
X0170263Y0260967D01*
X0170164Y0261336D01*
X0169886Y0260865D01*
X0169402Y0259697D01*
X0168899Y0259194D01*
X0168538Y0258582D01*
X0167816Y0258039D01*
X0166416Y0256639D01*
X0164033Y0255263D01*
X0161376Y0254551D01*
X0158624Y0254551D01*
X0155967Y0255263D01*
X0153584Y0256639D01*
X0151639Y0258584D01*
X0151077Y0259558D01*
X0150436Y0259457D01*
X0150000Y0259457D01*
X0150000Y0261949D01*
X0150000Y0261950D01*
X0150000Y0259457D01*
X0149564Y0259457D01*
X0148702Y0259593D01*
X0147872Y0259863D01*
X0147095Y0260259D01*
X0146389Y0260772D01*
X0145772Y0261389D01*
X0145259Y0262095D01*
X0145000Y0262603D01*
X0144741Y0262095D01*
X0144228Y0261389D01*
X0143611Y0260772D01*
X0142905Y0260259D01*
X0142128Y0259863D01*
X0141298Y0259593D01*
X0140436Y0259457D01*
X0140000Y0259457D01*
X0140000Y0261950D01*
X0140000Y0261949D01*
X0140000Y0259457D01*
X0139564Y0259457D01*
X0138923Y0259558D01*
X0138361Y0258584D01*
X0136416Y0256639D01*
X0134033Y0255263D01*
X0131376Y0254551D01*
X0128624Y0254551D01*
X0125967Y0255263D01*
X0125000Y0255822D01*
X0124033Y0255263D01*
X0121376Y0254551D01*
X0118624Y0254551D01*
X0115967Y0255263D01*
X0115000Y0255822D01*
X0114033Y0255263D01*
X0111376Y0254551D01*
X0108624Y0254551D01*
X0105967Y0255263D01*
X0103584Y0256639D01*
X0101639Y0258584D01*
X0100263Y0260967D01*
X0099551Y0263624D01*
X0099551Y0266376D01*
X0100263Y0269033D01*
X0101639Y0271416D01*
X0103584Y0273361D01*
X0105967Y0274737D01*
X0108624Y0275449D01*
X0111376Y0275449D01*
X0114033Y0274737D01*
X0115000Y0274178D01*
X0115967Y0274737D01*
X0118624Y0275449D01*
X0120157Y0275449D01*
X0120157Y0340157D01*
X0004843Y0340157D01*
X0004843Y0333968D01*
X0005000Y0333968D01*
X0005000Y0332428D01*
X0005000Y0332427D01*
X0005000Y0332428D01*
X0005000Y0333968D01*
X0005470Y0333968D01*
X0005855Y0333908D01*
X0006299Y0334677D01*
X0008323Y0336701D01*
X0010803Y0338133D01*
X0013568Y0338874D01*
X0016432Y0338874D01*
X0019197Y0338133D01*
X0020000Y0337669D01*
X0020803Y0338133D01*
X0023568Y0338874D01*
X0026432Y0338874D01*
X0029197Y0338133D01*
X0030000Y0337669D01*
X0030803Y0338133D01*
X0033568Y0338874D01*
X0036432Y0338874D01*
X0039197Y0338133D01*
X0040000Y0337669D01*
X0040803Y0338133D01*
X0043568Y0338874D01*
X0046432Y0338874D01*
X0049197Y0338133D01*
X0050000Y0337669D01*
X0050803Y0338133D01*
X0053568Y0338874D01*
X0056432Y0338874D01*
X0059197Y0338133D01*
X0061677Y0336701D01*
X0063701Y0334677D01*
X0065133Y0332197D01*
X0065874Y0329432D01*
X0065874Y0320568D01*
X0065133Y0317803D01*
X0064843Y0317300D01*
X0064843Y0234843D01*
X0339551Y0234843D01*
X0339551Y0236376D01*
X0340263Y0239033D01*
X0341639Y0241416D01*
X0343584Y0243361D01*
X0344558Y0243923D01*
X0344457Y0244564D01*
X0344457Y0245000D01*
X0346949Y0245000D01*
X0346950Y0245000D01*
X0344457Y0245000D01*
X0344457Y0245436D01*
X0344593Y0246298D01*
X0344863Y0247128D01*
X0345259Y0247905D01*
X0345772Y0248611D01*
X0346389Y0249228D01*
X0347095Y0249741D01*
X0347872Y0250137D01*
X0348702Y0250407D01*
X0349564Y0250543D01*
X0350000Y0250543D01*
X0350000Y0245449D01*
X0350000Y0245449D01*
X0350000Y0250543D01*
X0350436Y0250543D01*
X0351298Y0250407D01*
X0352128Y0250137D01*
X0352905Y0249741D01*
X0353611Y0249228D01*
X0354228Y0248611D01*
X0354741Y0247905D01*
X0355000Y0247397D01*
X0355259Y0247905D01*
X0355772Y0248611D01*
X0356389Y0249228D01*
X0357095Y0249741D01*
X0357872Y0250137D01*
X0358702Y0250407D01*
X0359564Y0250543D01*
X0360000Y0250543D01*
X0360000Y0245449D01*
X0360000Y0245449D01*
X0360000Y0250543D01*
X0360436Y0250543D01*
X0361298Y0250407D01*
X0362128Y0250137D01*
X0362905Y0249741D01*
X0363611Y0249228D01*
X0364228Y0248611D01*
X0364741Y0247905D01*
X0365137Y0247128D01*
X0365407Y0246298D01*
X0365543Y0245436D01*
X0365543Y0245000D01*
X0363050Y0245000D01*
X0363051Y0245000D01*
X0365543Y0245000D01*
X0365543Y0244564D01*
X0365442Y0243923D01*
X0366416Y0243361D01*
X0368312Y0241465D01*
X0403897Y0262816D01*
X0404425Y0263344D01*
X0405561Y0263815D01*
X0406615Y0264447D01*
X0407353Y0264557D01*
X0408042Y0264843D01*
X0409272Y0264843D01*
X0410488Y0265023D01*
X0411212Y0264843D01*
X0441031Y0264843D01*
X0441031Y0265000D01*
X0442572Y0265000D01*
X0442573Y0265000D01*
X0441031Y0265000D01*
X0441031Y0265470D01*
X0441178Y0266398D01*
X0441469Y0267291D01*
X0441895Y0268128D01*
X0442447Y0268888D01*
X0443112Y0269553D01*
X0443872Y0270105D01*
X0444709Y0270531D01*
X0445602Y0270822D01*
X0446530Y0270968D01*
X0450000Y0270968D01*
X0441634Y0267615D02*
X0350117Y0267615D01*
X0350449Y0263680D02*
X0405235Y0263680D01*
X0398777Y0259744D02*
X0349031Y0259744D01*
X0344978Y0255809D02*
X0392218Y0255809D01*
X0385658Y0251873D02*
X0064843Y0251873D01*
X0064843Y0247938D02*
X0345282Y0247938D01*
X0344546Y0244002D02*
X0064843Y0244002D01*
X0064843Y0240067D02*
X0340860Y0240067D01*
X0339551Y0236131D02*
X0064843Y0236131D01*
X0055000Y0225000D02*
X0055000Y0325000D01*
X0065874Y0326648D02*
X0120157Y0326648D01*
X0120157Y0322713D02*
X0065874Y0322713D01*
X0065394Y0318777D02*
X0120157Y0318777D01*
X0120157Y0314842D02*
X0064843Y0314842D01*
X0064843Y0310906D02*
X0120157Y0310906D01*
X0120157Y0306970D02*
X0064843Y0306970D01*
X0064843Y0303035D02*
X0120157Y0303035D01*
X0120157Y0299099D02*
X0064843Y0299099D01*
X0064843Y0295164D02*
X0120157Y0295164D01*
X0120157Y0291228D02*
X0064843Y0291228D01*
X0064843Y0287293D02*
X0120157Y0287293D01*
X0120157Y0283357D02*
X0064843Y0283357D01*
X0064843Y0279422D02*
X0120157Y0279422D01*
X0120157Y0275486D02*
X0064843Y0275486D01*
X0064843Y0271551D02*
X0101774Y0271551D01*
X0099883Y0267615D02*
X0064843Y0267615D01*
X0064843Y0263680D02*
X0099551Y0263680D01*
X0100969Y0259744D02*
X0064843Y0259744D01*
X0064843Y0255809D02*
X0105022Y0255809D01*
X0114978Y0255809D02*
X0115022Y0255809D01*
X0124978Y0255809D02*
X0125022Y0255809D01*
X0134978Y0255809D02*
X0155022Y0255809D01*
X0150000Y0259744D02*
X0150000Y0259744D01*
X0148237Y0259744D02*
X0141763Y0259744D01*
X0140000Y0259744D02*
X0140000Y0259744D01*
X0140000Y0265000D02*
X0142110Y0265272D01*
X0149216Y0265272D01*
X0150000Y0265000D01*
X0151584Y0266584D01*
X0151584Y0324485D01*
X0151216Y0323337D02*
X0151216Y0270683D01*
X0151077Y0270442D01*
X0150436Y0270543D01*
X0150000Y0270543D01*
X0149564Y0270543D01*
X0148702Y0270407D01*
X0147872Y0270137D01*
X0147095Y0269741D01*
X0146389Y0269228D01*
X0145772Y0268611D01*
X0145259Y0267905D01*
X0145000Y0267397D01*
X0144741Y0267905D01*
X0144228Y0268611D01*
X0143611Y0269228D01*
X0142905Y0269741D01*
X0142128Y0270137D01*
X0141298Y0270407D01*
X0140436Y0270543D01*
X0140000Y0270543D01*
X0139843Y0270543D01*
X0139843Y0340157D01*
X0155332Y0340157D01*
X0154612Y0339742D01*
X0152345Y0337475D01*
X0151733Y0336415D01*
X0151529Y0336533D01*
X0150648Y0336898D01*
X0149728Y0337144D01*
X0148783Y0337268D01*
X0148307Y0337268D01*
X0147831Y0337268D01*
X0146886Y0337144D01*
X0145966Y0336898D01*
X0145085Y0336533D01*
X0144260Y0336056D01*
X0143504Y0335476D01*
X0142831Y0334803D01*
X0142251Y0334047D01*
X0141774Y0333222D01*
X0141410Y0332341D01*
X0141163Y0331421D01*
X0141039Y0330476D01*
X0141039Y0330000D01*
X0141039Y0329524D01*
X0141163Y0328579D01*
X0141410Y0327659D01*
X0141774Y0326778D01*
X0142251Y0325953D01*
X0142831Y0325197D01*
X0143504Y0324524D01*
X0144260Y0323943D01*
X0145085Y0323467D01*
X0145966Y0323102D01*
X0146886Y0322856D01*
X0147831Y0322731D01*
X0148307Y0322731D01*
X0148307Y0330000D01*
X0148307Y0330000D01*
X0141039Y0330000D01*
X0148307Y0330000D01*
X0149216Y0329222D01*
X0150400Y0328038D01*
X0156321Y0333959D01*
X0213165Y0333959D01*
X0217902Y0329222D01*
X0217902Y0326854D01*
X0220000Y0325000D01*
X0210000Y0325000D02*
X0208428Y0324485D01*
X0180006Y0296063D01*
X0180006Y0265272D01*
X0180000Y0265000D01*
X0190000Y0265000D02*
X0191849Y0265272D01*
X0251061Y0324485D01*
X0303169Y0324485D01*
X0305000Y0325000D01*
X0315000Y0325000D02*
X0315000Y0315000D01*
X0335000Y0315000D01*
X0360000Y0340000D01*
X0415000Y0340000D01*
X0415000Y0325000D01*
X0415000Y0317572D02*
X0415000Y0317572D01*
X0413220Y0314842D02*
X0416780Y0314842D01*
X0425175Y0310906D02*
X0404825Y0310906D01*
X0400890Y0306970D02*
X0429110Y0306970D01*
X0433046Y0303035D02*
X0399840Y0303035D01*
X0398019Y0299099D02*
X0436981Y0299099D01*
X0440917Y0295164D02*
X0391973Y0295164D01*
X0390000Y0305000D02*
X0390000Y0310000D01*
X0390000Y0305000D02*
X0240000Y0305000D01*
X0200000Y0265000D01*
X0204978Y0255809D02*
X0205022Y0255809D01*
X0214978Y0255809D02*
X0215022Y0255809D01*
X0224978Y0255809D02*
X0225022Y0255809D01*
X0234978Y0255809D02*
X0235022Y0255809D01*
X0244978Y0255809D02*
X0245022Y0255809D01*
X0254978Y0255809D02*
X0265022Y0255809D01*
X0260969Y0259744D02*
X0259031Y0259744D01*
X0258226Y0271551D02*
X0261774Y0271551D01*
X0274978Y0255809D02*
X0275022Y0255809D01*
X0284978Y0255809D02*
X0285022Y0255809D01*
X0294978Y0255809D02*
X0295022Y0255809D01*
X0304978Y0255809D02*
X0305022Y0255809D01*
X0314978Y0255809D02*
X0315022Y0255809D01*
X0324978Y0255809D02*
X0325022Y0255809D01*
X0334978Y0255809D02*
X0335022Y0255809D01*
X0350000Y0247938D02*
X0350000Y0247938D01*
X0350000Y0245000D02*
X0350539Y0243956D01*
X0357644Y0243956D01*
X0360000Y0245000D01*
X0360000Y0247938D02*
X0360000Y0247938D01*
X0355282Y0247938D02*
X0354718Y0247938D01*
X0364718Y0247938D02*
X0379099Y0247938D01*
X0372540Y0244002D02*
X0365454Y0244002D01*
X0360000Y0225000D02*
X0410000Y0255000D01*
X0450000Y0255000D01*
X0459698Y0263680D02*
X0465157Y0263680D01*
X0465157Y0267615D02*
X0458366Y0267615D01*
X0464530Y0271551D02*
X0348226Y0271551D01*
X0380266Y0214843D02*
X0417510Y0235157D01*
X0436126Y0235157D01*
X0436126Y0233568D01*
X0436867Y0230803D01*
X0438299Y0228323D01*
X0440323Y0226299D01*
X0442803Y0224867D01*
X0445568Y0224126D01*
X0454432Y0224126D01*
X0457197Y0224867D01*
X0457700Y0225157D01*
X0465157Y0225157D01*
X0465157Y0194843D01*
X0463874Y0194843D01*
X0463874Y0196432D01*
X0463133Y0199197D01*
X0462669Y0200000D01*
X0463133Y0200803D01*
X0463874Y0203568D01*
X0463874Y0206432D01*
X0463133Y0209197D01*
X0461701Y0211677D01*
X0459677Y0213701D01*
X0458908Y0214145D01*
X0458968Y0214530D01*
X0458968Y0215000D01*
X0458968Y0215470D01*
X0458822Y0216398D01*
X0458531Y0217291D01*
X0458105Y0218128D01*
X0457553Y0218888D01*
X0456888Y0219553D01*
X0456128Y0220105D01*
X0455291Y0220531D01*
X0454398Y0220822D01*
X0453470Y0220968D01*
X0450000Y0220968D01*
X0450000Y0215874D01*
X0450000Y0215874D01*
X0450000Y0220968D01*
X0446530Y0220968D01*
X0445602Y0220822D01*
X0444709Y0220531D01*
X0443872Y0220105D01*
X0443112Y0219553D01*
X0442447Y0218888D01*
X0441895Y0218128D01*
X0441469Y0217291D01*
X0441178Y0216398D01*
X0441031Y0215470D01*
X0441031Y0215000D01*
X0441031Y0214843D01*
X0380266Y0214843D01*
X0383219Y0216454D02*
X0441197Y0216454D01*
X0441031Y0215000D02*
X0442573Y0215000D01*
X0442572Y0215000D01*
X0441031Y0215000D01*
X0444430Y0220389D02*
X0390434Y0220389D01*
X0397649Y0224325D02*
X0444827Y0224325D01*
X0450000Y0220389D02*
X0450000Y0220389D01*
X0450000Y0216454D02*
X0450000Y0216454D01*
X0455570Y0220389D02*
X0465157Y0220389D01*
X0465157Y0216454D02*
X0458803Y0216454D01*
X0458968Y0215000D02*
X0457427Y0215000D01*
X0457428Y0215000D01*
X0458968Y0215000D01*
X0460860Y0212518D02*
X0465157Y0212518D01*
X0465157Y0208583D02*
X0463298Y0208583D01*
X0463874Y0204647D02*
X0465157Y0204647D01*
X0465157Y0200711D02*
X0463080Y0200711D01*
X0463782Y0196776D02*
X0465157Y0196776D01*
X0436126Y0184969D02*
X0370449Y0184969D01*
X0369755Y0181034D02*
X0436805Y0181034D01*
X0410000Y0135000D02*
X0360000Y0165000D01*
X0350000Y0135000D02*
X-0090000Y0135000D01*
X-0090000Y0310000D01*
X-0170000Y0310000D01*
X-0080000Y0325000D02*
X-0080000Y0340000D01*
X-0030000Y0325000D02*
X-0020000Y0310000D01*
X0005000Y0310000D01*
X0005000Y0325000D01*
X0005000Y0317572D02*
X0005000Y0317572D01*
X0005000Y0317572D01*
X0005000Y0316031D01*
X0004530Y0316031D01*
X0004145Y0316092D01*
X0003701Y0315323D01*
X0001677Y0313299D01*
X-0000803Y0311867D01*
X-0003568Y0311126D01*
X-0006432Y0311126D01*
X-0009197Y0311867D01*
X-0011677Y0313299D01*
X-0013701Y0315323D01*
X-0015133Y0317803D01*
X-0015874Y0320568D01*
X-0015874Y0321955D01*
X-0024737Y0330818D01*
X-0024469Y0330291D01*
X-0024178Y0329398D01*
X-0024031Y0328470D01*
X-0024031Y0325000D01*
X-0029126Y0325000D01*
X-0029126Y0325000D01*
X-0024031Y0325000D01*
X-0024031Y0321530D01*
X-0024178Y0320602D01*
X-0024469Y0319709D01*
X-0024895Y0318872D01*
X-0025447Y0318112D01*
X-0026112Y0317447D01*
X-0026872Y0316895D01*
X-0027709Y0316469D01*
X-0028602Y0316178D01*
X-0029530Y0316031D01*
X-0030000Y0316031D01*
X-0030000Y0317572D01*
X-0030000Y0317573D01*
X-0030000Y0316031D01*
X-0030157Y0316031D01*
X-0030157Y0184843D01*
X0005157Y0184843D01*
X0005157Y0316031D01*
X0005000Y0316031D01*
X0005000Y0317572D01*
X0005157Y0314842D02*
X0003220Y0314842D01*
X0005157Y0310906D02*
X-0030157Y0310906D01*
X-0030157Y0306970D02*
X0005157Y0306970D01*
X0005157Y0303035D02*
X-0030157Y0303035D01*
X-0030157Y0299099D02*
X0005157Y0299099D01*
X0005157Y0295164D02*
X-0030157Y0295164D01*
X-0030157Y0291228D02*
X0005157Y0291228D01*
X0005157Y0287293D02*
X-0030157Y0287293D01*
X-0030157Y0283357D02*
X0005157Y0283357D01*
X0005157Y0279422D02*
X-0030157Y0279422D01*
X-0030157Y0275486D02*
X0005157Y0275486D01*
X0005157Y0271551D02*
X-0030157Y0271551D01*
X-0030157Y0267615D02*
X0005157Y0267615D01*
X0005157Y0263680D02*
X-0030157Y0263680D01*
X-0030157Y0259744D02*
X0005157Y0259744D01*
X0005157Y0255809D02*
X-0030157Y0255809D01*
X-0030157Y0251873D02*
X0005157Y0251873D01*
X0005157Y0247938D02*
X-0030157Y0247938D01*
X-0030157Y0244002D02*
X0005157Y0244002D01*
X0005157Y0240067D02*
X-0030157Y0240067D01*
X-0030157Y0236131D02*
X0005157Y0236131D01*
X0005157Y0232196D02*
X-0030157Y0232196D01*
X-0030157Y0228260D02*
X0005157Y0228260D01*
X0005157Y0224325D02*
X-0030157Y0224325D01*
X-0030157Y0220389D02*
X0005157Y0220389D01*
X0005157Y0216454D02*
X-0030157Y0216454D01*
X-0030157Y0212518D02*
X0005157Y0212518D01*
X0005157Y0208583D02*
X-0030157Y0208583D01*
X-0030157Y0204647D02*
X0005157Y0204647D01*
X0005157Y0200711D02*
X-0030157Y0200711D01*
X-0030157Y0196776D02*
X0005157Y0196776D01*
X0005157Y0192840D02*
X-0030157Y0192840D01*
X-0030157Y0188905D02*
X0005157Y0188905D01*
X0005157Y0184969D02*
X-0030157Y0184969D01*
X0055000Y0225000D02*
X0350000Y0225000D01*
X0404865Y0228260D02*
X0438362Y0228260D01*
X0436494Y0232196D02*
X0412080Y0232196D01*
X0455173Y0224325D02*
X0465157Y0224325D01*
X0465157Y0247938D02*
X0463470Y0247938D01*
X0463420Y0251873D02*
X0465157Y0251873D01*
X0465157Y0255809D02*
X0463874Y0255809D01*
X0462817Y0259744D02*
X0465157Y0259744D01*
X0460594Y0275486D02*
X0224406Y0275486D01*
X0228341Y0279422D02*
X0456659Y0279422D01*
X0452723Y0283357D02*
X0232277Y0283357D01*
X0236212Y0287293D02*
X0448788Y0287293D01*
X0444852Y0291228D02*
X0240148Y0291228D01*
X0215692Y0303035D02*
X0200898Y0303035D01*
X0204833Y0306970D02*
X0219627Y0306970D01*
X0223563Y0310906D02*
X0208769Y0310906D01*
X0208989Y0311126D02*
X0211432Y0311126D01*
X0214197Y0311867D01*
X0216677Y0313299D01*
X0218701Y0315323D01*
X0219145Y0316092D01*
X0219530Y0316031D01*
X0220000Y0316031D01*
X0220000Y0317572D01*
X0220000Y0317572D01*
X0220000Y0316031D01*
X0220470Y0316031D01*
X0220855Y0316092D01*
X0221299Y0315323D01*
X0223323Y0313299D01*
X0224992Y0312335D01*
X0189849Y0277192D01*
X0189849Y0291986D01*
X0208989Y0311126D01*
X0218220Y0314842D02*
X0221780Y0314842D01*
X0220000Y0317572D02*
X0220000Y0317572D01*
X0230000Y0325000D02*
X0232113Y0326854D01*
X0237630Y0332370D01*
X0232500Y0337500D01*
X0162087Y0330000D02*
X0161058Y0329222D01*
X0161058Y0265272D01*
X0160000Y0265000D01*
X0151584Y0265272D02*
X0150000Y0265000D01*
X0149551Y0265000D02*
X0140449Y0265000D01*
X0144457Y0265000D01*
X0149551Y0265000D01*
X0149551Y0265000D01*
X0150000Y0268050D02*
X0150000Y0270543D01*
X0150000Y0268051D01*
X0150000Y0268050D01*
X0151216Y0271551D02*
X0139843Y0271551D01*
X0140000Y0270543D02*
X0140000Y0268051D01*
X0140000Y0268050D01*
X0140000Y0270543D01*
X0139843Y0275486D02*
X0151216Y0275486D01*
X0151216Y0279422D02*
X0139843Y0279422D01*
X0139843Y0283357D02*
X0151216Y0283357D01*
X0151216Y0287293D02*
X0139843Y0287293D01*
X0139843Y0291228D02*
X0151216Y0291228D01*
X0151216Y0295164D02*
X0139843Y0295164D01*
X0139843Y0299099D02*
X0151216Y0299099D01*
X0151216Y0303035D02*
X0139843Y0303035D01*
X0139843Y0306970D02*
X0151216Y0306970D01*
X0151216Y0310906D02*
X0139843Y0310906D01*
X0139843Y0314842D02*
X0151216Y0314842D01*
X0151216Y0318777D02*
X0139843Y0318777D01*
X0139843Y0322713D02*
X0151216Y0322713D01*
X0151216Y0323337D02*
X0150648Y0323102D01*
X0149728Y0322856D01*
X0148783Y0322731D01*
X0148307Y0322731D01*
X0148307Y0330000D01*
X0149216Y0331591D01*
X0148307Y0331591D01*
X0148307Y0330584D02*
X0148307Y0330584D01*
X0148307Y0330000D02*
X0148307Y0337268D01*
X0148307Y0330000D01*
X0148307Y0330000D01*
X0148307Y0330000D01*
X0150400Y0328038D02*
X0149216Y0326854D01*
X0148307Y0326648D02*
X0148307Y0326648D01*
X0141849Y0326648D02*
X0139843Y0326648D01*
X0139843Y0330584D02*
X0141053Y0330584D01*
X0139843Y0334519D02*
X0142613Y0334519D01*
X0139843Y0338455D02*
X0153325Y0338455D01*
X0148307Y0334519D02*
X0148307Y0334519D01*
X0130000Y0350000D02*
X0130000Y0265000D01*
X0140449Y0265000D02*
X0140449Y0265000D01*
X0144889Y0267615D02*
X0145111Y0267615D01*
X0164978Y0255809D02*
X0175022Y0255809D01*
X0170969Y0259744D02*
X0169422Y0259744D01*
X0184978Y0255809D02*
X0185022Y0255809D01*
X0189849Y0279422D02*
X0192079Y0279422D01*
X0189849Y0283357D02*
X0196014Y0283357D01*
X0199950Y0287293D02*
X0189849Y0287293D01*
X0189849Y0291228D02*
X0203885Y0291228D01*
X0207821Y0295164D02*
X0193027Y0295164D01*
X0196962Y0299099D02*
X0211756Y0299099D01*
X0120157Y0330584D02*
X0065565Y0330584D01*
X0063792Y0334519D02*
X0120157Y0334519D01*
X0120157Y0338455D02*
X0057997Y0338455D01*
X0052003Y0338455D02*
X0047997Y0338455D01*
X0042003Y0338455D02*
X0037997Y0338455D01*
X0032003Y0338455D02*
X0027997Y0338455D01*
X0022003Y0338455D02*
X0017997Y0338455D01*
X0012003Y0338455D02*
X0004843Y0338455D01*
X0004843Y0334519D02*
X0006208Y0334519D01*
X-0016632Y0322713D02*
X-0024031Y0322713D01*
X-0024031Y0326648D02*
X-0020568Y0326648D01*
X-0024503Y0330584D02*
X-0024618Y0330584D01*
X-0024964Y0318777D02*
X-0015394Y0318777D01*
X-0013220Y0314842D02*
X-0030157Y0314842D01*
X0313221Y0314843D02*
X0313701Y0315323D01*
X0314145Y0316092D01*
X0314530Y0316031D01*
X0315000Y0316031D01*
X0315000Y0317572D01*
X0315000Y0317572D01*
X0315000Y0316031D01*
X0315470Y0316031D01*
X0315855Y0316092D01*
X0316299Y0315323D01*
X0316779Y0314843D01*
X0313221Y0314843D01*
X0315000Y0317572D02*
X0315000Y0317572D01*
X0325000Y0325000D02*
X0324485Y0326854D01*
X0324485Y0335515D01*
X0320000Y0340000D01*
X0471703Y0330584D02*
X0475983Y0330584D01*
X0557268Y0326648D02*
X0582047Y0326648D01*
X0582047Y0322713D02*
X0557375Y0322713D01*
X0560672Y0318777D02*
X0582047Y0318777D01*
X0582047Y0314842D02*
X0562087Y0314842D01*
X0562066Y0310906D02*
X0582047Y0310906D01*
X0210000Y0075000D02*
X0210000Y0000000D01*
X0220000Y0000000D01*
X0220000Y-0010000D01*
X0175157Y-0019678D02*
X0174248Y-0019678D01*
X0175157Y-0023613D02*
X0170874Y-0023613D01*
X0169930Y-0027549D02*
X0175157Y-0027549D01*
X0175157Y-0031484D02*
X0166894Y-0031484D01*
X0160000Y-0020000D02*
X0161058Y-0018948D01*
X0168164Y-0011843D01*
X0168164Y0073424D01*
X0170000Y0075000D01*
X0160000Y0075000D02*
X0158690Y0073424D01*
X0158690Y-0009474D01*
X0149216Y-0018948D01*
X0150000Y-0020000D01*
X0144479Y-0014211D02*
X0139742Y-0018948D01*
X0140000Y-0020000D01*
X0144479Y-0014211D02*
X0144479Y0073424D01*
X0145000Y0075000D01*
X0135000Y0075000D02*
X0135005Y0073424D01*
X0135005Y-0011843D01*
X0127899Y-0018948D01*
X0130000Y-0020000D01*
X0123162Y-0016580D02*
X0120794Y-0018948D01*
X0120000Y-0020000D01*
X0123162Y-0016580D02*
X0123162Y0073424D01*
X0125000Y0075000D01*
X0115000Y0075000D02*
X0115000Y0035000D01*
X0085000Y0035000D01*
X0071790Y0007871D02*
X0113320Y0007871D01*
X0113320Y0003936D02*
X0067855Y0003936D01*
X0063919Y0000000D02*
X0113320Y0000000D01*
X0113320Y-0003936D02*
X0059984Y-0003936D01*
X0056048Y-0007871D02*
X0094064Y-0007871D01*
X0105936Y-0007871D02*
X0113320Y-0007871D01*
X0110000Y-0011807D02*
X0110000Y-0011807D01*
X0110000Y-0012572D02*
X0110000Y-0012572D01*
X0110000Y-0012572D01*
X0100000Y-0020000D02*
X0055000Y-0020000D01*
X0020000Y-0045000D01*
X-0205000Y-0045000D01*
D15*
X-0080000Y0010000D03*
X-0080000Y0050000D03*
X-0150000Y0085000D03*
X0085000Y0005000D03*
X0260000Y-0010000D03*
X0260000Y-0020000D03*
X0295000Y-0040000D03*
X0350000Y-0045000D03*
X0325000Y0010000D03*
X0330000Y0020000D03*
X0335000Y0035000D03*
X0335000Y0045000D03*
X0445000Y0095000D03*
X0470000Y0050000D03*
X0480000Y0040000D03*
X0465000Y0020000D03*
X0530000Y0000000D03*
X0515000Y-0025000D03*
X0530000Y0165000D03*
X0565000Y0165000D03*
X0205000Y0300000D03*
X-0135000Y0240000D03*
M02*
