G75*
%MOIN*%
%OFA0B0*%
%FSLAX25Y25*%
%IPPOS*%
%LPD*%
%AMOC8*
5,1,8,0,0,1.08239X$1,22.5*
%
%ADD10C,0.00000*%
%ADD11C,0.00600*%
%ADD12C,0.00400*%
%ADD13R,0.02000X0.02000*%
%ADD14C,0.00500*%
D10*
X-0235000Y-0060000D02*
X-0235000Y0358701D01*
X0589921Y0358701D01*
X0589921Y-0060000D01*
X-0235000Y-0060000D01*
X-0223937Y-0045000D02*
X-0223935Y-0044875D01*
X-0223929Y-0044750D01*
X-0223919Y-0044626D01*
X-0223905Y-0044502D01*
X-0223888Y-0044378D01*
X-0223866Y-0044255D01*
X-0223840Y-0044133D01*
X-0223811Y-0044011D01*
X-0223778Y-0043891D01*
X-0223740Y-0043772D01*
X-0223700Y-0043653D01*
X-0223655Y-0043537D01*
X-0223607Y-0043422D01*
X-0223555Y-0043308D01*
X-0223499Y-0043196D01*
X-0223440Y-0043086D01*
X-0223378Y-0042978D01*
X-0223312Y-0042871D01*
X-0223243Y-0042767D01*
X-0223170Y-0042666D01*
X-0223095Y-0042566D01*
X-0223016Y-0042469D01*
X-0222934Y-0042375D01*
X-0222849Y-0042283D01*
X-0222762Y-0042194D01*
X-0222671Y-0042108D01*
X-0222578Y-0042025D01*
X-0222482Y-0041944D01*
X-0222384Y-0041867D01*
X-0222284Y-0041793D01*
X-0222181Y-0041722D01*
X-0222076Y-0041655D01*
X-0221968Y-0041590D01*
X-0221859Y-0041530D01*
X-0221748Y-0041472D01*
X-0221635Y-0041419D01*
X-0221521Y-0041369D01*
X-0221405Y-0041322D01*
X-0221288Y-0041280D01*
X-0221169Y-0041241D01*
X-0221049Y-0041205D01*
X-0220928Y-0041174D01*
X-0220806Y-0041146D01*
X-0220684Y-0041123D01*
X-0220560Y-0041103D01*
X-0220436Y-0041087D01*
X-0220312Y-0041075D01*
X-0220187Y-0041067D01*
X-0220062Y-0041063D01*
X-0219938Y-0041063D01*
X-0219813Y-0041067D01*
X-0219688Y-0041075D01*
X-0219564Y-0041087D01*
X-0219440Y-0041103D01*
X-0219316Y-0041123D01*
X-0219194Y-0041146D01*
X-0219072Y-0041174D01*
X-0218951Y-0041205D01*
X-0218831Y-0041241D01*
X-0218712Y-0041280D01*
X-0218595Y-0041322D01*
X-0218479Y-0041369D01*
X-0218365Y-0041419D01*
X-0218252Y-0041472D01*
X-0218141Y-0041530D01*
X-0218031Y-0041590D01*
X-0217924Y-0041655D01*
X-0217819Y-0041722D01*
X-0217716Y-0041793D01*
X-0217616Y-0041867D01*
X-0217518Y-0041944D01*
X-0217422Y-0042025D01*
X-0217329Y-0042108D01*
X-0217238Y-0042194D01*
X-0217151Y-0042283D01*
X-0217066Y-0042375D01*
X-0216984Y-0042469D01*
X-0216905Y-0042566D01*
X-0216830Y-0042666D01*
X-0216757Y-0042767D01*
X-0216688Y-0042871D01*
X-0216622Y-0042978D01*
X-0216560Y-0043086D01*
X-0216501Y-0043196D01*
X-0216445Y-0043308D01*
X-0216393Y-0043422D01*
X-0216345Y-0043537D01*
X-0216300Y-0043653D01*
X-0216260Y-0043772D01*
X-0216222Y-0043891D01*
X-0216189Y-0044011D01*
X-0216160Y-0044133D01*
X-0216134Y-0044255D01*
X-0216112Y-0044378D01*
X-0216095Y-0044502D01*
X-0216081Y-0044626D01*
X-0216071Y-0044750D01*
X-0216065Y-0044875D01*
X-0216063Y-0045000D01*
X-0216065Y-0045125D01*
X-0216071Y-0045250D01*
X-0216081Y-0045374D01*
X-0216095Y-0045498D01*
X-0216112Y-0045622D01*
X-0216134Y-0045745D01*
X-0216160Y-0045867D01*
X-0216189Y-0045989D01*
X-0216222Y-0046109D01*
X-0216260Y-0046228D01*
X-0216300Y-0046347D01*
X-0216345Y-0046463D01*
X-0216393Y-0046578D01*
X-0216445Y-0046692D01*
X-0216501Y-0046804D01*
X-0216560Y-0046914D01*
X-0216622Y-0047022D01*
X-0216688Y-0047129D01*
X-0216757Y-0047233D01*
X-0216830Y-0047334D01*
X-0216905Y-0047434D01*
X-0216984Y-0047531D01*
X-0217066Y-0047625D01*
X-0217151Y-0047717D01*
X-0217238Y-0047806D01*
X-0217329Y-0047892D01*
X-0217422Y-0047975D01*
X-0217518Y-0048056D01*
X-0217616Y-0048133D01*
X-0217716Y-0048207D01*
X-0217819Y-0048278D01*
X-0217924Y-0048345D01*
X-0218032Y-0048410D01*
X-0218141Y-0048470D01*
X-0218252Y-0048528D01*
X-0218365Y-0048581D01*
X-0218479Y-0048631D01*
X-0218595Y-0048678D01*
X-0218712Y-0048720D01*
X-0218831Y-0048759D01*
X-0218951Y-0048795D01*
X-0219072Y-0048826D01*
X-0219194Y-0048854D01*
X-0219316Y-0048877D01*
X-0219440Y-0048897D01*
X-0219564Y-0048913D01*
X-0219688Y-0048925D01*
X-0219813Y-0048933D01*
X-0219938Y-0048937D01*
X-0220062Y-0048937D01*
X-0220187Y-0048933D01*
X-0220312Y-0048925D01*
X-0220436Y-0048913D01*
X-0220560Y-0048897D01*
X-0220684Y-0048877D01*
X-0220806Y-0048854D01*
X-0220928Y-0048826D01*
X-0221049Y-0048795D01*
X-0221169Y-0048759D01*
X-0221288Y-0048720D01*
X-0221405Y-0048678D01*
X-0221521Y-0048631D01*
X-0221635Y-0048581D01*
X-0221748Y-0048528D01*
X-0221859Y-0048470D01*
X-0221969Y-0048410D01*
X-0222076Y-0048345D01*
X-0222181Y-0048278D01*
X-0222284Y-0048207D01*
X-0222384Y-0048133D01*
X-0222482Y-0048056D01*
X-0222578Y-0047975D01*
X-0222671Y-0047892D01*
X-0222762Y-0047806D01*
X-0222849Y-0047717D01*
X-0222934Y-0047625D01*
X-0223016Y-0047531D01*
X-0223095Y-0047434D01*
X-0223170Y-0047334D01*
X-0223243Y-0047233D01*
X-0223312Y-0047129D01*
X-0223378Y-0047022D01*
X-0223440Y-0046914D01*
X-0223499Y-0046804D01*
X-0223555Y-0046692D01*
X-0223607Y-0046578D01*
X-0223655Y-0046463D01*
X-0223700Y-0046347D01*
X-0223740Y-0046228D01*
X-0223778Y-0046109D01*
X-0223811Y-0045989D01*
X-0223840Y-0045867D01*
X-0223866Y-0045745D01*
X-0223888Y-0045622D01*
X-0223905Y-0045498D01*
X-0223919Y-0045374D01*
X-0223929Y-0045250D01*
X-0223935Y-0045125D01*
X-0223937Y-0045000D01*
X-0223150Y0345000D02*
X-0223148Y0345112D01*
X-0223142Y0345223D01*
X-0223132Y0345335D01*
X-0223118Y0345446D01*
X-0223101Y0345556D01*
X-0223079Y0345666D01*
X-0223053Y0345775D01*
X-0223024Y0345883D01*
X-0222991Y0345989D01*
X-0222954Y0346095D01*
X-0222913Y0346199D01*
X-0222868Y0346302D01*
X-0222820Y0346403D01*
X-0222769Y0346502D01*
X-0222714Y0346599D01*
X-0222655Y0346694D01*
X-0222594Y0346788D01*
X-0222529Y0346879D01*
X-0222460Y0346967D01*
X-0222389Y0347053D01*
X-0222315Y0347137D01*
X-0222237Y0347217D01*
X-0222157Y0347295D01*
X-0222074Y0347371D01*
X-0221989Y0347443D01*
X-0221901Y0347512D01*
X-0221811Y0347578D01*
X-0221718Y0347640D01*
X-0221623Y0347700D01*
X-0221526Y0347756D01*
X-0221428Y0347808D01*
X-0221327Y0347857D01*
X-0221225Y0347902D01*
X-0221121Y0347944D01*
X-0221016Y0347982D01*
X-0220909Y0348016D01*
X-0220802Y0348046D01*
X-0220693Y0348073D01*
X-0220584Y0348095D01*
X-0220473Y0348114D01*
X-0220363Y0348129D01*
X-0220251Y0348140D01*
X-0220140Y0348147D01*
X-0220028Y0348150D01*
X-0219916Y0348149D01*
X-0219804Y0348144D01*
X-0219693Y0348135D01*
X-0219582Y0348122D01*
X-0219471Y0348105D01*
X-0219361Y0348085D01*
X-0219252Y0348060D01*
X-0219144Y0348032D01*
X-0219037Y0347999D01*
X-0218931Y0347963D01*
X-0218827Y0347923D01*
X-0218724Y0347880D01*
X-0218622Y0347833D01*
X-0218523Y0347782D01*
X-0218425Y0347728D01*
X-0218329Y0347670D01*
X-0218235Y0347609D01*
X-0218144Y0347545D01*
X-0218055Y0347478D01*
X-0217968Y0347407D01*
X-0217884Y0347333D01*
X-0217802Y0347257D01*
X-0217724Y0347177D01*
X-0217648Y0347095D01*
X-0217575Y0347010D01*
X-0217505Y0346923D01*
X-0217439Y0346833D01*
X-0217375Y0346741D01*
X-0217315Y0346647D01*
X-0217258Y0346551D01*
X-0217205Y0346452D01*
X-0217155Y0346352D01*
X-0217109Y0346251D01*
X-0217066Y0346147D01*
X-0217027Y0346042D01*
X-0216992Y0345936D01*
X-0216961Y0345829D01*
X-0216933Y0345720D01*
X-0216910Y0345611D01*
X-0216890Y0345501D01*
X-0216874Y0345390D01*
X-0216862Y0345279D01*
X-0216854Y0345168D01*
X-0216850Y0345056D01*
X-0216850Y0344944D01*
X-0216854Y0344832D01*
X-0216862Y0344721D01*
X-0216874Y0344610D01*
X-0216890Y0344499D01*
X-0216910Y0344389D01*
X-0216933Y0344280D01*
X-0216961Y0344171D01*
X-0216992Y0344064D01*
X-0217027Y0343958D01*
X-0217066Y0343853D01*
X-0217109Y0343749D01*
X-0217155Y0343648D01*
X-0217205Y0343548D01*
X-0217258Y0343449D01*
X-0217315Y0343353D01*
X-0217375Y0343259D01*
X-0217439Y0343167D01*
X-0217505Y0343077D01*
X-0217575Y0342990D01*
X-0217648Y0342905D01*
X-0217724Y0342823D01*
X-0217802Y0342743D01*
X-0217884Y0342667D01*
X-0217968Y0342593D01*
X-0218055Y0342522D01*
X-0218144Y0342455D01*
X-0218235Y0342391D01*
X-0218329Y0342330D01*
X-0218425Y0342272D01*
X-0218523Y0342218D01*
X-0218622Y0342167D01*
X-0218724Y0342120D01*
X-0218827Y0342077D01*
X-0218931Y0342037D01*
X-0219037Y0342001D01*
X-0219144Y0341968D01*
X-0219252Y0341940D01*
X-0219361Y0341915D01*
X-0219471Y0341895D01*
X-0219582Y0341878D01*
X-0219693Y0341865D01*
X-0219804Y0341856D01*
X-0219916Y0341851D01*
X-0220028Y0341850D01*
X-0220140Y0341853D01*
X-0220251Y0341860D01*
X-0220363Y0341871D01*
X-0220473Y0341886D01*
X-0220584Y0341905D01*
X-0220693Y0341927D01*
X-0220802Y0341954D01*
X-0220909Y0341984D01*
X-0221016Y0342018D01*
X-0221121Y0342056D01*
X-0221225Y0342098D01*
X-0221327Y0342143D01*
X-0221428Y0342192D01*
X-0221526Y0342244D01*
X-0221623Y0342300D01*
X-0221718Y0342360D01*
X-0221811Y0342422D01*
X-0221901Y0342488D01*
X-0221989Y0342557D01*
X-0222074Y0342629D01*
X-0222157Y0342705D01*
X-0222237Y0342783D01*
X-0222315Y0342863D01*
X-0222389Y0342947D01*
X-0222460Y0343033D01*
X-0222529Y0343121D01*
X-0222594Y0343212D01*
X-0222655Y0343306D01*
X-0222714Y0343401D01*
X-0222769Y0343498D01*
X-0222820Y0343597D01*
X-0222868Y0343698D01*
X-0222913Y0343801D01*
X-0222954Y0343905D01*
X-0222991Y0344011D01*
X-0223024Y0344117D01*
X-0223053Y0344225D01*
X-0223079Y0344334D01*
X-0223101Y0344444D01*
X-0223118Y0344554D01*
X-0223132Y0344665D01*
X-0223142Y0344777D01*
X-0223148Y0344888D01*
X-0223150Y0345000D01*
X0566063Y0345000D02*
X0566065Y0345125D01*
X0566071Y0345250D01*
X0566081Y0345374D01*
X0566095Y0345498D01*
X0566112Y0345622D01*
X0566134Y0345745D01*
X0566160Y0345867D01*
X0566189Y0345989D01*
X0566222Y0346109D01*
X0566260Y0346228D01*
X0566300Y0346347D01*
X0566345Y0346463D01*
X0566393Y0346578D01*
X0566445Y0346692D01*
X0566501Y0346804D01*
X0566560Y0346914D01*
X0566622Y0347022D01*
X0566688Y0347129D01*
X0566757Y0347233D01*
X0566830Y0347334D01*
X0566905Y0347434D01*
X0566984Y0347531D01*
X0567066Y0347625D01*
X0567151Y0347717D01*
X0567238Y0347806D01*
X0567329Y0347892D01*
X0567422Y0347975D01*
X0567518Y0348056D01*
X0567616Y0348133D01*
X0567716Y0348207D01*
X0567819Y0348278D01*
X0567924Y0348345D01*
X0568032Y0348410D01*
X0568141Y0348470D01*
X0568252Y0348528D01*
X0568365Y0348581D01*
X0568479Y0348631D01*
X0568595Y0348678D01*
X0568712Y0348720D01*
X0568831Y0348759D01*
X0568951Y0348795D01*
X0569072Y0348826D01*
X0569194Y0348854D01*
X0569316Y0348877D01*
X0569440Y0348897D01*
X0569564Y0348913D01*
X0569688Y0348925D01*
X0569813Y0348933D01*
X0569938Y0348937D01*
X0570062Y0348937D01*
X0570187Y0348933D01*
X0570312Y0348925D01*
X0570436Y0348913D01*
X0570560Y0348897D01*
X0570684Y0348877D01*
X0570806Y0348854D01*
X0570928Y0348826D01*
X0571049Y0348795D01*
X0571169Y0348759D01*
X0571288Y0348720D01*
X0571405Y0348678D01*
X0571521Y0348631D01*
X0571635Y0348581D01*
X0571748Y0348528D01*
X0571859Y0348470D01*
X0571969Y0348410D01*
X0572076Y0348345D01*
X0572181Y0348278D01*
X0572284Y0348207D01*
X0572384Y0348133D01*
X0572482Y0348056D01*
X0572578Y0347975D01*
X0572671Y0347892D01*
X0572762Y0347806D01*
X0572849Y0347717D01*
X0572934Y0347625D01*
X0573016Y0347531D01*
X0573095Y0347434D01*
X0573170Y0347334D01*
X0573243Y0347233D01*
X0573312Y0347129D01*
X0573378Y0347022D01*
X0573440Y0346914D01*
X0573499Y0346804D01*
X0573555Y0346692D01*
X0573607Y0346578D01*
X0573655Y0346463D01*
X0573700Y0346347D01*
X0573740Y0346228D01*
X0573778Y0346109D01*
X0573811Y0345989D01*
X0573840Y0345867D01*
X0573866Y0345745D01*
X0573888Y0345622D01*
X0573905Y0345498D01*
X0573919Y0345374D01*
X0573929Y0345250D01*
X0573935Y0345125D01*
X0573937Y0345000D01*
X0573935Y0344875D01*
X0573929Y0344750D01*
X0573919Y0344626D01*
X0573905Y0344502D01*
X0573888Y0344378D01*
X0573866Y0344255D01*
X0573840Y0344133D01*
X0573811Y0344011D01*
X0573778Y0343891D01*
X0573740Y0343772D01*
X0573700Y0343653D01*
X0573655Y0343537D01*
X0573607Y0343422D01*
X0573555Y0343308D01*
X0573499Y0343196D01*
X0573440Y0343086D01*
X0573378Y0342978D01*
X0573312Y0342871D01*
X0573243Y0342767D01*
X0573170Y0342666D01*
X0573095Y0342566D01*
X0573016Y0342469D01*
X0572934Y0342375D01*
X0572849Y0342283D01*
X0572762Y0342194D01*
X0572671Y0342108D01*
X0572578Y0342025D01*
X0572482Y0341944D01*
X0572384Y0341867D01*
X0572284Y0341793D01*
X0572181Y0341722D01*
X0572076Y0341655D01*
X0571968Y0341590D01*
X0571859Y0341530D01*
X0571748Y0341472D01*
X0571635Y0341419D01*
X0571521Y0341369D01*
X0571405Y0341322D01*
X0571288Y0341280D01*
X0571169Y0341241D01*
X0571049Y0341205D01*
X0570928Y0341174D01*
X0570806Y0341146D01*
X0570684Y0341123D01*
X0570560Y0341103D01*
X0570436Y0341087D01*
X0570312Y0341075D01*
X0570187Y0341067D01*
X0570062Y0341063D01*
X0569938Y0341063D01*
X0569813Y0341067D01*
X0569688Y0341075D01*
X0569564Y0341087D01*
X0569440Y0341103D01*
X0569316Y0341123D01*
X0569194Y0341146D01*
X0569072Y0341174D01*
X0568951Y0341205D01*
X0568831Y0341241D01*
X0568712Y0341280D01*
X0568595Y0341322D01*
X0568479Y0341369D01*
X0568365Y0341419D01*
X0568252Y0341472D01*
X0568141Y0341530D01*
X0568031Y0341590D01*
X0567924Y0341655D01*
X0567819Y0341722D01*
X0567716Y0341793D01*
X0567616Y0341867D01*
X0567518Y0341944D01*
X0567422Y0342025D01*
X0567329Y0342108D01*
X0567238Y0342194D01*
X0567151Y0342283D01*
X0567066Y0342375D01*
X0566984Y0342469D01*
X0566905Y0342566D01*
X0566830Y0342666D01*
X0566757Y0342767D01*
X0566688Y0342871D01*
X0566622Y0342978D01*
X0566560Y0343086D01*
X0566501Y0343196D01*
X0566445Y0343308D01*
X0566393Y0343422D01*
X0566345Y0343537D01*
X0566300Y0343653D01*
X0566260Y0343772D01*
X0566222Y0343891D01*
X0566189Y0344011D01*
X0566160Y0344133D01*
X0566134Y0344255D01*
X0566112Y0344378D01*
X0566095Y0344502D01*
X0566081Y0344626D01*
X0566071Y0344750D01*
X0566065Y0344875D01*
X0566063Y0345000D01*
X0566063Y-0045000D02*
X0566065Y-0044875D01*
X0566071Y-0044750D01*
X0566081Y-0044626D01*
X0566095Y-0044502D01*
X0566112Y-0044378D01*
X0566134Y-0044255D01*
X0566160Y-0044133D01*
X0566189Y-0044011D01*
X0566222Y-0043891D01*
X0566260Y-0043772D01*
X0566300Y-0043653D01*
X0566345Y-0043537D01*
X0566393Y-0043422D01*
X0566445Y-0043308D01*
X0566501Y-0043196D01*
X0566560Y-0043086D01*
X0566622Y-0042978D01*
X0566688Y-0042871D01*
X0566757Y-0042767D01*
X0566830Y-0042666D01*
X0566905Y-0042566D01*
X0566984Y-0042469D01*
X0567066Y-0042375D01*
X0567151Y-0042283D01*
X0567238Y-0042194D01*
X0567329Y-0042108D01*
X0567422Y-0042025D01*
X0567518Y-0041944D01*
X0567616Y-0041867D01*
X0567716Y-0041793D01*
X0567819Y-0041722D01*
X0567924Y-0041655D01*
X0568032Y-0041590D01*
X0568141Y-0041530D01*
X0568252Y-0041472D01*
X0568365Y-0041419D01*
X0568479Y-0041369D01*
X0568595Y-0041322D01*
X0568712Y-0041280D01*
X0568831Y-0041241D01*
X0568951Y-0041205D01*
X0569072Y-0041174D01*
X0569194Y-0041146D01*
X0569316Y-0041123D01*
X0569440Y-0041103D01*
X0569564Y-0041087D01*
X0569688Y-0041075D01*
X0569813Y-0041067D01*
X0569938Y-0041063D01*
X0570062Y-0041063D01*
X0570187Y-0041067D01*
X0570312Y-0041075D01*
X0570436Y-0041087D01*
X0570560Y-0041103D01*
X0570684Y-0041123D01*
X0570806Y-0041146D01*
X0570928Y-0041174D01*
X0571049Y-0041205D01*
X0571169Y-0041241D01*
X0571288Y-0041280D01*
X0571405Y-0041322D01*
X0571521Y-0041369D01*
X0571635Y-0041419D01*
X0571748Y-0041472D01*
X0571859Y-0041530D01*
X0571969Y-0041590D01*
X0572076Y-0041655D01*
X0572181Y-0041722D01*
X0572284Y-0041793D01*
X0572384Y-0041867D01*
X0572482Y-0041944D01*
X0572578Y-0042025D01*
X0572671Y-0042108D01*
X0572762Y-0042194D01*
X0572849Y-0042283D01*
X0572934Y-0042375D01*
X0573016Y-0042469D01*
X0573095Y-0042566D01*
X0573170Y-0042666D01*
X0573243Y-0042767D01*
X0573312Y-0042871D01*
X0573378Y-0042978D01*
X0573440Y-0043086D01*
X0573499Y-0043196D01*
X0573555Y-0043308D01*
X0573607Y-0043422D01*
X0573655Y-0043537D01*
X0573700Y-0043653D01*
X0573740Y-0043772D01*
X0573778Y-0043891D01*
X0573811Y-0044011D01*
X0573840Y-0044133D01*
X0573866Y-0044255D01*
X0573888Y-0044378D01*
X0573905Y-0044502D01*
X0573919Y-0044626D01*
X0573929Y-0044750D01*
X0573935Y-0044875D01*
X0573937Y-0045000D01*
X0573935Y-0045125D01*
X0573929Y-0045250D01*
X0573919Y-0045374D01*
X0573905Y-0045498D01*
X0573888Y-0045622D01*
X0573866Y-0045745D01*
X0573840Y-0045867D01*
X0573811Y-0045989D01*
X0573778Y-0046109D01*
X0573740Y-0046228D01*
X0573700Y-0046347D01*
X0573655Y-0046463D01*
X0573607Y-0046578D01*
X0573555Y-0046692D01*
X0573499Y-0046804D01*
X0573440Y-0046914D01*
X0573378Y-0047022D01*
X0573312Y-0047129D01*
X0573243Y-0047233D01*
X0573170Y-0047334D01*
X0573095Y-0047434D01*
X0573016Y-0047531D01*
X0572934Y-0047625D01*
X0572849Y-0047717D01*
X0572762Y-0047806D01*
X0572671Y-0047892D01*
X0572578Y-0047975D01*
X0572482Y-0048056D01*
X0572384Y-0048133D01*
X0572284Y-0048207D01*
X0572181Y-0048278D01*
X0572076Y-0048345D01*
X0571968Y-0048410D01*
X0571859Y-0048470D01*
X0571748Y-0048528D01*
X0571635Y-0048581D01*
X0571521Y-0048631D01*
X0571405Y-0048678D01*
X0571288Y-0048720D01*
X0571169Y-0048759D01*
X0571049Y-0048795D01*
X0570928Y-0048826D01*
X0570806Y-0048854D01*
X0570684Y-0048877D01*
X0570560Y-0048897D01*
X0570436Y-0048913D01*
X0570312Y-0048925D01*
X0570187Y-0048933D01*
X0570062Y-0048937D01*
X0569938Y-0048937D01*
X0569813Y-0048933D01*
X0569688Y-0048925D01*
X0569564Y-0048913D01*
X0569440Y-0048897D01*
X0569316Y-0048877D01*
X0569194Y-0048854D01*
X0569072Y-0048826D01*
X0568951Y-0048795D01*
X0568831Y-0048759D01*
X0568712Y-0048720D01*
X0568595Y-0048678D01*
X0568479Y-0048631D01*
X0568365Y-0048581D01*
X0568252Y-0048528D01*
X0568141Y-0048470D01*
X0568031Y-0048410D01*
X0567924Y-0048345D01*
X0567819Y-0048278D01*
X0567716Y-0048207D01*
X0567616Y-0048133D01*
X0567518Y-0048056D01*
X0567422Y-0047975D01*
X0567329Y-0047892D01*
X0567238Y-0047806D01*
X0567151Y-0047717D01*
X0567066Y-0047625D01*
X0566984Y-0047531D01*
X0566905Y-0047434D01*
X0566830Y-0047334D01*
X0566757Y-0047233D01*
X0566688Y-0047129D01*
X0566622Y-0047022D01*
X0566560Y-0046914D01*
X0566501Y-0046804D01*
X0566445Y-0046692D01*
X0566393Y-0046578D01*
X0566345Y-0046463D01*
X0566300Y-0046347D01*
X0566260Y-0046228D01*
X0566222Y-0046109D01*
X0566189Y-0045989D01*
X0566160Y-0045867D01*
X0566134Y-0045745D01*
X0566112Y-0045622D01*
X0566095Y-0045498D01*
X0566081Y-0045374D01*
X0566071Y-0045250D01*
X0566065Y-0045125D01*
X0566063Y-0045000D01*
D11*
X0095000Y-0025000D02*
X0095000Y-0015000D01*
X0165000Y-0015000D01*
X0165000Y-0025000D01*
X0165000Y-0027500D01*
X0095000Y-0027500D01*
X0095000Y-0025000D01*
X0165000Y-0025000D01*
X0205000Y-0025000D02*
X0205000Y-0027500D01*
X0255000Y-0027500D01*
X0255000Y-0025000D01*
X0205000Y-0025000D01*
X0205000Y-0015000D01*
X0255000Y-0015000D01*
X0255000Y-0025000D01*
X0255000Y-0015000D02*
X0205000Y-0015000D01*
X0205000Y-0005000D01*
X0205000Y-0002500D01*
X0255000Y-0002500D01*
X0255000Y-0005000D01*
X0255000Y-0015000D01*
X0255000Y-0005000D02*
X0205000Y-0005000D01*
X0335000Y-0005000D02*
X0335000Y-0015000D01*
X0385000Y-0015000D01*
X0385000Y-0025000D01*
X0385000Y-0027500D01*
X0335000Y-0027500D01*
X0335000Y-0025000D01*
X0335000Y-0015000D01*
X0385000Y-0015000D01*
X0385000Y-0005000D01*
X0385000Y-0002500D01*
X0335000Y-0002500D01*
X0335000Y-0005000D01*
X0385000Y-0005000D01*
X0385000Y-0025000D02*
X0335000Y-0025000D01*
X0497500Y0015000D02*
X0497500Y0065000D01*
X0500000Y0065000D01*
X0510000Y0065000D01*
X0510000Y0015000D01*
X0520000Y0015000D01*
X0522500Y0015000D01*
X0522500Y0065000D01*
X0520000Y0065000D01*
X0520000Y0015000D01*
X0510000Y0015000D02*
X0510000Y0065000D01*
X0520000Y0065000D01*
X0500000Y0065000D02*
X0500000Y0015000D01*
X0497500Y0015000D01*
X0500000Y0015000D02*
X0510000Y0015000D01*
X0510000Y0120000D02*
X0500000Y0120000D01*
X0497500Y0120000D01*
X0497500Y0170000D01*
X0500000Y0170000D01*
X0510000Y0170000D01*
X0510000Y0120000D01*
X0520000Y0120000D01*
X0522500Y0120000D01*
X0522500Y0170000D01*
X0520000Y0170000D01*
X0520000Y0120000D01*
X0510000Y0120000D02*
X0510000Y0170000D01*
X0520000Y0170000D01*
X0500000Y0170000D02*
X0500000Y0120000D01*
X0457500Y0180000D02*
X0455000Y0180000D01*
X0445000Y0180000D01*
X0445000Y0220000D01*
X0455000Y0220000D01*
X0457500Y0220000D01*
X0457500Y0180000D01*
X0455000Y0180000D02*
X0455000Y0220000D01*
X0455000Y0230000D02*
X0445000Y0230000D01*
X0445000Y0270000D01*
X0455000Y0270000D01*
X0457500Y0270000D01*
X0457500Y0230000D01*
X0455000Y0230000D01*
X0455000Y0270000D01*
X0430000Y0320000D02*
X0400000Y0320000D01*
X0400000Y0330000D01*
X0400000Y0332500D01*
X0430000Y0332500D01*
X0430000Y0330000D01*
X0430000Y0320000D01*
X0430000Y0330000D02*
X0400000Y0330000D01*
X0330000Y0330000D02*
X0330000Y0320000D01*
X0300000Y0320000D01*
X0300000Y0330000D01*
X0300000Y0332500D01*
X0330000Y0332500D01*
X0330000Y0330000D01*
X0300000Y0330000D01*
X0235000Y0330000D02*
X0235000Y0320000D01*
X0205000Y0320000D01*
X0205000Y0330000D01*
X0205000Y0332500D01*
X0235000Y0332500D01*
X0235000Y0330000D01*
X0205000Y0330000D01*
X0060000Y0330000D02*
X0060000Y0320000D01*
X0060000Y0317500D01*
X-0010000Y0317500D01*
X-0010000Y0320000D01*
X-0010000Y0330000D01*
X0060000Y0330000D01*
X0060000Y0320000D02*
X-0010000Y0320000D01*
X-0025000Y0320000D02*
X-0025000Y0330000D01*
X-0085000Y0330000D01*
X-0085000Y0320000D01*
X-0085000Y0317500D01*
X-0025000Y0317500D01*
X-0025000Y0320000D01*
X-0085000Y0320000D01*
X-0162500Y0325000D02*
X-0162500Y0255000D01*
X-0165000Y0255000D01*
X-0175000Y0255000D01*
X-0175000Y0325000D01*
X-0165000Y0325000D01*
X-0162500Y0325000D01*
X-0165000Y0325000D02*
X-0165000Y0255000D01*
X-0165000Y0220000D02*
X-0175000Y0220000D01*
X-0175000Y0150000D01*
X-0165000Y0150000D01*
X-0162500Y0150000D01*
X-0162500Y0220000D01*
X-0165000Y0220000D01*
X-0165000Y0150000D01*
X-0165000Y0065000D02*
X-0165000Y-0005000D01*
X-0155000Y-0005000D01*
X-0152500Y-0005000D01*
X-0152500Y0065000D01*
X-0155000Y0065000D01*
X-0155000Y-0005000D01*
X-0155000Y0065000D02*
X-0165000Y0065000D01*
D12*
X-0168000Y0038965D02*
X-0168000Y0035896D01*
X-0168000Y0034361D02*
X-0172604Y0034361D01*
X-0171069Y0032827D01*
X-0172604Y0031292D01*
X-0168000Y0031292D01*
X-0171069Y0035896D02*
X-0172604Y0037431D01*
X-0168000Y0037431D01*
X0112876Y-0007396D02*
X0112876Y-0012000D01*
X0115946Y-0012000D01*
X0117480Y-0011233D02*
X0118248Y-0012000D01*
X0119782Y-0012000D01*
X0120550Y-0011233D01*
X0120550Y-0010465D01*
X0119782Y-0009698D01*
X0118248Y-0009698D01*
X0117480Y-0008931D01*
X0117480Y-0008163D01*
X0118248Y-0007396D01*
X0119782Y-0007396D01*
X0120550Y-0008163D01*
X0122084Y-0008931D02*
X0123619Y-0007396D01*
X0125154Y-0008931D01*
X0125154Y-0012000D01*
X0126688Y-0011233D02*
X0127455Y-0012000D01*
X0128990Y-0012000D01*
X0129757Y-0011233D01*
X0129757Y-0008163D01*
X0126688Y-0011233D01*
X0126688Y-0008163D01*
X0127455Y-0007396D01*
X0128990Y-0007396D01*
X0129757Y-0008163D01*
X0131292Y-0007396D02*
X0131292Y-0009698D01*
X0132827Y-0008931D01*
X0133594Y-0008931D01*
X0134361Y-0009698D01*
X0134361Y-0011233D01*
X0133594Y-0012000D01*
X0132059Y-0012000D01*
X0131292Y-0011233D01*
X0131292Y-0007396D02*
X0134361Y-0007396D01*
X0135896Y-0008931D02*
X0137431Y-0007396D01*
X0137431Y-0012000D01*
X0138965Y-0012000D02*
X0135896Y-0012000D01*
X0125154Y-0009698D02*
X0122084Y-0009698D01*
X0122084Y-0008931D02*
X0122084Y-0012000D01*
X0219900Y-0018763D02*
X0220667Y-0017996D01*
X0222202Y-0017996D01*
X0222969Y-0018763D01*
X0222969Y-0019531D01*
X0222202Y-0020298D01*
X0222969Y-0021065D01*
X0222969Y-0021833D01*
X0222202Y-0022600D01*
X0220667Y-0022600D01*
X0219900Y-0021833D01*
X0221435Y-0020298D02*
X0222202Y-0020298D01*
X0235896Y-0009698D02*
X0238965Y-0009698D01*
X0238198Y-0007396D02*
X0235896Y-0009698D01*
X0238198Y-0012000D02*
X0238198Y-0007396D01*
X0349900Y-0019531D02*
X0351435Y-0017996D01*
X0351435Y-0022600D01*
X0352969Y-0022600D02*
X0349900Y-0022600D01*
X0365896Y-0012000D02*
X0368965Y-0008931D01*
X0368965Y-0008163D01*
X0368198Y-0007396D01*
X0366663Y-0007396D01*
X0365896Y-0008163D01*
X0365896Y-0012000D02*
X0368965Y-0012000D01*
X0502396Y0048965D02*
X0503163Y0047431D01*
X0504698Y0045896D01*
X0504698Y0048198D01*
X0505465Y0048965D01*
X0506233Y0048965D01*
X0507000Y0048198D01*
X0507000Y0046663D01*
X0506233Y0045896D01*
X0504698Y0045896D01*
X0512996Y0032969D02*
X0512996Y0029900D01*
X0515298Y0029900D01*
X0514531Y0031435D01*
X0514531Y0032202D01*
X0515298Y0032969D01*
X0516833Y0032969D01*
X0517600Y0032202D01*
X0517600Y0030667D01*
X0516833Y0029900D01*
X0516833Y0134900D02*
X0517600Y0134900D01*
X0516833Y0134900D02*
X0513763Y0137969D01*
X0512996Y0137969D01*
X0512996Y0134900D01*
X0506233Y0150896D02*
X0505465Y0150896D01*
X0504698Y0151663D01*
X0504698Y0153198D01*
X0505465Y0153965D01*
X0506233Y0153965D01*
X0507000Y0153198D01*
X0507000Y0151663D01*
X0506233Y0150896D01*
X0504698Y0151663D02*
X0503931Y0150896D01*
X0503163Y0150896D01*
X0502396Y0151663D01*
X0502396Y0153198D01*
X0503163Y0153965D01*
X0503931Y0153965D01*
X0504698Y0153198D01*
X0442000Y0186144D02*
X0442000Y0187678D01*
X0441233Y0188446D01*
X0437396Y0188446D01*
X0437396Y0189980D02*
X0442000Y0189980D01*
X0442000Y0193050D01*
X0442000Y0196119D02*
X0437396Y0196119D01*
X0437396Y0194584D02*
X0437396Y0197654D01*
X0437396Y0199188D02*
X0437396Y0201490D01*
X0438163Y0202257D01*
X0439698Y0202257D01*
X0440465Y0201490D01*
X0440465Y0199188D01*
X0440465Y0200723D02*
X0442000Y0202257D01*
X0442000Y0203792D02*
X0438931Y0203792D01*
X0437396Y0205327D01*
X0438931Y0206861D01*
X0442000Y0206861D01*
X0442000Y0208396D02*
X0442000Y0211465D01*
X0442000Y0209931D02*
X0437396Y0209931D01*
X0438931Y0208396D01*
X0439698Y0206861D02*
X0439698Y0203792D01*
X0442000Y0199188D02*
X0437396Y0199188D01*
X0437396Y0185376D02*
X0441233Y0185376D01*
X0442000Y0186144D01*
X0441233Y0235376D02*
X0442000Y0236144D01*
X0442000Y0237678D01*
X0441233Y0238446D01*
X0437396Y0238446D01*
X0437396Y0239980D02*
X0442000Y0239980D01*
X0442000Y0243050D01*
X0442000Y0246119D02*
X0437396Y0246119D01*
X0437396Y0244584D02*
X0437396Y0247654D01*
X0437396Y0249188D02*
X0437396Y0251490D01*
X0438163Y0252257D01*
X0439698Y0252257D01*
X0440465Y0251490D01*
X0440465Y0249188D01*
X0440465Y0250723D02*
X0442000Y0252257D01*
X0442000Y0253792D02*
X0438931Y0253792D01*
X0437396Y0255327D01*
X0438931Y0256861D01*
X0442000Y0256861D01*
X0442000Y0258396D02*
X0438931Y0261465D01*
X0438163Y0261465D01*
X0437396Y0260698D01*
X0437396Y0259163D01*
X0438163Y0258396D01*
X0439698Y0256861D02*
X0439698Y0253792D01*
X0442000Y0249188D02*
X0437396Y0249188D01*
X0442000Y0258396D02*
X0442000Y0261465D01*
X0441233Y0235376D02*
X0437396Y0235376D01*
X0564881Y0309924D02*
X0569485Y0309924D01*
X0569485Y0311458D02*
X0569485Y0308389D01*
X0566416Y0308389D02*
X0564881Y0309924D01*
X0565648Y0312993D02*
X0564881Y0313760D01*
X0564881Y0315295D01*
X0565648Y0316062D01*
X0566416Y0316062D01*
X0569485Y0312993D01*
X0569485Y0316062D01*
X0567950Y0317597D02*
X0569485Y0319131D01*
X0567950Y0320666D01*
X0564881Y0320666D01*
X0565648Y0322201D02*
X0568718Y0322201D01*
X0569485Y0322968D01*
X0569485Y0324503D01*
X0568718Y0325270D01*
X0565648Y0325270D01*
X0564881Y0324503D01*
X0564881Y0322968D01*
X0565648Y0322201D01*
X0564881Y0326805D02*
X0569485Y0326805D01*
X0569485Y0329874D01*
X0569485Y0332943D02*
X0564881Y0332943D01*
X0564881Y0331409D02*
X0564881Y0334478D01*
X0564881Y0336013D02*
X0567950Y0336013D01*
X0569485Y0337547D01*
X0567950Y0339082D01*
X0564881Y0339082D01*
X0565648Y0340616D02*
X0568718Y0340616D01*
X0569485Y0341384D01*
X0569485Y0342918D01*
X0568718Y0343686D01*
X0568718Y0345220D02*
X0569485Y0345988D01*
X0569485Y0347522D01*
X0568718Y0348290D01*
X0565648Y0348290D02*
X0564881Y0347522D01*
X0564881Y0345988D01*
X0565648Y0345220D01*
X0568718Y0345220D01*
X0565648Y0343686D02*
X0564881Y0342918D01*
X0564881Y0341384D01*
X0565648Y0340616D01*
X0564881Y0317597D02*
X0567950Y0317597D01*
X0438662Y0316237D02*
X0438662Y0315469D01*
X0437895Y0314702D01*
X0438662Y0313935D01*
X0438662Y0313167D01*
X0437895Y0312400D01*
X0436360Y0312400D01*
X0435593Y0313167D01*
X0434058Y0312400D02*
X0432524Y0313935D01*
X0433291Y0313935D02*
X0430989Y0313935D01*
X0430989Y0312400D02*
X0430989Y0317004D01*
X0433291Y0317004D01*
X0434058Y0316237D01*
X0434058Y0314702D01*
X0433291Y0313935D01*
X0435593Y0316237D02*
X0436360Y0317004D01*
X0437895Y0317004D01*
X0438662Y0316237D01*
X0437895Y0314702D02*
X0437127Y0314702D01*
X0429454Y0317004D02*
X0427920Y0317004D01*
X0428687Y0317004D02*
X0428687Y0312400D01*
X0427920Y0312400D02*
X0429454Y0312400D01*
X0426385Y0314702D02*
X0426385Y0316237D01*
X0425618Y0317004D01*
X0423316Y0317004D01*
X0423316Y0312400D01*
X0423316Y0313935D02*
X0425618Y0313935D01*
X0426385Y0314702D01*
X0421781Y0314702D02*
X0421014Y0313935D01*
X0418712Y0313935D01*
X0420246Y0313935D02*
X0421781Y0312400D01*
X0421781Y0314702D02*
X0421781Y0316237D01*
X0421014Y0317004D01*
X0418712Y0317004D01*
X0418712Y0312400D01*
X0417177Y0312400D02*
X0417177Y0315469D01*
X0415642Y0317004D01*
X0414108Y0315469D01*
X0414108Y0312400D01*
X0412573Y0312400D02*
X0412573Y0317004D01*
X0412573Y0314702D02*
X0409504Y0314702D01*
X0407969Y0313935D02*
X0407969Y0313167D01*
X0407202Y0312400D01*
X0405667Y0312400D01*
X0404900Y0313167D01*
X0405667Y0314702D02*
X0407202Y0314702D01*
X0407969Y0313935D01*
X0409504Y0312400D02*
X0409504Y0317004D01*
X0407969Y0316237D02*
X0407202Y0317004D01*
X0405667Y0317004D01*
X0404900Y0316237D01*
X0404900Y0315469D01*
X0405667Y0314702D01*
X0414108Y0314702D02*
X0417177Y0314702D01*
X0338662Y0315469D02*
X0338662Y0316237D01*
X0337895Y0317004D01*
X0336360Y0317004D01*
X0335593Y0316237D01*
X0334058Y0316237D02*
X0334058Y0314702D01*
X0333291Y0313935D01*
X0330989Y0313935D01*
X0332524Y0313935D02*
X0334058Y0312400D01*
X0335593Y0312400D02*
X0338662Y0315469D01*
X0338662Y0312400D02*
X0335593Y0312400D01*
X0334058Y0316237D02*
X0333291Y0317004D01*
X0330989Y0317004D01*
X0330989Y0312400D01*
X0329454Y0312400D02*
X0327920Y0312400D01*
X0328687Y0312400D02*
X0328687Y0317004D01*
X0327920Y0317004D02*
X0329454Y0317004D01*
X0326385Y0316237D02*
X0326385Y0314702D01*
X0325618Y0313935D01*
X0323316Y0313935D01*
X0323316Y0312400D02*
X0323316Y0317004D01*
X0325618Y0317004D01*
X0326385Y0316237D01*
X0321781Y0316237D02*
X0321781Y0314702D01*
X0321014Y0313935D01*
X0318712Y0313935D01*
X0320246Y0313935D02*
X0321781Y0312400D01*
X0318712Y0312400D02*
X0318712Y0317004D01*
X0321014Y0317004D01*
X0321781Y0316237D01*
X0317177Y0315469D02*
X0317177Y0312400D01*
X0317177Y0314702D02*
X0314108Y0314702D01*
X0314108Y0315469D02*
X0315642Y0317004D01*
X0317177Y0315469D01*
X0314108Y0315469D02*
X0314108Y0312400D01*
X0312573Y0312400D02*
X0312573Y0317004D01*
X0312573Y0314702D02*
X0309504Y0314702D01*
X0307969Y0313935D02*
X0307969Y0313167D01*
X0307202Y0312400D01*
X0305667Y0312400D01*
X0304900Y0313167D01*
X0305667Y0314702D02*
X0307202Y0314702D01*
X0307969Y0313935D01*
X0309504Y0312400D02*
X0309504Y0317004D01*
X0307969Y0316237D02*
X0307202Y0317004D01*
X0305667Y0317004D01*
X0304900Y0316237D01*
X0304900Y0315469D01*
X0305667Y0314702D01*
X0243662Y0312400D02*
X0240593Y0312400D01*
X0242127Y0312400D02*
X0242127Y0317004D01*
X0240593Y0315469D01*
X0239058Y0314702D02*
X0238291Y0313935D01*
X0235989Y0313935D01*
X0237524Y0313935D02*
X0239058Y0312400D01*
X0239058Y0314702D02*
X0239058Y0316237D01*
X0238291Y0317004D01*
X0235989Y0317004D01*
X0235989Y0312400D01*
X0234454Y0312400D02*
X0232920Y0312400D01*
X0233687Y0312400D02*
X0233687Y0317004D01*
X0232920Y0317004D02*
X0234454Y0317004D01*
X0231385Y0316237D02*
X0231385Y0314702D01*
X0230618Y0313935D01*
X0228316Y0313935D01*
X0228316Y0312400D02*
X0228316Y0317004D01*
X0230618Y0317004D01*
X0231385Y0316237D01*
X0226781Y0316237D02*
X0226781Y0314702D01*
X0226014Y0313935D01*
X0223712Y0313935D01*
X0225246Y0313935D02*
X0226781Y0312400D01*
X0223712Y0312400D02*
X0223712Y0317004D01*
X0226014Y0317004D01*
X0226781Y0316237D01*
X0222177Y0315469D02*
X0222177Y0312400D01*
X0222177Y0314702D02*
X0219108Y0314702D01*
X0219108Y0315469D02*
X0220642Y0317004D01*
X0222177Y0315469D01*
X0219108Y0315469D02*
X0219108Y0312400D01*
X0217573Y0312400D02*
X0217573Y0317004D01*
X0217573Y0314702D02*
X0214504Y0314702D01*
X0212969Y0313935D02*
X0212969Y0313167D01*
X0212202Y0312400D01*
X0210667Y0312400D01*
X0209900Y0313167D01*
X0210667Y0314702D02*
X0212202Y0314702D01*
X0212969Y0313935D01*
X0214504Y0312400D02*
X0214504Y0317004D01*
X0212969Y0316237D02*
X0212202Y0317004D01*
X0210667Y0317004D01*
X0209900Y0316237D01*
X0209900Y0315469D01*
X0210667Y0314702D01*
X0165476Y0344885D02*
X0165476Y0349489D01*
X0162407Y0349489D02*
X0165476Y0344885D01*
X0162407Y0344885D02*
X0162407Y0349489D01*
X0160872Y0349489D02*
X0159338Y0349489D01*
X0160105Y0349489D02*
X0160105Y0344885D01*
X0159338Y0344885D02*
X0160872Y0344885D01*
X0157803Y0345652D02*
X0157803Y0348722D01*
X0157036Y0349489D01*
X0154734Y0349489D01*
X0154734Y0344885D01*
X0157036Y0344885D01*
X0157803Y0345652D01*
X0153199Y0344885D02*
X0151665Y0346420D01*
X0152432Y0346420D02*
X0150130Y0346420D01*
X0150130Y0344885D02*
X0150130Y0349489D01*
X0152432Y0349489D01*
X0153199Y0348722D01*
X0153199Y0347187D01*
X0152432Y0346420D01*
X0148595Y0347187D02*
X0145526Y0347187D01*
X0145526Y0347954D02*
X0147061Y0349489D01*
X0148595Y0347954D01*
X0148595Y0344885D01*
X0145526Y0344885D02*
X0145526Y0347954D01*
X0033965Y0336837D02*
X0033198Y0337604D01*
X0031663Y0337604D01*
X0030896Y0336837D01*
X0029361Y0337604D02*
X0026292Y0337604D01*
X0026292Y0335302D01*
X0027827Y0336069D01*
X0028594Y0336069D01*
X0029361Y0335302D01*
X0029361Y0333767D01*
X0028594Y0333000D01*
X0027059Y0333000D01*
X0026292Y0333767D01*
X0024757Y0333767D02*
X0023990Y0333000D01*
X0022455Y0333000D01*
X0021688Y0333767D01*
X0024757Y0336837D01*
X0024757Y0333767D01*
X0021688Y0333767D02*
X0021688Y0336837D01*
X0022455Y0337604D01*
X0023990Y0337604D01*
X0024757Y0336837D01*
X0020154Y0336069D02*
X0018619Y0337604D01*
X0017084Y0336069D01*
X0017084Y0333000D01*
X0015550Y0333767D02*
X0014782Y0333000D01*
X0013248Y0333000D01*
X0012480Y0333767D01*
X0010946Y0333000D02*
X0007876Y0333000D01*
X0007876Y0337604D01*
X0012480Y0336837D02*
X0013248Y0337604D01*
X0014782Y0337604D01*
X0015550Y0336837D01*
X0014782Y0335302D02*
X0015550Y0334535D01*
X0015550Y0333767D01*
X0014782Y0335302D02*
X0013248Y0335302D01*
X0012480Y0336069D01*
X0012480Y0336837D01*
X0017084Y0335302D02*
X0020154Y0335302D01*
X0020154Y0336069D02*
X0020154Y0333000D01*
X0030896Y0333000D02*
X0033965Y0336069D01*
X0033965Y0336837D01*
X0033965Y0333000D02*
X0030896Y0333000D01*
X-0046035Y0336837D02*
X-0046035Y0337604D01*
X-0046035Y0336837D02*
X-0047569Y0335302D01*
X-0047569Y0333000D01*
X-0047569Y0335302D02*
X-0049104Y0336837D01*
X-0049104Y0337604D01*
X-0050639Y0336069D02*
X-0052173Y0337604D01*
X-0053708Y0336069D01*
X-0053708Y0333000D01*
X-0055243Y0333000D02*
X-0058312Y0333000D01*
X-0058312Y0337604D01*
X-0059846Y0337604D02*
X-0062916Y0337604D01*
X-0062916Y0333000D01*
X-0059846Y0333000D01*
X-0061381Y0335302D02*
X-0062916Y0335302D01*
X-0064450Y0335302D02*
X-0065218Y0334535D01*
X-0067520Y0334535D01*
X-0065985Y0334535D02*
X-0064450Y0333000D01*
X-0064450Y0335302D02*
X-0064450Y0336837D01*
X-0065218Y0337604D01*
X-0067520Y0337604D01*
X-0067520Y0333000D01*
X-0053708Y0335302D02*
X-0050639Y0335302D01*
X-0050639Y0336069D02*
X-0050639Y0333000D01*
X-0178000Y0298198D02*
X-0178000Y0296663D01*
X-0178767Y0295896D01*
X-0178000Y0294361D02*
X-0182604Y0294361D01*
X-0181069Y0292827D01*
X-0182604Y0291292D01*
X-0178000Y0291292D01*
X-0181837Y0295896D02*
X-0182604Y0296663D01*
X-0182604Y0298198D01*
X-0181837Y0298965D01*
X-0181069Y0298965D01*
X-0180302Y0298198D01*
X-0179535Y0298965D01*
X-0178767Y0298965D01*
X-0178000Y0298198D01*
X-0180302Y0298198D02*
X-0180302Y0297431D01*
X-0181069Y0193965D02*
X-0181837Y0193965D01*
X-0182604Y0193198D01*
X-0182604Y0191663D01*
X-0181837Y0190896D01*
X-0182604Y0189361D02*
X-0178000Y0189361D01*
X-0178000Y0190896D02*
X-0181069Y0193965D01*
X-0178000Y0193965D02*
X-0178000Y0190896D01*
X-0181069Y0187827D02*
X-0182604Y0189361D01*
X-0181069Y0187827D02*
X-0182604Y0186292D01*
X-0178000Y0186292D01*
D13*
X-0170000Y0185000D03*
X-0170000Y0175000D03*
X-0170000Y0165000D03*
X-0170000Y0155000D03*
X-0170000Y0195000D03*
X-0170000Y0205000D03*
X-0170000Y0215000D03*
X-0170000Y0260000D03*
X-0170000Y0270000D03*
X-0170000Y0280000D03*
X-0170000Y0290000D03*
X-0170000Y0300000D03*
X-0170000Y0310000D03*
X-0170000Y0320000D03*
X-0080000Y0325000D03*
X-0070000Y0325000D03*
X-0060000Y0325000D03*
X-0050000Y0325000D03*
X-0040000Y0325000D03*
X-0030000Y0325000D03*
X-0005000Y0325000D03*
X0005000Y0325000D03*
X0015000Y0325000D03*
X0025000Y0325000D03*
X0035000Y0325000D03*
X0045000Y0325000D03*
X0055000Y0325000D03*
X0210000Y0325000D03*
X0220000Y0325000D03*
X0230000Y0325000D03*
X0305000Y0325000D03*
X0315000Y0325000D03*
X0325000Y0325000D03*
X0405000Y0325000D03*
X0415000Y0325000D03*
X0425000Y0325000D03*
X0450000Y0265000D03*
X0450000Y0255000D03*
X0450000Y0245000D03*
X0450000Y0235000D03*
X0450000Y0215000D03*
X0450000Y0205000D03*
X0450000Y0195000D03*
X0450000Y0185000D03*
X0505000Y0165000D03*
X0515000Y0165000D03*
X0515000Y0155000D03*
X0505000Y0155000D03*
X0505000Y0145000D03*
X0515000Y0145000D03*
X0515000Y0135000D03*
X0505000Y0135000D03*
X0505000Y0125000D03*
X0515000Y0125000D03*
X0515000Y0060000D03*
X0505000Y0060000D03*
X0505000Y0050000D03*
X0515000Y0050000D03*
X0515000Y0040000D03*
X0505000Y0040000D03*
X0505000Y0030000D03*
X0515000Y0030000D03*
X0515000Y0020000D03*
X0505000Y0020000D03*
X0380000Y-0010000D03*
X0370000Y-0010000D03*
X0370000Y-0020000D03*
X0380000Y-0020000D03*
X0360000Y-0020000D03*
X0350000Y-0020000D03*
X0340000Y-0020000D03*
X0340000Y-0010000D03*
X0350000Y-0010000D03*
X0360000Y-0010000D03*
X0250000Y-0010000D03*
X0240000Y-0010000D03*
X0230000Y-0010000D03*
X0220000Y-0010000D03*
X0210000Y-0010000D03*
X0210000Y-0020000D03*
X0220000Y-0020000D03*
X0230000Y-0020000D03*
X0240000Y-0020000D03*
X0250000Y-0020000D03*
X0160000Y-0020000D03*
X0150000Y-0020000D03*
X0140000Y-0020000D03*
X0130000Y-0020000D03*
X0120000Y-0020000D03*
X0110000Y-0020000D03*
X0100000Y-0020000D03*
X-0160000Y0000000D03*
X-0160000Y0010000D03*
X-0160000Y0020000D03*
X-0160000Y0030000D03*
X-0160000Y0040000D03*
X-0160000Y0050000D03*
X-0160000Y0060000D03*
D14*
X0141614Y0315827D02*
X0169173Y0315827D01*
X0169173Y0321339D01*
X0141614Y0321339D01*
X0141614Y0315827D01*
X0141614Y0321339D02*
X0141614Y0343386D01*
X0169173Y0343386D01*
X0169173Y0321339D01*
X0535827Y0333386D02*
X0535827Y0305827D01*
X0541339Y0305827D01*
X0541339Y0333386D01*
X0535827Y0333386D01*
X0541339Y0333386D02*
X0563386Y0333386D01*
X0563386Y0305827D01*
X0541339Y0305827D01*
M02*
