G75*
%MOIN*%
%OFA0B0*%
%FSLAX25Y25*%
%IPPOS*%
%LPD*%
%AMOC8*
5,1,8,0,0,1.08239X$1,22.5*
%
%ADD10C,0.00000*%
%ADD11C,0.01000*%
D10*
X-0235000Y-0060000D02*
X-0235000Y0358701D01*
X0589921Y0358701D01*
X0589921Y-0060000D01*
X-0235000Y-0060000D01*
X-0223937Y-0045000D02*
X-0223935Y-0044875D01*
X-0223929Y-0044750D01*
X-0223919Y-0044626D01*
X-0223905Y-0044502D01*
X-0223888Y-0044378D01*
X-0223866Y-0044255D01*
X-0223840Y-0044133D01*
X-0223811Y-0044011D01*
X-0223778Y-0043891D01*
X-0223740Y-0043772D01*
X-0223700Y-0043653D01*
X-0223655Y-0043537D01*
X-0223607Y-0043422D01*
X-0223555Y-0043308D01*
X-0223499Y-0043196D01*
X-0223440Y-0043086D01*
X-0223378Y-0042978D01*
X-0223312Y-0042871D01*
X-0223243Y-0042767D01*
X-0223170Y-0042666D01*
X-0223095Y-0042566D01*
X-0223016Y-0042469D01*
X-0222934Y-0042375D01*
X-0222849Y-0042283D01*
X-0222762Y-0042194D01*
X-0222671Y-0042108D01*
X-0222578Y-0042025D01*
X-0222482Y-0041944D01*
X-0222384Y-0041867D01*
X-0222284Y-0041793D01*
X-0222181Y-0041722D01*
X-0222076Y-0041655D01*
X-0221968Y-0041590D01*
X-0221859Y-0041530D01*
X-0221748Y-0041472D01*
X-0221635Y-0041419D01*
X-0221521Y-0041369D01*
X-0221405Y-0041322D01*
X-0221288Y-0041280D01*
X-0221169Y-0041241D01*
X-0221049Y-0041205D01*
X-0220928Y-0041174D01*
X-0220806Y-0041146D01*
X-0220684Y-0041123D01*
X-0220560Y-0041103D01*
X-0220436Y-0041087D01*
X-0220312Y-0041075D01*
X-0220187Y-0041067D01*
X-0220062Y-0041063D01*
X-0219938Y-0041063D01*
X-0219813Y-0041067D01*
X-0219688Y-0041075D01*
X-0219564Y-0041087D01*
X-0219440Y-0041103D01*
X-0219316Y-0041123D01*
X-0219194Y-0041146D01*
X-0219072Y-0041174D01*
X-0218951Y-0041205D01*
X-0218831Y-0041241D01*
X-0218712Y-0041280D01*
X-0218595Y-0041322D01*
X-0218479Y-0041369D01*
X-0218365Y-0041419D01*
X-0218252Y-0041472D01*
X-0218141Y-0041530D01*
X-0218031Y-0041590D01*
X-0217924Y-0041655D01*
X-0217819Y-0041722D01*
X-0217716Y-0041793D01*
X-0217616Y-0041867D01*
X-0217518Y-0041944D01*
X-0217422Y-0042025D01*
X-0217329Y-0042108D01*
X-0217238Y-0042194D01*
X-0217151Y-0042283D01*
X-0217066Y-0042375D01*
X-0216984Y-0042469D01*
X-0216905Y-0042566D01*
X-0216830Y-0042666D01*
X-0216757Y-0042767D01*
X-0216688Y-0042871D01*
X-0216622Y-0042978D01*
X-0216560Y-0043086D01*
X-0216501Y-0043196D01*
X-0216445Y-0043308D01*
X-0216393Y-0043422D01*
X-0216345Y-0043537D01*
X-0216300Y-0043653D01*
X-0216260Y-0043772D01*
X-0216222Y-0043891D01*
X-0216189Y-0044011D01*
X-0216160Y-0044133D01*
X-0216134Y-0044255D01*
X-0216112Y-0044378D01*
X-0216095Y-0044502D01*
X-0216081Y-0044626D01*
X-0216071Y-0044750D01*
X-0216065Y-0044875D01*
X-0216063Y-0045000D01*
X-0216065Y-0045125D01*
X-0216071Y-0045250D01*
X-0216081Y-0045374D01*
X-0216095Y-0045498D01*
X-0216112Y-0045622D01*
X-0216134Y-0045745D01*
X-0216160Y-0045867D01*
X-0216189Y-0045989D01*
X-0216222Y-0046109D01*
X-0216260Y-0046228D01*
X-0216300Y-0046347D01*
X-0216345Y-0046463D01*
X-0216393Y-0046578D01*
X-0216445Y-0046692D01*
X-0216501Y-0046804D01*
X-0216560Y-0046914D01*
X-0216622Y-0047022D01*
X-0216688Y-0047129D01*
X-0216757Y-0047233D01*
X-0216830Y-0047334D01*
X-0216905Y-0047434D01*
X-0216984Y-0047531D01*
X-0217066Y-0047625D01*
X-0217151Y-0047717D01*
X-0217238Y-0047806D01*
X-0217329Y-0047892D01*
X-0217422Y-0047975D01*
X-0217518Y-0048056D01*
X-0217616Y-0048133D01*
X-0217716Y-0048207D01*
X-0217819Y-0048278D01*
X-0217924Y-0048345D01*
X-0218032Y-0048410D01*
X-0218141Y-0048470D01*
X-0218252Y-0048528D01*
X-0218365Y-0048581D01*
X-0218479Y-0048631D01*
X-0218595Y-0048678D01*
X-0218712Y-0048720D01*
X-0218831Y-0048759D01*
X-0218951Y-0048795D01*
X-0219072Y-0048826D01*
X-0219194Y-0048854D01*
X-0219316Y-0048877D01*
X-0219440Y-0048897D01*
X-0219564Y-0048913D01*
X-0219688Y-0048925D01*
X-0219813Y-0048933D01*
X-0219938Y-0048937D01*
X-0220062Y-0048937D01*
X-0220187Y-0048933D01*
X-0220312Y-0048925D01*
X-0220436Y-0048913D01*
X-0220560Y-0048897D01*
X-0220684Y-0048877D01*
X-0220806Y-0048854D01*
X-0220928Y-0048826D01*
X-0221049Y-0048795D01*
X-0221169Y-0048759D01*
X-0221288Y-0048720D01*
X-0221405Y-0048678D01*
X-0221521Y-0048631D01*
X-0221635Y-0048581D01*
X-0221748Y-0048528D01*
X-0221859Y-0048470D01*
X-0221969Y-0048410D01*
X-0222076Y-0048345D01*
X-0222181Y-0048278D01*
X-0222284Y-0048207D01*
X-0222384Y-0048133D01*
X-0222482Y-0048056D01*
X-0222578Y-0047975D01*
X-0222671Y-0047892D01*
X-0222762Y-0047806D01*
X-0222849Y-0047717D01*
X-0222934Y-0047625D01*
X-0223016Y-0047531D01*
X-0223095Y-0047434D01*
X-0223170Y-0047334D01*
X-0223243Y-0047233D01*
X-0223312Y-0047129D01*
X-0223378Y-0047022D01*
X-0223440Y-0046914D01*
X-0223499Y-0046804D01*
X-0223555Y-0046692D01*
X-0223607Y-0046578D01*
X-0223655Y-0046463D01*
X-0223700Y-0046347D01*
X-0223740Y-0046228D01*
X-0223778Y-0046109D01*
X-0223811Y-0045989D01*
X-0223840Y-0045867D01*
X-0223866Y-0045745D01*
X-0223888Y-0045622D01*
X-0223905Y-0045498D01*
X-0223919Y-0045374D01*
X-0223929Y-0045250D01*
X-0223935Y-0045125D01*
X-0223937Y-0045000D01*
X-0223150Y0345000D02*
X-0223148Y0345112D01*
X-0223142Y0345223D01*
X-0223132Y0345335D01*
X-0223118Y0345446D01*
X-0223101Y0345556D01*
X-0223079Y0345666D01*
X-0223053Y0345775D01*
X-0223024Y0345883D01*
X-0222991Y0345989D01*
X-0222954Y0346095D01*
X-0222913Y0346199D01*
X-0222868Y0346302D01*
X-0222820Y0346403D01*
X-0222769Y0346502D01*
X-0222714Y0346599D01*
X-0222655Y0346694D01*
X-0222594Y0346788D01*
X-0222529Y0346879D01*
X-0222460Y0346967D01*
X-0222389Y0347053D01*
X-0222315Y0347137D01*
X-0222237Y0347217D01*
X-0222157Y0347295D01*
X-0222074Y0347371D01*
X-0221989Y0347443D01*
X-0221901Y0347512D01*
X-0221811Y0347578D01*
X-0221718Y0347640D01*
X-0221623Y0347700D01*
X-0221526Y0347756D01*
X-0221428Y0347808D01*
X-0221327Y0347857D01*
X-0221225Y0347902D01*
X-0221121Y0347944D01*
X-0221016Y0347982D01*
X-0220909Y0348016D01*
X-0220802Y0348046D01*
X-0220693Y0348073D01*
X-0220584Y0348095D01*
X-0220473Y0348114D01*
X-0220363Y0348129D01*
X-0220251Y0348140D01*
X-0220140Y0348147D01*
X-0220028Y0348150D01*
X-0219916Y0348149D01*
X-0219804Y0348144D01*
X-0219693Y0348135D01*
X-0219582Y0348122D01*
X-0219471Y0348105D01*
X-0219361Y0348085D01*
X-0219252Y0348060D01*
X-0219144Y0348032D01*
X-0219037Y0347999D01*
X-0218931Y0347963D01*
X-0218827Y0347923D01*
X-0218724Y0347880D01*
X-0218622Y0347833D01*
X-0218523Y0347782D01*
X-0218425Y0347728D01*
X-0218329Y0347670D01*
X-0218235Y0347609D01*
X-0218144Y0347545D01*
X-0218055Y0347478D01*
X-0217968Y0347407D01*
X-0217884Y0347333D01*
X-0217802Y0347257D01*
X-0217724Y0347177D01*
X-0217648Y0347095D01*
X-0217575Y0347010D01*
X-0217505Y0346923D01*
X-0217439Y0346833D01*
X-0217375Y0346741D01*
X-0217315Y0346647D01*
X-0217258Y0346551D01*
X-0217205Y0346452D01*
X-0217155Y0346352D01*
X-0217109Y0346251D01*
X-0217066Y0346147D01*
X-0217027Y0346042D01*
X-0216992Y0345936D01*
X-0216961Y0345829D01*
X-0216933Y0345720D01*
X-0216910Y0345611D01*
X-0216890Y0345501D01*
X-0216874Y0345390D01*
X-0216862Y0345279D01*
X-0216854Y0345168D01*
X-0216850Y0345056D01*
X-0216850Y0344944D01*
X-0216854Y0344832D01*
X-0216862Y0344721D01*
X-0216874Y0344610D01*
X-0216890Y0344499D01*
X-0216910Y0344389D01*
X-0216933Y0344280D01*
X-0216961Y0344171D01*
X-0216992Y0344064D01*
X-0217027Y0343958D01*
X-0217066Y0343853D01*
X-0217109Y0343749D01*
X-0217155Y0343648D01*
X-0217205Y0343548D01*
X-0217258Y0343449D01*
X-0217315Y0343353D01*
X-0217375Y0343259D01*
X-0217439Y0343167D01*
X-0217505Y0343077D01*
X-0217575Y0342990D01*
X-0217648Y0342905D01*
X-0217724Y0342823D01*
X-0217802Y0342743D01*
X-0217884Y0342667D01*
X-0217968Y0342593D01*
X-0218055Y0342522D01*
X-0218144Y0342455D01*
X-0218235Y0342391D01*
X-0218329Y0342330D01*
X-0218425Y0342272D01*
X-0218523Y0342218D01*
X-0218622Y0342167D01*
X-0218724Y0342120D01*
X-0218827Y0342077D01*
X-0218931Y0342037D01*
X-0219037Y0342001D01*
X-0219144Y0341968D01*
X-0219252Y0341940D01*
X-0219361Y0341915D01*
X-0219471Y0341895D01*
X-0219582Y0341878D01*
X-0219693Y0341865D01*
X-0219804Y0341856D01*
X-0219916Y0341851D01*
X-0220028Y0341850D01*
X-0220140Y0341853D01*
X-0220251Y0341860D01*
X-0220363Y0341871D01*
X-0220473Y0341886D01*
X-0220584Y0341905D01*
X-0220693Y0341927D01*
X-0220802Y0341954D01*
X-0220909Y0341984D01*
X-0221016Y0342018D01*
X-0221121Y0342056D01*
X-0221225Y0342098D01*
X-0221327Y0342143D01*
X-0221428Y0342192D01*
X-0221526Y0342244D01*
X-0221623Y0342300D01*
X-0221718Y0342360D01*
X-0221811Y0342422D01*
X-0221901Y0342488D01*
X-0221989Y0342557D01*
X-0222074Y0342629D01*
X-0222157Y0342705D01*
X-0222237Y0342783D01*
X-0222315Y0342863D01*
X-0222389Y0342947D01*
X-0222460Y0343033D01*
X-0222529Y0343121D01*
X-0222594Y0343212D01*
X-0222655Y0343306D01*
X-0222714Y0343401D01*
X-0222769Y0343498D01*
X-0222820Y0343597D01*
X-0222868Y0343698D01*
X-0222913Y0343801D01*
X-0222954Y0343905D01*
X-0222991Y0344011D01*
X-0223024Y0344117D01*
X-0223053Y0344225D01*
X-0223079Y0344334D01*
X-0223101Y0344444D01*
X-0223118Y0344554D01*
X-0223132Y0344665D01*
X-0223142Y0344777D01*
X-0223148Y0344888D01*
X-0223150Y0345000D01*
X0566063Y0345000D02*
X0566065Y0345125D01*
X0566071Y0345250D01*
X0566081Y0345374D01*
X0566095Y0345498D01*
X0566112Y0345622D01*
X0566134Y0345745D01*
X0566160Y0345867D01*
X0566189Y0345989D01*
X0566222Y0346109D01*
X0566260Y0346228D01*
X0566300Y0346347D01*
X0566345Y0346463D01*
X0566393Y0346578D01*
X0566445Y0346692D01*
X0566501Y0346804D01*
X0566560Y0346914D01*
X0566622Y0347022D01*
X0566688Y0347129D01*
X0566757Y0347233D01*
X0566830Y0347334D01*
X0566905Y0347434D01*
X0566984Y0347531D01*
X0567066Y0347625D01*
X0567151Y0347717D01*
X0567238Y0347806D01*
X0567329Y0347892D01*
X0567422Y0347975D01*
X0567518Y0348056D01*
X0567616Y0348133D01*
X0567716Y0348207D01*
X0567819Y0348278D01*
X0567924Y0348345D01*
X0568032Y0348410D01*
X0568141Y0348470D01*
X0568252Y0348528D01*
X0568365Y0348581D01*
X0568479Y0348631D01*
X0568595Y0348678D01*
X0568712Y0348720D01*
X0568831Y0348759D01*
X0568951Y0348795D01*
X0569072Y0348826D01*
X0569194Y0348854D01*
X0569316Y0348877D01*
X0569440Y0348897D01*
X0569564Y0348913D01*
X0569688Y0348925D01*
X0569813Y0348933D01*
X0569938Y0348937D01*
X0570062Y0348937D01*
X0570187Y0348933D01*
X0570312Y0348925D01*
X0570436Y0348913D01*
X0570560Y0348897D01*
X0570684Y0348877D01*
X0570806Y0348854D01*
X0570928Y0348826D01*
X0571049Y0348795D01*
X0571169Y0348759D01*
X0571288Y0348720D01*
X0571405Y0348678D01*
X0571521Y0348631D01*
X0571635Y0348581D01*
X0571748Y0348528D01*
X0571859Y0348470D01*
X0571969Y0348410D01*
X0572076Y0348345D01*
X0572181Y0348278D01*
X0572284Y0348207D01*
X0572384Y0348133D01*
X0572482Y0348056D01*
X0572578Y0347975D01*
X0572671Y0347892D01*
X0572762Y0347806D01*
X0572849Y0347717D01*
X0572934Y0347625D01*
X0573016Y0347531D01*
X0573095Y0347434D01*
X0573170Y0347334D01*
X0573243Y0347233D01*
X0573312Y0347129D01*
X0573378Y0347022D01*
X0573440Y0346914D01*
X0573499Y0346804D01*
X0573555Y0346692D01*
X0573607Y0346578D01*
X0573655Y0346463D01*
X0573700Y0346347D01*
X0573740Y0346228D01*
X0573778Y0346109D01*
X0573811Y0345989D01*
X0573840Y0345867D01*
X0573866Y0345745D01*
X0573888Y0345622D01*
X0573905Y0345498D01*
X0573919Y0345374D01*
X0573929Y0345250D01*
X0573935Y0345125D01*
X0573937Y0345000D01*
X0573935Y0344875D01*
X0573929Y0344750D01*
X0573919Y0344626D01*
X0573905Y0344502D01*
X0573888Y0344378D01*
X0573866Y0344255D01*
X0573840Y0344133D01*
X0573811Y0344011D01*
X0573778Y0343891D01*
X0573740Y0343772D01*
X0573700Y0343653D01*
X0573655Y0343537D01*
X0573607Y0343422D01*
X0573555Y0343308D01*
X0573499Y0343196D01*
X0573440Y0343086D01*
X0573378Y0342978D01*
X0573312Y0342871D01*
X0573243Y0342767D01*
X0573170Y0342666D01*
X0573095Y0342566D01*
X0573016Y0342469D01*
X0572934Y0342375D01*
X0572849Y0342283D01*
X0572762Y0342194D01*
X0572671Y0342108D01*
X0572578Y0342025D01*
X0572482Y0341944D01*
X0572384Y0341867D01*
X0572284Y0341793D01*
X0572181Y0341722D01*
X0572076Y0341655D01*
X0571968Y0341590D01*
X0571859Y0341530D01*
X0571748Y0341472D01*
X0571635Y0341419D01*
X0571521Y0341369D01*
X0571405Y0341322D01*
X0571288Y0341280D01*
X0571169Y0341241D01*
X0571049Y0341205D01*
X0570928Y0341174D01*
X0570806Y0341146D01*
X0570684Y0341123D01*
X0570560Y0341103D01*
X0570436Y0341087D01*
X0570312Y0341075D01*
X0570187Y0341067D01*
X0570062Y0341063D01*
X0569938Y0341063D01*
X0569813Y0341067D01*
X0569688Y0341075D01*
X0569564Y0341087D01*
X0569440Y0341103D01*
X0569316Y0341123D01*
X0569194Y0341146D01*
X0569072Y0341174D01*
X0568951Y0341205D01*
X0568831Y0341241D01*
X0568712Y0341280D01*
X0568595Y0341322D01*
X0568479Y0341369D01*
X0568365Y0341419D01*
X0568252Y0341472D01*
X0568141Y0341530D01*
X0568031Y0341590D01*
X0567924Y0341655D01*
X0567819Y0341722D01*
X0567716Y0341793D01*
X0567616Y0341867D01*
X0567518Y0341944D01*
X0567422Y0342025D01*
X0567329Y0342108D01*
X0567238Y0342194D01*
X0567151Y0342283D01*
X0567066Y0342375D01*
X0566984Y0342469D01*
X0566905Y0342566D01*
X0566830Y0342666D01*
X0566757Y0342767D01*
X0566688Y0342871D01*
X0566622Y0342978D01*
X0566560Y0343086D01*
X0566501Y0343196D01*
X0566445Y0343308D01*
X0566393Y0343422D01*
X0566345Y0343537D01*
X0566300Y0343653D01*
X0566260Y0343772D01*
X0566222Y0343891D01*
X0566189Y0344011D01*
X0566160Y0344133D01*
X0566134Y0344255D01*
X0566112Y0344378D01*
X0566095Y0344502D01*
X0566081Y0344626D01*
X0566071Y0344750D01*
X0566065Y0344875D01*
X0566063Y0345000D01*
X0566063Y-0045000D02*
X0566065Y-0044875D01*
X0566071Y-0044750D01*
X0566081Y-0044626D01*
X0566095Y-0044502D01*
X0566112Y-0044378D01*
X0566134Y-0044255D01*
X0566160Y-0044133D01*
X0566189Y-0044011D01*
X0566222Y-0043891D01*
X0566260Y-0043772D01*
X0566300Y-0043653D01*
X0566345Y-0043537D01*
X0566393Y-0043422D01*
X0566445Y-0043308D01*
X0566501Y-0043196D01*
X0566560Y-0043086D01*
X0566622Y-0042978D01*
X0566688Y-0042871D01*
X0566757Y-0042767D01*
X0566830Y-0042666D01*
X0566905Y-0042566D01*
X0566984Y-0042469D01*
X0567066Y-0042375D01*
X0567151Y-0042283D01*
X0567238Y-0042194D01*
X0567329Y-0042108D01*
X0567422Y-0042025D01*
X0567518Y-0041944D01*
X0567616Y-0041867D01*
X0567716Y-0041793D01*
X0567819Y-0041722D01*
X0567924Y-0041655D01*
X0568032Y-0041590D01*
X0568141Y-0041530D01*
X0568252Y-0041472D01*
X0568365Y-0041419D01*
X0568479Y-0041369D01*
X0568595Y-0041322D01*
X0568712Y-0041280D01*
X0568831Y-0041241D01*
X0568951Y-0041205D01*
X0569072Y-0041174D01*
X0569194Y-0041146D01*
X0569316Y-0041123D01*
X0569440Y-0041103D01*
X0569564Y-0041087D01*
X0569688Y-0041075D01*
X0569813Y-0041067D01*
X0569938Y-0041063D01*
X0570062Y-0041063D01*
X0570187Y-0041067D01*
X0570312Y-0041075D01*
X0570436Y-0041087D01*
X0570560Y-0041103D01*
X0570684Y-0041123D01*
X0570806Y-0041146D01*
X0570928Y-0041174D01*
X0571049Y-0041205D01*
X0571169Y-0041241D01*
X0571288Y-0041280D01*
X0571405Y-0041322D01*
X0571521Y-0041369D01*
X0571635Y-0041419D01*
X0571748Y-0041472D01*
X0571859Y-0041530D01*
X0571969Y-0041590D01*
X0572076Y-0041655D01*
X0572181Y-0041722D01*
X0572284Y-0041793D01*
X0572384Y-0041867D01*
X0572482Y-0041944D01*
X0572578Y-0042025D01*
X0572671Y-0042108D01*
X0572762Y-0042194D01*
X0572849Y-0042283D01*
X0572934Y-0042375D01*
X0573016Y-0042469D01*
X0573095Y-0042566D01*
X0573170Y-0042666D01*
X0573243Y-0042767D01*
X0573312Y-0042871D01*
X0573378Y-0042978D01*
X0573440Y-0043086D01*
X0573499Y-0043196D01*
X0573555Y-0043308D01*
X0573607Y-0043422D01*
X0573655Y-0043537D01*
X0573700Y-0043653D01*
X0573740Y-0043772D01*
X0573778Y-0043891D01*
X0573811Y-0044011D01*
X0573840Y-0044133D01*
X0573866Y-0044255D01*
X0573888Y-0044378D01*
X0573905Y-0044502D01*
X0573919Y-0044626D01*
X0573929Y-0044750D01*
X0573935Y-0044875D01*
X0573937Y-0045000D01*
X0573935Y-0045125D01*
X0573929Y-0045250D01*
X0573919Y-0045374D01*
X0573905Y-0045498D01*
X0573888Y-0045622D01*
X0573866Y-0045745D01*
X0573840Y-0045867D01*
X0573811Y-0045989D01*
X0573778Y-0046109D01*
X0573740Y-0046228D01*
X0573700Y-0046347D01*
X0573655Y-0046463D01*
X0573607Y-0046578D01*
X0573555Y-0046692D01*
X0573499Y-0046804D01*
X0573440Y-0046914D01*
X0573378Y-0047022D01*
X0573312Y-0047129D01*
X0573243Y-0047233D01*
X0573170Y-0047334D01*
X0573095Y-0047434D01*
X0573016Y-0047531D01*
X0572934Y-0047625D01*
X0572849Y-0047717D01*
X0572762Y-0047806D01*
X0572671Y-0047892D01*
X0572578Y-0047975D01*
X0572482Y-0048056D01*
X0572384Y-0048133D01*
X0572284Y-0048207D01*
X0572181Y-0048278D01*
X0572076Y-0048345D01*
X0571968Y-0048410D01*
X0571859Y-0048470D01*
X0571748Y-0048528D01*
X0571635Y-0048581D01*
X0571521Y-0048631D01*
X0571405Y-0048678D01*
X0571288Y-0048720D01*
X0571169Y-0048759D01*
X0571049Y-0048795D01*
X0570928Y-0048826D01*
X0570806Y-0048854D01*
X0570684Y-0048877D01*
X0570560Y-0048897D01*
X0570436Y-0048913D01*
X0570312Y-0048925D01*
X0570187Y-0048933D01*
X0570062Y-0048937D01*
X0569938Y-0048937D01*
X0569813Y-0048933D01*
X0569688Y-0048925D01*
X0569564Y-0048913D01*
X0569440Y-0048897D01*
X0569316Y-0048877D01*
X0569194Y-0048854D01*
X0569072Y-0048826D01*
X0568951Y-0048795D01*
X0568831Y-0048759D01*
X0568712Y-0048720D01*
X0568595Y-0048678D01*
X0568479Y-0048631D01*
X0568365Y-0048581D01*
X0568252Y-0048528D01*
X0568141Y-0048470D01*
X0568031Y-0048410D01*
X0567924Y-0048345D01*
X0567819Y-0048278D01*
X0567716Y-0048207D01*
X0567616Y-0048133D01*
X0567518Y-0048056D01*
X0567422Y-0047975D01*
X0567329Y-0047892D01*
X0567238Y-0047806D01*
X0567151Y-0047717D01*
X0567066Y-0047625D01*
X0566984Y-0047531D01*
X0566905Y-0047434D01*
X0566830Y-0047334D01*
X0566757Y-0047233D01*
X0566688Y-0047129D01*
X0566622Y-0047022D01*
X0566560Y-0046914D01*
X0566501Y-0046804D01*
X0566445Y-0046692D01*
X0566393Y-0046578D01*
X0566345Y-0046463D01*
X0566300Y-0046347D01*
X0566260Y-0046228D01*
X0566222Y-0046109D01*
X0566189Y-0045989D01*
X0566160Y-0045867D01*
X0566134Y-0045745D01*
X0566112Y-0045622D01*
X0566095Y-0045498D01*
X0566081Y-0045374D01*
X0566071Y-0045250D01*
X0566065Y-0045125D01*
X0566063Y-0045000D01*
D11*
X-0020000Y0065000D02*
X-0020000Y0275000D01*
X0380000Y0275000D01*
X0380000Y0065000D01*
X-0020000Y0065000D01*
M02*
